<svg 
 xmlns="http://www.w3.org/2000/svg"
 xmlns:xlink="http://www.w3.org/1999/xlink"
 width="1355px" height="1359px">
<path fill-rule="evenodd"  fill="rgb(17, 7, 8)"
 d="M1328.944,642.429 C1326.339,644.811 1310.488,662.941 1307.982,665.823 L1302.683,661.363 C1303.648,660.587 1324.711,637.692 1327.987,634.406 C1329.206,635.563 1350.638,654.977 1352.600,656.525 L1348.91,660.962 C1345.349,658.377 1332.969,646.23 1328.944,642.429 ZM1323.789,634.138 C1318.254,634.451 1302.164,635.576 1300.806,635.796 L1300.400,628.608 C1302.493,628.634 1314.654,628.164 1322.849,627.701 L1330.468,627.271 C1336.722,626.918 1350.504,625.779 1352.157,625.686 L1352.563,632.874 C1351.409,632.867 1337.806,633.347 1331.552,633.700 L1323.789,634.138 ZM1278.582,591.208 L1349.871,581.91 L1350.620,586.367 L1279.331,596.483 L1278.582,591.208 ZM1332.995,534.797 L1315.116,538.646 C1315.389,539.913 1317.681,548.847 1318.845,552.205 L1313.330,553.613 C1312.997,552.65 1310.915,541.23 1310.612,539.615 L1293.437,543.313 C1293.800,545.2 1295.620,554.479 1297.284,560.160 L1291.291,561.745 C1291.49,560.619 1287.192,539.280 1286.889,537.873 C1290.665,537.281 1305.729,534.38 1307.347,533.690 L1316.780,531.659 C1317.906,531.417 1334.839,527.624 1336.161,527.266 C1336.525,528.955 1341.535,547.100 1342.302,549.291 L1336.802,550.770 C1336.317,548.518 1333.238,535.923 1332.995,534.797 ZM1303.339,494.743 C1301.347,497.658 1290.63,518.931 1288.283,522.309 L1282.104,519.179 C1282.867,518.203 1298.135,491.100 1300.573,487.153 C1302.24,488.0 1327.325,501.999 1329.589,503.57 L1326.215,508.407 C1322.954,506.517 1308.79,497.322 1303.339,494.743 ZM1296.425,487.852 C1291.109,489.421 1275.704,494.195 1274.432,494.720 L1272.394,487.816 C1274.437,487.363 1286.167,484.125 1294.38,481.801 L1301.357,479.640 C1307.364,477.866 1320.519,473.607 1322.107,473.138 L1324.145,480.43 C1323.20,480.300 1309.889,483.877 1303.882,485.650 L1296.425,487.852 ZM1242.567,456.415 L1309.629,430.200 L1311.569,435.163 L1244.507,461.378 L1242.567,456.415 ZM1243.411,412.263 C1240.824,406.789 1235.580,396.938 1229.897,386.261 C1225.436,378.33 1220.831,369.229 1216.645,361.671 L1216.801,361.506 C1224.56,361.804 1265.242,361.494 1276.11,361.960 L1276.79,362.87 C1270.392,371.476 1247.975,404.288 1243.636,412.225 L1243.411,412.263 ZM1265.999,367.208 C1259.685,367.143 1227.583,367.511 1226.262,367.480 C1227.179,369.357 1230.875,376.606 1234.697,383.788 C1238.490,391.67 1242.508,398.308 1243.747,400.176 C1244.519,398.868 1262.586,372.287 1265.999,367.208 ZM1224.941,324.801 C1223.864,328.163 1219.119,351.774 1218.377,355.520 L1211.561,354.283 C1212.14,353.130 1218.914,322.794 1220.123,318.315 C1221.756,318.713 1250.3,324.910 1252.475,325.278 L1250.768,331.369 C1247.103,330.488 1230.221,325.920 1224.941,324.801 ZM1216.348,320.168 C1211.699,323.190 1198.296,332.162 1197.227,333.29 L1193.303,326.992 C1195.132,325.975 1205.451,319.524 1212.333,315.50 L1218.731,310.890 C1223.983,307.475 1235.376,299.638 1236.765,298.736 L1240.689,304.772 C1239.684,305.339 1228.118,312.515 1222.867,315.930 L1216.348,320.168 ZM1155.773,305.379 L1212.596,261.174 L1215.868,265.379 L1159.44,309.584 L1155.773,305.379 ZM1174.827,229.254 L1161.277,241.536 C1155.196,247.49 1144.149,257.160 1141.291,260.333 L1136.456,254.998 C1139.428,252.596 1150.844,242.248 1152.71,241.135 L1159.219,234.656 C1160.72,233.882 1172.832,222.122 1173.797,221.150 C1174.958,222.430 1188.378,235.628 1190.139,237.141 L1186.118,241.175 C1184.571,239.468 1175.601,230.108 1174.827,229.254 ZM1129.397,209.367 C1129.113,212.887 1129.858,236.959 1129.987,240.775 L1123.68,241.120 C1123.247,239.894 1123.71,208.783 1123.231,204.146 C1124.912,204.162 1153.829,203.777 1156.320,203.573 L1156.41,209.893 C1152.272,209.868 1134.793,209.257 1129.397,209.367 ZM1125.360,201.200 L1119.975,206.809 C1116.135,210.809 1105.121,222.593 1104.278,223.680 L1099.83,218.693 C1100.634,217.286 1109.217,208.658 1114.901,202.737 L1120.187,197.231 C1124.525,192.712 1133.840,182.490 1134.987,181.296 L1140.181,186.282 C1139.331,187.63 1129.699,196.681 1125.360,201.200 ZM1057.604,206.151 L1102.907,150.197 L1107.48,153.549 L1061.745,209.503 L1057.604,206.151 ZM1057.567,148.578 L1057.484,148.696 C1061.89,152.205 1063.987,159.91 1060.254,164.388 C1055.319,171.392 1041.663,171.897 1027.496,162.2 L1027.26,161.671 C1029.601,158.641 1042.126,140.868 1042.914,139.749 L1047.517,133.217 C1048.762,131.451 1055.611,121.481 1056.306,120.120 C1059.425,122.318 1062.91,124.285 1064.179,126.197 C1075.362,135.575 1073.775,141.327 1071.452,144.623 C1069.876,146.859 1065.838,150.90 1057.567,148.578 ZM1046.565,145.317 L1035.367,161.207 C1042.239,165.81 1050.222,166.126 1054.120,160.594 C1057.23,156.474 1054.229,150.190 1046.565,145.317 ZM1059.7,127.661 L1048.929,141.962 C1055.527,146.348 1062.602,145.432 1065.381,141.489 C1069.114,136.192 1062.985,130.640 1059.7,127.661 ZM1017.800,149.90 L1011.141,150.999 C1011.36,149.765 1003.788,119.510 1002.889,114.958 C1004.530,114.592 1032.601,107.639 1034.980,106.874 L1036.146,113.92 C1032.471,113.925 1015.311,117.305 1010.82,118.639 C1010.605,122.131 1016.806,145.402 1017.800,149.90 ZM1000.325,118.292 C997.496,123.60 989.451,137.40 988.877,138.290 L982.685,134.616 C983.874,132.893 990.270,122.539 994.458,115.480 L998.353,108.917 C1001.550,103.530 1008.295,91.457 1009.140,90.33 L1015.332,93.708 C1014.682,94.661 1007.490,106.217 1004.293,111.604 L1000.325,118.292 ZM939.481,131.884 L970.823,67.65 L975.620,69.384 L944.278,134.203 L939.481,131.884 ZM973.294,1291.437 L968.488,1293.738 L937.391,1228.796 L942.197,1226.495 L973.294,1291.437 ZM899.649,76.652 L875.714,69.408 C874.449,70.417 864.312,81.609 862.353,83.520 L858.3,78.46 C864.12,72.815 897.20,40.980 899.550,38.962 L899.686,39.9 C902.318,50.747 907.786,87.24 909.955,95.705 L902.851,97.506 C902.388,94.449 900.20,78.0 899.649,76.652 ZM895.726,49.754 C894.186,50.896 880.576,64.846 879.586,65.721 L899.120,71.590 C898.892,69.833 896.28,51.79 895.726,49.754 ZM853.124,74.354 L847.288,78.86 C846.835,76.933 831.243,50.10 829.81,45.905 C830.549,45.85 855.462,30.400 857.524,28.987 L860.419,34.613 C857.134,36.461 841.656,44.605 837.26,47.378 C838.525,50.575 851.118,71.104 853.124,74.354 ZM827.576,49.833 C826.227,55.211 822.513,70.907 822.320,72.269 L815.336,70.517 C815.984,68.527 819.154,56.777 821.150,48.815 L823.7,41.412 C824.531,35.336 827.545,21.839 827.948,20.233 L834.932,21.985 C834.582,23.85 830.992,36.214 829.468,42.290 L827.576,49.833 ZM833.343,1340.991 L828.150,1342.185 L812.6,1272.10 L817.199,1270.815 L833.343,1340.991 ZM773.128,80.246 L784.633,9.171 L789.893,10.22 L778.388,81.98 L773.128,80.246 ZM780.554,1299.482 C777.444,1306.816 761.718,1349.886 760.328,1352.808 L760.185,1352.825 C752.678,1343.427 731.875,1313.215 726.124,1306.363 L731.721,1301.632 C733.476,1304.177 742.808,1317.924 743.731,1318.974 L768.418,1315.3 C769.113,1313.542 773.323,1299.43 774.247,1296.467 L780.554,1299.482 ZM746.424,1323.292 C747.399,1324.771 758.186,1340.375 759.38,1341.433 C759.922,1339.732 766.46,1321.233 766.552,1320.12 L746.424,1323.292 ZM746.421,53.379 L741.315,58.61 C740.671,57.3 720.679,33.167 717.842,29.495 C719.147,28.435 741.160,9.682 742.947,7.936 L746.767,12.979 C743.850,15.365 730.5,26.50 725.921,29.579 C727.949,32.470 743.886,50.524 746.421,53.379 ZM717.36,33.624 C716.633,39.153 715.676,55.253 715.720,56.628 L708.540,56.105 C708.835,54.33 709.935,41.913 710.532,33.727 L711.86,26.115 C711.542,19.868 712.187,6.55 712.308,4.403 L719.489,4.927 C719.333,6.70 718.57,19.621 717.601,25.868 L717.36,33.624 ZM697.835,1286.533 L703.159,1286.339 L705.783,1358.284 L700.460,1358.478 L697.835,1286.533 ZM667.527,0.931 L672.855,0.846 L674.14,72.837 L668.687,72.922 L667.527,0.931 ZM661.816,1339.390 C661.725,1341.548 661.356,1353.638 661.508,1355.158 C657.695,1354.996 654.390,1354.784 651.600,1354.305 C637.122,1352.466 635.346,1346.770 635.517,1342.742 C635.633,1340.9 637.282,1335.106 645.56,1331.905 L645.62,1331.761 C640.132,1330.760 633.970,1326.535 634.245,1320.61 C634.608,1311.502 645.821,1303.690 663.87,1304.351 L663.662,1304.375 C663.135,1308.316 662.213,1330.39 662.155,1331.406 L661.816,1339.390 ZM642.318,1342.94 C642.43,1348.567 650.200,1349.922 655.157,1350.277 L655.899,1332.798 C647.978,1332.678 642.522,1337.274 642.318,1342.94 ZM641.456,1319.935 C641.243,1324.970 646.991,1328.745 656.73,1328.698 L656.897,1309.277 C649.23,1309.735 641.743,1313.174 641.456,1319.935 ZM630.10,39.777 L629.272,32.325 L597.449,36.851 L597.903,41.437 C598.222,44.662 599.743,57.825 599.977,59.466 L593.27,60.154 C592.858,56.987 591.269,40.213 591.85,38.350 L590.319,30.611 C590.198,29.393 588.230,11.715 587.917,10.10 L595.82,9.300 C595.67,10.604 596.299,25.243 596.427,26.533 L596.980,32.122 L628.804,27.596 L628.236,21.864 C628.116,20.645 626.695,7.762 626.396,6.200 L633.705,5.476 C633.660,7.217 635.217,26.599 635.388,28.319 L636.97,35.484 C636.189,36.416 638.107,54.316 638.385,55.663 L631.219,56.372 C631.193,53.915 630.145,41.139 630.10,39.777 ZM598.470,1281.689 L588.826,1353.39 L583.546,1352.325 L593.190,1280.975 L598.470,1281.689 ZM561.758,43.367 L560.408,35.709 C560.195,34.503 556.896,17.27 556.454,15.350 L563.545,14.100 C563.628,15.401 565.315,26.217 566.815,34.726 L568.164,42.384 C569.414,49.475 571.864,62.130 572.222,63.748 L565.344,64.960 C564.936,61.815 562.83,45.210 561.758,43.367 ZM549.794,1322.872 C549.558,1324.0 546.147,1341.15 545.937,1342.369 C544.245,1342.15 525.629,1339.225 523.315,1339.35 L524.197,1333.409 C526.453,1333.880 539.213,1336.181 540.340,1336.417 L544.84,1318.515 C545.765,1310.480 548.760,1295.805 549.207,1291.559 L556.255,1293.33 C555.262,1296.724 552.108,1311.807 551.769,1313.428 L549.794,1322.872 ZM513.60,21.18 L518.235,19.748 L535.401,89.679 L530.226,90.949 L513.60,21.18 ZM529.828,1268.639 L512.6,1338.402 L506.843,1337.83 L524.665,1267.320 L529.828,1268.639 ZM452.360,1318.456 L452.225,1318.408 C450.74,1307.643 444.432,1268.302 442.268,1259.518 L442.408,1259.338 C448.14,1261.626 458.537,1265.346 469.942,1269.379 C478.791,1272.431 488.135,1275.811 496.329,1278.556 L496.325,1278.783 C490.775,1283.465 460.616,1311.523 452.360,1318.456 ZM468.73,1274.446 C460.358,1271.642 452.504,1269.18 450.327,1268.477 C450.642,1269.963 455.281,1301.770 456.197,1307.822 C460.896,1303.603 484.317,1281.640 485.312,1280.770 C483.368,1280.6 475.745,1277.158 468.73,1274.446 ZM474.273,86.961 C474.677,88.116 475.623,90.608 476.451,92.759 L470.197,94.944 C469.458,92.609 469.0,90.862 468.406,89.162 C456.633,92.359 443.478,88.106 439.110,75.598 C434.5,60.983 442.53,48.867 452.638,43.797 C452.238,42.869 451.457,40.854 450.653,38.770 L456.907,36.586 C457.623,38.853 458.128,40.736 458.413,41.551 C469.139,38.415 483.246,42.335 487.876,55.591 C492.387,68.507 487.118,80.720 474.273,86.961 ZM454.300,48.556 C446.621,52.992 441.463,61.810 445.381,73.26 C449.85,83.631 458.523,85.979 466.721,84.336 C465.195,79.530 462.111,70.920 461.803,70.37 L459.238,62.695 C458.764,61.335 456.101,53.494 454.300,48.556 ZM481.628,58.231 C477.497,46.403 467.657,44.653 460.54,46.469 C461.221,50.28 463.924,57.550 465.64,60.813 L467.628,68.155 C468.530,70.738 471.332,78.759 472.611,82.202 C479.705,78.275 486.20,70.807 481.628,58.231 ZM419.453,86.687 L416.378,79.545 C415.894,78.421 408.663,62.171 407.848,60.641 L414.461,57.794 C414.841,59.41 418.970,69.179 422.387,77.114 L425.462,84.257 C428.310,90.870 433.604,102.622 434.326,104.115 L427.911,106.876 C426.790,103.910 420.194,88.406 419.453,86.687 ZM366.914,76.150 L371.658,73.724 L404.434,137.826 L399.690,140.252 L366.914,76.150 ZM376.897,1251.472 L372.264,1259.935 C371.711,1260.946 363.504,1276.236 362.910,1277.470 C361.395,1276.640 344.392,1268.563 342.233,1267.709 L344.712,1262.582 C346.733,1263.688 358.274,1269.596 359.284,1270.149 L368.67,1254.108 C366.930,1253.485 358.673,1249.375 355.371,1248.60 L357.913,1242.967 C359.302,1243.728 369.16,1249.374 370.280,1250.66 L378.716,1234.656 C377.200,1233.826 368.841,1229.3 363.455,1226.547 L366.176,1220.977 C367.186,1221.530 385.851,1232.569 387.114,1233.261 C385.92,1236.504 377.692,1250.20 376.897,1251.472 ZM320.270,166.652 C321.265,162.231 322.724,113.663 322.881,110.729 C320.525,112.257 299.754,124.952 298.2,126.88 L295.267,121.341 C299.429,119.157 328.164,102.70 329.734,101.51 L329.813,101.172 C328.992,105.994 327.485,155.281 327.429,156.519 C330.691,154.403 350.690,141.179 352.225,139.840 L355.234,145.11 C353.724,145.990 323.490,164.736 320.349,166.773 L320.270,166.652 ZM309.361,175.72 L303.747,179.226 C301.979,176.594 292.14,163.8 290.900,161.503 L286.274,155.253 C285.546,154.269 274.793,140.102 273.650,138.798 L279.437,134.515 C280.93,135.643 286.429,144.568 291.569,151.514 L296.195,157.764 C300.478,163.552 308.318,173.783 309.361,175.72 ZM283.911,218.149 L237.371,163.202 L241.437,159.758 L287.977,214.705 L283.911,218.149 ZM242.797,200.231 C241.642,201.315 233.256,208.794 232.207,209.780 L244.232,222.587 C245.492,221.404 252.674,214.958 256.682,210.601 L261.131,214.918 C260.291,215.707 243.999,230.17 242.949,231.3 C240.494,228.73 229.947,216.840 228.813,215.633 L222.209,208.599 C221.420,207.759 209.437,195.207 208.449,194.259 C209.708,193.77 222.669,179.426 224.152,177.638 L228.255,181.588 C226.575,183.165 217.374,192.299 216.534,193.88 L229.52,206.420 C229.997,205.533 236.469,198.962 238.746,196.232 L242.797,200.231 ZM228.99,245.991 L223.278,251.46 C221.84,248.755 208.941,237.73 207.586,235.781 L201.958,230.414 C201.72,229.569 188.52,217.450 186.702,216.361 L191.672,211.150 C192.511,212.149 200.282,219.860 206.535,225.823 L212.163,231.191 C217.374,236.161 226.850,244.900 228.99,245.991 ZM210.389,292.778 L155.153,246.605 L158.569,242.518 L213.806,288.691 L210.389,292.778 ZM178.105,304.21 C174.455,308.853 168.159,318.67 161.335,328.54 C156.114,335.823 150.449,343.986 145.694,351.201 L145.475,351.139 C142.374,344.573 122.998,308.226 118.416,298.468 L118.498,298.349 C129.454,299.33 168.922,303.677 177.967,303.840 L178.105,304.21 ZM127.709,304.905 C130.581,310.529 145.795,338.801 146.381,339.986 C147.618,338.302 152.327,331.666 156.917,324.948 C161.607,318.212 166.159,311.294 167.240,309.329 C165.723,309.252 133.792,305.573 127.709,304.905 ZM140.827,360.151 L137.283,366.169 C134.626,364.438 120.145,355.828 118.532,354.878 L111.831,350.933 C110.777,350.312 95.343,341.475 93.781,340.723 L97.433,334.519 C98.477,335.300 107.798,341.39 115.243,345.422 L121.944,349.368 C128.148,353.20 139.363,359.373 140.827,360.151 ZM134.250,409.732 L69.935,377.368 L72.329,372.609 L136.645,404.973 L134.250,409.732 ZM79.134,420.553 C86.663,423.821 100.428,429.719 104.496,431.14 L101.629,437.618 C98.215,435.900 84.83,429.765 82.564,429.105 L73.714,425.263 C72.658,424.805 56.685,418.27 55.401,417.548 C56.89,415.963 62.582,398.297 63.235,396.69 L68.567,398.70 C67.650,400.183 62.819,412.213 62.360,413.270 L79.134,420.553 ZM73.341,449.861 C80.83,452.388 92.225,456.708 93.801,457.222 L91.350,463.761 C88.434,462.515 72.685,456.534 70.932,455.877 L63.652,453.148 C62.506,452.719 45.779,446.680 44.110,446.208 L46.637,439.467 C47.800,440.57 57.971,444.100 66.61,447.132 L73.341,449.861 ZM95.892,507.202 L26.937,486.466 L28.472,481.363 L97.427,502.100 L95.892,507.202 ZM37.347,553.454 L37.488,553.481 C39.187,548.745 44.252,543.252 50.620,544.453 C59.39,546.40 65.162,558.257 62.33,575.252 L61.926,575.818 C58.101,574.731 36.733,570.703 35.389,570.450 L27.535,568.969 C25.412,568.569 13.499,566.470 11.973,566.402 C12.680,562.652 13.364,559.411 14.238,556.718 C18.135,542.653 24.27,541.712 27.989,542.458 C30.678,542.965 35.293,545.301 37.347,553.454 ZM58.45,568.419 C58.720,560.560 56.361,552.862 49.711,551.608 C44.758,550.675 40.197,555.823 38.941,564.818 L58.45,568.419 ZM17.715,560.817 L34.908,564.58 C36.163,556.235 32.396,550.176 27.655,549.283 C21.287,548.83 18.776,555.962 17.715,560.817 ZM36.892,594.31 C44.34,594.942 56.847,596.358 58.499,596.496 L57.615,603.424 C54.491,602.881 37.786,600.678 35.929,600.441 L28.215,599.457 C27.1,599.302 9.331,597.266 7.599,597.191 L8.510,590.48 C9.777,590.355 20.607,591.954 29.178,593.47 L36.892,594.31 ZM71.996,644.674 L0.127,640.264 L0.453,634.946 L72.322,639.356 L71.996,644.674 ZM53.931,680.79 C51.245,681.611 36.754,689.743 35.629,690.574 L37.489,715.510 C38.886,716.326 52.976,721.753 55.464,722.893 L51.924,728.921 C44.880,725.199 3.299,705.870 0.506,704.236 L0.501,704.93 C10.503,697.411 42.375,679.249 49.692,674.100 L53.931,680.79 ZM31.98,692.890 C29.542,693.735 13.77,703.159 11.950,703.918 C13.570,704.943 31.483,712.617 32.656,713.225 L31.98,692.890 ZM34.263,742.656 C41.426,741.930 54.225,740.415 55.865,740.176 L56.570,747.124 C53.404,747.300 36.636,748.928 34.774,749.117 L27.38,749.901 C25.821,750.25 8.151,752.34 6.447,752.351 L5.720,745.189 C7.24,745.201 17.933,744.312 26.528,743.440 L34.263,742.656 ZM79.897,784.27 L8.898,795.990 L8.13,790.736 L79.12,778.773 L79.897,784.27 ZM45.658,816.229 C52.690,814.681 65.229,811.701 66.831,811.275 L68.332,818.95 C65.207,818.635 48.739,822.185 46.910,822.588 L39.317,824.259 C38.121,824.522 20.801,828.554 19.144,829.66 L17.597,822.35 C18.893,821.897 29.627,819.756 38.65,817.900 L45.658,816.229 ZM95.774,852.89 L26.636,872.185 L25.149,867.69 L94.287,846.973 L95.774,852.89 ZM59.145,887.315 C69.640,883.316 88.116,884.288 95.396,903.395 C100.984,918.61 93.802,930.351 81.962,934.863 C67.27,940.553 50.892,934.605 44.714,918.392 C39.869,905.677 44.613,892.852 59.145,887.315 ZM50.52,917.437 C54.640,929.479 66.988,933.172 78.492,928.789 C88.516,924.969 94.211,915.249 90.187,904.686 C86.342,894.595 75.221,888.662 61.968,893.712 C49.925,898.301 46.693,908.624 50.52,917.437 ZM77.793,920.888 L72.891,922.987 C71.10,917.849 65.76,904.701 63.288,901.222 L68.113,898.921 C70.776,905.303 75.595,916.333 77.793,920.888 ZM134.71,949.593 L69.450,981.346 L67.101,976.564 L131.722,944.811 L134.71,949.593 ZM110.395,987.911 C111.201,987.435 126.631,978.164 127.736,977.344 L131.395,983.546 C129.177,984.604 118.29,990.931 116.851,991.626 L110.402,995.431 L127.899,1022.394 L131.868,1020.52 C134.659,1018.405 145.959,1011.486 147.349,1010.583 L150.898,1016.598 C148.96,1018.84 133.549,1026.584 131.937,1027.535 L125.239,1031.487 C124.185,1032.109 108.978,1041.333 107.563,1042.335 L103.904,1036.134 C105.93,1035.600 117.854,1028.321 118.970,1027.663 L123.807,1024.808 L106.309,997.846 L101.348,1000.774 C100.294,1001.396 89.205,1008.106 87.914,1009.35 L84.182,1002.710 C85.780,1002.18 102.706,992.448 104.194,991.570 L110.395,987.911 ZM188.607,1039.9 L130.410,1081.413 L127.272,1077.106 L185.469,1034.702 L188.607,1039.9 ZM166.283,1084.534 C176.659,1075.619 189.951,1076.64 200.450,1085.743 C201.379,1084.946 203.353,1083.155 205.53,1081.599 L209.370,1086.623 C207.466,1088.164 206.7,1089.228 204.642,1090.401 C211.916,1100.193 212.760,1113.991 202.712,1122.625 C190.970,1132.713 176.753,1129.645 168.169,1121.642 C167.452,1122.354 165.860,1123.816 164.214,1125.325 L159.897,1120.301 C161.746,1118.807 163.315,1117.649 163.970,1117.86 C157.134,1108.246 155.633,1093.683 166.283,1084.534 ZM198.28,1117.726 C206.547,1110.406 205.286,1100.763 200.764,1093.732 C196.848,1096.907 189.959,1102.921 189.249,1103.531 L183.351,1108.598 C182.259,1109.537 175.932,1114.878 171.992,1118.358 C178.925,1123.886 189.17,1125.468 198.28,1117.726 ZM167.949,1113.763 C170.836,1111.377 176.851,1106.114 179.472,1103.862 L185.370,1098.795 C187.445,1097.12 193.889,1091.475 196.628,1089.28 C190.382,1083.857 181.124,1080.705 171.21,1089.386 C161.519,1097.550 163.482,1107.349 167.949,1113.763 ZM257.688,1117.789 L207.609,1169.516 L203.781,1165.811 L253.861,1114.83 L257.688,1117.789 ZM290.94,1176.80 C287.71,1173.635 268.292,1158.727 266.544,1157.684 L270.525,1153.218 C271.925,1154.350 299.128,1177.274 302.40,1179.628 L301.949,1179.740 C297.438,1180.166 250.813,1193.853 247.976,1194.614 C250.159,1196.380 268.674,1212.186 270.298,1213.499 L266.633,1217.572 C263.266,1214.294 238.104,1192.280 236.648,1191.102 L236.739,1190.990 C241.578,1190.274 288.900,1176.411 290.94,1176.80 ZM339.223,1183.591 L298.726,1243.131 L294.320,1240.134 L334.817,1180.594 L339.223,1183.591 ZM430.836,1234.421 L401.203,1300.34 L396.348,1297.841 L425.981,1232.228 L430.836,1234.421 ZM974.453,1229.226 C975.974,1230.254 1013.742,1253.686 1014.946,1254.316 C1014.869,1252.191 1011.788,1210.766 1011.501,1207.429 L1018.368,1207.327 C1018.447,1215.292 1021.196,1261.419 1020.964,1264.726 L1020.840,1264.799 C1010.390,1259.72 979.113,1239.598 971.103,1235.613 L974.453,1229.226 ZM1073.994,1231.482 L1069.655,1234.576 L1027.846,1175.952 L1032.185,1172.858 L1073.994,1231.482 ZM1096.603,1142.406 C1108.266,1131.901 1122.320,1134.164 1130.801,1143.580 C1141.499,1155.456 1141.773,1172.651 1128.880,1184.264 C1118.770,1193.372 1105.96,1193.575 1094.687,1182.20 C1087.170,1173.674 1081.410,1156.91 1096.603,1142.406 ZM1099.636,1177.78 C1108.261,1186.654 1119.55,1185.943 1126.63,1179.631 C1135.640,1171.5 1134.628,1158.156 1126.388,1149.8 C1119.208,1141.37 1108.87,1139.233 1099.687,1146.798 C1091.663,1154.26 1090.143,1166.539 1099.636,1177.78 ZM1119.272,1152.511 L1122.998,1156.325 C1118.884,1159.934 1108.763,1170.214 1106.163,1173.137 L1102.276,1169.467 C1107.268,1164.680 1115.816,1156.205 1119.272,1152.511 ZM1124.171,1124.819 L1123.717,1117.906 C1124.946,1118.66 1156.50,1117.400 1160.690,1117.487 C1160.699,1119.168 1161.540,1148.75 1161.783,1150.563 L1155.459,1150.384 C1155.425,1146.615 1155.761,1129.128 1155.566,1123.735 C1152.42,1123.506 1127.985,1124.630 1124.171,1124.819 ZM1140.860,1098.844 L1145.764,1093.572 C1147.195,1095.100 1155.957,1103.546 1161.967,1109.137 L1167.555,1114.335 C1172.142,1118.602 1182.509,1127.754 1183.722,1128.882 L1178.818,1134.154 C1178.23,1133.317 1168.255,1123.837 1163.669,1119.570 L1157.975,1114.274 C1153.916,1110.498 1141.960,1099.670 1140.860,1098.844 ZM1157.638,1051.915 L1214.309,1096.333 L1211.22,1100.527 L1154.351,1056.109 L1157.638,1051.915 ZM1196.860,1029.141 L1200.666,1023.30 C1202.630,1024.507 1213.393,1031.464 1214.554,1032.187 L1220.910,1036.145 L1236.722,1008.166 L1232.811,1005.731 C1230.61,1004.18 1218.702,997.199 1217.258,996.385 L1220.949,990.458 C1223.562,992.254 1237.824,1001.220 1239.413,1002.210 L1246.13,1006.320 C1247.52,1006.967 1262.261,1016.183 1263.804,1016.974 L1259.998,1023.85 C1258.974,1022.278 1246.622,1014.331 1245.522,1013.646 L1240.755,1010.678 L1224.943,1038.657 L1229.832,1041.701 C1230.871,1042.348 1241.947,1049.76 1243.368,1049.791 L1239.486,1056.24 C1238.134,1054.928 1221.824,1044.347 1220.357,1043.434 L1214.246,1039.628 C1213.452,1039.134 1198.98,1029.742 1196.860,1029.141 ZM1232.284,979.826 L1229.891,973.325 C1231.114,973.130 1260.753,963.677 1265.227,962.446 C1265.712,964.55 1274.711,991.538 1275.648,993.855 L1269.533,995.475 C1268.433,991.871 1263.799,975.6 1262.84,969.890 C1258.640,970.668 1235.889,978.564 1232.284,979.826 ZM1261.713,960.134 C1256.750,957.663 1242.217,950.668 1240.928,950.188 L1244.137,943.742 C1245.942,944.802 1256.738,950.418 1264.85,954.76 L1270.917,957.478 C1276.525,960.270 1289.61,966.109 1290.543,966.847 L1287.334,973.292 C1286.335,972.714 1274.281,966.391 1268.674,963.600 L1261.713,960.134 ZM1243.677,900.451 L1310.633,926.926 L1308.674,931.880 L1241.718,905.406 L1243.677,900.451 ZM1294.41,895.77 C1280.954,891.93 1274.208,879.632 1276.753,865.581 C1275.583,865.225 1273.13,864.518 1270.788,863.916 L1272.717,857.579 C1275.38,858.361 1276.718,859.23 1278.440,859.547 C1282.810,848.158 1294.7,840.52 1306.681,843.909 C1321.489,848.417 1326.517,862.64 1324.361,873.600 C1325.346,873.824 1327.433,874.385 1329.589,874.966 L1327.660,881.302 C1325.408,880.541 1323.591,879.838 1322.764,879.586 C1318.963,890.94 1307.472,899.165 1294.41,895.77 ZM1305.54,850.489 C1294.309,847.218 1286.843,853.450 1283.330,861.35 C1288.110,862.641 1296.878,865.234 1297.773,865.507 L1305.212,867.771 C1306.590,868.191 1314.490,870.670 1319.539,872.132 C1320.492,863.316 1316.419,853.948 1305.54,850.489 ZM1317.826,878.8 C1314.265,876.849 1306.599,874.590 1303.292,873.584 L1295.854,871.320 C1293.236,870.523 1285.109,868.49 1281.575,867.49 C1280.556,875.93 1282.856,884.598 1295.599,888.477 C1307.583,892.124 1314.804,885.216 1317.826,878.8 ZM1289.809,831.318 L1285.852,825.632 C1286.986,825.135 1313.281,808.508 1317.299,806.188 C1318.175,807.622 1333.818,831.945 1335.310,833.950 L1329.801,837.61 C1327.826,833.851 1319.87,818.702 1316.136,814.183 C1313.0,815.806 1292.978,829.187 1289.809,831.318 ZM1313.316,804.837 C1307.890,803.698 1292.61,800.598 1290.693,800.458 L1292.171,793.411 C1294.185,793.981 1306.50,796.691 1314.83,798.377 L1321.552,799.944 C1327.682,801.230 1341.286,803.717 1342.906,804.57 L1341.428,811.104 C1340.315,810.797 1327.56,807.720 1320.926,806.434 L1313.316,804.837 ZM1282.902,730.744 L1354.634,737.0 L1354.171,742.309 L1282.439,736.52 L1282.902,730.744 ZM1301.643,714.403 C1301.685,712.604 1303.242,677.65 1303.330,673.322 L1303.474,673.325 C1306.564,676.639 1345.861,705.217 1348.195,707.1 C1348.261,704.194 1349.481,679.881 1349.531,677.794 L1354.994,678.210 C1354.452,682.879 1352.371,716.245 1352.326,718.116 L1352.183,718.113 C1348.662,714.717 1308.800,685.693 1307.809,684.950 C1307.718,688.837 1307.370,712.809 1307.610,714.832 L1301.643,714.403 Z"/>
</svg>