999
"DXF R12 Output" (www.mydxf.blogspot.com)
 0 
SECTION
 2 
HEADER
 9 
$ACADVER
 1 
AC1009
 9 
$EXTMIN
 10 
 0 
 20 
 0 
 9 
$EXTMAX
 10 
 8.5 
 20 
 11 
 0 
ENDSEC
 0 
SECTION
 2 
ENTITIES
0
LINE
8
Layer 1
10
351.616000
20
189.593000
11
346.070000
21
183.404000
0
LINE
8
Layer 1
10
346.070000
20
183.404000
11
344.668000
21
184.584000
0
LINE
8
Layer 1
10
344.668000
20
184.584000
11
351.363000
21
191.716000
0
LINE
8
Layer 1
10
351.363000
20
191.716000
11
357.875000
21
185.864000
0
LINE
8
Layer 1
10
357.875000
20
185.864000
11
356.899000
21
184.690000
0
LINE
8
Layer 1
10
356.899000
20
184.690000
11
354.303250
21
187.021125
0
LINE
8
Layer 1
10
354.303250
20
187.021125
11
351.616000
21
189.593000
0
LINE
8
Layer 1
10
351.616000
20
189.593000
11
351.616000
21
189.593000
0
LINE
8
Layer 1
10
350.252000
20
191.787000
11
344.171000
21
191.348000
0
LINE
8
Layer 1
10
344.171000
20
191.348000
11
344.064000
21
193.250000
0
LINE
8
Layer 1
10
344.064000
20
193.250000
11
350.003000
21
193.490000
0
LINE
8
Layer 1
10
350.003000
20
193.490000
11
352.019000
21
193.604000
0
LINE
8
Layer 1
10
352.019000
20
193.604000
11
357.758000
21
194.023000
0
LINE
8
Layer 1
10
357.758000
20
194.023000
11
357.865000
21
192.121000
0
LINE
8
Layer 1
10
357.865000
20
192.121000
11
352.306000
21
191.903000
0
LINE
8
Layer 1
10
352.306000
20
191.903000
11
350.252000
21
191.787000
0
LINE
8
Layer 1
10
350.252000
20
191.787000
11
350.252000
21
191.787000
0
LINE
8
Layer 1
10
338.291000
20
203.145000
11
357.153000
21
205.606000
0
LINE
8
Layer 1
10
357.153000
20
205.606000
11
357.351000
21
204.426000
0
LINE
8
Layer 1
10
357.351000
20
204.426000
11
338.489000
21
201.750000
0
LINE
8
Layer 1
10
338.489000
20
201.750000
11
338.291000
21
203.145000
0
LINE
8
Layer 1
10
338.291000
20
203.145000
11
338.291000
21
203.145000
0
LINE
8
Layer 1
10
352.688000
20
218.071000
11
347.957000
21
217.052000
0
LINE
8
Layer 1
10
347.957000
20
217.052000
11
348.944000
21
213.465000
0
LINE
8
Layer 1
10
348.944000
20
213.465000
11
347.485000
21
213.092000
0
LINE
8
Layer 1
10
347.485000
20
213.092000
11
346.766000
21
216.796000
0
LINE
8
Layer 1
10
346.766000
20
216.796000
11
342.221000
21
215.818000
0
LINE
8
Layer 1
10
342.221000
20
215.818000
11
343.239000
21
211.360000
0
LINE
8
Layer 1
10
343.239000
20
211.360000
11
341.654000
21
210.941000
0
LINE
8
Layer 1
10
341.654000
20
210.941000
11
341.121000
21
214.071250
0
LINE
8
Layer 1
10
341.121000
20
214.071250
11
340.489000
21
217.257000
0
LINE
8
Layer 1
10
340.489000
20
217.257000
11
345.902000
21
218.364000
0
LINE
8
Layer 1
10
345.902000
20
218.364000
11
348.398000
21
218.901000
0
LINE
8
Layer 1
10
348.398000
20
218.901000
11
353.525000
21
220.063000
0
LINE
8
Layer 1
10
353.525000
20
220.063000
11
355.150000
21
214.236000
0
LINE
8
Layer 1
10
355.150000
20
214.236000
11
353.695000
21
213.845000
0
LINE
8
Layer 1
10
353.695000
20
213.845000
11
352.688000
21
218.071000
0
LINE
8
Layer 1
10
352.688000
20
218.071000
11
352.688000
21
218.071000
0
LINE
8
Layer 1
10
344.841000
20
228.668000
11
342.884750
21
225.067625
0
LINE
8
Layer 1
10
342.884750
20
225.067625
11
340.858000
21
221.375000
0
LINE
8
Layer 1
10
340.858000
20
221.375000
11
339.223000
21
222.203000
0
LINE
8
Layer 1
10
339.223000
20
222.203000
11
344.110000
21
230.677000
0
LINE
8
Layer 1
10
344.110000
20
230.677000
11
351.787000
21
226.333000
0
LINE
8
Layer 1
10
351.787000
20
226.333000
11
350.894000
21
225.053000
0
LINE
8
Layer 1
10
350.894000
20
225.053000
11
348.085000
21
226.792250
0
LINE
8
Layer 1
10
348.085000
20
226.792250
11
344.841000
21
228.668000
0
LINE
8
Layer 1
10
344.841000
20
228.668000
11
344.841000
21
228.668000
0
LINE
8
Layer 1
10
343.012000
20
230.492000
11
337.193000
21
228.674000
0
LINE
8
Layer 1
10
337.193000
20
228.674000
11
336.654000
21
230.501000
0
LINE
8
Layer 1
10
336.654000
20
230.501000
11
342.471000
21
232.093000
0
LINE
8
Layer 1
10
342.471000
20
232.093000
11
344.317000
21
232.664000
0
LINE
8
Layer 1
10
344.317000
20
232.664000
11
349.807000
21
234.385000
0
LINE
8
Layer 1
10
349.807000
20
234.385000
11
350.346000
21
232.455000
0
LINE
8
Layer 1
10
350.346000
20
232.455000
11
344.985000
21
231.074000
0
LINE
8
Layer 1
10
344.985000
20
231.074000
11
343.012000
21
230.492000
0
LINE
8
Layer 1
10
343.012000
20
230.492000
11
343.012000
21
230.492000
0
LINE
8
Layer 1
10
328.762000
20
238.809000
11
346.506000
21
245.745000
0
LINE
8
Layer 1
10
346.506000
20
245.745000
11
347.019000
21
244.432000
0
LINE
8
Layer 1
10
347.019000
20
244.432000
11
329.275000
21
237.496000
0
LINE
8
Layer 1
10
329.275000
20
237.496000
11
328.762000
21
238.809000
0
LINE
8
Layer 1
10
328.762000
20
238.809000
11
328.762000
21
238.809000
0
LINE
8
Layer 1
10
328.985000
20
250.491000
11
325.410000
21
257.371000
0
LINE
8
Layer 1
10
325.410000
20
257.371000
11
321.904000
21
263.877000
0
LINE
8
Layer 1
10
321.904000
20
263.877000
11
321.945000
21
263.921000
0
LINE
8
Layer 1
10
321.945000
20
263.921000
11
329.482750
21
263.877500
0
LINE
8
Layer 1
10
329.482750
20
263.877500
11
337.637000
21
263.801000
0
LINE
8
Layer 1
10
337.637000
20
263.801000
11
337.817000
21
263.560000
0
LINE
8
Layer 1
10
337.817000
20
263.560000
11
333.226625
21
256.964125
0
LINE
8
Layer 1
10
333.226625
20
256.964125
11
329.045000
21
250.501000
0
LINE
8
Layer 1
10
329.045000
20
250.501000
11
328.985000
21
250.491000
0
LINE
8
Layer 1
10
328.985000
20
250.491000
11
328.985000
21
250.491000
0
LINE
8
Layer 1
10
334.962000
20
262.412000
11
324.448000
21
262.340000
0
LINE
8
Layer 1
10
324.448000
20
262.340000
11
326.680000
21
258.025000
0
LINE
8
Layer 1
10
326.680000
20
258.025000
11
328.130125
21
255.260375
0
LINE
8
Layer 1
10
328.130125
20
255.260375
11
329.074000
21
253.689000
0
LINE
8
Layer 1
10
329.074000
20
253.689000
11
334.962000
21
262.412000
0
LINE
8
Layer 1
10
334.962000
20
262.412000
11
334.962000
21
262.412000
0
LINE
8
Layer 1
10
324.099000
20
273.632000
11
322.362000
21
265.504000
0
LINE
8
Layer 1
10
322.362000
20
265.504000
11
320.558000
21
265.832000
0
LINE
8
Layer 1
10
320.558000
20
265.832000
11
322.824000
21
275.348000
0
LINE
8
Layer 1
10
322.824000
20
275.348000
11
331.384000
21
273.506000
0
LINE
8
Layer 1
10
331.384000
20
273.506000
11
330.932000
21
271.894000
0
LINE
8
Layer 1
10
330.932000
20
271.894000
11
324.099000
21
273.632000
0
LINE
8
Layer 1
10
324.099000
20
273.632000
11
324.099000
21
273.632000
0
LINE
8
Layer 1
10
321.825000
20
274.858000
11
316.766000
21
271.386000
0
LINE
8
Layer 1
10
316.766000
20
271.386000
11
315.728000
21
273.052000
0
LINE
8
Layer 1
10
315.728000
20
273.052000
11
320.763000
21
276.093000
0
LINE
8
Layer 1
10
320.763000
20
276.093000
11
322.456000
21
277.313000
0
LINE
8
Layer 1
10
322.456000
20
277.313000
11
327.227000
21
280.529000
0
LINE
8
Layer 1
10
327.227000
20
280.529000
11
328.265000
21
278.932000
0
LINE
8
Layer 1
10
328.265000
20
278.932000
11
323.550000
21
275.979000
0
LINE
8
Layer 1
10
323.550000
20
275.979000
11
321.825000
21
274.858000
0
LINE
8
Layer 1
10
321.825000
20
274.858000
11
321.825000
21
274.858000
0
LINE
8
Layer 1
10
305.798000
20
278.771000
11
320.832000
21
290.467000
0
LINE
8
Layer 1
10
320.832000
20
290.467000
11
321.698000
21
289.354000
0
LINE
8
Layer 1
10
321.698000
20
289.354000
11
306.768000
21
277.658000
0
LINE
8
Layer 1
10
306.768000
20
277.658000
11
305.798000
21
278.771000
0
LINE
8
Layer 1
10
305.798000
20
278.771000
11
305.798000
21
278.771000
0
LINE
8
Layer 1
10
310.839000
20
298.912000
11
307.254000
21
295.663000
0
LINE
8
Layer 1
10
307.254000
20
295.663000
11
301.966000
21
290.689000
0
LINE
8
Layer 1
10
301.966000
20
290.689000
11
300.687000
21
292.101000
0
LINE
8
Layer 1
10
300.687000
20
292.101000
11
304.987000
21
295.769000
0
LINE
8
Layer 1
10
304.987000
20
295.769000
11
306.710000
21
297.483000
0
LINE
8
Layer 1
10
306.710000
20
297.483000
11
308.691375
21
299.250000
0
LINE
8
Layer 1
10
308.691375
20
299.250000
11
310.567000
21
301.056000
0
LINE
8
Layer 1
10
310.567000
20
301.056000
11
314.891000
21
296.826000
0
LINE
8
Layer 1
10
314.891000
20
296.826000
11
313.827000
21
295.758000
0
LINE
8
Layer 1
10
313.827000
20
295.758000
11
310.839000
21
298.912000
0
LINE
8
Layer 1
10
310.839000
20
298.912000
11
310.839000
21
298.912000
0
LINE
8
Layer 1
10
298.819000
20
304.174000
11
298.975000
21
295.864000
0
LINE
8
Layer 1
10
298.975000
20
295.864000
11
297.307000
21
295.773000
0
LINE
8
Layer 1
10
297.307000
20
295.773000
11
297.252000
21
300.325750
0
LINE
8
Layer 1
10
297.252000
20
300.325750
11
297.188000
21
305.555000
0
LINE
8
Layer 1
10
297.188000
20
305.555000
11
305.943000
21
305.707000
0
LINE
8
Layer 1
10
305.943000
20
305.707000
11
305.966000
21
304.035000
0
LINE
8
Layer 1
10
305.966000
20
304.035000
11
298.819000
21
304.174000
0
LINE
8
Layer 1
10
298.819000
20
304.174000
11
298.819000
21
304.174000
0
LINE
8
Layer 1
10
297.751000
20
306.335000
11
296.326000
21
304.851000
0
LINE
8
Layer 1
10
296.326000
20
304.851000
11
292.173000
21
300.387000
0
LINE
8
Layer 1
10
292.173000
20
300.387000
11
290.996000
21
301.707000
0
LINE
8
Layer 1
10
290.996000
20
301.707000
11
292.505875
21
303.369750
0
LINE
8
Layer 1
10
292.505875
20
303.369750
11
294.984000
21
305.928000
0
LINE
8
Layer 1
10
294.984000
20
305.928000
11
296.382000
21
307.385000
0
LINE
8
Layer 1
10
296.382000
20
307.385000
11
300.298000
21
311.601000
0
LINE
8
Layer 1
10
300.298000
20
311.601000
11
301.673000
21
310.282000
0
LINE
8
Layer 1
10
301.673000
20
310.282000
11
297.751000
21
306.335000
0
LINE
8
Layer 1
10
297.751000
20
306.335000
11
297.751000
21
306.335000
0
LINE
8
Layer 1
10
279.824000
20
305.025000
11
291.810000
21
319.829000
0
LINE
8
Layer 1
10
291.810000
20
319.829000
11
293.020000
21
318.943000
0
LINE
8
Layer 1
10
293.020000
20
318.943000
11
280.920000
21
304.138000
0
LINE
8
Layer 1
10
280.920000
20
304.138000
11
279.824000
21
305.025000
0
LINE
8
Layer 1
10
279.824000
20
305.025000
11
279.824000
21
305.025000
0
LINE
8
Layer 1
10
279.814000
20
320.258000
11
279.792000
21
320.227000
0
LINE
8
Layer 1
10
279.792000
20
320.227000
11
280.537375
21
319.352969
0
LINE
8
Layer 1
10
280.537375
20
319.352969
11
280.966250
21
318.247000
0
LINE
8
Layer 1
10
280.966250
20
318.247000
11
280.991250
21
317.093031
0
LINE
8
Layer 1
10
280.991250
20
317.093031
11
280.824992
21
316.555527
0
LINE
8
Layer 1
10
280.824992
20
316.555527
11
280.525000
21
316.075000
0
LINE
8
Layer 1
10
280.525000
20
316.075000
11
279.931352
21
315.462619
0
LINE
8
Layer 1
10
279.931352
20
315.462619
11
279.146875
21
315.022891
0
LINE
8
Layer 1
10
279.146875
20
315.022891
11
278.197023
21
314.767311
0
LINE
8
Layer 1
10
278.197023
20
314.767311
11
277.107250
21
314.707375
0
LINE
8
Layer 1
10
277.107250
20
314.707375
11
275.903008
21
314.854580
0
LINE
8
Layer 1
10
275.903008
20
314.854580
11
274.609750
21
315.220422
0
LINE
8
Layer 1
10
274.609750
20
315.220422
11
273.252930
21
315.816396
0
LINE
8
Layer 1
10
273.252930
20
315.816396
11
271.858000
21
316.654000
0
LINE
8
Layer 1
10
271.858000
20
316.654000
11
271.796000
21
316.794000
0
LINE
8
Layer 1
10
271.796000
20
316.794000
11
275.937000
21
322.594000
0
LINE
8
Layer 1
10
275.937000
20
322.594000
11
277.155000
21
324.322000
0
LINE
8
Layer 1
10
277.155000
20
324.322000
11
279.481000
21
327.787000
0
LINE
8
Layer 1
10
279.481000
20
327.787000
11
280.705875
21
326.954875
0
LINE
8
Layer 1
10
280.705875
20
326.954875
11
281.564000
21
326.179000
0
LINE
8
Layer 1
10
281.564000
20
326.179000
11
283.199437
21
324.493234
0
LINE
8
Layer 1
10
283.199437
20
324.493234
11
283.635266
21
323.776158
0
LINE
8
Layer 1
10
283.635266
20
323.776158
11
283.866250
21
323.138125
0
LINE
8
Layer 1
10
283.866250
20
323.138125
11
283.862938
21
322.084703
0
LINE
8
Layer 1
10
283.862938
20
322.084703
11
283.488000
21
321.304000
0
LINE
8
Layer 1
10
283.488000
20
321.304000
11
283.045844
21
320.804750
0
LINE
8
Layer 1
10
283.045844
20
320.804750
11
282.315500
21
320.328750
0
LINE
8
Layer 1
10
282.315500
20
320.328750
11
281.252906
21
320.078875
0
LINE
8
Layer 1
10
281.252906
20
320.078875
11
279.814000
21
320.258000
0
LINE
8
Layer 1
10
279.814000
20
320.258000
11
279.814000
21
320.258000
0
LINE
8
Layer 1
10
276.903000
20
321.121000
11
273.941000
21
316.916000
0
LINE
8
Layer 1
10
273.941000
20
316.916000
11
275.338141
21
316.221750
0
LINE
8
Layer 1
10
275.338141
20
316.221750
11
276.716625
21
315.991750
0
LINE
8
Layer 1
10
276.716625
20
315.991750
11
277.947547
21
316.264625
0
LINE
8
Layer 1
10
277.947547
20
316.264625
11
278.467389
21
316.601711
0
LINE
8
Layer 1
10
278.467389
20
316.601711
11
278.902000
21
317.079000
0
LINE
8
Layer 1
10
278.902000
20
317.079000
11
279.135576
21
317.512719
0
LINE
8
Layer 1
10
279.135576
20
317.512719
11
279.222047
21
317.989000
0
LINE
8
Layer 1
10
279.222047
20
317.989000
11
278.971625
21
319.025000
0
LINE
8
Layer 1
10
278.971625
20
319.025000
11
278.186641
21
320.098500
0
LINE
8
Layer 1
10
278.186641
20
320.098500
11
276.903000
21
321.121000
0
LINE
8
Layer 1
10
276.903000
20
321.121000
11
276.903000
21
321.121000
0
LINE
8
Layer 1
10
280.379000
20
325.792000
11
277.529000
21
322.008000
0
LINE
8
Layer 1
10
277.529000
20
322.008000
11
278.842250
21
321.391484
0
LINE
8
Layer 1
10
278.842250
20
321.391484
11
280.084250
21
321.244375
0
LINE
8
Layer 1
10
280.084250
20
321.244375
11
281.136875
21
321.510328
0
LINE
8
Layer 1
10
281.136875
20
321.510328
11
281.882000
21
322.133000
0
LINE
8
Layer 1
10
281.882000
20
322.133000
11
282.136437
21
322.660430
0
LINE
8
Layer 1
10
282.136437
20
322.660430
11
282.185750
21
323.185375
0
LINE
8
Layer 1
10
282.185750
20
323.185375
11
281.826500
21
324.192750
0
LINE
8
Layer 1
10
281.826500
20
324.192750
11
281.119250
21
325.085000
0
LINE
8
Layer 1
10
281.119250
20
325.085000
11
280.379000
21
325.792000
0
LINE
8
Layer 1
10
280.379000
20
325.792000
11
280.379000
21
325.792000
0
LINE
8
Layer 1
10
269.293000
20
319.908000
11
267.531000
21
319.617000
0
LINE
8
Layer 1
10
267.531000
20
319.617000
11
266.550000
21
324.056125
0
LINE
8
Layer 1
10
266.550000
20
324.056125
11
265.347000
21
329.153000
0
LINE
8
Layer 1
10
265.347000
20
329.153000
11
273.838000
21
331.292000
0
LINE
8
Layer 1
10
273.838000
20
331.292000
11
274.147000
21
329.428000
0
LINE
8
Layer 1
10
274.147000
20
329.428000
11
270.877125
21
328.935125
0
LINE
8
Layer 1
10
270.877125
20
328.935125
11
267.446000
21
328.179000
0
LINE
8
Layer 1
10
267.446000
20
328.179000
11
267.673563
21
326.664187
0
LINE
8
Layer 1
10
267.673563
20
326.664187
11
268.249500
21
324.143250
0
LINE
8
Layer 1
10
268.249500
20
324.143250
11
269.293000
21
319.908000
0
LINE
8
Layer 1
10
269.293000
20
319.908000
11
269.293000
21
319.908000
0
LINE
8
Layer 1
10
264.669000
20
328.271000
11
261.640000
21
322.980000
0
LINE
8
Layer 1
10
261.640000
20
322.980000
11
260.002000
21
323.952000
0
LINE
8
Layer 1
10
260.002000
20
323.952000
11
263.117000
21
329.015000
0
LINE
8
Layer 1
10
263.117000
20
329.015000
11
264.147000
21
330.751000
0
LINE
8
Layer 1
10
264.147000
20
330.751000
11
267.001000
21
335.669000
0
LINE
8
Layer 1
10
267.001000
20
335.669000
11
268.640000
21
334.775000
0
LINE
8
Layer 1
10
268.640000
20
334.775000
11
265.719000
21
330.040000
0
LINE
8
Layer 1
10
265.719000
20
330.040000
11
264.669000
21
328.271000
0
LINE
8
Layer 1
10
264.669000
20
328.271000
11
264.669000
21
328.271000
0
LINE
8
Layer 1
10
248.571000
20
324.675000
11
256.863000
21
341.670000
0
LINE
8
Layer 1
10
256.863000
20
341.670000
11
258.132000
21
341.211000
0
LINE
8
Layer 1
10
258.132000
20
341.211000
11
249.840000
21
324.061000
0
LINE
8
Layer 1
10
249.840000
20
324.061000
11
248.571000
21
324.675000
0
LINE
8
Layer 1
10
248.571000
20
324.675000
11
248.571000
21
324.675000
0
LINE
8
Layer 1
10
257.517000
20
17.876700
11
256.245000
21
17.267900
0
LINE
8
Layer 1
10
256.245000
20
17.267900
11
248.018000
21
34.450500
0
LINE
8
Layer 1
10
248.018000
20
34.450500
11
249.289000
21
35.059300
0
LINE
8
Layer 1
10
249.289000
20
35.059300
11
257.517000
21
17.876700
0
LINE
8
Layer 1
10
257.517000
20
17.876700
11
257.517000
21
17.876700
0
LINE
8
Layer 1
10
238.032000
20
339.288000
11
231.699000
21
341.205000
0
LINE
8
Layer 1
10
231.699000
20
341.205000
11
228.164000
21
337.471000
0
LINE
8
Layer 1
10
228.164000
20
337.471000
11
227.092000
21
338.810000
0
LINE
8
Layer 1
10
227.092000
20
338.810000
11
238.006000
21
349.260000
0
LINE
8
Layer 1
10
238.006000
20
349.260000
11
238.042000
21
349.012000
0
LINE
8
Layer 1
10
238.042000
20
349.012000
11
239.446250
21
341.393250
0
LINE
8
Layer 1
10
239.446250
20
341.393250
11
240.759000
21
334.247000
0
LINE
8
Layer 1
10
240.759000
20
334.247000
11
238.879000
21
333.771000
0
LINE
8
Layer 1
10
238.879000
20
333.771000
11
238.032000
21
339.288000
0
LINE
8
Layer 1
10
238.032000
20
339.288000
11
238.032000
21
339.288000
0
LINE
8
Layer 1
10
236.994000
20
346.405000
11
232.724000
21
342.180000
0
LINE
8
Layer 1
10
232.724000
20
342.180000
11
237.892000
21
340.628000
0
LINE
8
Layer 1
10
237.892000
20
340.628000
11
236.994000
21
346.405000
0
LINE
8
Layer 1
10
236.994000
20
346.405000
11
236.994000
21
346.405000
0
LINE
8
Layer 1
10
225.722000
20
339.896000
11
224.178000
21
338.704000
0
LINE
8
Layer 1
10
224.178000
20
338.704000
11
221.963125
21
342.838500
0
LINE
8
Layer 1
10
221.963125
20
342.838500
11
219.554000
21
347.423000
0
LINE
8
Layer 1
10
219.554000
20
347.423000
11
226.886000
21
351.900000
0
LINE
8
Layer 1
10
226.886000
20
351.900000
11
227.652000
21
350.411000
0
LINE
8
Layer 1
10
227.652000
20
350.411000
11
221.525000
21
347.034000
0
LINE
8
Layer 1
10
221.525000
20
347.034000
11
223.549625
21
343.470250
0
LINE
8
Layer 1
10
223.549625
20
343.470250
11
225.722000
21
339.896000
0
LINE
8
Layer 1
10
225.722000
20
339.896000
11
225.722000
21
339.896000
0
LINE
8
Layer 1
10
218.963000
20
346.384000
11
217.572000
21
340.448000
0
LINE
8
Layer 1
10
217.572000
20
340.448000
11
215.724000
21
340.911000
0
LINE
8
Layer 1
10
215.724000
20
340.911000
11
217.262000
21
346.653000
0
LINE
8
Layer 1
10
217.262000
20
346.653000
11
217.937000
21
348.612000
0
LINE
8
Layer 1
10
217.937000
20
348.612000
11
218.541375
21
351.857625
0
LINE
8
Layer 1
10
218.541375
20
351.857625
11
219.061000
21
354.216000
0
LINE
8
Layer 1
10
219.061000
20
354.216000
11
220.909000
21
353.752000
0
LINE
8
Layer 1
10
220.909000
20
353.752000
11
219.463000
21
348.380000
0
LINE
8
Layer 1
10
219.463000
20
348.380000
11
218.963000
21
346.384000
0
LINE
8
Layer 1
10
218.963000
20
346.384000
11
218.963000
21
346.384000
0
LINE
8
Layer 1
10
220.488000
20
4.765580
11
219.114000
21
4.449670
0
LINE
8
Layer 1
10
219.114000
20
4.449670
11
215.000000
21
22.993000
0
LINE
8
Layer 1
10
215.000000
20
22.993000
11
216.217000
21
23.333000
0
LINE
8
Layer 1
10
216.217000
20
23.333000
11
220.488000
21
4.765580
0
LINE
8
Layer 1
10
220.488000
20
4.765580
11
220.488000
21
4.765580
0
LINE
8
Layer 1
10
204.557000
20
338.337000
11
207.601000
21
357.143000
0
LINE
8
Layer 1
10
207.601000
20
357.143000
11
208.992000
21
356.865000
0
LINE
8
Layer 1
10
208.992000
20
356.865000
11
205.948000
21
337.878000
0
LINE
8
Layer 1
10
205.948000
20
337.878000
11
204.557000
21
338.337000
0
LINE
8
Layer 1
10
204.557000
20
338.337000
11
204.557000
21
338.337000
0
LINE
8
Layer 1
10
206.521000
20
15.748200
11
201.170000
21
1.639000
0
LINE
8
Layer 1
10
201.170000
20
1.639000
11
201.132000
21
1.634500
0
LINE
8
Layer 1
10
201.132000
20
1.634500
11
196.452000
21
8.033631
0
LINE
8
Layer 1
10
196.452000
20
8.033631
11
192.120000
21
13.927600
0
LINE
8
Layer 1
10
192.120000
20
13.927600
11
193.601000
21
15.179300
0
LINE
8
Layer 1
10
193.601000
20
15.179300
11
196.779000
21
10.590900
0
LINE
8
Layer 1
10
196.779000
20
10.590900
11
203.310000
21
11.563000
0
LINE
8
Layer 1
10
203.310000
20
11.563000
11
204.853000
21
16.545900
0
LINE
8
Layer 1
10
204.853000
20
16.545900
11
206.521000
21
15.748200
0
LINE
8
Layer 1
10
206.521000
20
15.748200
11
206.521000
21
15.748200
0
LINE
8
Layer 1
10
197.491000
20
9.448430
11
200.919000
21
4.648630
0
LINE
8
Layer 1
10
200.919000
20
4.648630
11
202.817000
21
10.287700
0
LINE
8
Layer 1
10
202.817000
20
10.287700
11
197.491000
21
9.448430
0
LINE
8
Layer 1
10
197.491000
20
9.448430
11
197.491000
21
9.448430
0
LINE
8
Layer 1
10
197.490000
20
345.446000
11
196.139000
21
344.062000
0
LINE
8
Layer 1
10
196.139000
20
344.062000
11
189.929000
21
351.765000
0
LINE
8
Layer 1
10
189.929000
20
351.765000
11
196.571000
21
357.469000
0
LINE
8
Layer 1
10
196.571000
20
357.469000
11
197.582000
21
356.135000
0
LINE
8
Layer 1
10
197.582000
20
356.135000
11
194.989000
21
354.008000
0
LINE
8
Layer 1
10
194.989000
20
354.008000
11
192.066000
21
351.743000
0
LINE
8
Layer 1
10
192.066000
20
351.743000
11
197.490000
21
345.446000
0
LINE
8
Layer 1
10
197.490000
20
345.446000
11
197.490000
21
345.446000
0
LINE
8
Layer 1
10
189.801000
20
350.673000
11
189.367000
21
344.586000
0
LINE
8
Layer 1
10
189.367000
20
344.586000
11
187.468000
21
344.725000
0
LINE
8
Layer 1
10
187.468000
20
344.725000
11
187.995000
21
350.645000
0
LINE
8
Layer 1
10
187.995000
20
350.645000
11
188.346000
21
352.659000
0
LINE
8
Layer 1
10
188.346000
20
352.659000
11
188.362000
21
355.938375
0
LINE
8
Layer 1
10
188.362000
20
355.938375
11
188.465000
21
358.404000
0
LINE
8
Layer 1
10
188.465000
20
358.404000
11
190.365000
21
358.265000
0
LINE
8
Layer 1
10
190.365000
20
358.265000
11
190.195250
21
355.939000
0
LINE
8
Layer 1
10
190.195250
20
355.939000
11
189.865000
21
352.725000
0
LINE
8
Layer 1
10
189.865000
20
352.725000
11
189.801000
21
350.673000
0
LINE
8
Layer 1
10
189.801000
20
350.673000
11
189.801000
21
350.673000
0
LINE
8
Layer 1
10
184.635000
20
19.174200
11
186.044000
21
19.225600
0
LINE
8
Layer 1
10
186.044000
20
19.225600
11
186.738000
21
0.190144
0
LINE
8
Layer 1
10
186.738000
20
0.190144
11
185.330000
21
0.138815
0
LINE
8
Layer 1
10
185.330000
20
0.138815
11
184.635000
21
19.174200
0
LINE
8
Layer 1
10
184.635000
20
19.174200
11
184.635000
21
19.174200
0
LINE
8
Layer 1
10
176.616000
20
359.323000
11
178.026000
21
359.345000
0
LINE
8
Layer 1
10
178.026000
20
359.345000
11
178.366000
21
340.298000
0
LINE
8
Layer 1
10
178.366000
20
340.298000
11
176.923000
21
340.275000
0
LINE
8
Layer 1
10
176.923000
20
340.275000
11
176.616000
21
359.323000
0
LINE
8
Layer 1
10
176.616000
20
359.323000
11
176.616000
21
359.323000
0
LINE
8
Layer 1
10
175.105000
20
5.189180
11
175.024000
21
1.017230
0
LINE
8
Layer 1
10
175.024000
20
1.017230
11
172.402000
21
1.242920
0
LINE
8
Layer 1
10
172.402000
20
1.242920
11
170.115047
21
1.776349
0
LINE
8
Layer 1
10
170.115047
20
1.776349
11
169.360721
21
2.143743
0
LINE
8
Layer 1
10
169.360721
20
2.143743
11
168.821375
21
2.555416
0
LINE
8
Layer 1
10
168.821375
20
2.555416
11
168.254266
21
3.443078
0
LINE
8
Layer 1
10
168.254266
20
3.443078
11
168.147000
21
4.302290
0
LINE
8
Layer 1
10
168.147000
20
4.302290
11
168.267266
21
4.836814
0
LINE
8
Layer 1
10
168.267266
20
4.836814
11
168.665875
21
5.601100
0
LINE
8
Layer 1
10
168.665875
20
5.601100
11
169.469297
21
6.432804
0
LINE
8
Layer 1
10
169.469297
20
6.432804
11
170.804000
21
7.169580
0
LINE
8
Layer 1
10
170.804000
20
7.169580
11
170.820000
21
7.207680
0
LINE
8
Layer 1
10
170.820000
20
7.207680
11
169.727000
21
7.559956
0
LINE
8
Layer 1
10
169.727000
20
7.559956
11
168.743500
21
8.194305
0
LINE
8
Layer 1
10
168.743500
20
8.194305
11
168.045750
21
9.072922
0
LINE
8
Layer 1
10
168.045750
20
9.072922
11
167.859109
21
9.592016
0
LINE
8
Layer 1
10
167.859109
20
9.592016
11
167.810000
21
10.158000
0
LINE
8
Layer 1
10
167.810000
20
10.158000
11
167.978504
21
11.041926
0
LINE
8
Layer 1
10
167.978504
20
11.041926
11
168.403719
21
11.871444
0
LINE
8
Layer 1
10
168.403719
20
11.871444
11
169.073199
21
12.624302
0
LINE
8
Layer 1
10
169.073199
20
12.624302
11
169.974500
21
13.278250
0
LINE
8
Layer 1
10
169.974500
20
13.278250
11
171.095176
21
13.811035
0
LINE
8
Layer 1
10
171.095176
20
13.811035
11
172.422781
21
14.200406
0
LINE
8
Layer 1
10
172.422781
20
14.200406
11
173.944871
21
14.424112
0
LINE
8
Layer 1
10
173.944871
20
14.424112
11
175.649000
21
14.459900
0
LINE
8
Layer 1
10
175.649000
20
14.459900
11
175.594000
21
14.453500
0
LINE
8
Layer 1
10
175.594000
20
14.453500
11
175.195000
21
7.301610
0
LINE
8
Layer 1
10
175.195000
20
7.301610
11
175.105000
21
5.189180
0
LINE
8
Layer 1
10
175.105000
20
5.189180
11
175.105000
21
5.189180
0
LINE
8
Layer 1
10
169.946000
20
4.249910
11
170.046807
21
3.742898
0
LINE
8
Layer 1
10
170.046807
20
3.742898
11
170.305078
21
3.331707
0
LINE
8
Layer 1
10
170.305078
20
3.331707
11
171.164125
21
2.756205
0
LINE
8
Layer 1
10
171.164125
20
2.756205
11
172.263359
21
2.442243
0
LINE
8
Layer 1
10
172.263359
20
2.442243
11
173.343000
21
2.308660
0
LINE
8
Layer 1
10
173.343000
20
2.308660
11
173.540000
21
6.933310
0
LINE
8
Layer 1
10
173.540000
20
6.933310
11
172.101781
21
6.738237
0
LINE
8
Layer 1
10
172.101781
20
6.738237
11
170.977250
21
6.165686
0
LINE
8
Layer 1
10
170.977250
20
6.165686
11
170.235594
21
5.306097
0
LINE
8
Layer 1
10
170.235594
20
5.306097
11
169.946000
21
4.249910
0
LINE
8
Layer 1
10
169.946000
20
4.249910
11
169.946000
21
4.249910
0
LINE
8
Layer 1
10
169.718000
20
10.336600
11
169.963547
21
9.410588
0
LINE
8
Layer 1
10
169.963547
20
9.410588
11
170.751625
21
8.673133
0
LINE
8
Layer 1
10
170.751625
20
8.673133
11
172.033391
21
8.187785
0
LINE
8
Layer 1
10
172.033391
20
8.187785
11
173.760000
21
8.018100
0
LINE
8
Layer 1
10
173.760000
20
8.018100
11
173.804000
21
13.156600
0
LINE
8
Layer 1
10
173.804000
20
13.156600
11
172.320266
21
12.916408
0
LINE
8
Layer 1
10
172.320266
20
12.916408
11
171.028625
21
12.371987
0
LINE
8
Layer 1
10
171.028625
20
12.371987
11
170.103172
21
11.514873
0
LINE
8
Layer 1
10
170.103172
20
11.514873
11
169.832170
21
10.966411
0
LINE
8
Layer 1
10
169.832170
20
10.966411
11
169.718000
21
10.336600
0
LINE
8
Layer 1
10
169.718000
20
10.336600
11
169.718000
21
10.336600
0
LINE
8
Layer 1
10
166.714000
20
349.045000
11
166.495000
21
351.016000
0
LINE
8
Layer 1
10
166.495000
20
351.016000
11
158.075000
21
349.819000
0
LINE
8
Layer 1
10
158.075000
20
349.819000
11
158.195000
21
348.605000
0
LINE
8
Layer 1
10
158.195000
20
348.605000
11
158.744000
21
343.835000
0
LINE
8
Layer 1
10
158.744000
20
343.835000
11
156.969000
21
343.653000
0
LINE
8
Layer 1
10
156.969000
20
343.653000
11
156.682750
21
346.666875
0
LINE
8
Layer 1
10
156.682750
20
346.666875
11
156.593000
21
349.422000
0
LINE
8
Layer 1
10
156.593000
20
349.422000
11
156.188000
21
351.470000
0
LINE
8
Layer 1
10
156.188000
20
351.470000
11
155.553000
21
356.897000
0
LINE
8
Layer 1
10
155.553000
20
356.897000
11
157.644000
21
357.108000
0
LINE
8
Layer 1
10
157.644000
20
357.108000
11
157.804000
21
352.549000
0
LINE
8
Layer 1
10
157.804000
20
352.549000
11
157.951000
21
351.070000
0
LINE
8
Layer 1
10
157.951000
20
351.070000
11
166.371000
21
352.268000
0
LINE
8
Layer 1
10
166.371000
20
352.268000
11
166.221000
21
353.784000
0
LINE
8
Layer 1
10
166.221000
20
353.784000
11
165.734000
21
357.929000
0
LINE
8
Layer 1
10
165.734000
20
357.929000
11
167.668000
21
358.120000
0
LINE
8
Layer 1
10
167.668000
20
358.120000
11
168.113000
21
352.076000
0
LINE
8
Layer 1
10
168.113000
20
352.076000
11
168.531000
21
350.181000
0
LINE
8
Layer 1
10
168.531000
20
350.181000
11
168.492281
21
349.292641
0
LINE
8
Layer 1
10
168.492281
20
349.292641
11
168.613500
21
347.552375
0
LINE
8
Layer 1
10
168.613500
20
347.552375
11
168.906000
21
344.842000
0
LINE
8
Layer 1
10
168.906000
20
344.842000
11
167.010000
21
344.654000
0
LINE
8
Layer 1
10
167.010000
20
344.654000
11
166.714000
21
349.045000
0
LINE
8
Layer 1
10
166.714000
20
349.045000
11
166.714000
21
349.045000
0
LINE
8
Layer 1
10
158.345000
20
20.455900
11
155.793000
21
1.485010
0
LINE
8
Layer 1
10
155.793000
20
1.485010
11
154.396000
21
1.766790
0
LINE
8
Layer 1
10
154.396000
20
1.766790
11
156.948000
21
20.644800
0
LINE
8
Layer 1
10
156.948000
20
20.644800
11
158.345000
21
20.455900
0
LINE
8
Layer 1
10
158.345000
20
20.455900
11
158.345000
21
20.455900
0
LINE
8
Layer 1
10
148.632000
20
348.095000
11
148.274000
21
350.121000
0
LINE
8
Layer 1
10
148.274000
20
350.121000
11
147.228000
21
355.508000
0
LINE
8
Layer 1
10
147.228000
20
355.508000
11
149.104000
21
355.838000
0
LINE
8
Layer 1
10
149.104000
20
355.838000
11
149.970000
21
350.381000
0
LINE
8
Layer 1
10
149.970000
20
350.381000
11
150.327000
21
348.355000
0
LINE
8
Layer 1
10
150.327000
20
348.355000
11
151.400000
21
342.702000
0
LINE
8
Layer 1
10
151.400000
20
342.702000
11
149.580000
21
342.382000
0
LINE
8
Layer 1
10
149.580000
20
342.382000
11
149.171625
21
345.367500
0
LINE
8
Layer 1
10
149.171625
20
345.367500
11
148.632000
21
348.095000
0
LINE
8
Layer 1
10
148.632000
20
348.095000
11
148.632000
21
348.095000
0
LINE
8
Layer 1
10
145.466000
20
9.559560
11
144.446000
21
4.400980
0
LINE
8
Layer 1
10
144.446000
20
4.400980
11
141.514500
21
4.834502
0
LINE
8
Layer 1
10
141.514500
20
4.834502
11
138.460000
21
5.199760
0
LINE
8
Layer 1
10
138.460000
20
5.199760
11
138.694000
21
6.771650
0
LINE
8
Layer 1
10
138.694000
20
6.771650
11
142.965000
21
5.975780
0
LINE
8
Layer 1
10
142.965000
20
5.975780
11
144.155000
21
10.712300
0
LINE
8
Layer 1
10
144.155000
20
10.712300
11
145.311000
21
17.844400
0
LINE
8
Layer 1
10
145.311000
20
17.844400
11
147.176000
21
17.375900
0
LINE
8
Layer 1
10
147.176000
20
17.375900
11
145.989000
21
12.058300
0
LINE
8
Layer 1
10
145.989000
20
12.058300
11
145.466000
21
9.559560
0
LINE
8
Layer 1
10
145.466000
20
9.559560
11
145.466000
21
9.559560
0
LINE
8
Layer 1
10
135.890000
20
353.965000
11
137.116000
21
354.344000
0
LINE
8
Layer 1
10
137.116000
20
354.344000
11
141.658000
21
335.841000
0
LINE
8
Layer 1
10
141.658000
20
335.841000
11
140.289000
21
335.505000
0
LINE
8
Layer 1
10
140.289000
20
335.505000
11
135.890000
21
353.965000
0
LINE
8
Layer 1
10
135.890000
20
353.965000
11
135.890000
21
353.965000
0
LINE
8
Layer 1
10
140.183000
20
23.908700
11
135.625000
21
5.450580
0
LINE
8
Layer 1
10
135.625000
20
5.450580
11
134.102000
21
5.601930
0
LINE
8
Layer 1
10
134.102000
20
5.601930
11
138.817000
21
24.257700
0
LINE
8
Layer 1
10
138.817000
20
24.257700
11
140.183000
21
23.908700
0
LINE
8
Layer 1
10
140.183000
20
23.908700
11
140.183000
21
23.908700
0
LINE
8
Layer 1
10
119.687000
20
10.728000
11
119.651000
21
10.740700
0
LINE
8
Layer 1
10
119.651000
20
10.740700
11
118.401125
21
18.727875
0
LINE
8
Layer 1
10
118.401125
20
18.727875
11
117.017000
21
26.321900
0
LINE
8
Layer 1
10
117.017000
20
26.321900
11
117.054000
21
26.369600
0
LINE
8
Layer 1
10
117.054000
20
26.369600
11
124.339000
21
23.712900
0
LINE
8
Layer 1
10
124.339000
20
23.712900
11
131.320000
21
21.284800
0
LINE
8
Layer 1
10
131.320000
20
21.284800
11
131.319000
21
21.224800
0
LINE
8
Layer 1
10
131.319000
20
21.224800
11
125.771500
21
16.199712
0
LINE
8
Layer 1
10
125.771500
20
16.199712
11
119.687000
21
10.728000
0
LINE
8
Layer 1
10
119.687000
20
10.728000
11
119.687000
21
10.728000
0
LINE
8
Layer 1
10
124.018000
20
22.372300
11
119.149000
21
23.951500
0
LINE
8
Layer 1
10
119.149000
20
23.951500
11
120.702000
21
13.541500
0
LINE
8
Layer 1
10
120.702000
20
13.541500
11
128.405000
21
20.699000
0
LINE
8
Layer 1
10
128.405000
20
20.699000
11
126.714750
21
21.283425
0
LINE
8
Layer 1
10
126.714750
20
21.283425
11
124.018000
21
22.372300
0
LINE
8
Layer 1
10
124.018000
20
22.372300
11
124.018000
21
22.372300
0
LINE
8
Layer 1
10
125.485000
20
336.561000
11
126.061000
21
335.027000
0
LINE
8
Layer 1
10
126.061000
20
335.027000
11
124.406000
21
334.448000
0
LINE
8
Layer 1
10
124.406000
20
334.448000
11
123.932000
21
335.978000
0
LINE
8
Layer 1
10
123.932000
20
335.978000
11
122.752018
21
335.753600
0
LINE
8
Layer 1
10
122.752018
20
335.753600
11
121.569328
21
335.716547
0
LINE
8
Layer 1
10
121.569328
20
335.716547
11
120.415443
21
335.869314
0
LINE
8
Layer 1
10
120.415443
20
335.869314
11
119.321875
21
336.214375
0
LINE
8
Layer 1
10
119.321875
20
336.214375
11
118.320135
21
336.754201
0
LINE
8
Layer 1
10
118.320135
20
336.754201
11
117.441734
21
337.491266
0
LINE
8
Layer 1
10
117.441734
20
337.491266
11
116.718186
21
338.428041
0
LINE
8
Layer 1
10
116.718186
20
338.428041
11
116.181000
21
339.567000
0
LINE
8
Layer 1
10
116.181000
20
339.567000
11
115.874836
21
340.983789
0
LINE
8
Layer 1
10
115.874836
20
340.983789
11
115.849500
21
342.324500
0
LINE
8
Layer 1
10
115.849500
20
342.324500
11
116.072227
21
343.575023
0
LINE
8
Layer 1
10
116.072227
20
343.575023
11
116.510250
21
344.721250
0
LINE
8
Layer 1
10
116.510250
20
344.721250
11
117.130805
21
345.749070
0
LINE
8
Layer 1
10
117.130805
20
345.749070
11
117.901125
21
346.644375
0
LINE
8
Layer 1
10
117.901125
20
346.644375
11
118.788445
21
347.393055
0
LINE
8
Layer 1
10
118.788445
20
347.393055
11
119.760000
21
347.981000
0
LINE
8
Layer 1
10
119.760000
20
347.981000
11
119.235000
21
349.311000
0
LINE
8
Layer 1
10
119.235000
20
349.311000
11
120.890000
21
349.889000
0
LINE
8
Layer 1
10
120.890000
20
349.889000
11
121.288000
21
348.575000
0
LINE
8
Layer 1
10
121.288000
20
348.575000
11
122.387557
21
348.797557
0
LINE
8
Layer 1
10
122.387557
20
348.797557
11
123.531141
21
348.838016
0
LINE
8
Layer 1
10
123.531141
20
348.838016
11
124.678873
21
348.689311
0
LINE
8
Layer 1
10
124.678873
20
348.689311
11
125.790875
21
348.344375
0
LINE
8
Layer 1
10
125.790875
20
348.344375
11
126.827268
21
347.796143
0
LINE
8
Layer 1
10
126.827268
20
347.796143
11
127.748172
21
347.037547
0
LINE
8
Layer 1
10
127.748172
20
347.037547
11
128.513709
21
346.061521
0
LINE
8
Layer 1
10
128.513709
20
346.061521
11
129.084000
21
344.861000
0
LINE
8
Layer 1
10
129.084000
20
344.861000
11
129.411248
21
343.590736
0
LINE
8
Layer 1
10
129.411248
20
343.590736
11
129.502797
21
342.354328
0
LINE
8
Layer 1
10
129.502797
20
342.354328
11
129.365479
21
341.168100
0
LINE
8
Layer 1
10
129.365479
20
341.168100
11
129.006125
21
340.048375
0
LINE
8
Layer 1
10
129.006125
20
340.048375
11
128.431568
21
339.011479
0
LINE
8
Layer 1
10
128.431568
20
339.011479
11
127.648641
21
338.073734
0
LINE
8
Layer 1
10
127.648641
20
338.073734
11
126.664174
21
337.251467
0
LINE
8
Layer 1
10
126.664174
20
337.251467
11
125.485000
21
336.561000
0
LINE
8
Layer 1
10
125.485000
20
336.561000
11
125.485000
21
336.561000
0
LINE
8
Layer 1
10
120.200000
20
346.722000
11
118.828313
21
345.631422
0
LINE
8
Layer 1
10
118.828313
20
345.631422
11
118.287148
21
344.936713
0
LINE
8
Layer 1
10
118.287148
20
344.936713
11
117.869500
21
344.149625
0
LINE
8
Layer 1
10
117.869500
20
344.149625
11
117.595664
21
343.275584
0
LINE
8
Layer 1
10
117.595664
20
343.275584
11
117.485938
21
342.320016
0
LINE
8
Layer 1
10
117.485938
20
342.320016
11
117.560617
21
341.288346
0
LINE
8
Layer 1
10
117.560617
20
341.288346
11
117.840000
21
340.186000
0
LINE
8
Layer 1
10
117.840000
20
340.186000
11
118.333289
21
339.254389
0
LINE
8
Layer 1
10
118.333289
20
339.254389
11
118.916250
21
338.509234
0
LINE
8
Layer 1
10
118.916250
20
338.509234
11
119.574398
21
337.938057
0
LINE
8
Layer 1
10
119.574398
20
337.938057
11
120.293250
21
337.528375
0
LINE
8
Layer 1
10
120.293250
20
337.528375
11
121.855125
21
337.143578
0
LINE
8
Layer 1
10
121.855125
20
337.143578
11
123.486000
21
337.255000
0
LINE
8
Layer 1
10
123.486000
20
337.255000
11
122.185000
21
340.950000
0
LINE
8
Layer 1
10
122.185000
20
340.950000
11
121.507000
21
342.981000
0
LINE
8
Layer 1
10
121.507000
20
342.981000
11
120.200000
21
346.722000
0
LINE
8
Layer 1
10
120.200000
20
346.722000
11
120.200000
21
346.722000
0
LINE
8
Layer 1
10
127.431000
20
344.162000
11
126.954656
21
345.214100
0
LINE
8
Layer 1
10
126.954656
20
345.214100
11
126.362813
21
346.036359
0
LINE
8
Layer 1
10
126.362813
20
346.036359
11
125.681625
21
346.648971
0
LINE
8
Layer 1
10
125.681625
20
346.648971
11
124.937250
21
347.072125
0
LINE
8
Layer 1
10
124.937250
20
347.072125
11
124.155844
21
347.326014
0
LINE
8
Layer 1
10
124.155844
20
347.326014
11
123.363563
21
347.430828
0
LINE
8
Layer 1
10
123.363563
20
347.430828
11
121.851000
21
347.274000
0
LINE
8
Layer 1
10
121.851000
20
347.274000
11
122.422750
21
345.322125
0
LINE
8
Layer 1
10
122.422750
20
345.322125
11
123.200000
21
343.479000
0
LINE
8
Layer 1
10
123.200000
20
343.479000
11
123.726000
21
341.536000
0
LINE
8
Layer 1
10
123.726000
20
341.536000
11
125.045000
21
337.820000
0
LINE
8
Layer 1
10
125.045000
20
337.820000
11
126.379687
21
338.781406
0
LINE
8
Layer 1
10
126.379687
20
338.781406
11
126.943578
21
339.406004
0
LINE
8
Layer 1
10
126.943578
20
339.406004
11
127.395250
21
340.133000
0
LINE
8
Layer 1
10
127.395250
20
340.133000
11
127.702266
21
340.967246
0
LINE
8
Layer 1
10
127.702266
20
340.967246
11
127.832187
21
341.913594
0
LINE
8
Layer 1
10
127.832187
20
341.913594
11
127.752578
21
342.976895
0
LINE
8
Layer 1
10
127.752578
20
342.976895
11
127.431000
21
344.162000
0
LINE
8
Layer 1
10
127.431000
20
344.162000
11
127.431000
21
344.162000
0
LINE
8
Layer 1
10
110.980000
20
336.633000
11
110.167000
21
338.523000
0
LINE
8
Layer 1
10
110.167000
20
338.523000
11
107.910000
21
343.524000
0
LINE
8
Layer 1
10
107.910000
20
343.524000
11
109.659000
21
344.278000
0
LINE
8
Layer 1
10
109.659000
20
344.278000
11
111.756000
21
339.166000
0
LINE
8
Layer 1
10
111.756000
20
339.166000
11
112.570000
21
337.276000
0
LINE
8
Layer 1
10
112.570000
20
337.276000
11
114.915000
21
332.022000
0
LINE
8
Layer 1
10
114.915000
20
332.022000
11
113.218000
21
331.291000
0
LINE
8
Layer 1
10
113.218000
20
331.291000
11
110.980000
21
336.633000
0
LINE
8
Layer 1
10
110.980000
20
336.633000
11
110.980000
21
336.633000
0
LINE
8
Layer 1
10
97.079200
20
339.421000
11
98.334400
21
340.063000
0
LINE
8
Layer 1
10
98.334400
20
340.063000
11
107.006000
21
323.103000
0
LINE
8
Layer 1
10
107.006000
20
323.103000
11
105.751000
21
322.461000
0
LINE
8
Layer 1
10
105.751000
20
322.461000
11
97.079200
21
339.421000
0
LINE
8
Layer 1
10
97.079200
20
339.421000
11
97.079200
21
339.421000
0
LINE
8
Layer 1
10
99.720500
20
28.450800
11
98.494700
21
26.211600
0
LINE
8
Layer 1
10
98.494700
20
26.211600
11
96.019800
21
21.572200
0
LINE
8
Layer 1
10
96.019800
20
21.572200
11
90.549000
21
24.154700
0
LINE
8
Layer 1
10
90.549000
20
24.154700
11
91.204900
21
25.511300
0
LINE
8
Layer 1
10
91.204900
20
25.511300
11
95.060400
21
23.509200
0
LINE
8
Layer 1
10
95.060400
20
23.509200
11
97.543800
21
27.753300
0
LINE
8
Layer 1
10
97.543800
20
27.753300
11
95.939437
21
28.466925
0
LINE
8
Layer 1
10
95.939437
20
28.466925
11
94.025100
21
29.210700
0
LINE
8
Layer 1
10
94.025100
20
29.210700
11
94.697700
21
30.701100
0
LINE
8
Layer 1
10
94.697700
20
30.701100
11
96.360450
21
29.735437
0
LINE
8
Layer 1
10
96.360450
20
29.735437
11
97.969800
21
28.665600
0
LINE
8
Layer 1
10
97.969800
20
28.665600
11
100.202000
21
32.900000
0
LINE
8
Layer 1
10
100.202000
20
32.900000
11
96.164000
21
35.045500
0
LINE
8
Layer 1
10
96.164000
20
35.045500
11
96.883900
21
36.519200
0
LINE
8
Layer 1
10
96.883900
20
36.519200
11
102.424000
21
33.269100
0
LINE
8
Layer 1
10
102.424000
20
33.269100
11
101.032650
21
30.664387
0
LINE
8
Layer 1
10
101.032650
20
30.664387
11
99.720500
21
28.450800
0
LINE
8
Layer 1
10
99.720500
20
28.450800
11
99.720500
21
28.450800
0
LINE
8
Layer 1
10
84.738000
20
315.476000
11
85.166575
21
323.021375
0
LINE
8
Layer 1
10
85.166575
20
323.021375
11
85.428800
21
330.272000
0
LINE
8
Layer 1
10
85.428800
20
330.272000
11
82.084175
21
328.175250
0
LINE
8
Layer 1
10
82.084175
20
328.175250
11
78.898700
21
325.999000
0
LINE
8
Layer 1
10
78.898700
20
325.999000
11
78.122600
21
327.464000
0
LINE
8
Layer 1
10
78.122600
20
327.464000
11
87.242000
21
332.711000
0
LINE
8
Layer 1
10
87.242000
20
332.711000
11
87.262900
21
332.801000
0
LINE
8
Layer 1
10
87.262900
20
332.801000
11
86.871638
21
325.123125
0
LINE
8
Layer 1
10
86.871638
20
325.123125
11
86.632100
21
318.157000
0
LINE
8
Layer 1
10
86.632100
20
318.157000
11
93.192700
21
322.570000
0
LINE
8
Layer 1
10
93.192700
20
322.570000
11
93.988900
21
321.175000
0
LINE
8
Layer 1
10
93.988900
20
321.175000
11
84.758900
21
315.444000
0
LINE
8
Layer 1
10
84.758900
20
315.444000
11
84.738000
21
315.476000
0
LINE
8
Layer 1
10
84.738000
20
315.476000
11
84.738000
21
315.476000
0
LINE
8
Layer 1
10
81.851700
20
313.076000
11
80.366300
21
312.149000
0
LINE
8
Layer 1
10
80.366300
20
312.149000
11
76.967200
21
316.838000
0
LINE
8
Layer 1
10
76.967200
20
316.838000
11
75.743200
21
318.492000
0
LINE
8
Layer 1
10
75.743200
20
318.492000
11
72.403100
21
322.845000
0
LINE
8
Layer 1
10
72.403100
20
322.845000
11
73.934300
21
323.979000
0
LINE
8
Layer 1
10
73.934300
20
323.979000
11
75.177375
21
322.307125
0
LINE
8
Layer 1
10
75.177375
20
322.307125
11
77.144200
21
319.481000
0
LINE
8
Layer 1
10
77.144200
20
319.481000
11
78.368200
21
317.827000
0
LINE
8
Layer 1
10
78.368200
20
317.827000
11
81.851700
21
313.076000
0
LINE
8
Layer 1
10
81.851700
20
313.076000
11
81.851700
21
313.076000
0
LINE
8
Layer 1
10
75.118000
20
301.850000
11
62.804300
21
316.389000
0
LINE
8
Layer 1
10
62.804300
20
316.389000
11
63.880100
21
317.300000
0
LINE
8
Layer 1
10
63.880100
20
317.300000
11
76.193800
21
302.762000
0
LINE
8
Layer 1
10
76.193800
20
302.762000
11
75.118000
21
301.850000
0
LINE
8
Layer 1
10
75.118000
20
301.850000
11
75.118000
21
301.850000
0
LINE
8
Layer 1
10
64.240000
20
306.591000
11
61.438000
21
304.065000
0
LINE
8
Layer 1
10
61.438000
20
304.065000
11
64.619600
21
300.676000
0
LINE
8
Layer 1
10
64.619600
20
300.676000
11
67.913700
21
303.848000
0
LINE
8
Layer 1
10
67.913700
20
303.848000
11
69.090800
21
302.705000
0
LINE
8
Layer 1
10
69.090800
20
302.705000
11
64.280200
21
298.371000
0
LINE
8
Layer 1
10
64.280200
20
298.371000
11
60.540000
21
302.516000
0
LINE
8
Layer 1
10
60.540000
20
302.516000
11
58.792700
21
304.377000
0
LINE
8
Layer 1
10
58.792700
20
304.377000
11
55.152100
21
308.171000
0
LINE
8
Layer 1
10
55.152100
20
308.171000
11
57.207212
21
310.241375
0
LINE
8
Layer 1
10
57.207212
20
310.241375
11
59.306800
21
312.569000
0
LINE
8
Layer 1
10
59.306800
20
312.569000
11
60.392400
21
311.524000
0
LINE
8
Layer 1
10
60.392400
20
311.524000
11
58.758475
21
309.898375
0
LINE
8
Layer 1
10
58.758475
20
309.898375
11
57.291200
21
308.272000
0
LINE
8
Layer 1
10
57.291200
20
308.272000
11
60.727100
21
304.954000
0
LINE
8
Layer 1
10
60.727100
20
304.954000
11
63.168100
21
307.649000
0
LINE
8
Layer 1
10
63.168100
20
307.649000
11
64.240000
21
306.591000
0
LINE
8
Layer 1
10
64.240000
20
306.591000
11
64.240000
21
306.591000
0
LINE
8
Layer 1
10
60.586900
20
294.484000
11
59.075600
21
293.037000
0
LINE
8
Layer 1
10
59.075600
20
293.037000
11
58.316756
21
293.914766
0
LINE
8
Layer 1
10
58.316756
20
293.914766
11
56.991400
21
295.186375
0
LINE
8
Layer 1
10
56.991400
20
295.186375
11
54.923700
21
297.185000
0
LINE
8
Layer 1
10
54.923700
20
297.185000
11
53.434700
21
298.605000
0
LINE
8
Layer 1
10
53.434700
20
298.605000
11
51.573200
21
300.440125
0
LINE
8
Layer 1
10
51.573200
20
300.440125
11
49.398200
21
302.324000
0
LINE
8
Layer 1
10
49.398200
20
302.324000
11
50.713200
21
303.702000
0
LINE
8
Layer 1
10
50.713200
20
303.702000
11
54.645600
21
299.820000
0
LINE
8
Layer 1
10
54.645600
20
299.820000
11
56.134700
21
298.400000
0
LINE
8
Layer 1
10
56.134700
20
298.400000
11
58.665525
21
296.057250
0
LINE
8
Layer 1
10
58.665525
20
296.057250
11
60.586900
21
294.484000
0
LINE
8
Layer 1
10
60.586900
20
294.484000
11
60.586900
21
294.484000
0
LINE
8
Layer 1
10
55.665400
20
282.105000
11
41.050800
21
294.322000
0
LINE
8
Layer 1
10
41.050800
20
294.322000
11
41.954700
21
295.403000
0
LINE
8
Layer 1
10
41.954700
20
295.403000
11
56.569400
21
283.186000
0
LINE
8
Layer 1
10
56.569400
20
283.186000
11
55.665400
21
282.105000
0
LINE
8
Layer 1
10
55.665400
20
282.105000
11
55.665400
21
282.105000
0
LINE
8
Layer 1
10
47.123600
20
279.080000
11
42.686500
21
272.643000
0
LINE
8
Layer 1
10
42.686500
20
272.643000
11
38.548200
21
266.647000
0
LINE
8
Layer 1
10
38.548200
20
266.647000
11
38.490200
21
266.664000
0
LINE
8
Layer 1
10
38.490200
20
266.664000
11
35.057475
21
273.315000
0
LINE
8
Layer 1
10
35.057475
20
273.315000
11
31.330900
21
280.599000
0
LINE
8
Layer 1
10
31.330900
20
280.599000
11
31.352600
21
280.631000
0
LINE
8
Layer 1
10
31.352600
20
280.631000
11
39.409400
21
279.823125
0
LINE
8
Layer 1
10
39.409400
20
279.823125
11
47.087000
21
279.178000
0
LINE
8
Layer 1
10
47.087000
20
279.178000
11
47.123600
21
279.080000
0
LINE
8
Layer 1
10
47.123600
20
279.080000
11
47.123600
21
279.080000
0
LINE
8
Layer 1
10
33.789600
20
278.896000
11
38.729900
21
269.614000
0
LINE
8
Layer 1
10
38.729900
20
269.614000
11
41.517600
21
273.593000
0
LINE
8
Layer 1
10
41.517600
20
273.593000
11
44.248900
21
277.726000
0
LINE
8
Layer 1
10
44.248900
20
277.726000
11
33.789600
21
278.896000
0
LINE
8
Layer 1
10
33.789600
20
278.896000
11
33.789600
21
278.896000
0
LINE
8
Layer 1
10
37.260400
20
264.279000
11
36.322700
21
262.687000
0
LINE
8
Layer 1
10
36.322700
20
262.687000
11
31.361600
21
265.674000
0
LINE
8
Layer 1
10
31.361600
20
265.674000
11
29.588600
21
266.718000
0
LINE
8
Layer 1
10
29.588600
20
266.718000
11
24.812900
21
269.419000
0
LINE
8
Layer 1
10
24.812900
20
269.419000
11
25.779100
21
271.061000
0
LINE
8
Layer 1
10
25.779100
20
271.061000
11
27.500100
21
269.941000
0
LINE
8
Layer 1
10
27.500100
20
269.941000
11
30.491300
21
268.176000
0
LINE
8
Layer 1
10
30.491300
20
268.176000
11
32.264300
21
267.132000
0
LINE
8
Layer 1
10
32.264300
20
267.132000
11
37.260400
21
264.279000
0
LINE
8
Layer 1
10
37.260400
20
264.279000
11
37.260400
21
264.279000
0
LINE
8
Layer 1
10
35.520300
20
251.161000
11
18.503600
21
259.724000
0
LINE
8
Layer 1
10
18.503600
20
259.724000
11
19.137000
21
260.983000
0
LINE
8
Layer 1
10
19.137000
20
260.983000
11
36.153900
21
252.420000
0
LINE
8
Layer 1
10
36.153900
20
252.420000
11
35.520300
21
251.161000
0
LINE
8
Layer 1
10
35.520300
20
251.161000
11
35.520300
21
251.161000
0
LINE
8
Layer 1
10
20.937500
20
248.298000
11
27.647900
21
245.497000
0
LINE
8
Layer 1
10
27.647900
20
245.497000
11
26.889300
21
243.783000
0
LINE
8
Layer 1
10
26.889300
20
243.783000
11
21.845000
21
246.035000
0
LINE
8
Layer 1
10
21.845000
20
246.035000
11
19.503500
21
247.052000
0
LINE
8
Layer 1
10
19.503500
20
247.052000
11
14.658200
21
249.093000
0
LINE
8
Layer 1
10
14.658200
20
249.093000
11
15.123936
21
250.072203
0
LINE
8
Layer 1
10
15.123936
20
250.072203
11
15.777463
21
251.849875
0
LINE
8
Layer 1
10
15.777463
20
251.849875
11
16.730900
21
254.612000
0
LINE
8
Layer 1
10
16.730900
20
254.612000
11
18.141700
21
254.080000
0
LINE
8
Layer 1
10
18.141700
20
254.080000
11
16.499400
21
250.225000
0
LINE
8
Layer 1
10
16.499400
20
250.225000
11
20.937500
21
248.298000
0
LINE
8
Layer 1
10
20.937500
20
248.298000
11
20.937500
21
248.298000
0
LINE
8
Layer 1
10
19.404800
20
240.543000
11
24.818100
21
238.596000
0
LINE
8
Layer 1
10
24.818100
20
238.596000
11
24.169700
21
236.866000
0
LINE
8
Layer 1
10
24.169700
20
236.866000
11
18.767400
21
238.952000
0
LINE
8
Layer 1
10
18.767400
20
238.952000
11
16.841200
21
239.674000
0
LINE
8
Layer 1
10
16.841200
20
239.674000
11
11.670800
21
241.510000
0
LINE
8
Layer 1
10
11.670800
20
241.510000
11
12.339400
21
243.294000
0
LINE
8
Layer 1
10
12.339400
20
243.294000
11
14.239863
21
242.471125
0
LINE
8
Layer 1
10
14.239863
20
242.471125
11
17.623900
21
241.265000
0
LINE
8
Layer 1
10
17.623900
20
241.265000
11
19.404800
21
240.543000
0
LINE
8
Layer 1
10
19.404800
20
240.543000
11
19.404800
21
240.543000
0
LINE
8
Layer 1
10
25.371400
20
225.372000
11
7.127070
21
230.858000
0
LINE
8
Layer 1
10
7.127070
20
230.858000
11
7.533210
21
232.209000
0
LINE
8
Layer 1
10
7.533210
20
232.209000
11
25.777500
21
226.722000
0
LINE
8
Layer 1
10
25.777500
20
226.722000
11
25.371400
21
225.372000
0
LINE
8
Layer 1
10
25.371400
20
225.372000
11
25.371400
21
225.372000
0
LINE
8
Layer 1
10
9.881380
20
213.134000
11
9.918690
21
213.127000
0
LINE
8
Layer 1
10
9.918690
20
213.127000
11
10.414280
21
214.073609
0
LINE
8
Layer 1
10
10.414280
20
214.073609
11
11.192674
21
214.910625
0
LINE
8
Layer 1
10
11.192674
20
214.910625
11
12.202703
21
215.453078
0
LINE
8
Layer 1
10
12.202703
20
215.453078
11
12.778591
21
215.556041
0
LINE
8
Layer 1
10
12.778591
20
215.556041
11
13.393200
21
215.516000
0
LINE
8
Layer 1
10
13.393200
20
215.516000
11
14.223272
21
215.202434
0
LINE
8
Layer 1
10
14.223272
20
215.202434
11
14.961598
21
214.657844
0
LINE
8
Layer 1
10
14.961598
20
214.657844
11
15.590798
21
213.897020
0
LINE
8
Layer 1
10
15.590798
20
213.897020
11
16.093488
21
212.934750
0
LINE
8
Layer 1
10
16.093488
20
212.934750
11
16.452285
21
211.785824
0
LINE
8
Layer 1
10
16.452285
20
211.785824
11
16.649808
21
210.465031
0
LINE
8
Layer 1
10
16.649808
20
210.465031
11
16.668674
21
208.987160
0
LINE
8
Layer 1
10
16.668674
20
208.987160
11
16.491500
21
207.367000
0
LINE
8
Layer 1
10
16.491500
20
207.367000
11
16.384600
21
207.217000
0
LINE
8
Layer 1
10
16.384600
20
207.217000
11
9.363330
21
208.638000
0
LINE
8
Layer 1
10
9.363330
20
208.638000
11
7.285290
21
209.029000
0
LINE
8
Layer 1
10
7.285290
20
209.029000
11
3.167850
21
209.709000
0
LINE
8
Layer 1
10
3.167850
20
209.709000
11
3.767130
21
212.271000
0
LINE
8
Layer 1
10
3.767130
20
212.271000
11
4.179137
21
213.509535
0
LINE
8
Layer 1
10
4.179137
20
213.509535
11
4.632226
21
214.458031
0
LINE
8
Layer 1
10
4.632226
20
214.458031
11
5.111968
21
215.151949
0
LINE
8
Layer 1
10
5.111968
20
215.151949
11
5.603932
21
215.626750
0
LINE
8
Layer 1
10
5.603932
20
215.626750
11
6.566808
21
216.060844
0
LINE
8
Layer 1
10
6.566808
20
216.060844
11
7.405410
21
216.044000
0
LINE
8
Layer 1
10
7.405410
20
216.044000
11
8.016009
21
215.836250
0
LINE
8
Layer 1
10
8.016009
20
215.836250
11
8.706402
21
215.348000
0
LINE
8
Layer 1
10
8.706402
20
215.348000
11
9.365292
21
214.480250
0
LINE
8
Layer 1
10
9.365292
20
214.480250
11
9.881380
21
213.134000
0
LINE
8
Layer 1
10
9.881380
20
213.134000
11
9.881380
21
213.134000
0
LINE
8
Layer 1
10
15.464900
20
209.175000
11
15.381170
21
210.700391
0
LINE
8
Layer 1
10
15.381170
20
210.700391
11
14.995388
21
212.054125
0
LINE
8
Layer 1
10
14.995388
20
212.054125
11
14.266311
21
213.080297
0
LINE
8
Layer 1
10
14.266311
20
213.080297
11
13.760150
21
213.421826
0
LINE
8
Layer 1
10
13.760150
20
213.421826
11
13.152700
21
213.623000
0
LINE
8
Layer 1
10
13.152700
20
213.623000
11
12.201313
21
213.515797
0
LINE
8
Layer 1
10
12.201313
20
213.515797
11
11.361075
21
212.860625
0
LINE
8
Layer 1
10
11.361075
20
212.860625
11
10.704250
21
211.712891
0
LINE
8
Layer 1
10
10.704250
20
211.712891
11
10.303100
21
210.128000
0
LINE
8
Layer 1
10
10.303100
20
210.128000
11
15.464900
21
209.175000
0
LINE
8
Layer 1
10
15.464900
20
209.175000
11
15.464900
21
209.175000
0
LINE
8
Layer 1
10
4.687090
20
211.186000
11
9.236060
21
210.191000
0
LINE
8
Layer 1
10
9.236060
20
210.191000
11
9.252700
21
211.721656
0
LINE
8
Layer 1
10
9.252700
20
211.721656
11
8.871469
21
212.954000
0
LINE
8
Layer 1
10
8.871469
20
212.954000
11
8.192779
21
213.816594
0
LINE
8
Layer 1
10
8.192779
20
213.816594
11
7.317040
21
214.238000
0
LINE
8
Layer 1
10
7.317040
20
214.238000
11
6.731809
21
214.194018
0
LINE
8
Layer 1
10
6.731809
20
214.194018
11
6.234786
21
213.992453
0
LINE
8
Layer 1
10
6.234786
20
213.992453
11
5.475513
21
213.238875
0
LINE
8
Layer 1
10
5.475513
20
213.238875
11
4.979515
21
212.221859
0
LINE
8
Layer 1
10
4.979515
20
212.221859
11
4.687090
21
211.186000
0
LINE
8
Layer 1
10
4.687090
20
211.186000
11
4.687090
21
211.186000
0
LINE
8
Layer 1
10
9.761000
20
202.325000
11
15.477800
21
201.746000
0
LINE
8
Layer 1
10
15.477800
20
201.746000
11
15.243900
21
199.913000
0
LINE
8
Layer 1
10
15.243900
20
199.913000
11
9.506200
21
200.703000
0
LINE
8
Layer 1
10
9.506200
20
200.703000
11
7.465210
21
200.963000
0
LINE
8
Layer 1
10
7.465210
20
200.963000
11
2.010570
21
201.562000
0
LINE
8
Layer 1
10
2.010570
20
201.562000
11
2.251600
21
203.338000
0
LINE
8
Layer 1
10
2.251600
20
203.338000
11
7.720000
21
202.547000
0
LINE
8
Layer 1
10
7.720000
20
202.547000
11
9.761000
21
202.325000
0
LINE
8
Layer 1
10
9.761000
20
202.325000
11
9.761000
21
202.325000
0
LINE
8
Layer 1
10
19.048900
20
188.999000
11
0.033602
21
190.166000
0
LINE
8
Layer 1
10
0.033602
20
190.166000
11
0.119856
21
191.573000
0
LINE
8
Layer 1
10
0.119856
20
191.573000
11
19.135200
21
190.406000
0
LINE
8
Layer 1
10
19.135200
20
190.406000
11
19.048900
21
188.999000
0
LINE
8
Layer 1
10
19.048900
20
188.999000
11
19.048900
21
188.999000
0
LINE
8
Layer 1
10
14.269200
20
179.444000
11
11.693159
21
178.150250
0
LINE
8
Layer 1
10
11.693159
20
178.150250
11
9.426830
21
176.855000
0
LINE
8
Layer 1
10
9.426830
20
176.855000
11
9.918950
21
170.257000
0
LINE
8
Layer 1
10
9.918950
20
170.257000
11
14.674800
21
168.304000
0
LINE
8
Layer 1
10
14.674800
20
168.304000
11
13.738200
21
166.709000
0
LINE
8
Layer 1
10
13.738200
20
166.709000
11
0.133879
21
173.240000
0
LINE
8
Layer 1
10
0.133879
20
173.240000
11
0.132556
21
173.057000
0
LINE
8
Layer 1
10
0.132556
20
173.057000
11
3.010357
21
174.978969
0
LINE
8
Layer 1
10
3.010357
20
174.978969
11
6.906515
21
177.370250
0
LINE
8
Layer 1
10
6.906515
20
177.370250
11
13.147700
21
181.214000
0
LINE
8
Layer 1
10
13.147700
20
181.214000
11
14.269200
21
179.444000
0
LINE
8
Layer 1
10
14.269200
20
179.444000
11
14.269200
21
179.444000
0
LINE
8
Layer 1
10
8.461360
20
176.242000
11
5.750249
21
174.774750
0
LINE
8
Layer 1
10
5.750249
20
174.774750
11
3.161770
21
173.324000
0
LINE
8
Layer 1
10
3.161770
20
173.324000
11
8.640220
21
170.862000
0
LINE
8
Layer 1
10
8.640220
20
170.862000
11
8.461360
21
176.242000
0
LINE
8
Layer 1
10
8.461360
20
176.242000
11
8.461360
21
176.242000
0
LINE
8
Layer 1
10
9.065410
20
163.075000
11
14.780900
21
163.731000
0
LINE
8
Layer 1
10
14.780900
20
163.731000
11
14.967500
21
161.893000
0
LINE
8
Layer 1
10
14.967500
20
161.893000
11
9.200610
21
161.365000
0
LINE
8
Layer 1
10
9.200610
20
161.365000
11
7.244280
21
161.158000
0
LINE
8
Layer 1
10
7.244280
20
161.158000
11
1.705770
21
160.510000
0
LINE
8
Layer 1
10
1.705770
20
160.510000
11
1.513410
21
162.405000
0
LINE
8
Layer 1
10
1.513410
20
162.405000
11
7.018860
21
162.867000
0
LINE
8
Layer 1
10
7.018860
20
162.867000
11
9.065410
21
163.075000
0
LINE
8
Layer 1
10
9.065410
20
163.075000
11
9.065410
21
163.075000
0
LINE
8
Layer 1
10
21.139400
20
152.064000
11
2.354260
21
148.964000
0
LINE
8
Layer 1
10
2.354260
20
148.964000
11
2.151060
21
150.354000
0
LINE
8
Layer 1
10
2.151060
20
150.354000
11
20.933800
21
153.519000
0
LINE
8
Layer 1
10
20.933800
20
153.519000
11
21.139400
21
152.064000
0
LINE
8
Layer 1
10
21.139400
20
152.064000
11
21.139400
21
152.064000
0
LINE
8
Layer 1
10
12.080300
20
143.609000
11
17.682300
21
144.919000
0
LINE
8
Layer 1
10
17.682300
20
144.919000
11
18.079500
21
142.889000
0
LINE
8
Layer 1
10
18.079500
20
142.889000
11
15.116962
21
142.478750
0
LINE
8
Layer 1
10
15.116962
20
142.478750
11
12.411600
21
141.926000
0
LINE
8
Layer 1
10
12.411600
20
141.926000
11
10.402600
21
141.484000
0
LINE
8
Layer 1
10
10.402600
20
141.484000
11
7.779644
21
140.853125
0
LINE
8
Layer 1
10
7.779644
20
140.853125
11
5.065180
21
140.055000
0
LINE
8
Layer 1
10
5.065180
20
140.055000
11
4.655870
21
141.989000
0
LINE
8
Layer 1
10
4.655870
20
141.989000
11
10.226100
21
143.167000
0
LINE
8
Layer 1
10
10.226100
20
143.167000
11
12.080300
21
143.609000
0
LINE
8
Layer 1
10
12.080300
20
143.609000
11
12.080300
21
143.609000
0
LINE
8
Layer 1
10
25.340200
20
133.909000
11
7.047430
21
128.804000
0
LINE
8
Layer 1
10
7.047430
20
128.804000
11
6.654000
21
129.993000
0
LINE
8
Layer 1
10
6.654000
20
129.993000
11
24.946700
21
135.474000
0
LINE
8
Layer 1
10
24.946700
20
135.474000
11
25.340200
21
133.909000
0
LINE
8
Layer 1
10
25.340200
20
133.909000
11
25.340200
21
133.909000
0
LINE
8
Layer 1
10
15.648800
20
124.801000
11
16.779171
21
125.129264
0
LINE
8
Layer 1
10
16.779171
20
125.129264
11
18.048047
21
125.293359
0
LINE
8
Layer 1
10
18.048047
20
125.293359
11
19.395968
21
125.252494
0
LINE
8
Layer 1
10
19.395968
20
125.252494
11
20.763475
21
124.965875
0
LINE
8
Layer 1
10
20.763475
20
124.965875
11
22.091111
21
124.392709
0
LINE
8
Layer 1
10
22.091111
20
124.392709
11
23.319416
21
123.492203
0
LINE
8
Layer 1
10
23.319416
20
123.492203
11
24.388932
21
122.223564
0
LINE
8
Layer 1
10
24.388932
20
122.223564
11
25.240200
21
120.546000
0
LINE
8
Layer 1
10
25.240200
20
120.546000
11
25.640420
21
119.081312
0
LINE
8
Layer 1
10
25.640420
20
119.081312
11
25.749047
21
117.714500
0
LINE
8
Layer 1
10
25.749047
20
117.714500
11
25.591232
21
116.457188
0
LINE
8
Layer 1
10
25.591232
20
116.457188
11
25.192125
21
115.321000
0
LINE
8
Layer 1
10
25.192125
20
115.321000
11
24.576878
21
114.317563
0
LINE
8
Layer 1
10
24.576878
20
114.317563
11
23.770641
21
113.458500
0
LINE
8
Layer 1
10
23.770641
20
113.458500
11
22.798564
21
112.755437
0
LINE
8
Layer 1
10
22.798564
20
112.755437
11
21.685800
21
112.220000
0
LINE
8
Layer 1
10
21.685800
20
112.220000
11
20.213298
21
111.799201
0
LINE
8
Layer 1
10
20.213298
20
111.799201
11
18.735836
21
111.662734
0
LINE
8
Layer 1
10
18.735836
20
111.662734
11
17.290265
21
111.806369
0
LINE
8
Layer 1
10
17.290265
20
111.806369
11
15.913438
21
112.225875
0
LINE
8
Layer 1
10
15.913438
20
112.225875
11
14.642205
21
112.917021
0
LINE
8
Layer 1
10
14.642205
20
112.917021
11
13.513420
21
113.875578
0
LINE
8
Layer 1
10
13.513420
20
113.875578
11
12.563935
21
115.097314
0
LINE
8
Layer 1
10
12.563935
20
115.097314
11
11.830600
21
116.578000
0
LINE
8
Layer 1
10
11.830600
20
116.578000
11
11.468913
21
117.837080
0
LINE
8
Layer 1
10
11.468913
20
117.837080
11
11.345689
21
119.076016
0
LINE
8
Layer 1
10
11.345689
20
119.076016
11
11.461549
21
120.271850
0
LINE
8
Layer 1
10
11.461549
20
120.271850
11
11.817113
21
121.401625
0
LINE
8
Layer 1
10
11.817113
20
121.401625
11
12.412999
21
122.442385
0
LINE
8
Layer 1
10
12.412999
20
122.442385
11
13.249830
21
123.371172
0
LINE
8
Layer 1
10
13.249830
20
123.371172
11
14.328223
21
124.165029
0
LINE
8
Layer 1
10
14.328223
20
124.165029
11
15.648800
21
124.801000
0
LINE
8
Layer 1
10
15.648800
20
124.801000
11
15.648800
21
124.801000
0
LINE
8
Layer 1
10
13.366700
20
116.831000
11
13.872846
21
115.739654
0
LINE
8
Layer 1
10
13.872846
20
115.739654
11
14.554956
21
114.854547
0
LINE
8
Layer 1
10
14.554956
20
114.854547
11
15.384901
21
114.174822
0
LINE
8
Layer 1
10
15.384901
20
114.174822
11
16.334550
21
113.699625
0
LINE
8
Layer 1
10
16.334550
20
113.699625
11
17.375774
21
113.428100
0
LINE
8
Layer 1
10
17.375774
20
113.428100
11
18.480444
21
113.359391
0
LINE
8
Layer 1
10
18.480444
20
113.359391
11
19.620429
21
113.492643
0
LINE
8
Layer 1
10
19.620429
20
113.492643
11
20.767600
21
113.827000
0
LINE
8
Layer 1
10
20.767600
20
113.827000
11
21.705699
21
114.276682
0
LINE
8
Layer 1
10
21.705699
20
114.276682
11
22.519705
21
114.857016
0
LINE
8
Layer 1
10
22.519705
20
114.857016
11
23.192905
21
115.552311
0
LINE
8
Layer 1
10
23.192905
20
115.552311
11
23.708588
21
116.346875
0
LINE
8
Layer 1
10
23.708588
20
116.346875
11
24.050040
21
117.225018
0
LINE
8
Layer 1
10
24.050040
20
117.225018
11
24.200552
21
118.171047
0
LINE
8
Layer 1
10
24.200552
20
118.171047
11
24.143409
21
119.169271
0
LINE
8
Layer 1
10
24.143409
20
119.169271
11
23.861900
21
120.204000
0
LINE
8
Layer 1
10
23.861900
20
120.204000
11
23.392832
21
121.150160
0
LINE
8
Layer 1
10
23.392832
20
121.150160
11
22.759234
21
121.972031
0
LINE
8
Layer 1
10
22.759234
20
121.972031
11
21.977057
21
122.648449
0
LINE
8
Layer 1
10
21.977057
20
122.648449
11
21.062250
21
123.158250
0
LINE
8
Layer 1
10
21.062250
20
123.158250
11
20.030761
21
123.480270
0
LINE
8
Layer 1
10
20.030761
20
123.480270
11
18.898541
21
123.593344
0
LINE
8
Layer 1
10
18.898541
20
123.593344
11
17.681537
21
123.476309
0
LINE
8
Layer 1
10
17.681537
20
123.476309
11
16.395700
21
123.108000
0
LINE
8
Layer 1
10
16.395700
20
123.108000
11
15.309174
21
122.585383
0
LINE
8
Layer 1
10
15.309174
20
122.585383
11
14.435773
21
121.943000
0
LINE
8
Layer 1
10
14.435773
20
121.943000
11
13.770064
21
121.203305
0
LINE
8
Layer 1
10
13.770064
20
121.203305
11
13.306613
21
120.388750
0
LINE
8
Layer 1
10
13.306613
20
120.388750
11
13.039984
21
119.521789
0
LINE
8
Layer 1
10
13.039984
20
119.521789
11
12.964745
21
118.624875
0
LINE
8
Layer 1
10
12.964745
20
118.624875
11
13.075462
21
117.720461
0
LINE
8
Layer 1
10
13.075462
20
117.720461
11
13.366700
21
116.831000
0
LINE
8
Layer 1
10
13.366700
20
116.831000
11
13.366700
21
116.831000
0
LINE
8
Layer 1
10
20.582700
20
115.918000
11
19.285700
21
115.362000
0
LINE
8
Layer 1
10
19.285700
20
115.362000
11
18.082913
21
118.406125
0
LINE
8
Layer 1
10
18.082913
20
118.406125
11
16.744900
21
121.121000
0
LINE
8
Layer 1
10
16.744900
20
121.121000
11
18.021500
21
121.730000
0
LINE
8
Layer 1
10
18.021500
20
121.730000
11
20.582700
21
115.918000
0
LINE
8
Layer 1
10
20.582700
20
115.918000
11
20.582700
21
115.918000
0
LINE
8
Layer 1
10
35.642000
20
108.323000
11
18.375300
21
99.921500
0
LINE
8
Layer 1
10
18.375300
20
99.921500
11
17.753800
21
101.187000
0
LINE
8
Layer 1
10
17.753800
20
101.187000
11
34.851400
21
109.588000
0
LINE
8
Layer 1
10
34.851400
20
109.588000
11
35.642000
21
108.323000
0
LINE
8
Layer 1
10
35.642000
20
108.323000
11
35.642000
21
108.323000
0
LINE
8
Layer 1
10
29.208600
20
98.184500
11
33.796800
21
100.980000
0
LINE
8
Layer 1
10
33.796800
20
100.980000
11
34.764900
21
99.339400
0
LINE
8
Layer 1
10
34.764900
20
99.339400
11
30.916800
21
97.201600
0
LINE
8
Layer 1
10
30.916800
20
97.201600
11
29.210500
21
96.194900
0
LINE
8
Layer 1
10
29.210500
20
96.194900
11
33.839900
21
89.060900
0
LINE
8
Layer 1
10
33.839900
20
89.060900
11
34.890000
21
89.556800
0
LINE
8
Layer 1
10
34.890000
20
89.556800
11
38.986000
21
92.185900
0
LINE
8
Layer 1
10
38.986000
20
92.185900
11
39.925000
21
90.594500
0
LINE
8
Layer 1
10
39.925000
20
90.594500
11
38.984822
21
89.927469
0
LINE
8
Layer 1
10
38.984822
20
89.927469
11
37.384325
21
89.019500
0
LINE
8
Layer 1
10
37.384325
20
89.019500
11
34.908300
21
87.700700
0
LINE
8
Layer 1
10
34.908300
20
87.700700
11
33.136100
21
86.655100
0
LINE
8
Layer 1
10
33.136100
20
86.655100
11
28.459300
21
83.784900
0
LINE
8
Layer 1
10
28.459300
20
83.784900
11
27.491200
21
85.425600
0
LINE
8
Layer 1
10
27.491200
20
85.425600
11
29.574638
21
86.533862
0
LINE
8
Layer 1
10
29.574638
20
86.533862
11
31.477400
21
87.666800
0
LINE
8
Layer 1
10
31.477400
20
87.666800
11
32.757200
21
88.422200
0
LINE
8
Layer 1
10
32.757200
20
88.422200
11
28.127600
21
95.555900
0
LINE
8
Layer 1
10
28.127600
20
95.555900
11
26.815000
21
94.781200
0
LINE
8
Layer 1
10
26.815000
20
94.781200
11
23.260500
21
92.512100
0
LINE
8
Layer 1
10
23.260500
20
92.512100
11
22.273100
21
94.269000
0
LINE
8
Layer 1
10
22.273100
20
94.269000
11
27.568000
21
97.216400
0
LINE
8
Layer 1
10
27.568000
20
97.216400
11
29.208600
21
98.184500
0
LINE
8
Layer 1
10
29.208600
20
98.184500
11
29.208600
21
98.184500
0
LINE
8
Layer 1
10
49.902200
20
84.429100
11
34.504300
21
73.445500
0
LINE
8
Layer 1
10
34.504300
20
73.445500
11
33.674000
21
74.585100
0
LINE
8
Layer 1
10
33.674000
20
74.585100
11
49.071900
21
85.804400
0
LINE
8
Layer 1
10
49.071900
20
85.804400
11
49.902200
21
84.429100
0
LINE
8
Layer 1
10
49.902200
20
84.429100
11
49.902200
21
84.429100
0
LINE
8
Layer 1
10
43.995700
20
72.619700
11
45.058402
21
73.381978
0
LINE
8
Layer 1
10
45.058402
20
73.381978
11
46.175731
21
73.903545
0
LINE
8
Layer 1
10
46.175731
20
73.903545
11
47.329989
21
74.190149
0
LINE
8
Layer 1
10
47.329989
20
74.190149
11
48.503475
21
74.247537
0
LINE
8
Layer 1
10
48.503475
20
74.247537
11
49.678489
21
74.081459
0
LINE
8
Layer 1
10
49.678489
20
74.081459
11
50.837331
21
73.697661
0
LINE
8
Layer 1
10
50.837331
20
73.697661
11
51.962302
21
73.101892
0
LINE
8
Layer 1
10
51.962302
20
73.101892
11
53.035700
21
72.299900
0
LINE
8
Layer 1
10
53.035700
20
72.299900
11
54.379700
21
73.396300
0
LINE
8
Layer 1
10
54.379700
20
73.396300
11
55.395700
21
72.067000
0
LINE
8
Layer 1
10
55.395700
20
72.067000
11
54.144800
21
71.067400
0
LINE
8
Layer 1
10
54.144800
20
71.067400
11
54.784471
21
70.050906
0
LINE
8
Layer 1
10
54.784471
20
70.050906
11
55.250809
21
68.963478
0
LINE
8
Layer 1
10
55.250809
20
68.963478
11
55.529981
21
67.833549
0
LINE
8
Layer 1
10
55.529981
20
67.833549
11
55.608150
21
66.689550
0
LINE
8
Layer 1
10
55.608150
20
66.689550
11
55.471482
21
65.559914
0
LINE
8
Layer 1
10
55.471482
20
65.559914
11
55.106141
21
64.473072
0
LINE
8
Layer 1
10
55.106141
20
64.473072
11
54.498292
21
63.457457
0
LINE
8
Layer 1
10
54.498292
20
63.457457
11
53.634100
21
62.541500
0
LINE
8
Layer 1
10
53.634100
20
62.541500
11
52.442579
21
61.699502
0
LINE
8
Layer 1
10
52.442579
20
61.699502
11
51.214803
21
61.158341
0
LINE
8
Layer 1
10
51.214803
20
61.158341
11
49.975913
21
60.892528
0
LINE
8
Layer 1
10
49.975913
20
60.892528
11
48.751050
21
60.876575
0
LINE
8
Layer 1
10
48.751050
20
60.876575
11
47.565356
21
61.084994
0
LINE
8
Layer 1
10
47.565356
20
61.084994
11
46.443972
21
61.492297
0
LINE
8
Layer 1
10
46.443972
20
61.492297
11
45.412039
21
62.072995
0
LINE
8
Layer 1
10
45.412039
20
62.072995
11
44.494700
21
62.801600
0
LINE
8
Layer 1
10
44.494700
20
62.801600
11
43.448200
21
61.827100
0
LINE
8
Layer 1
10
43.448200
20
61.827100
11
42.306000
21
63.156400
0
LINE
8
Layer 1
10
42.306000
20
63.156400
11
42.963313
21
63.648500
0
LINE
8
Layer 1
10
42.963313
20
63.648500
11
43.383700
21
63.802200
0
LINE
8
Layer 1
10
43.383700
20
63.802200
11
42.775124
21
64.812115
0
LINE
8
Layer 1
10
42.775124
20
64.812115
11
42.320012
21
65.912661
0
LINE
8
Layer 1
10
42.320012
20
65.912661
11
42.039501
21
67.071705
0
LINE
8
Layer 1
10
42.039501
20
67.071705
11
41.954725
21
68.257113
0
LINE
8
Layer 1
10
41.954725
20
68.257113
11
42.086821
21
69.436750
0
LINE
8
Layer 1
10
42.086821
20
69.436750
11
42.456925
21
70.578483
0
LINE
8
Layer 1
10
42.456925
20
70.578483
11
43.086173
21
71.650178
0
LINE
8
Layer 1
10
43.086173
20
71.650178
11
43.995700
21
72.619700
0
LINE
8
Layer 1
10
43.995700
20
72.619700
11
43.995700
21
72.619700
0
LINE
8
Layer 1
10
52.461500
20
63.837700
11
53.166809
21
64.590226
0
LINE
8
Layer 1
10
53.166809
20
64.590226
11
53.655212
21
65.385078
0
LINE
8
Layer 1
10
53.655212
20
65.385078
11
53.946141
21
66.206954
0
LINE
8
Layer 1
10
53.946141
20
66.206954
11
54.059025
21
67.040550
0
LINE
8
Layer 1
10
54.059025
20
67.040550
11
53.828375
21
68.681697
0
LINE
8
Layer 1
10
53.828375
20
68.681697
11
53.118700
21
70.186100
0
LINE
8
Layer 1
10
53.118700
20
70.186100
11
50.072100
21
67.593500
0
LINE
8
Layer 1
10
50.072100
20
67.593500
11
48.511600
21
66.252800
0
LINE
8
Layer 1
10
48.511600
20
66.252800
11
45.506200
21
63.670500
0
LINE
8
Layer 1
10
45.506200
20
63.670500
11
47.027863
21
62.791534
0
LINE
8
Layer 1
10
47.027863
20
62.791534
11
47.877461
21
62.540554
0
LINE
8
Layer 1
10
47.877461
20
62.540554
11
48.767850
21
62.437475
0
LINE
8
Layer 1
10
48.767850
20
62.437475
11
49.685239
21
62.498975
0
LINE
8
Layer 1
10
49.685239
20
62.498975
11
50.615837
21
62.741728
0
LINE
8
Layer 1
10
50.615837
20
62.741728
11
51.545855
21
63.182411
0
LINE
8
Layer 1
10
51.545855
20
63.182411
11
52.461500
21
63.837700
0
LINE
8
Layer 1
10
52.461500
20
63.837700
11
52.461500
21
63.837700
0
LINE
8
Layer 1
10
44.436500
20
64.886200
11
47.485200
21
67.505900
0
LINE
8
Layer 1
10
47.485200
20
67.505900
11
49.045800
21
68.846500
0
LINE
8
Layer 1
10
49.045800
20
68.846500
11
52.024400
21
71.364000
0
LINE
8
Layer 1
10
52.024400
20
71.364000
11
50.645272
21
72.287961
0
LINE
8
Layer 1
10
50.645272
20
72.287961
11
49.861907
21
72.591313
0
LINE
8
Layer 1
10
49.861907
20
72.591313
11
49.025750
21
72.749387
0
LINE
8
Layer 1
10
49.025750
20
72.749387
11
48.144105
21
72.732538
0
LINE
8
Layer 1
10
48.144105
20
72.732538
11
47.224278
21
72.511120
0
LINE
8
Layer 1
10
47.224278
20
72.511120
11
46.273575
21
72.055489
0
LINE
8
Layer 1
10
46.273575
20
72.055489
11
45.299300
21
71.336000
0
LINE
8
Layer 1
10
45.299300
20
71.336000
11
44.477573
21
70.508283
0
LINE
8
Layer 1
10
44.477573
20
70.508283
11
43.916553
21
69.655581
0
LINE
8
Layer 1
10
43.916553
20
69.655581
11
43.587869
21
68.793458
0
LINE
8
Layer 1
10
43.587869
20
68.793458
11
43.463150
21
67.937475
0
LINE
8
Layer 1
10
43.463150
20
67.937475
11
43.514025
21
67.103195
0
LINE
8
Layer 1
10
43.514025
20
67.103195
11
43.712122
21
66.306181
0
LINE
8
Layer 1
10
43.712122
20
66.306181
11
44.436500
21
64.886200
0
LINE
8
Layer 1
10
44.436500
20
64.886200
11
44.436500
21
64.886200
0
LINE
8
Layer 1
10
68.179900
20
63.821000
11
54.929800
21
50.134900
0
LINE
8
Layer 1
10
54.929800
20
50.134900
11
53.917000
21
51.115200
0
LINE
8
Layer 1
10
53.917000
20
51.115200
11
67.167300
21
64.603900
0
LINE
8
Layer 1
10
67.167300
20
64.603900
11
68.179900
21
63.821000
0
LINE
8
Layer 1
10
68.179900
20
63.821000
11
68.179900
21
63.821000
0
LINE
8
Layer 1
10
76.977800
20
48.207700
11
73.603363
21
50.947125
0
LINE
8
Layer 1
10
73.603363
20
50.947125
11
70.523000
21
53.265500
0
LINE
8
Layer 1
10
70.523000
20
53.265500
11
71.576300
21
54.447100
0
LINE
8
Layer 1
10
71.576300
20
54.447100
11
80.009900
21
47.459500
0
LINE
8
Layer 1
10
80.009900
20
47.459500
11
79.890600
21
47.429900
0
LINE
8
Layer 1
10
79.890600
20
47.429900
11
72.584313
21
45.495375
0
LINE
8
Layer 1
10
72.584313
20
45.495375
11
65.610200
21
43.494400
0
LINE
8
Layer 1
10
65.610200
20
43.494400
11
71.516300
21
38.497800
0
LINE
8
Layer 1
10
71.516300
20
38.497800
11
70.546600
21
37.420100
0
LINE
8
Layer 1
10
70.546600
20
37.420100
11
62.613000
21
44.423700
0
LINE
8
Layer 1
10
62.613000
20
44.423700
11
62.637100
21
44.453300
0
LINE
8
Layer 1
10
62.637100
20
44.453300
11
70.085138
21
46.440113
0
LINE
8
Layer 1
10
70.085138
20
46.440113
11
74.689380
21
47.691120
0
LINE
8
Layer 1
10
74.689380
20
47.691120
11
76.977800
21
48.207700
0
LINE
8
Layer 1
10
76.977800
20
48.207700
11
76.977800
21
48.207700
0
LINE
8
Layer 1
10
89.752600
20
46.410900
11
79.037800
21
30.657700
0
LINE
8
Layer 1
10
79.037800
20
30.657700
11
77.872100
21
31.450600
0
LINE
8
Layer 1
10
77.872100
20
31.450600
11
88.586900
21
47.203900
0
LINE
8
Layer 1
10
88.586900
20
47.203900
11
89.752600
21
46.410900
0
LINE
8
Layer 1
10
89.752600
20
46.410900
11
89.752600
21
46.410900
0
LINE
8
Layer 1
10
113.992000
20
32.962200
11
106.151000
21
15.521100
0
LINE
8
Layer 1
10
106.151000
20
15.521100
11
104.867000
21
16.182300
0
LINE
8
Layer 1
10
104.867000
20
16.182300
11
112.707000
21
33.542400
0
LINE
8
Layer 1
10
112.707000
20
33.542400
11
113.992000
21
32.962200
0
LINE
8
Layer 1
10
113.992000
20
32.962200
11
113.992000
21
32.962200
0
LINE
8
Layer 1
10
257.824000
20
34.336700
11
268.537000
21
27.698300
0
LINE
8
Layer 1
10
268.537000
20
27.698300
11
267.626000
21
40.103800
0
LINE
8
Layer 1
10
267.626000
20
40.103800
11
269.443000
21
40.130800
0
LINE
8
Layer 1
10
269.443000
20
40.130800
11
269.817250
21
32.075250
0
LINE
8
Layer 1
10
269.817250
20
32.075250
11
270.130000
21
24.944000
0
LINE
8
Layer 1
10
270.130000
20
24.944000
11
270.097000
21
24.924700
0
LINE
8
Layer 1
10
270.097000
20
24.924700
11
267.172391
21
26.549919
0
LINE
8
Layer 1
10
267.172391
20
26.549919
11
263.275125
21
28.894275
0
LINE
8
Layer 1
10
263.275125
20
28.894275
11
256.937000
21
32.646800
0
LINE
8
Layer 1
10
256.937000
20
32.646800
11
257.824000
21
34.336700
0
LINE
8
Layer 1
10
257.824000
20
34.336700
11
257.824000
21
34.336700
0
LINE
8
Layer 1
10
284.161000
20
33.739800
11
283.013000
21
32.921200
0
LINE
8
Layer 1
10
283.013000
20
32.921200
11
271.951000
21
48.432100
0
LINE
8
Layer 1
10
271.951000
20
48.432100
11
273.099000
21
49.250700
0
LINE
8
Layer 1
10
273.099000
20
49.250700
11
284.161000
21
33.739800
0
LINE
8
Layer 1
10
284.161000
20
33.739800
11
284.161000
21
33.739800
0
LINE
8
Layer 1
10
290.143000
20
57.307800
11
291.325475
21
58.194628
0
LINE
8
Layer 1
10
291.325475
20
58.194628
11
292.542672
21
58.782167
0
LINE
8
Layer 1
10
292.542672
20
58.782167
11
293.769877
21
59.087826
0
LINE
8
Layer 1
10
293.769877
20
59.087826
11
294.982375
21
59.129013
0
LINE
8
Layer 1
10
294.982375
20
59.129013
11
296.155451
21
58.923135
0
LINE
8
Layer 1
10
296.155451
20
58.923135
11
297.264391
21
58.487602
0
LINE
8
Layer 1
10
297.264391
20
58.487602
11
298.284479
21
57.839821
0
LINE
8
Layer 1
10
298.284479
20
57.839821
11
299.191000
21
56.997200
0
LINE
8
Layer 1
10
299.191000
20
56.997200
11
300.121594
21
55.758541
0
LINE
8
Layer 1
10
300.121594
20
55.758541
11
300.785188
21
54.421747
0
LINE
8
Layer 1
10
300.785188
20
54.421747
11
301.173250
21
53.020617
0
LINE
8
Layer 1
10
301.173250
20
53.020617
11
301.277250
21
51.588950
0
LINE
8
Layer 1
10
301.277250
20
51.588950
11
301.088656
21
50.160546
0
LINE
8
Layer 1
10
301.088656
20
50.160546
11
300.598938
21
48.769203
0
LINE
8
Layer 1
10
300.598938
20
48.769203
11
299.799562
21
47.448721
0
LINE
8
Layer 1
10
299.799562
20
47.448721
11
298.682000
21
46.232900
0
LINE
8
Layer 1
10
298.682000
20
46.232900
11
297.647883
21
45.441044
0
LINE
8
Layer 1
10
297.647883
20
45.441044
11
296.559813
21
44.878355
0
LINE
8
Layer 1
10
296.559813
20
44.878355
11
295.430961
21
44.553122
0
LINE
8
Layer 1
10
295.430961
20
44.553122
11
294.274500
21
44.473637
0
LINE
8
Layer 1
10
294.274500
20
44.473637
11
293.103602
21
44.648192
0
LINE
8
Layer 1
10
293.103602
20
44.648192
11
291.931438
21
45.085077
0
LINE
8
Layer 1
10
291.931438
20
45.085077
11
290.771180
21
45.792582
0
LINE
8
Layer 1
10
290.771180
20
45.792582
11
289.636000
21
46.779000
0
LINE
8
Layer 1
10
289.636000
20
46.779000
11
288.921842
21
47.721673
0
LINE
8
Layer 1
10
288.921842
20
47.721673
11
288.310797
21
48.836142
0
LINE
8
Layer 1
10
288.310797
20
48.836142
11
287.862385
21
50.089856
0
LINE
8
Layer 1
10
287.862385
20
50.089856
11
287.636125
21
51.450262
0
LINE
8
Layer 1
10
287.636125
20
51.450262
11
287.691537
21
52.884812
0
LINE
8
Layer 1
10
287.691537
20
52.884812
11
288.088141
21
54.360952
0
LINE
8
Layer 1
10
288.088141
20
54.360952
11
288.885455
21
55.846131
0
LINE
8
Layer 1
10
288.885455
20
55.846131
11
290.143000
21
57.307800
0
LINE
8
Layer 1
10
290.143000
20
57.307800
11
290.143000
21
57.307800
0
LINE
8
Layer 1
10
290.945000
20
47.948400
11
291.830244
21
47.184754
0
LINE
8
Layer 1
10
291.830244
20
47.184754
11
292.760266
21
46.646506
0
LINE
8
Layer 1
10
292.760266
20
46.646506
11
293.713748
21
46.321305
0
LINE
8
Layer 1
10
293.713748
20
46.321305
11
294.669375
21
46.196800
0
LINE
8
Layer 1
10
294.669375
20
46.196800
11
295.605830
21
46.260638
0
LINE
8
Layer 1
10
295.605830
20
46.260638
11
296.501797
21
46.500469
0
LINE
8
Layer 1
10
296.501797
20
46.500469
11
297.335959
21
46.903940
0
LINE
8
Layer 1
10
297.335959
20
46.903940
11
298.087000
21
47.458700
0
LINE
8
Layer 1
10
298.087000
20
47.458700
11
298.858133
21
48.324821
0
LINE
8
Layer 1
10
298.858133
20
48.324821
11
299.389312
21
49.288622
0
LINE
8
Layer 1
10
299.389312
20
49.288622
11
299.689211
21
50.318475
0
LINE
8
Layer 1
10
299.689211
20
50.318475
11
299.766500
21
51.382750
0
LINE
8
Layer 1
10
299.766500
20
51.382750
11
299.629852
21
52.449819
0
LINE
8
Layer 1
10
299.629852
20
52.449819
11
299.287937
21
53.488053
0
LINE
8
Layer 1
10
299.287937
20
53.488053
11
298.749430
21
54.465823
0
LINE
8
Layer 1
10
298.749430
20
54.465823
11
298.023000
21
55.351500
0
LINE
8
Layer 1
10
298.023000
20
55.351500
11
297.273586
21
56.108091
0
LINE
8
Layer 1
10
297.273586
20
56.108091
11
296.459250
21
56.698019
0
LINE
8
Layer 1
10
296.459250
20
56.698019
11
295.593352
21
57.110712
0
LINE
8
Layer 1
10
295.593352
20
57.110712
11
294.689250
21
57.335600
0
LINE
8
Layer 1
10
294.689250
20
57.335600
11
293.760305
21
57.362113
0
LINE
8
Layer 1
10
293.760305
20
57.362113
11
292.819875
21
57.179681
0
LINE
8
Layer 1
10
292.819875
20
57.179681
11
291.881320
21
56.777734
0
LINE
8
Layer 1
10
291.881320
20
56.777734
11
290.958000
21
56.145700
0
LINE
8
Layer 1
10
290.958000
20
56.145700
11
290.244877
21
55.348621
0
LINE
8
Layer 1
10
290.244877
20
55.348621
11
289.707078
21
54.450211
0
LINE
8
Layer 1
10
289.707078
20
54.450211
11
289.358584
21
53.468624
0
LINE
8
Layer 1
10
289.358584
20
53.468624
11
289.213375
21
52.422012
0
LINE
8
Layer 1
10
289.213375
20
52.422012
11
289.285432
21
51.328531
0
LINE
8
Layer 1
10
289.285432
20
51.328531
11
289.588734
21
50.206333
0
LINE
8
Layer 1
10
289.588734
20
50.206333
11
290.137264
21
49.073571
0
LINE
8
Layer 1
10
290.137264
20
49.073571
11
290.945000
21
47.948400
0
LINE
8
Layer 1
10
290.945000
20
47.948400
11
290.945000
21
47.948400
0
LINE
8
Layer 1
10
296.140000
20
54.634200
11
297.126000
21
53.625100
0
LINE
8
Layer 1
10
297.126000
20
53.625100
11
292.672000
21
49.176900
0
LINE
8
Layer 1
10
292.672000
20
49.176900
11
291.643000
21
50.147900
0
LINE
8
Layer 1
10
291.643000
20
50.147900
11
296.140000
21
54.634200
0
LINE
8
Layer 1
10
296.140000
20
54.634200
11
296.140000
21
54.634200
0
LINE
8
Layer 1
10
297.437000
20
61.961000
11
297.316000
21
63.790100
0
LINE
8
Layer 1
10
297.316000
20
63.790100
11
301.913875
21
63.779350
0
LINE
8
Layer 1
10
301.913875
20
63.779350
11
307.099000
21
63.900900
0
LINE
8
Layer 1
10
307.099000
20
63.900900
11
307.388000
21
55.149600
0
LINE
8
Layer 1
10
307.388000
20
55.149600
11
305.715000
21
55.197000
0
LINE
8
Layer 1
10
305.715000
20
55.197000
11
305.743000
21
62.247800
0
LINE
8
Layer 1
10
305.743000
20
62.247800
11
297.437000
21
61.961000
0
LINE
8
Layer 1
10
297.437000
20
61.961000
11
297.437000
21
61.961000
0
LINE
8
Layer 1
10
301.852000
20
68.833600
11
303.150000
21
70.228400
0
LINE
8
Layer 1
10
303.150000
20
70.228400
11
307.437000
21
66.110200
0
LINE
8
Layer 1
10
307.437000
20
66.110200
11
308.915000
21
64.734900
0
LINE
8
Layer 1
10
308.915000
20
64.734900
11
313.193000
21
60.886000
0
LINE
8
Layer 1
10
313.193000
20
60.886000
11
311.895000
21
59.491100
0
LINE
8
Layer 1
10
311.895000
20
59.491100
11
307.887000
21
63.349800
0
LINE
8
Layer 1
10
307.887000
20
63.349800
11
306.380000
21
64.751000
0
LINE
8
Layer 1
10
306.380000
20
64.751000
11
301.852000
21
68.833600
0
LINE
8
Layer 1
10
301.852000
20
68.833600
11
301.852000
21
68.833600
0
LINE
8
Layer 1
10
306.291000
20
81.250200
11
321.286000
21
69.497900
0
LINE
8
Layer 1
10
321.286000
20
69.497900
11
320.468000
21
68.388300
0
LINE
8
Layer 1
10
320.468000
20
68.388300
11
305.422000
21
80.140500
0
LINE
8
Layer 1
10
305.422000
20
80.140500
11
306.291000
21
81.250200
0
LINE
8
Layer 1
10
306.291000
20
81.250200
11
306.291000
21
81.250200
0
LINE
8
Layer 1
10
316.669000
20
87.275800
11
317.676000
21
88.821200
0
LINE
8
Layer 1
10
317.676000
20
88.821200
11
321.350000
21
86.469900
0
LINE
8
Layer 1
10
321.350000
20
86.469900
11
323.032000
21
85.422600
0
LINE
8
Layer 1
10
323.032000
20
85.422600
11
327.216000
21
92.825400
0
LINE
8
Layer 1
10
327.216000
20
92.825400
11
326.181000
21
93.469700
0
LINE
8
Layer 1
10
326.181000
20
93.469700
11
322.066000
21
95.942500
0
LINE
8
Layer 1
10
322.066000
20
95.942500
11
323.042000
21
97.510700
0
LINE
8
Layer 1
10
323.042000
20
97.510700
11
327.928000
21
94.401300
0
LINE
8
Layer 1
10
327.928000
20
94.401300
11
329.705000
21
93.313800
0
LINE
8
Layer 1
10
329.705000
20
93.313800
11
334.381000
21
90.495000
0
LINE
8
Layer 1
10
334.381000
20
90.495000
11
333.374000
21
88.675700
0
LINE
8
Layer 1
10
333.374000
20
88.675700
11
331.466500
21
90.113612
0
LINE
8
Layer 1
10
331.466500
20
90.113612
11
329.544000
21
91.375500
0
LINE
8
Layer 1
10
329.544000
20
91.375500
11
328.283000
21
92.160800
0
LINE
8
Layer 1
10
328.283000
20
92.160800
11
324.099000
21
84.758000
0
LINE
8
Layer 1
10
324.099000
20
84.758000
11
325.393000
21
83.952600
0
LINE
8
Layer 1
10
325.393000
20
83.952600
11
327.145625
21
82.821225
0
LINE
8
Layer 1
10
327.145625
20
82.821225
11
328.974000
21
81.812100
0
LINE
8
Layer 1
10
328.974000
20
81.812100
11
327.947000
21
80.105900
0
LINE
8
Layer 1
10
327.947000
20
80.105900
11
322.886000
21
83.494100
0
LINE
8
Layer 1
10
322.886000
20
83.494100
11
321.269000
21
84.501100
0
LINE
8
Layer 1
10
321.269000
20
84.501100
11
319.100625
21
85.877837
0
LINE
8
Layer 1
10
319.100625
20
85.877837
11
316.669000
21
87.275800
0
LINE
8
Layer 1
10
316.669000
20
87.275800
11
316.669000
21
87.275800
0
LINE
8
Layer 1
10
326.041000
20
100.324000
11
325.408000
21
102.044000
0
LINE
8
Layer 1
10
325.408000
20
102.044000
11
334.758000
21
104.922000
0
LINE
8
Layer 1
10
334.758000
20
104.922000
11
337.515000
21
96.611900
0
LINE
8
Layer 1
10
337.515000
20
96.611900
11
335.897000
21
96.183200
0
LINE
8
Layer 1
10
335.897000
20
96.183200
11
334.997625
21
99.359075
0
LINE
8
Layer 1
10
334.997625
20
99.359075
11
334.126000
21
102.953000
0
LINE
8
Layer 1
10
334.126000
20
102.953000
11
330.024625
21
101.686500
0
LINE
8
Layer 1
10
330.024625
20
101.686500
11
326.041000
21
100.324000
0
LINE
8
Layer 1
10
326.041000
20
100.324000
11
326.041000
21
100.324000
0
LINE
8
Layer 1
10
333.828000
20
105.534000
11
328.328000
21
108.165000
0
LINE
8
Layer 1
10
328.328000
20
108.165000
11
329.177000
21
109.871000
0
LINE
8
Layer 1
10
329.177000
20
109.871000
11
334.658000
21
106.956000
0
LINE
8
Layer 1
10
334.658000
20
106.956000
11
336.263000
21
106.237000
0
LINE
8
Layer 1
10
336.263000
20
106.237000
11
341.456000
21
103.758000
0
LINE
8
Layer 1
10
341.456000
20
103.758000
11
340.607000
21
102.052000
0
LINE
8
Layer 1
10
340.607000
20
102.052000
11
335.670000
21
104.617000
0
LINE
8
Layer 1
10
335.670000
20
104.617000
11
333.828000
21
105.534000
0
LINE
8
Layer 1
10
333.828000
20
105.534000
11
333.828000
21
105.534000
0
LINE
8
Layer 1
10
329.056000
20
121.325000
11
346.771000
21
114.320000
0
LINE
8
Layer 1
10
346.771000
20
114.320000
11
346.253000
21
113.009000
0
LINE
8
Layer 1
10
346.253000
20
113.009000
11
328.537000
21
120.014000
0
LINE
8
Layer 1
10
328.537000
20
120.014000
11
329.056000
21
121.325000
0
LINE
8
Layer 1
10
329.056000
20
121.325000
11
329.056000
21
121.325000
0
LINE
8
Layer 1
10
342.479000
20
122.563000
11
341.228537
21
123.045441
0
LINE
8
Layer 1
10
341.228537
20
123.045441
11
340.152484
21
123.716906
0
LINE
8
Layer 1
10
340.152484
20
123.716906
11
339.258846
21
124.556605
0
LINE
8
Layer 1
10
339.258846
20
124.556605
11
338.555625
21
125.543750
0
LINE
8
Layer 1
10
338.555625
20
125.543750
11
338.050826
21
126.657551
0
LINE
8
Layer 1
10
338.050826
20
126.657551
11
337.752453
21
127.877219
0
LINE
8
Layer 1
10
337.752453
20
127.877219
11
337.668510
21
129.181965
0
LINE
8
Layer 1
10
337.668510
20
129.181965
11
337.807000
21
130.551000
0
LINE
8
Layer 1
10
337.807000
20
130.551000
11
336.229000
21
130.992000
0
LINE
8
Layer 1
10
336.229000
20
130.992000
11
336.739000
21
132.668000
0
LINE
8
Layer 1
10
336.739000
20
132.668000
11
338.253000
21
132.147000
0
LINE
8
Layer 1
10
338.253000
20
132.147000
11
338.776271
21
133.226943
0
LINE
8
Layer 1
10
338.776271
20
133.226943
11
339.462984
21
134.191234
0
LINE
8
Layer 1
10
339.462984
20
134.191234
11
340.290111
21
135.017314
0
LINE
8
Layer 1
10
340.290111
20
135.017314
11
341.234625
21
135.682625
0
LINE
8
Layer 1
10
341.234625
20
135.682625
11
342.273498
21
136.164607
0
LINE
8
Layer 1
10
342.273498
20
136.164607
11
343.383703
21
136.440703
0
LINE
8
Layer 1
10
343.383703
20
136.440703
11
344.542213
21
136.488354
0
LINE
8
Layer 1
10
344.542213
20
136.488354
11
345.726000
21
136.285000
0
LINE
8
Layer 1
10
345.726000
20
136.285000
11
347.075279
21
135.723861
0
LINE
8
Layer 1
10
347.075279
20
135.723861
11
348.189984
21
134.962016
0
LINE
8
Layer 1
10
348.189984
20
134.962016
11
349.078166
21
134.039693
0
LINE
8
Layer 1
10
349.078166
20
134.039693
11
349.747875
21
132.997125
0
LINE
8
Layer 1
10
349.747875
20
132.997125
11
350.207162
21
131.874541
0
LINE
8
Layer 1
10
350.207162
20
131.874541
11
350.464078
21
130.712172
0
LINE
8
Layer 1
10
350.464078
20
130.712172
11
350.526674
21
129.550248
0
LINE
8
Layer 1
10
350.526674
20
129.550248
11
350.403000
21
128.429000
0
LINE
8
Layer 1
10
350.403000
20
128.429000
11
351.787000
21
128.068000
0
LINE
8
Layer 1
10
351.787000
20
128.068000
11
351.276000
21
126.391000
0
LINE
8
Layer 1
10
351.276000
20
126.391000
11
349.981000
21
126.845000
0
LINE
8
Layer 1
10
349.981000
20
126.845000
11
349.511566
21
125.761699
0
LINE
8
Layer 1
10
349.511566
20
125.761699
11
348.870406
21
124.782344
0
LINE
8
Layer 1
10
348.870406
20
124.782344
11
348.076480
21
123.933254
0
LINE
8
Layer 1
10
348.076480
20
123.933254
11
347.148750
21
123.240750
0
LINE
8
Layer 1
10
347.148750
20
123.240750
11
346.106176
21
122.731152
0
LINE
8
Layer 1
10
346.106176
20
122.731152
11
344.967719
21
122.430781
0
LINE
8
Layer 1
10
344.967719
20
122.430781
11
343.752340
21
122.365957
0
LINE
8
Layer 1
10
343.752340
20
122.365957
11
342.479000
21
122.563000
0
LINE
8
Layer 1
10
342.479000
20
122.563000
11
342.479000
21
122.563000
0
LINE
8
Layer 1
10
345.424000
20
134.544000
11
344.356328
21
134.754908
0
LINE
8
Layer 1
10
344.356328
20
134.754908
11
343.382687
21
134.754328
0
LINE
8
Layer 1
10
343.382687
20
134.754328
11
342.503641
21
134.566553
0
LINE
8
Layer 1
10
342.503641
20
134.566553
11
341.719750
21
134.215875
0
LINE
8
Layer 1
10
341.719750
20
134.215875
11
341.031578
21
133.726588
0
LINE
8
Layer 1
10
341.031578
20
133.726588
11
340.439687
21
133.122984
0
LINE
8
Layer 1
10
340.439687
20
133.122984
11
339.547000
21
131.670000
0
LINE
8
Layer 1
10
339.547000
20
131.670000
11
343.369000
21
130.571000
0
LINE
8
Layer 1
10
343.369000
20
130.571000
11
345.337000
21
129.972000
0
LINE
8
Layer 1
10
345.337000
20
129.972000
11
349.128000
21
128.818000
0
LINE
8
Layer 1
10
349.128000
20
128.818000
11
349.060281
21
130.567828
0
LINE
8
Layer 1
10
349.060281
20
130.567828
11
348.825621
21
131.413287
0
LINE
8
Layer 1
10
348.825621
20
131.413287
11
348.449750
21
132.212375
0
LINE
8
Layer 1
10
348.449750
20
132.212375
11
347.927160
21
132.945041
0
LINE
8
Layer 1
10
347.927160
20
132.945041
11
347.252344
21
133.591234
0
LINE
8
Layer 1
10
347.252344
20
133.591234
11
346.419793
21
134.130904
0
LINE
8
Layer 1
10
346.419793
20
134.130904
11
345.424000
21
134.544000
0
LINE
8
Layer 1
10
345.424000
20
134.544000
11
345.424000
21
134.544000
0
LINE
8
Layer 1
10
348.674000
20
127.053000
11
346.726375
21
127.837250
0
LINE
8
Layer 1
10
346.726375
20
127.837250
11
344.829000
21
128.434000
0
LINE
8
Layer 1
10
344.829000
20
128.434000
11
342.861000
21
129.033000
0
LINE
8
Layer 1
10
342.861000
20
129.033000
11
339.083000
21
130.046000
0
LINE
8
Layer 1
10
339.083000
20
130.046000
11
339.074734
21
128.380578
0
LINE
8
Layer 1
10
339.074734
20
128.380578
11
339.249377
21
127.578225
0
LINE
8
Layer 1
10
339.249377
20
127.578225
11
339.572625
21
126.816875
0
LINE
8
Layer 1
10
339.572625
20
126.816875
11
340.066545
21
126.112104
0
LINE
8
Layer 1
10
340.066545
20
126.112104
11
340.753203
21
125.479484
0
LINE
8
Layer 1
10
340.753203
20
125.479484
11
341.654666
21
124.934592
0
LINE
8
Layer 1
10
341.654666
20
124.934592
11
342.793000
21
124.493000
0
LINE
8
Layer 1
10
342.793000
20
124.493000
11
343.923352
21
124.256336
0
LINE
8
Layer 1
10
343.923352
20
124.256336
11
344.937313
21
124.247250
0
LINE
8
Layer 1
10
344.937313
20
124.247250
11
345.836617
21
124.431477
0
LINE
8
Layer 1
10
345.836617
20
124.431477
11
346.623000
21
124.774750
0
LINE
8
Layer 1
10
346.623000
20
124.774750
11
347.863938
21
125.801375
0
LINE
8
Layer 1
10
347.863938
20
125.801375
11
348.674000
21
127.053000
0
LINE
8
Layer 1
10
348.674000
20
127.053000
11
348.674000
21
127.053000
0
LINE
8
Layer 1
10
341.262000
20
139.616000
11
340.215000
21
141.121000
0
LINE
8
Layer 1
10
340.215000
20
141.121000
11
348.535000
21
146.265000
0
LINE
8
Layer 1
10
348.535000
20
146.265000
11
353.300000
21
138.920000
0
LINE
8
Layer 1
10
353.300000
20
138.920000
11
351.843000
21
137.952000
0
LINE
8
Layer 1
10
351.843000
20
137.952000
11
350.209375
21
140.975250
0
LINE
8
Layer 1
10
350.209375
20
140.975250
11
349.135266
21
142.816781
0
LINE
8
Layer 1
10
349.135266
20
142.816781
11
348.227000
21
144.150000
0
LINE
8
Layer 1
10
348.227000
20
144.150000
11
341.262000
21
139.616000
0
LINE
8
Layer 1
10
341.262000
20
139.616000
11
341.262000
21
139.616000
0
LINE
8
Layer 1
10
347.481000
20
146.623000
11
341.495000
21
147.781000
0
LINE
8
Layer 1
10
341.495000
20
147.781000
11
341.886000
21
149.646000
0
LINE
8
Layer 1
10
341.886000
20
149.646000
11
347.882000
21
148.332000
0
LINE
8
Layer 1
10
347.882000
20
148.332000
11
349.660000
21
147.917000
0
LINE
8
Layer 1
10
349.660000
20
147.917000
11
352.932375
21
147.262250
0
LINE
8
Layer 1
10
352.932375
20
147.262250
11
355.310000
21
146.693000
0
LINE
8
Layer 1
10
355.310000
20
146.693000
11
354.919000
21
144.965000
0
LINE
8
Layer 1
10
354.919000
20
144.965000
11
349.495000
21
146.200000
0
LINE
8
Layer 1
10
349.495000
20
146.200000
11
347.481000
21
146.623000
0
LINE
8
Layer 1
10
347.481000
20
146.623000
11
347.481000
21
146.623000
0
LINE
8
Layer 1
10
339.434000
20
166.227000
11
358.413000
21
164.571000
0
LINE
8
Layer 1
10
358.413000
20
164.571000
11
358.291000
21
163.167000
0
LINE
8
Layer 1
10
358.291000
20
163.167000
11
339.312000
21
164.698000
0
LINE
8
Layer 1
10
339.312000
20
164.698000
11
339.434000
21
166.227000
0
LINE
8
Layer 1
10
339.434000
20
166.227000
11
339.434000
21
166.227000
0
LINE
8
Layer 1
10
344.393000
20
170.550000
11
344.839000
21
181.419000
0
LINE
8
Layer 1
10
344.839000
20
181.419000
11
344.877000
21
181.419000
0
LINE
8
Layer 1
10
344.877000
20
181.419000
11
350.868375
21
176.808750
0
LINE
8
Layer 1
10
350.868375
20
176.808750
11
356.709000
21
172.482000
0
LINE
8
Layer 1
10
356.709000
20
172.482000
11
357.063000
21
180.236000
0
LINE
8
Layer 1
10
357.063000
20
180.236000
11
358.508000
21
180.126000
0
LINE
8
Layer 1
10
358.508000
20
180.126000
11
357.802000
21
169.568000
0
LINE
8
Layer 1
10
357.802000
20
169.568000
11
357.765000
21
169.569000
0
LINE
8
Layer 1
10
357.765000
20
169.569000
11
351.643250
21
174.218875
0
LINE
8
Layer 1
10
351.643250
20
174.218875
11
346.024000
21
178.343000
0
LINE
8
Layer 1
10
346.024000
20
178.343000
11
345.971000
21
170.437000
0
LINE
8
Layer 1
10
345.971000
20
170.437000
11
344.393000
21
170.550000
0
LINE
8
Layer 1
10
344.393000
20
170.550000
11
344.393000
21
170.550000
 0 
ENDSEC
 0 
EOF