<svg 
 xmlns="http://www.w3.org/2000/svg"
 xmlns:xlink="http://www.w3.org/1999/xlink"
 width="2067px" height="2069px">
<path fill-rule="evenodd"  fill="rgb(17, 7, 8)"
 d="M2054.220,1088.77 C2054.336,1083.791 2054.323,1059.660 2054.382,1057.517 L2020.356,1056.591 C2020.291,1059.2 2020.494,1076.166 2021.119,1082.752 L2010.525,1082.866 C2010.605,1079.919 2011.710,1059.36 2011.783,1056.357 L1979.98,1055.467 C1979.10,1058.682 1978.120,1076.622 1978.624,1087.628 L1967.89,1087.850 C1967.148,1085.707 1969.585,1045.422 1969.658,1042.743 C1976.747,1043.338 2005.414,1044.119 2008.495,1044.203 L2026.445,1044.691 C2028.588,1044.750 2060.879,1045.361 2063.428,1045.296 C2063.340,1048.511 2064.398,1083.528 2064.817,1087.830 L2054.220,1088.77 ZM2017.680,971.208 C2012.865,975.681 1983.629,1009.656 1979.8,1015.56 L1969.79,1006.832 C1970.865,1005.375 2009.731,962.454 2015.780,956.291 C2018.66,958.427 2058.238,994.246 2061.913,997.98 L2053.586,1005.422 C2048.445,1000.650 2025.223,977.840 2017.680,971.208 ZM2007.963,955.854 C1997.666,956.517 1967.737,958.846 1965.213,959.277 L1964.353,945.904 C1968.248,945.922 1990.874,944.869 2006.119,943.887 L2020.294,942.975 C2031.928,942.227 2057.561,939.906 2060.637,939.708 L2061.498,953.80 C2059.349,953.84 2034.40,954.176 2022.406,954.925 L2007.963,955.854 ZM1926.902,906.950 L2059.654,888.715 L2061.3,898.539 L1928.251,916.773 L1926.902,906.950 ZM1957.805,878.542 L1957.383,878.502 C1955.391,867.410 1950.750,847.165 1945.721,825.222 C1941.698,808.271 1937.697,790.217 1933.844,774.603 L1934.206,774.382 C1947.96,778.439 2021.251,797.874 2040.376,803.938 L2040.436,804.200 C2025.660,818.310 1969.454,866.387 1957.805,878.542 ZM2019.840,808.508 C2008.525,805.327 1950.664,790.407 1948.305,789.710 C1949.42,793.528 1952.164,808.347 1955.547,823.107 C1958.829,838.27 1962.533,852.988 1963.853,856.947 C1965.875,854.971 2011.241,815.978 2019.840,808.508 ZM1965.222,711.686 C1961.778,717.283 1942.688,757.834 1939.679,764.273 L1927.914,759.3 C1929.245,757.121 1955.223,705.376 1959.404,697.820 C1962.177,699.267 2010.461,723.44 2014.764,724.810 L2008.966,735.56 C2002.736,731.833 1974.263,716.60 1965.222,711.686 ZM1951.755,699.489 C1942.10,702.879 1913.794,713.123 1911.478,714.213 L1907.74,701.557 C1910.832,700.533 1932.352,693.471 1946.780,688.451 L1960.195,683.783 C1971.205,679.952 1995.284,670.864 1998.195,669.851 L2002.598,682.506 C2000.529,683.84 1976.434,690.901 1965.424,694.732 L1951.755,699.489 ZM1860.550,674.62 L1983.551,620.900 L1987.485,630.2 L1864.484,683.164 L1860.550,674.62 ZM1939.641,564.890 L1909.453,580.610 C1895.904,587.666 1871.245,600.658 1864.604,605.22 L1858.415,593.137 C1864.900,590.213 1890.334,576.969 1893.67,575.546 L1908.993,567.252 C1910.895,566.262 1939.414,551.109 1941.610,549.814 C1943.96,552.667 1961.32,582.758 1963.488,586.314 L1954.346,591.679 C1952.365,587.875 1940.631,566.792 1939.641,564.890 ZM1866.148,507.267 C1864.83,513.506 1854.831,557.361 1853.383,564.318 L1840.721,561.895 C1841.584,559.757 1854.965,503.426 1857.297,495.111 C1860.329,495.881 1912.786,507.917 1917.380,508.646 L1914.93,519.951 C1907.290,518.246 1875.953,509.444 1866.148,507.267 ZM1850.237,498.493 C1841.533,504.34 1816.429,520.492 1814.425,522.86 L1807.229,510.782 C1810.651,508.921 1829.970,497.99 1842.856,488.896 L1854.838,481.268 C1864.672,475.7 1886.16,460.626 1888.616,458.971 L1895.812,470.274 C1893.931,471.313 1872.279,484.461 1862.445,490.722 L1850.237,498.493 ZM1755.640,494.697 L1863.169,414.741 L1869.86,422.698 L1761.557,502.654 L1755.640,494.697 ZM1797.622,377.89 C1793.856,380.516 1785.215,384.756 1770.799,378.669 L1770.601,378.850 C1775.733,386.680 1778.218,400.361 1769.299,408.477 C1757.505,419.209 1732.491,414.614 1710.749,390.919 L1710.27,390.126 C1715.929,385.662 1745.859,358.428 1747.742,356.714 L1758.743,346.705 C1761.716,343.999 1778.185,328.651 1779.996,326.460 C1784.775,331.712 1788.825,336.361 1791.846,340.677 C1808.378,362.230 1803.172,372.39 1797.622,377.89 ZM1725.369,392.652 C1736.289,402.463 1750.370,407.585 1759.686,399.108 C1766.624,392.795 1764.85,380.250 1752.128,368.304 L1725.369,392.652 ZM1781.860,341.250 L1757.777,363.163 C1767.994,373.795 1781.217,374.987 1787.857,368.945 C1796.777,360.829 1787.884,348.268 1781.860,341.250 ZM1695.327,305.75 C1694.991,311.638 1697.701,356.377 1698.151,363.470 L1685.299,364.492 C1685.564,362.201 1683.526,304.337 1683.569,295.701 C1686.696,295.640 1740.468,293.332 1745.91,292.816 L1744.920,304.589 C1737.908,304.749 1705.358,304.574 1695.327,305.75 ZM1687.368,290.104 L1677.659,300.835 C1670.736,308.486 1650.895,331.14 1649.386,333.82 L1639.449,324.91 C1642.255,321.389 1657.747,304.866 1667.997,293.539 L1677.526,283.6 C1685.348,274.361 1702.113,254.834 1704.181,252.548 L1714.117,261.539 C1712.580,263.39 1695.190,281.459 1687.368,290.104 ZM1585.433,322.247 L1667.937,216.656 L1675.751,222.761 L1593.247,328.352 L1585.433,322.247 ZM1575.90,274.846 C1575.614,269.115 1578.650,238.340 1578.581,235.739 L1538.552,212.4 C1535.818,213.264 1512.523,228.979 1508.132,231.561 L1502.708,219.734 C1515.892,212.955 1589.695,170.111 1595.164,167.589 L1595.389,167.735 C1594.924,190.116 1588.671,258.100 1588.730,274.750 L1575.90,274.846 ZM1547.188,207.64 L1579.876,226.356 C1580.244,223.81 1583.412,187.918 1583.455,185.390 C1580.164,186.769 1549.367,205.922 1547.188,207.64 ZM1495.209,210.962 L1483.92,215.364 C1482.739,213.86 1465.387,157.850 1463.132,149.514 C1466.131,148.623 1517.350,132.100 1521.669,130.374 L1524.635,141.767 C1517.918,143.787 1486.495,152.273 1476.959,155.423 C1478.380,161.839 1492.890,204.244 1495.209,210.962 ZM1458.800,156.35 C1454.162,165.251 1441.26,192.242 1440.121,194.636 L1428.152,188.612 C1430.139,185.262 1440.679,165.215 1447.546,151.570 L1453.932,138.883 C1459.173,128.470 1470.141,105.188 1471.526,102.436 L1483.495,108.460 C1482.412,110.315 1470.547,132.695 1465.306,143.108 L1458.800,156.35 ZM1375.626,201.244 L1426.987,77.480 L1436.145,81.281 L1384.784,205.45 L1375.626,201.244 ZM1363.234,150.32 L1351.942,156.253 C1351.241,154.57 1325.564,102.162 1322.48,94.275 C1324.874,92.931 1372.927,68.693 1376.928,66.320 L1381.619,77.119 C1375.294,80.152 1345.558,93.391 1336.623,97.977 C1339.18,104.97 1359.905,143.753 1363.234,150.32 ZM1318.776,101.386 C1315.616,111.208 1306.808,139.906 1306.284,142.412 L1293.527,138.308 C1294.972,134.691 1302.289,113.256 1306.967,98.714 L1311.316,85.192 C1314.886,74.94 1322.126,49.397 1323.70,46.463 L1335.826,50.566 C1335.42,52.566 1326.777,76.511 1323.207,87.609 L1318.776,101.386 ZM1243.575,158.909 L1275.176,28.691 L1284.812,31.29 L1253.211,161.248 L1243.575,158.909 ZM1222.646,80.556 C1222.386,82.279 1217.658,115.446 1217.543,118.3 L1204.292,116.6 C1205.369,111.561 1209.322,88.34 1209.701,85.517 L1211.779,71.736 L1152.301,65.345 L1151.23,73.826 C1150.124,79.789 1146.846,104.230 1146.519,107.297 L1133.666,105.360 C1134.810,99.570 1139.616,68.583 1140.136,65.138 L1142.293,50.827 C1142.632,48.574 1147.168,15.785 1147.383,12.565 L1160.633,14.562 C1160.9,16.907 1155.537,43.879 1155.177,46.264 L1153.619,56.600 L1213.97,62.990 L1214.695,52.390 C1215.34,50.137 1218.365,26.246 1218.539,23.291 L1232.55,25.328 C1231.178,28.448 1225.123,64.125 1224.643,67.306 L1222.646,80.556 ZM1096.133,62.582 C1095.388,75.961 1094.457,99.932 1094.419,103.16 L1081.442,102.294 C1082.37,96.422 1083.913,65.123 1084.107,61.645 L1084.911,47.195 C1085.37,44.921 1086.475,11.853 1086.386,8.627 L1099.765,9.372 C1099.364,11.765 1097.830,32.78 1096.937,48.133 L1096.133,62.582 ZM1036.885,134.631 L1039.51,0.644 L1048.966,0.804 L1046.800,134.792 L1036.885,134.631 ZM959.58,100.988 C959.254,103.258 959.815,108.186 960.318,112.446 L948.36,113.509 C947.777,108.958 947.755,105.598 947.467,102.260 C924.767,102.610 903.1,88.892 900.876,64.328 C898.393,35.626 918.477,17.479 939.896,13.205 C939.600,11.347 939.120,7.354 938.629,3.227 L950.911,2.164 C951.158,6.581 951.203,10.209 951.342,11.811 C972.127,11.89 995.761,24.645 998.13,50.678 C1000.208,76.43 985.92,95.642 959.58,100.988 ZM944.354,64.736 L943.107,50.318 C942.876,47.648 941.681,32.284 940.704,22.550 C924.817,27.18 911.461,40.547 913.367,62.575 C915.169,83.401 931.109,91.974 946.646,92.782 C946.105,83.414 944.505,66.471 944.354,64.736 ZM985.534,52.565 C983.524,29.336 966.585,21.655 952.40,21.434 C952.507,28.388 953.923,43.195 954.477,49.603 L955.725,64.21 C956.164,69.94 957.527,84.847 958.249,91.643 C972.848,87.825 987.671,77.262 985.534,52.565 ZM859.729,76.164 L857.231,61.909 C856.837,59.666 850.728,27.134 849.909,24.12 L863.107,21.699 C863.260,24.121 866.380,44.253 869.156,60.92 L871.654,74.346 C873.967,87.545 878.504,111.102 879.168,114.114 L866.365,116.358 C865.611,110.504 860.330,79.596 859.729,76.164 ZM802.684,2044.294 L832.26,1913.541 L841.702,1915.713 L812.359,2046.465 L802.684,2044.294 ZM801.75,27.271 L810.747,25.83 L840.318,155.774 L830.647,157.962 L801.75,27.271 ZM772.824,1999.918 C771.683,2003.773 765.546,2025.433 765.133,2028.246 C758.323,2026.229 752.451,2024.350 747.631,2022.223 C722.325,2012.352 721.696,2001.265 723.827,1994.70 C725.273,1989.188 730.468,1981.84 745.952,1978.822 L746.28,1978.565 C737.582,1974.526 728.369,1964.111 731.794,1952.548 C736.322,1937.259 760.99,1928.230 790.972,1937.235 L792.0,1937.540 C789.264,1944.416 777.772,1983.216 777.49,1985.657 L772.824,1999.918 ZM736.399,1995.977 C732.974,2007.540 747.88,2013.677 755.877,2016.560 L765.124,1985.340 C750.877,1981.539 738.948,1987.369 736.399,1995.977 ZM744.870,1955.583 C742.206,1964.576 750.876,1973.992 767.293,1978.16 L777.568,1943.327 C763.145,1940.592 748.447,1943.506 744.870,1955.583 ZM695.569,163.569 C699.376,156.43 724.102,69.50 725.720,63.827 C720.773,65.512 677.510,78.976 673.832,80.230 L671.55,70.416 C679.559,68.369 739.194,50.601 742.492,49.478 L742.578,49.731 C738.904,58.61 713.763,146.329 713.99,148.537 C719.949,146.203 762.59,131.433 765.438,129.716 L768.517,140.417 C765.346,141.497 702.252,161.576 695.656,163.823 L695.569,163.569 ZM660.280,179.373 C658.197,173.851 645.930,144.994 644.553,141.794 L638.835,128.500 C637.935,126.408 624.487,96.162 622.970,93.314 L635.280,88.19 C635.987,90.341 643.666,109.210 650.19,123.981 L655.738,137.275 C661.32,149.584 670.879,171.459 672.220,174.237 L660.280,179.373 ZM635.108,228.101 L576.194,107.755 L585.100,103.395 L644.14,223.741 L635.108,228.101 ZM552.878,223.636 C555.653,222.10 571.347,213.276 580.419,207.26 L586.709,216.696 C584.860,217.781 549.386,237.21 547.74,238.377 C543.830,232.47 529.328,207.308 527.770,204.649 L518.689,189.159 C517.605,187.309 501.42,159.585 499.639,157.456 C502.414,155.830 531.569,136.410 534.997,133.779 L540.813,142.640 C537.114,144.809 516.645,157.584 514.795,158.668 L532.7,188.31 C534.88,186.811 548.546,177.559 553.804,173.545 L559.504,182.474 C556.961,183.965 538.656,194.74 536.344,195.429 L552.878,223.636 ZM503.404,267.76 C500.300,262.55 482.726,236.86 480.761,233.209 L472.599,221.258 C471.314,219.377 452.314,192.272 450.279,189.767 L461.345,182.209 C462.484,184.352 473.640,201.399 482.709,214.678 L490.871,226.629 C498.429,237.694 512.289,257.275 514.138,259.745 L503.404,267.76 ZM488.29,319.726 L407.158,212.884 L415.64,206.899 L495.936,313.741 L488.29,319.726 ZM440.897,313.113 C432.267,320.359 417.15,334.458 400.483,349.739 C387.781,361.662 374.111,374.115 362.484,385.227 L362.113,385.23 C359.218,371.823 339.180,297.828 334.925,278.221 L335.122,278.40 C354.713,283.836 424.382,308.670 440.723,312.726 L440.897,313.113 ZM349.107,293.762 C351.978,305.159 367.824,362.773 368.394,365.166 C371.338,362.627 382.640,352.546 393.760,342.268 C405.69,331.997 416.203,321.340 418.981,318.225 C416.261,317.454 359.865,297.504 349.107,293.762 ZM341.535,409.377 C337.368,405.197 314.336,383.917 311.767,381.564 L301.95,371.788 C299.415,370.249 274.736,348.188 272.183,346.214 L281.235,336.332 C282.832,338.159 297.581,352.214 309.439,363.76 L320.111,372.851 C329.992,381.903 347.952,397.809 350.315,399.792 L341.535,409.377 ZM338.553,464.163 L235.464,378.546 L241.800,370.917 L344.888,456.534 L338.553,464.163 ZM270.246,498.688 L262.542,509.651 C256.962,505.239 233.500,488.752 230.979,486.980 L216.288,476.657 C214.534,475.424 187.958,457.76 185.798,455.722 C187.647,453.91 206.110,423.321 208.137,419.504 L217.106,425.152 C214.641,428.660 201.321,448.780 200.89,450.534 L227.936,470.102 C240.434,478.885 263.315,494.800 270.246,498.688 ZM206.373,521.898 C217.798,528.897 238.460,541.83 241.158,542.578 L234.369,553.661 C229.482,550.353 202.815,533.861 199.845,532.41 L187.505,524.482 C185.562,523.292 157.131,506.347 154.249,504.895 L161.248,493.469 C163.165,494.958 180.322,505.939 194.33,514.338 L206.373,521.898 ZM241.917,607.977 L124.378,543.646 L129.139,534.948 L246.677,599.279 L241.917,607.977 ZM142.133,616.248 L142.377,616.359 C147.575,608.573 159.193,600.933 170.152,605.966 C184.642,612.621 190.201,637.439 176.901,666.718 L176.453,667.693 C170.36,664.8 133.263,647.119 130.949,646.57 L117.433,639.849 C113.780,638.171 93.212,629.20 90.487,628.211 C93.451,621.757 96.145,616.212 98.935,611.743 C112.302,588.97 123.365,589.49 130.184,592.181 C134.811,594.306 142.94,600.600 142.133,616.248 ZM172.775,652.586 C177.531,638.698 176.736,623.735 165.290,618.478 C156.767,614.564 146.214,621.808 139.899,637.486 L172.775,652.586 ZM103.369,620.709 L132.958,634.299 C138.744,620.737 134.668,608.101 126.510,604.354 C115.551,599.321 107.471,612.419 103.369,620.709 ZM123.235,690.6 C135.795,694.678 158.416,702.665 161.352,703.614 L156.820,715.796 C151.387,713.489 122.44,702.431 118.779,701.216 L105.215,696.170 C103.80,695.376 71.917,684.212 68.810,683.342 L73.482,670.782 C75.649,671.875 94.599,679.353 109.671,684.960 L123.235,690.6 ZM174.676,767.657 L46.945,727.160 L49.942,717.708 L177.673,758.204 L174.676,767.657 ZM131.448,803.121 C125.912,804.691 96.100,812.910 93.698,813.909 L85.923,859.790 C88.82,861.889 111.114,877.985 115.100,881.155 L106.12,890.466 C94.949,880.596 28.459,827.108 24.141,822.909 L24.197,822.647 C45.251,815.42 110.942,796.461 126.460,790.426 L131.448,803.121 ZM44.959,827.444 C47.428,830.19 76.363,851.882 78.212,853.505 L84.476,816.70 C81.287,816.903 47.334,826.576 44.959,827.444 ZM68.461,908.140 C81.759,909.794 105.612,912.355 108.687,912.603 L107.83,925.502 C101.265,924.508 70.164,920.505 66.706,920.75 L52.345,918.288 C50.84,918.7 17.188,914.321 13.963,914.190 L15.618,900.891 C17.978,901.455 38.141,904.368 54.99,906.353 L68.461,908.140 ZM136.392,971.855 L2.771,961.799 L3.515,951.911 L137.136,961.967 L136.392,971.855 ZM45.426,1031.950 C43.148,1031.914 10.47,1031.780 6.827,1031.996 L7.43,1018.598 C9.451,1018.905 29.811,1019.636 45.889,1019.896 L60.360,1020.130 C73.758,1020.346 97.749,1020.332 100.833,1020.248 L100.622,1033.245 C94.731,1032.882 63.380,1032.241 59.897,1032.184 L45.426,1031.950 ZM135.61,1075.982 L1.166,1081.170 L0.782,1071.262 L134.677,1066.74 L135.61,1075.982 ZM54.135,1134.570 C74.806,1131.466 108.15,1140.570 113.666,1178.203 C118.4,1207.89 100.65,1226.584 76.743,1230.86 C47.327,1234.503 20.352,1217.281 15.556,1185.347 C11.796,1160.303 25.514,1138.867 54.135,1134.570 ZM25.640,1185.730 C29.202,1209.448 50.187,1221.66 72.846,1217.664 C92.589,1214.699 106.805,1199.286 103.681,1178.482 C100.697,1158.606 82.832,1143.404 56.728,1147.323 C33.9,1150.885 23.34,1168.371 25.640,1185.730 ZM74.712,1203.21 L64.966,1204.891 C63.586,1194.801 58.17,1168.538 56.147,1161.502 L65.833,1159.235 C68.141,1171.895 72.524,1193.865 74.712,1203.21 ZM159.248,1247.584 L28.816,1278.285 L26.544,1268.633 L156.976,1237.932 L159.248,1247.584 ZM103.593,1317.940 C105.237,1317.363 136.760,1306.21 139.74,1304.926 L143.510,1317.570 C139.78,1318.699 116.436,1326.216 114.34,1327.58 L100.883,1331.671 L123.69,1387.225 L131.162,1384.386 C136.852,1382.390 159.986,1373.849 162.850,1372.702 L167.152,1384.968 C161.500,1386.667 131.866,1396.920 128.579,1398.73 L114.922,1402.864 C112.772,1403.618 81.672,1414.954 78.726,1416.271 L74.291,1403.626 C76.655,1403.81 102.584,1394.411 104.860,1393.613 L114.723,1390.153 L92.537,1334.599 L82.421,1338.148 C80.272,1338.902 57.600,1347.139 54.906,1348.368 L50.382,1335.470 C53.550,1334.785 87.913,1323.440 90.948,1322.376 L103.593,1317.940 ZM215.984,1411.259 L93.914,1466.526 L89.824,1457.493 L211.895,1402.225 L215.984,1411.259 ZM163.450,1496.73 C185.330,1483.56 209.556,1488.133 225.701,1509.243 C227.659,1508.78 231.851,1505.428 235.468,1503.121 L241.771,1513.715 C237.787,1515.930 234.771,1517.412 231.892,1519.125 C242.89,1539.409 239.213,1564.975 218.23,1577.582 C193.265,1592.312 168.185,1582.130 155.13,1564.707 C153.469,1565.781 150.83,1567.952 146.582,1570.191 L140.279,1559.596 C144.147,1557.451 147.394,1555.831 148.776,1555.9 C139.77,1536.612 140.994,1509.433 163.450,1496.73 ZM211.8,1567.99 C228.972,1556.411 229.752,1538.329 223.716,1523.989 C215.518,1528.555 200.961,1537.371 199.464,1538.261 L187.27,1545.661 C184.724,1547.31 171.412,1554.795 163.74,1559.911 C174.13,1572.270 192.6,1578.404 211.8,1567.99 ZM157.135,1550.191 C163.192,1546.744 175.906,1539.24 181.434,1535.735 L193.871,1528.336 C198.247,1525.733 211.835,1517.648 217.640,1514.39 C207.847,1502.558 191.885,1493.812 170.581,1506.487 C150.544,1518.408 151.3,1537.1 157.135,1550.191 ZM303.151,1560.993 L193.944,1638.645 L188.198,1630.564 L297.405,1552.912 L303.151,1560.993 ZM326.366,1658.322 C321.695,1652.796 292.588,1618.976 289.757,1616.456 L298.597,1609.687 C300.760,1612.246 342.461,1663.667 346.958,1668.989 L346.753,1669.161 C338.358,1668.362 248.348,1677.63 242.895,1677.461 C246.268,1681.452 274.580,1716.822 277.88,1719.790 L268.964,1725.953 C263.957,1718.782 225.669,1669.739 223.420,1667.78 L223.625,1666.905 C232.720,1667.289 324.68,1658.510 326.366,1658.322 ZM392.541,1667.86 L296.472,1760.501 L289.559,1753.392 L385.629,1659.977 L392.541,1667.86 ZM377.336,1814.570 L399.466,1788.711 C397.634,1787.143 384.167,1776.500 378.656,1772.841 L385.233,1764.537 C387.473,1766.454 403.6,1780.453 405.43,1782.196 L426.302,1757.355 C423.858,1755.264 410.478,1743.283 401.607,1736.750 L408.693,1727.646 C410.322,1729.40 440.94,1756.283 442.130,1758.26 C437.207,1763.160 418.562,1784.947 416.558,1787.289 L404.883,1800.931 C403.489,1802.560 382.694,1827.269 381.141,1829.291 C378.697,1827.199 350.819,1805.986 347.213,1803.605 L353.688,1795.214 C356.946,1798.2 375.707,1813.176 377.336,1814.570 ZM497.84,1758.300 L416.395,1865.279 L408.479,1859.308 L489.168,1752.329 L497.84,1758.300 ZM486.266,1793.677 L486.596,1793.411 C495.784,1799.935 513.271,1811.141 532.226,1823.286 C546.965,1832.572 562.462,1842.662 576.146,1851.112 L576.42,1851.522 C563.998,1857.651 497.446,1895.694 479.545,1904.754 L479.319,1904.609 C479.990,1884.190 486.460,1810.512 486.266,1793.677 ZM555.244,1850.450 C552.44,1848.240 539.440,1839.845 526.691,1831.676 C513.901,1823.321 500.782,1815.233 497.67,1813.330 C497.7,1816.156 491.917,1875.759 491.8,1887.113 C501.313,1881.462 553.72,1851.604 555.244,1850.450 ZM614.310,1832.422 L550.986,1950.510 L542.247,1945.824 L605.571,1827.736 L614.310,1832.422 ZM609.28,1962.33 L623.282,1931.128 C629.680,1917.257 641.232,1891.893 643.813,1884.378 L655.981,1889.990 C652.641,1896.270 640.631,1922.308 639.340,1925.107 L631.820,1941.411 C630.922,1943.358 617.640,1972.793 616.695,1975.161 C613.775,1973.814 581.177,1960.992 577.58,1959.683 L581.5,1949.846 C584.899,1951.642 607.81,1961.135 609.28,1962.33 ZM708.949,1875.677 L659.739,2000.310 L650.516,1996.669 L699.726,1872.35 L708.949,1875.677 ZM876.455,1989.572 L922.752,1994.270 C924.703,1991.976 939.227,1967.922 942.125,1963.733 L952.20,1972.180 C942.911,1983.876 893.975,2053.787 890.73,2058.375 L889.808,2058.337 C880.816,2037.836 857.895,1973.530 850.839,1958.449 L863.173,1952.625 C865.108,1958.44 875.298,1987.242 876.455,1989.572 ZM893.209,2037.300 C895.615,2034.665 915.499,2004.336 916.995,2002.383 L879.226,1998.629 C880.269,2001.756 892.185,2034.989 893.209,2037.300 ZM979.82,1934.802 L970.156,2068.499 L960.262,2067.838 L969.188,1934.141 L979.82,1934.802 ZM1212.565,2055.331 L1202.787,2056.973 L1180.585,1924.832 L1190.364,1923.189 L1212.565,2055.331 ZM1221.226,1950.17 C1223.398,1952.654 1278.452,2014.389 1280.269,2016.148 C1281.252,2012.315 1297.595,1936.755 1298.843,1930.648 L1311.153,1934.86 C1307.93,1948.345 1287.677,2032.121 1285.520,2037.901 L1285.260,2037.966 C1269.628,2022.236 1224.74,1970.986 1211.878,1959.650 L1221.226,1950.17 ZM1367.75,2016.93 L1357.667,2019.227 L1315.309,1892.91 L1324.717,1888.957 L1367.75,2016.93 ZM1408.155,1890.219 C1434.959,1878.606 1458.409,1890.936 1467.784,1912.576 C1479.610,1939.872 1469.894,1970.367 1440.262,1983.205 C1417.23,1993.273 1392.782,1985.521 1381.276,1958.962 C1372.966,1939.781 1373.236,1905.347 1408.155,1890.219 ZM1392.937,1953.181 C1402.472,1975.190 1421.934,1980.339 1438.41,1973.361 C1460.51,1963.826 1465.888,1940.560 1456.780,1919.534 C1448.843,1901.214 1430.294,1891.434 1410.990,1899.797 C1392.547,1907.787 1382.443,1928.958 1392.937,1953.181 ZM1446.459,1930.431 C1437.61,1934.356 1413.109,1946.486 1406.789,1950.100 L1402.110,1941.321 C1413.754,1935.838 1433.861,1925.959 1442.148,1921.492 L1446.459,1930.431 ZM1467.322,1875.211 L1470.339,1862.677 C1472.434,1863.640 1528.74,1879.659 1536.270,1882.380 C1535.357,1885.372 1520.864,1937.206 1519.920,1941.760 L1508.782,1937.945 C1510.805,1931.229 1521.73,1900.340 1523.710,1890.649 C1517.575,1888.292 1474.204,1876.985 1467.322,1875.211 ZM1511.343,1838.284 L1522.973,1831.629 C1524.671,1835.135 1535.570,1854.989 1543.158,1868.248 L1550.213,1880.576 C1556.4,1890.694 1569.365,1912.691 1570.895,1915.366 L1559.265,1922.22 C1558.317,1920.95 1546.202,1897.847 1540.412,1887.729 L1533.223,1875.168 C1528.98,1866.213 1512.840,1840.361 1511.343,1838.284 ZM1541.462,1780.852 L1616.275,1892.27 L1608.49,1897.563 L1533.235,1786.388 L1541.462,1780.852 ZM1611.138,1772.587 L1621.307,1763.859 C1623.969,1767.578 1639.200,1785.939 1640.858,1787.872 L1649.936,1798.447 L1693.629,1757.588 L1688.43,1751.80 C1684.115,1746.504 1667.750,1728.56 1665.641,1725.804 L1675.505,1717.338 C1679.142,1721.987 1699.464,1745.868 1701.733,1748.512 L1711.159,1759.494 C1712.643,1761.223 1734.506,1786.77 1736.804,1788.343 L1726.636,1797.71 C1725.268,1795.66 1707.768,1774.61 1706.197,1772.230 L1699.389,1764.299 L1655.696,1805.158 L1662.679,1813.292 C1664.162,1815.21 1680.76,1833.150 1682.200,1835.212 L1671.828,1844.115 C1670.38,1841.413 1646.981,1813.521 1644.886,1811.81 L1636.158,1800.913 C1635.23,1799.591 1613.0,1774.344 1611.138,1772.587 ZM1700.582,1691.543 C1702.870,1691.827 1760.746,1690.283 1769.380,1690.400 C1769.415,1693.528 1771.263,1747.313 1771.739,1751.940 L1759.969,1751.669 C1759.869,1744.656 1760.322,1712.111 1759.906,1702.77 C1753.347,1701.685 1708.590,1704.13 1701.494,1704.402 L1700.582,1691.543 ZM1732.295,1655.901 L1741.370,1646.43 C1744.47,1648.872 1760.436,1664.503 1771.675,1674.848 L1782.125,1684.467 C1790.702,1692.361 1810.85,1709.291 1812.352,1711.378 L1803.278,1721.237 C1801.791,1719.687 1783.521,1702.142 1774.944,1694.247 L1764.297,1684.447 C1756.706,1677.459 1734.350,1657.428 1732.295,1655.901 ZM1743.671,1592.52 L1848.545,1675.456 L1842.373,1683.217 L1737.500,1599.812 L1743.671,1592.52 ZM1811.971,1560.757 C1810.77,1559.491 1805.881,1556.847 1802.241,1554.576 L1809.92,1544.327 C1812.805,1546.970 1815.441,1549.54 1818.227,1550.916 C1832.148,1532.982 1856.463,1524.575 1876.962,1538.276 C1900.914,1554.286 1902.517,1581.306 1892.459,1600.694 C1894.93,1601.625 1897.510,1603.748 1901.38,1605.945 L1894.187,1616.194 C1890.585,1613.625 1887.726,1611.392 1886.389,1610.498 C1873.956,1627.170 1848.598,1637.137 1826.874,1622.617 C1805.707,1608.469 1799.864,1584.416 1811.971,1560.757 ZM1884.660,1595.482 C1891.108,1580.289 1888.901,1561.407 1870.519,1549.121 C1853.140,1537.504 1836.482,1544.583 1826.136,1556.203 C1833.786,1561.638 1848.9,1570.983 1849.457,1571.951 L1861.488,1579.993 C1863.717,1581.483 1876.454,1590.157 1884.660,1595.482 ZM1878.443,1605.26 C1872.724,1601.42 1860.284,1592.888 1854.936,1589.314 L1842.905,1581.272 C1838.671,1578.442 1825.525,1569.656 1819.769,1565.969 C1813.621,1579.750 1812.595,1597.922 1833.205,1611.698 C1852.590,1624.655 1869.175,1616.238 1878.443,1605.26 ZM1849.369,1494.301 C1851.652,1493.978 1907.116,1477.352 1915.481,1475.206 C1916.333,1478.217 1932.183,1529.652 1933.852,1533.994 L1922.420,1536.810 C1920.489,1530.67 1912.416,1498.533 1909.390,1488.955 C1902.956,1490.292 1860.361,1504.244 1853.613,1506.475 L1849.369,1494.301 ZM1909.18,1470.789 C1899.863,1466.29 1873.44,1452.540 1870.662,1451.603 L1876.843,1439.713 C1880.167,1441.744 1900.75,1452.547 1913.630,1459.594 L1926.233,1466.146 C1936.577,1471.524 1959.714,1482.797 1962.448,1484.219 L1956.267,1496.109 C1954.427,1495.1 1932.202,1482.843 1921.858,1477.465 L1909.18,1470.789 ZM1879.261,1351.19 L2004.520,1398.627 L2000.997,1407.896 L1875.738,1360.289 L1879.261,1351.19 ZM1936.310,1320.476 L1925.721,1317.31 C1926.603,1313.799 1945.323,1250.291 1947.158,1243.569 L1947.416,1243.640 C1951.517,1251.9 2009.716,1320.229 2013.135,1324.496 C2014.511,1319.454 2027.599,1276.78 2028.622,1272.329 L2038.306,1275.527 C2035.237,1283.718 2016.541,1343.65 2015.624,1346.427 L2015.365,1346.356 C2010.524,1338.645 1951.502,1268.368 1950.45,1266.581 C1948.140,1273.562 1936.780,1316.715 1936.310,1320.476 ZM2006.423,1197.943 C2000.718,1201.206 1964.535,1227.657 1958.809,1231.867 L1951.6,1221.605 C1953.77,1220.591 2000.668,1187.614 2007.958,1182.984 C2009.700,1185.583 2040.692,1229.585 2043.624,1233.197 L2033.625,1239.413 C2029.701,1233.599 2012.264,1206.114 2006.423,1197.943 ZM2000.445,1180.785 C1990.267,1179.93 1960.591,1174.567 1958.36,1174.414 L1960.233,1161.196 C1964.22,1162.97 1986.296,1166.207 2001.365,1168.712 L2015.377,1171.41 C2026.877,1172.953 2052.367,1176.510 2055.407,1177.16 L2053.210,1190.235 C2051.117,1189.751 2026.222,1185.69 2014.721,1183.158 L2000.445,1180.785 ZM1932.581,1114.767 L2066.20,1127.112 L2065.106,1136.986 L1931.668,1124.642 L1932.581,1114.767 Z"/>
</svg>