<svg 
 xmlns="http://www.w3.org/2000/svg"
 xmlns:xlink="http://www.w3.org/1999/xlink"
 width="1992px" height="1987px">
<path fill-rule="evenodd"  fill="rgb(17, 7, 8)"
 d="M1973.920,922.683 L1941.472,924.738 C1941.618,927.37 1943.292,943.348 1944.455,949.559 L1934.387,950.581 C1934.209,947.771 1933.458,927.810 1933.297,925.255 L1902.126,927.229 C1902.321,930.294 1903.21,947.437 1904.451,957.863 L1893.497,959.70 C1893.367,957.26 1892.211,918.493 1892.49,915.938 C1898.844,915.893 1926.182,914.162 1929.120,913.976 L1946.238,912.893 C1948.282,912.763 1979.52,910.559 1981.471,910.277 C1981.666,913.343 1985.693,946.564 1986.462,950.619 L1976.403,951.769 C1976.144,947.681 1974.50,924.727 1973.920,922.683 ZM1931.533,843.709 C1927.340,848.381 1902.474,883.233 1898.546,888.771 L1888.388,881.808 C1889.961,880.267 1923.213,836.71 1928.433,829.683 C1930.792,831.517 1972.111,862.109 1975.854,864.504 L1968.655,873.144 C1963.350,869.50 1939.284,849.364 1931.533,843.709 ZM1920.959,829.945 C1911.222,831.468 1882.953,836.277 1880.590,836.906 L1878.612,824.259 C1882.319,823.938 1903.751,820.976 1918.168,818.721 L1931.573,816.625 C1942.576,814.905 1966.758,810.476 1969.667,810.21 L1971.644,822.667 C1969.601,822.857 1945.620,826.89 1934.618,827.809 L1920.959,829.945 ZM1839.249,788.960 L1963.898,759.862 L1966.51,769.86 L1841.402,798.184 L1839.249,788.960 ZM1863.170,749.856 C1860.185,739.514 1853.783,720.735 1846.843,700.381 C1841.353,684.672 1835.774,667.911 1830.575,653.455 L1830.897,653.210 C1843.544,655.796 1915.915,666.960 1934.684,670.839 L1934.766,671.82 C1922.117,685.943 1873.446,737.157 1863.575,749.853 L1863.170,749.856 ZM1915.621,677.203 C1904.557,675.295 1848.112,666.815 1845.802,666.386 C1846.879,669.941 1851.304,683.714 1855.971,697.404 C1860.559,711.257 1865.552,725.107 1867.196,728.739 C1868.922,726.663 1908.187,685.147 1915.621,677.203 ZM1854.249,590.612 C1851.522,596.266 1837.335,636.661 1835.104,643.72 L1823.410,639.211 C1824.491,637.293 1844.132,585.590 1847.368,578.3 C1850.145,579.107 1898.344,596.994 1902.605,598.252 L1898.94,608.554 C1891.861,606.98 1863.267,593.886 1854.249,590.612 ZM1840.263,580.334 C1831.333,584.506 1805.520,596.991 1803.425,598.252 L1798.6,586.656 C1801.478,585.316 1821.239,576.507 1834.459,570.330 L1846.751,564.587 C1856.840,559.873 1878.835,548.889 1881.502,547.643 L1886.921,559.240 C1885.11,559.991 1862.876,569.768 1852.787,574.482 L1840.263,580.334 ZM1750.360,563.671 L1861.993,501.49 L1866.627,509.310 L1754.994,571.932 L1750.360,563.671 ZM1809.966,444.909 L1782.975,463.36 C1770.861,471.171 1748.830,486.122 1742.989,490.970 L1735.852,480.343 C1741.698,476.880 1764.438,461.608 1766.882,459.966 L1781.121,450.403 C1782.822,449.262 1808.288,431.850 1810.236,430.388 C1811.948,432.938 1832.169,459.602 1834.877,462.717 L1826.768,468.780 C1824.484,465.380 1811.107,446.609 1809.966,444.909 ZM1734.135,398.10 C1732.830,404.150 1728.653,446.760 1728.10,453.518 L1715.733,452.548 C1716.328,450.427 1723.114,395.537 1724.454,387.398 C1727.413,387.810 1778.483,393.726 1782.922,393.935 L1780.989,405.15 C1774.350,404.111 1743.672,399.46 1734.135,398.10 ZM1718.106,391.351 C1710.425,397.526 1688.318,415.791 1686.583,417.514 L1678.563,407.538 C1681.617,405.411 1698.717,392.157 1710.90,383.14 L1720.665,374.513 C1729.344,367.535 1748.97,351.638 1750.392,349.793 L1758.412,359.770 C1756.736,360.953 1737.560,375.712 1728.880,382.689 L1718.106,391.351 ZM1626.830,396.516 L1720.428,309.205 L1726.889,316.132 L1633.291,403.442 L1626.830,396.516 ZM1649.370,303.604 L1649.195,303.791 C1654.689,310.847 1658.117,323.680 1650.255,332.100 C1639.860,343.232 1615.687,340.800 1593.148,319.928 L1592.399,319.229 C1597.672,314.520 1624.53,286.268 1625.713,284.490 L1635.410,274.106 C1638.30,271.300 1652.519,255.408 1654.73,253.182 C1659.31,257.812 1663.247,261.923 1666.459,265.798 C1683.871,285.35 1679.677,294.778 1674.785,300.16 C1671.465,303.571 1663.567,308.279 1649.370,303.604 ZM1630.788,295.184 L1607.202,320.443 C1618.360,328.936 1632.164,332.719 1640.376,323.925 C1646.491,317.377 1643.100,305.630 1630.788,295.184 ZM1656.995,267.118 L1635.768,289.851 C1646.321,299.180 1659.3,299.289 1664.855,293.21 C1672.718,284.601 1663.276,273.333 1656.995,267.118 ZM1579.29,294.779 L1566.872,296.740 C1566.948,294.539 1560.559,239.604 1559.935,231.379 C1562.908,231.80 1613.926,224.748 1618.288,223.901 L1619.31,235.123 C1612.366,235.815 1581.363,238.151 1571.851,239.399 C1572.35,245.674 1578.56,288.60 1579.29,294.779 ZM1554.703,236.721 C1548.700,244.538 1531.542,267.511 1530.264,269.596 L1520.113,261.800 C1522.576,259.12 1536.56,242.90 1544.943,230.517 L1553.206,219.756 C1559.989,210.924 1574.449,191.43 1576.242,188.708 L1586.394,196.504 C1585.45,198.50 1569.905,216.925 1563.123,225.757 L1554.703,236.721 ZM1467.243,263.338 L1537.525,156.358 L1545.441,161.559 L1475.159,268.539 L1467.243,263.338 ZM1445.212,176.616 L1405.44,157.569 C1402.554,159.9 1381.783,176.11 1377.834,178.854 L1371.631,168.84 C1383.574,160.472 1449.996,113.210 1454.976,110.330 L1455.203,110.449 C1456.735,131.778 1456.782,196.995 1458.306,212.828 L1445.341,214.122 C1445.333,208.625 1445.508,179.83 1445.212,176.616 ZM1445.408,128.294 C1442.400,129.896 1414.795,150.830 1412.823,152.109 L1445.617,167.577 C1445.678,164.429 1445.590,130.703 1445.408,128.294 ZM1363.753,160.411 L1352.614,165.662 C1352.78,163.526 1330.724,112.506 1327.847,104.775 C1330.621,103.665 1377.893,83.451 1381.850,81.430 L1385.671,92.8 C1379.459,94.518 1350.313,105.349 1341.519,109.183 C1343.434,115.161 1360.957,154.225 1363.753,160.411 ZM1324.299,111.358 C1320.695,120.532 1310.570,147.359 1309.919,149.717 L1298.5,145.37 C1299.600,141.675 1307.867,121.681 1313.202,108.99 L1318.163,95.470 C1322.234,85.105 1330.624,61.996 1331.700,59.256 L1343.614,63.936 C1342.746,65.795 1333.425,88.125 1329.353,98.491 L1324.299,111.358 ZM1247.622,161.183 L1285.433,38.899 L1294.482,41.697 L1256.671,163.981 L1247.622,161.183 ZM1315.10,1831.16 L1326.989,1833.373 C1324.184,1847.254 1311.934,1928.478 1310.310,1934.143 L1310.67,1934.224 C1294.10,1920.408 1246.812,1874.996 1234.354,1865.110 L1242.539,1855.241 C1244.803,1857.590 1301.828,1912.280 1303.689,1913.819 C1304.340,1910.96 1314.276,1836.924 1315.10,1831.16 ZM1226.586,112.345 L1216.436,119.317 C1215.563,117.295 1186.293,70.368 1182.212,63.200 C1184.771,61.658 1228.181,34.115 1231.762,31.485 L1237.233,41.311 C1231.505,44.787 1204.478,60.157 1196.413,65.354 C1199.263,70.947 1222.833,106.688 1226.586,112.345 ZM1179.767,70.267 C1177.684,79.900 1171.999,108.5 1171.735,110.436 L1159.224,107.731 C1160.259,104.157 1165.207,83.95 1168.291,68.833 L1171.158,55.571 C1173.512,44.687 1178.81,20.531 1178.703,17.654 L1191.214,20.359 C1190.656,22.334 1185.42,45.871 1182.689,56.755 L1179.767,70.267 ZM1112.109,131.753 L1129.825,4.983 L1139.206,6.294 L1121.490,133.64 L1112.109,131.753 ZM1107.393,1980.787 L1092.531,1853.650 L1101.939,1852.551 L1116.801,1979.687 L1107.393,1980.787 ZM1036.909,1984.229 C1024.935,1966.513 992.338,1910.31 983.114,1897.74 L993.702,1889.481 C996.452,1894.239 1011.48,1919.922 1012.536,1921.913 L1056.846,1918.364 C1058.285,1915.873 1067.795,1890.773 1069.797,1886.339 L1080.548,1892.574 C1074.0,1905.131 1040.42,1979.237 1037.165,1984.218 L1036.909,1984.229 ZM1016.697,1929.946 C1018.215,1932.704 1035.127,1961.882 1036.488,1963.877 C1038.295,1960.988 1051.762,1929.70 1052.832,1926.978 L1016.697,1929.946 ZM1076.491,58.506 C1076.420,60.169 1075.298,92.151 1075.449,94.591 L1062.661,94.41 C1063.232,89.709 1064.596,66.962 1064.701,64.532 L1065.274,51.232 L1008.133,51.206 L1007.780,59.390 C1007.532,65.145 1006.903,88.692 1006.904,91.639 L994.499,91.104 C994.997,85.489 996.414,55.569 996.557,52.244 L997.152,38.433 C997.246,36.259 998.223,4.655 998.99,1.575 L1010.888,2.126 C1010.533,4.416 1009.25,30.488 1008.926,32.790 L1008.496,42.765 L1065.637,42.792 L1066.78,32.561 C1066.172,30.387 1066.907,7.357 1066.773,4.533 L1079.817,5.95 C1079.301,8.147 1077.174,42.648 1077.42,45.718 L1076.491,58.506 ZM950.589,1986.13 L955.671,1858.114 L965.135,1858.490 L960.54,1986.390 L950.589,1986.13 ZM943.80,54.507 L942.403,40.699 C942.296,38.526 940.364,6.965 939.958,3.909 L952.743,3.282 C952.600,5.595 953.170,25.48 953.922,40.390 L954.600,54.199 C955.227,66.984 956.733,89.851 957.5,92.785 L944.603,93.394 C944.583,87.755 943.243,57.832 943.80,54.507 ZM913.271,1949.345 C912.860,1953.163 910.815,1974.573 910.910,1977.287 C904.164,1976.561 898.323,1975.804 893.428,1974.634 C867.951,1969.706 865.455,1959.395 866.222,1952.268 C866.742,1947.431 870.232,1938.923 884.394,1934.138 L884.421,1933.883 C875.790,1931.539 865.342,1923.334 866.574,1911.880 C868.203,1896.734 888.995,1884.164 919.555,1887.322 L920.573,1887.431 C919.184,1894.363 915.50,1932.800 914.790,1935.218 L913.271,1949.345 ZM878.364,1951.900 C877.132,1963.354 891.449,1966.697 900.204,1967.895 L903.530,1936.968 C889.489,1935.844 879.281,1943.373 878.364,1951.900 ZM879.384,1912.485 C878.426,1921.394 888.191,1928.752 904.310,1929.713 L908.5,1895.350 C893.982,1895.258 880.670,1900.521 879.384,1912.485 ZM891.589,1.352 L901.15,0.418 L913.635,127.798 L904.208,128.732 L891.589,1.352 ZM818.675,106.227 C819.112,108.359 820.188,112.973 821.136,116.960 L809.600,119.325 C808.851,115.36 808.459,111.850 807.816,108.715 C786.316,111.555 764.148,100.943 759.417,77.870 C753.889,50.910 770.941,31.472 790.793,25.50 C790.307,23.320 789.411,19.583 788.488,15.722 L800.25,13.356 C800.748,17.520 801.191,20.957 801.499,22.462 C821.142,19.480 845.65,29.732 850.79,54.185 C854.964,78.10 842.786,98.278 818.675,106.227 ZM800.717,73.453 L797.940,59.910 C797.426,57.402 794.595,42.956 792.592,33.827 C778.11,39.822 766.833,54.136 771.76,74.826 C775.87,94.388 791.159,100.762 805.991,99.812 C804.442,90.982 801.51,75.83 800.717,73.453 ZM838.446,57.354 C833.972,35.535 817.51,30.119 803.225,31.516 C804.437,38.63 807.416,51.956 808.650,57.975 L811.427,71.518 C812.404,76.283 815.438,91.80 816.875,97.449 C830.305,92.213 843.203,80.552 838.446,57.354 ZM778.293,1864.687 C776.197,1871.150 769.235,1897.642 768.487,1900.490 L764.128,1917.78 C763.607,1919.59 756.15,1948.958 755.521,1951.343 C752.550,1950.562 719.751,1943.928 715.660,1943.383 L717.734,1933.473 C721.696,1934.514 744.142,1939.750 746.122,1940.271 L754.385,1908.827 C758.94,1894.715 764.737,1868.933 765.913,1861.434 L778.293,1864.687 ZM721.687,93.652 L717.740,80.403 C717.118,78.317 707.724,48.125 706.601,45.253 L718.869,41.599 C719.282,43.880 724.469,62.637 728.854,77.359 L732.801,90.608 C736.455,102.876 743.365,124.727 744.328,127.512 L732.428,131.57 C731.65,125.586 722.637,96.842 721.687,93.652 ZM701.656,175.7 L658.961,54.340 L667.891,51.181 L710.585,171.847 L701.656,175.7 ZM662.755,144.758 L666.558,154.692 C663.628,155.979 605.215,180.232 599.121,182.908 L599.18,182.674 C602.27,175.201 618.468,90.390 619.583,85.287 C615.12,87.294 574.934,103.635 571.535,105.128 L568.93,96.15 C576.20,93.372 631.328,71.601 634.375,70.263 L634.478,70.497 C631.660,78.725 614.928,164.782 614.476,166.938 C620.805,164.159 659.679,146.668 662.755,144.758 ZM566.713,200.557 C564.284,195.469 550.279,168.994 548.710,166.59 L542.194,153.867 C541.169,151.948 525.928,124.247 524.254,121.658 L535.542,115.625 C536.403,117.778 545.235,135.117 552.475,148.663 L558.990,160.855 C565.24,172.143 576.162,192.168 577.663,194.704 L566.713,200.557 ZM545.328,249.777 L479.395,140.66 L487.513,135.187 L553.447,244.898 L545.328,249.777 ZM461.429,256.27 C463.925,254.236 478.85,244.550 486.166,237.807 L492.999,246.453 C491.335,247.647 459.283,269.66 457.203,270.558 C453.561,264.822 437.593,242.565 435.877,240.173 L425.878,226.237 C424.684,224.573 406.494,199.657 404.972,197.755 C407.468,195.965 433.494,174.930 436.524,172.126 L442.835,180.44 C439.506,182.432 421.159,196.383 419.495,197.577 L438.447,223.994 C440.319,222.650 453.259,212.580 457.907,208.299 L464.114,216.292 C461.826,217.933 445.303,229.157 443.223,230.650 L461.429,256.27 ZM418.142,301.691 C414.751,297.186 395.769,274.18 393.649,271.452 L384.842,260.797 C383.456,259.119 363.19,234.994 360.864,232.789 L370.731,224.635 C372.1,226.574 384.100,241.816 393.885,253.655 L402.691,264.311 C410.846,274.177 425.738,291.593 427.712,293.781 L418.142,301.691 ZM406.966,354.150 L320.616,259.668 L327.608,253.278 L413.957,347.760 L406.966,354.150 ZM355.843,357.753 C348.337,365.468 335.194,380.330 320.949,396.439 C310.22,408.989 298.224,422.137 288.241,433.813 L287.868,433.654 C283.851,421.387 257.707,352.987 251.781,334.761 L251.951,334.570 C271.126,338.198 339.721,355.115 355.640,357.402 L355.843,357.753 ZM266.751,348.170 C270.573,358.726 291.161,411.961 291.932,414.181 C294.487,411.485 304.260,400.819 313.842,389.984 C323.604,379.138 333.164,367.941 335.505,364.714 C332.846,364.243 277.334,350.694 266.751,348.170 ZM270.630,458.763 C266.271,455.188 242.350,437.165 239.684,435.173 L228.608,426.902 C226.864,425.600 201.304,406.992 198.689,405.359 L206.348,395.104 C208.40,396.687 223.399,408.636 235.705,417.826 L246.781,426.97 C257.37,433.755 275.624,447.156 278.59,448.815 L270.630,458.763 ZM272.163,512.402 L165.901,441.52 L171.181,433.188 L277.443,504.538 L272.163,512.402 ZM207.451,557.469 L201.271,568.678 C195.516,565.67 171.528,551.842 168.950,550.421 L153.930,542.140 C152.136,541.151 124.999,526.482 122.807,525.420 C124.291,522.729 138.739,492.547 140.268,488.713 L149.370,493.146 C147.393,496.733 136.829,517.219 135.841,519.12 L164.312,534.709 C177.90,541.754 200.467,554.496 207.451,557.469 ZM149.195,586.127 C160.769,591.593 181.650,601.29 184.367,602.170 L179.65,613.397 C174.82,610.760 147.54,597.855 144.44,596.434 L131.545,590.531 C129.577,589.602 100.826,576.449 97.939,575.368 L103.405,563.795 C105.379,565.10 122.807,573.665 136.695,580.224 L149.195,586.127 ZM191.254,665.644 L72.907,616.892 L76.515,608.134 L194.862,656.886 L191.254,665.644 ZM81.179,668.873 C85.807,670.373 93.419,675.532 95.201,690.373 L95.445,690.452 C99.508,682.485 109.678,673.940 120.637,677.493 C135.127,682.191 143.170,705.117 133.818,734.380 L133.502,735.354 C127.2,732.574 90.229,720.653 87.916,719.903 L74.400,715.521 C70.747,714.337 50.211,707.948 47.536,707.485 C49.628,701.31 51.565,695.470 53.714,690.918 C63.758,666.993 74.361,666.662 81.179,668.873 ZM128.327,721.431 C131.290,707.724 128.866,693.617 117.421,689.906 C108.897,687.143 99.694,695.194 95.450,710.773 L128.327,721.431 ZM58.921,698.931 L88.510,708.523 C92.487,695.10 87.210,683.477 79.52,680.832 C68.93,677.279 61.888,690.608 58.921,698.931 ZM85.500,762.432 C97.934,765.472 120.283,770.540 123.173,771.114 L120.225,783.176 C114.815,781.590 85.749,774.353 82.516,773.563 L69.86,770.280 C66.973,769.763 36.169,762.629 33.123,762.148 L36.163,749.713 C38.340,750.509 57.150,755.502 72.71,759.150 L85.500,762.432 ZM142.625,831.938 L16.908,807.859 L18.690,798.556 L144.407,822.635 L142.625,831.938 ZM104.557,878.421 C99.498,880.570 72.225,891.921 70.67,893.155 L68.178,937.568 C70.475,939.300 94.227,951.804 98.384,954.332 L90.882,964.242 C79.218,956.209 9.812,913.456 5.219,909.992 L5.240,909.737 C24.286,900.15 84.327,874.559 98.313,866.986 L104.557,878.421 ZM25.491,911.803 C28.138,913.950 58.174,931.214 60.119,932.532 L61.585,896.304 C58.663,897.474 27.638,910.697 25.491,911.803 ZM43.174,996.62 C40.998,996.26 9.378,995.898 6.302,996.104 L6.510,983.305 C8.810,983.598 28.258,984.298 43.617,984.547 L57.440,984.771 C70.239,984.978 93.155,984.966 96.101,984.886 L95.900,997.301 C90.273,996.953 60.325,996.340 56.997,996.286 L43.174,996.62 ZM129.288,1039.403 L1.435,1045.674 L0.971,1036.213 L128.824,1029.942 L129.288,1039.403 ZM63.280,1097.757 C75.991,1096.244 98.697,1093.156 101.606,1092.682 L103.72,1105.11 C97.450,1105.422 67.692,1108.833 64.387,1109.226 L50.660,1110.859 C48.499,1111.116 17.149,1115.233 14.129,1115.850 L12.617,1103.139 C14.935,1103.122 34.300,1101.204 49.553,1099.390 L63.280,1097.757 ZM141.138,1142.834 L14.948,1164.318 L13.358,1154.980 L139.548,1133.496 L141.138,1142.834 ZM73.322,1214.978 C92.474,1209.332 125.90,1213.594 135.369,1248.462 C143.259,1275.226 128.840,1296.24 107.232,1302.394 C79.977,1310.429 52.196,1297.668 43.473,1268.80 C36.632,1244.876 46.803,1222.796 73.322,1214.978 ZM53.65,1267.121 C59.543,1289.97 80.922,1297.340 101.916,1291.151 C120.209,1285.758 131.641,1269.310 125.958,1250.35 C120.529,1231.619 101.633,1219.576 77.447,1226.706 C55.470,1233.185 48.323,1251.38 53.65,1267.121 ZM101.763,1277.51 L92.786,1280.98 C90.158,1270.731 81.446,1246.611 78.755,1240.198 L87.623,1236.783 C91.466,1248.461 98.493,1268.674 101.763,1277.51 ZM188.147,1309.588 L68.823,1355.898 L65.396,1347.68 L184.720,1300.758 L188.147,1309.588 ZM147.620,1389.545 C149.94,1388.773 177.322,1373.699 179.358,1372.344 L185.297,1383.683 C181.263,1385.362 160.902,1395.593 158.748,1396.721 L146.955,1402.897 L175.596,1452.340 L182.853,1448.539 C187.956,1445.867 208.641,1434.599 211.189,1433.120 L216.950,1444.119 C211.842,1446.505 185.250,1460.288 182.302,1461.832 L170.56,1468.246 C168.128,1469.256 140.300,1484.265 137.697,1485.917 L131.758,1474.578 C133.918,1473.736 157.228,1461.961 159.269,1460.892 L168.113,1456.260 L139.472,1406.817 L130.401,1411.568 C128.473,1412.577 108.182,1423.494 105.806,1425.27 L99.749,1413.462 C102.648,1412.376 133.560,1396.909 136.281,1395.484 L147.620,1389.545 ZM267.569,1463.601 L159.872,1532.769 L154.754,1524.800 L262.450,1455.632 L267.569,1463.601 ZM233.660,1556.429 C252.450,1540.988 276.57,1542.297 294.342,1559.910 C296.23,1558.528 299.601,1555.422 302.684,1552.723 L310.161,1561.821 C306.717,1564.485 304.82,1566.319 301.610,1568.351 C314.158,1586.39 315.120,1610.597 296.924,1625.550 C275.662,1643.23 250.513,1637.16 235.568,1622.458 C234.264,1623.695 231.379,1626.232 228.395,1628.850 L220.918,1619.752 C224.263,1617.169 227.95,1615.172 228.282,1614.197 C216.476,1598.219 214.376,1572.277 233.660,1556.429 ZM288.790,1616.660 C304.218,1603.983 302.352,1586.794 294.589,1574.121 C287.504,1579.612 275.26,1590.32 273.740,1591.88 L263.60,1599.865 C261.82,1601.491 249.628,1610.738 242.490,1616.769 C254.598,1626.866 272.473,1630.70 288.790,1616.660 ZM235.483,1608.445 C240.707,1604.318 251.603,1595.198 256.350,1591.297 L267.30,1582.520 C270.788,1579.432 282.457,1569.842 287.419,1565.599 C276.520,1556.166 260.188,1550.203 241.893,1565.238 C224.685,1579.378 227.794,1596.870 235.483,1608.445 ZM376.35,1598.823 L284.162,1687.950 L277.567,1681.152 L369.440,1592.25 L376.35,1598.823 ZM415.742,1690.503 C410.512,1685.984 378.5,1658.410 374.958,1656.454 L382.291,1648.750 C384.713,1650.841 431.726,1693.147 436.763,1697.499 L436.596,1697.693 C428.555,1698.189 344.918,1719.815 339.832,1721.3 C343.609,1724.267 375.596,1753.422 378.405,1755.849 L371.658,1762.875 C365.864,1756.855 322.426,1716.285 319.907,1714.109 L320.75,1713.915 C328.714,1712.921 413.602,1691.22 415.742,1690.503 ZM480.744,1689.858 L404.160,1792.427 L396.570,1786.760 L473.154,1684.190 L480.744,1689.858 ZM493.44,1833.977 L509.892,1806.172 C507.922,1804.978 493.578,1797.35 487.817,1794.442 L492.728,1785.595 C495.137,1787.54 511.948,1797.840 514.137,1799.166 L530.322,1772.456 C527.695,1770.864 513.225,1761.648 503.851,1756.866 L509.117,1747.186 C510.869,1748.248 543.155,1769.307 545.344,1770.634 C541.500,1776.237 527.306,1799.663 525.780,1802.180 L516.892,1816.849 C515.831,1818.600 500.64,1845.114 498.913,1847.260 C496.286,1845.669 466.720,1829.999 462.952,1828.314 L467.754,1819.401 C471.257,1821.523 491.293,1832.915 493.44,1833.977 ZM598.572,1763.92 L539.306,1876.541 L530.911,1872.155 L590.176,1758.706 L598.572,1763.92 ZM646.338,1820.719 C661.716,1827.77 677.937,1834.70 692.185,1839.813 L692.154,1840.217 C681.806,1847.933 625.303,1894.509 609.915,1905.932 L609.679,1905.833 C607.9,1886.501 601.187,1816.92 598.283,1800.274 L598.551,1799.970 C608.255,1804.627 626.531,1812.349 646.338,1820.719 ZM617.855,1887.471 C626.643,1880.485 670.542,1844.8 672.400,1842.570 C669.31,1841.7 655.807,1835.141 642.484,1829.512 C629.93,1823.714 615.434,1818.221 611.630,1817.30 C612.30,1819.700 616.875,1876.635 617.855,1887.471 ZM726.580,1816.535 L686.282,1938.25 L677.291,1935.43 L717.590,1813.553 L726.580,1816.535 ZM827.284,1842.721 L801.924,1968.179 L792.640,1966.302 L818.0,1840.845 L827.284,1842.721 ZM1236.976,1957.497 L1227.775,1959.744 L1197.410,1835.400 L1206.611,1833.153 L1236.976,1957.497 ZM1387.935,1906.650 L1379.213,1910.346 L1329.271,1792.487 L1337.992,1788.791 L1387.935,1906.650 ZM1426.49,1779.131 C1450.565,1765.802 1473.925,1775.539 1484.686,1795.331 C1498.260,1820.296 1491.610,1850.138 1464.507,1864.873 C1443.253,1876.429 1419.529,1871.115 1406.322,1846.824 C1396.784,1829.281 1394.111,1796.495 1426.49,1779.131 ZM1416.925,1840.331 C1427.869,1860.461 1446.825,1863.705 1461.557,1855.695 C1481.687,1844.751 1485.263,1822.118 1474.807,1802.887 C1465.697,1786.131 1447.217,1778.403 1429.562,1788.3 C1412.693,1797.174 1404.880,1818.177 1416.925,1840.331 ZM1465.915,1814.133 C1457.307,1818.667 1435.549,1832.245 1429.843,1836.222 L1424.644,1828.267 C1435.256,1822.60 1453.548,1810.949 1461.53,1805.995 L1465.915,1814.133 ZM1481.62,1759.839 L1482.882,1747.660 C1484.956,1748.401 1539.240,1758.983 1547.267,1760.885 C1546.649,1763.808 1537.202,1814.342 1536.685,1818.755 L1525.767,1816.58 C1527.129,1809.498 1534.312,1779.247 1536.9,1769.804 C1529.974,1768.76 1487.759,1760.951 1481.62,1759.839 ZM1519.855,1721.15 L1530.364,1713.708 C1532.273,1716.902 1544.307,1734.881 1552.637,1746.861 L1560.383,1758.0 C1566.741,1767.142 1581.296,1786.954 1582.977,1789.371 L1572.468,1796.678 C1571.404,1794.924 1558.14,1774.770 1551.656,1765.627 L1543.764,1754.278 C1538.137,1746.186 1521.454,1722.866 1519.855,1721.15 ZM1544.940,1662.871 L1625.537,1762.312 L1618.178,1768.276 L1537.581,1668.835 L1544.940,1662.871 ZM1592.252,1665.779 L1601.444,1656.871 C1604.197,1660.263 1619.778,1676.892 1621.470,1678.638 L1630.735,1688.198 L1670.38,1646.721 L1664.337,1640.839 C1660.328,1636.702 1643.662,1620.56 1641.521,1618.31 L1650.437,1609.391 C1654.173,1613.613 1674.926,1635.211 1677.242,1637.601 L1686.862,1647.528 C1688.377,1649.91 1710.656,1671.528 1712.977,1673.556 L1703.785,1682.464 C1702.366,1680.631 1684.469,1661.612 1682.866,1659.958 L1675.917,1652.788 L1636.614,1694.265 L1643.740,1701.618 C1645.255,1703.181 1661.473,1719.548 1663.617,1721.392 L1654.241,1730.478 C1652.379,1728.5 1628.787,1702.741 1626.649,1700.535 L1617.741,1691.343 C1616.583,1690.148 1594.129,1667.347 1592.252,1665.779 ZM1672.883,1583.361 C1675.80,1583.502 1730.183,1578.742 1738.423,1578.363 C1738.634,1581.344 1743.452,1632.528 1744.169,1636.913 L1732.930,1637.323 C1732.435,1630.642 1731.19,1599.581 1730.53,1590.36 C1723.775,1590.35 1681.228,1594.797 1674.483,1595.571 L1672.883,1583.361 ZM1733.238,1572.975 C1725.602,1566.743 1703.146,1548.911 1701.100,1547.572 L1709.193,1537.655 C1711.907,1540.201 1728.423,1554.176 1739.729,1563.402 L1750.240,1571.981 C1758.868,1579.22 1778.312,1594.65 1780.593,1595.927 L1772.500,1605.843 C1770.994,1604.449 1752.575,1588.756 1743.948,1581.715 L1733.238,1572.975 ZM1709.220,1484.774 L1814.63,1558.214 L1808.629,1565.973 L1703.786,1492.532 L1709.220,1484.774 ZM1778.251,1441.202 C1776.359,1440.128 1772.177,1437.902 1768.552,1435.991 L1774.365,1425.750 C1778.86,1428.10 1780.743,1429.812 1783.526,1431.392 C1795.540,1413.338 1818.120,1403.637 1838.601,1415.263 C1862.534,1428.848 1865.941,1454.479 1857.708,1473.649 C1859.330,1474.422 1862.732,1476.206 1866.246,1478.54 L1860.433,1488.294 C1856.823,1486.98 1853.944,1484.169 1852.608,1483.411 C1841.924,1500.159 1818.459,1511.419 1796.753,1499.97 C1775.604,1487.92 1768.364,1464.584 1778.251,1441.202 ZM1849.916,1469.226 C1855.1,1454.303 1851.585,1436.468 1833.218,1426.43 C1815.854,1416.186 1800.476,1424.88 1791.429,1435.878 C1799.94,1440.524 1813.294,1448.437 1814.741,1449.259 L1826.763,1456.83 C1828.989,1457.346 1841.727,1464.724 1849.916,1469.226 ZM1844.657,1478.750 C1838.932,1475.353 1826.513,1468.451 1821.170,1465.418 L1809.148,1458.594 C1804.918,1456.193 1791.783,1448.737 1786.43,1445.625 C1781.144,1459.182 1781.432,1476.565 1802.25,1488.255 C1821.393,1499.249 1836.608,1490.77 1844.657,1478.750 ZM1814.151,1386.581 L1809.268,1375.276 C1811.420,1374.810 1863.110,1355.140 1870.931,1352.519 C1871.950,1355.328 1890.603,1403.234 1892.494,1407.255 L1881.797,1410.727 C1879.491,1404.437 1869.622,1374.953 1866.78,1366.38 C1860.41,1367.756 1820.426,1383.989 1814.151,1386.581 ZM1864.469,1348.757 C1855.418,1344.855 1828.937,1333.856 1826.603,1333.129 L1831.670,1321.375 C1834.978,1323.79 1854.690,1331.996 1868.89,1337.773 L1880.548,1343.144 C1890.774,1347.553 1913.595,1356.695 1916.298,1357.860 L1911.231,1369.614 C1909.401,1368.686 1887.389,1358.638 1877.163,1354.229 L1864.469,1348.757 ZM1828.326,1235.191 L1950.991,1271.751 L1948.286,1280.828 L1825.620,1244.268 L1828.326,1235.191 ZM1882.725,1192.592 L1872.371,1190.156 C1872.953,1187.9 1885.715,1125.62 1886.926,1118.517 L1887.177,1118.563 C1891.668,1125.252 1952.584,1186.509 1956.179,1190.299 C1957.87,1185.390 1966.90,1143.55 1966.765,1139.405 L1976.238,1141.678 C1973.970,1149.720 1960.900,1207.704 1960.294,1210.977 L1960.43,1210.930 C1954.820,1203.976 1893.37,1141.778 1891.507,1140.193 C1890.250,1146.990 1882.874,1188.974 1882.725,1192.592 ZM1939.757,1070.430 C1934.582,1073.983 1902.208,1102.0 1897.87,1106.457 L1888.855,1097.299 C1890.746,1096.171 1933.469,1061.47 1940.46,1056.69 C1941.908,1058.407 1974.861,1097.867 1977.935,1101.76 L1968.903,1107.778 C1964.712,1102.550 1945.958,1077.750 1939.757,1070.430 ZM1932.722,1054.564 C1922.899,1053.751 1894.293,1051.768 1891.849,1051.823 L1892.905,1039.66 C1896.583,1039.628 1918.109,1041.795 1932.651,1042.999 L1946.173,1044.118 C1957.271,1045.36 1981.816,1046.426 1984.750,1046.669 L1983.694,1059.425 C1981.664,1059.129 1957.597,1056.623 1946.499,1055.704 L1932.722,1054.564 ZM1863.34,995.237 L1991.25,997.312 L1990.872,1006.784 L1862.881,1004.708 L1863.34,995.237 Z"/>
</svg>