<svg 
 xmlns="http://www.w3.org/2000/svg"
 xmlns:xlink="http://www.w3.org/1999/xlink"
 width="1690px" height="1689px">
<path fill-rule="evenodd"  fill="rgb(17, 7, 8)"
 d="M1593.607,791.133 L1593.33,784.52 L1688.721,776.300 L1689.295,783.381 L1593.607,791.133 ZM1612.745,739.843 C1611.601,731.852 1608.793,717.240 1605.750,701.403 C1603.302,689.166 1600.896,676.139 1598.534,664.863 L1598.799,664.714 C1607.924,667.946 1660.518,683.745 1674.55,688.573 L1674.92,688.761 C1663.155,698.487 1621.694,731.477 1613.46,739.883 L1612.745,739.843 ZM1659.237,691.322 C1651.218,688.757 1610.174,676.605 1608.503,676.46 C1608.934,678.798 1610.792,689.487 1612.839,700.139 C1614.809,710.904 1617.81,721.708 1617.925,724.576 C1619.422,723.213 1652.891,696.451 1659.237,691.322 ZM1623.290,621.2 C1620.623,624.882 1605.497,653.207 1603.111,657.705 L1594.883,653.509 C1595.904,652.210 1616.364,616.125 1619.628,610.870 C1621.561,612.5 1655.249,630.765 1658.264,632.184 L1653.744,639.306 C1649.404,636.774 1629.601,624.458 1623.290,621.2 ZM1614.95,611.787 C1607.0,613.861 1586.440,620.170 1584.743,620.866 L1582.50,611.651 C1584.776,611.54 1600.429,606.779 1610.934,603.709 L1620.702,600.854 C1628.719,598.511 1646.277,592.880 1648.396,592.260 L1651.89,601.475 C1649.588,601.814 1632.64,606.535 1624.47,608.878 L1614.95,611.787 ZM1546.464,580.727 L1636.277,546.837 L1638.785,553.483 L1548.972,587.373 L1546.464,580.727 ZM1600.385,490.971 L1578.352,501.416 C1568.463,506.104 1550.461,514.745 1545.590,517.691 L1541.477,509.17 C1546.198,507.97 1564.762,498.297 1566.757,497.351 L1578.381,491.841 C1579.769,491.183 1600.593,481.99 1602.200,480.231 C1603.187,482.313 1615.221,504.337 1616.884,506.948 L1610.195,510.544 C1608.879,507.768 1601.43,492.359 1600.385,490.971 ZM1549.828,447.969 C1548.131,452.360 1539.971,483.413 1538.690,488.340 L1529.716,486.161 C1530.409,484.662 1541.962,444.827 1543.922,438.960 C1546.64,439.618 1583.174,450.72 1586.435,450.755 L1583.687,458.729 C1578.878,457.270 1556.766,449.871 1549.828,447.969 ZM1538.752,441.132 C1532.330,444.791 1513.790,455.685 1512.300,456.755 L1507.548,448.414 C1510.62,447.203 1524.300,439.423 1533.808,434.6 L1542.649,428.969 C1549.905,424.836 1565.681,415.295 1567.600,414.203 L1572.351,422.543 C1570.969,423.220 1555.16,431.867 1547.760,436.1 L1538.752,441.132 ZM1465.775,426.540 L1545.349,372.829 L1549.324,378.718 L1469.749,432.429 L1465.775,426.540 ZM1507.201,353.283 C1504.332,355.535 1497.935,358.115 1487.951,353.15 L1487.800,353.134 C1491.60,358.997 1492.123,368.903 1485.327,374.238 C1476.340,381.292 1458.705,376.707 1444.402,358.642 L1443.928,358.38 C1448.377,355.155 1471.183,337.252 1472.618,336.126 L1481.0,329.546 C1483.266,327.767 1495.834,317.657 1497.242,316.186 C1500.384,320.188 1503.35,323.721 1504.969,326.963 C1515.660,343.225 1511.430,349.963 1507.201,353.283 ZM1454.759,360.642 C1462.52,368.221 1471.847,372.614 1478.946,367.42 C1484.232,362.892 1483.71,353.795 1475.149,344.636 L1454.759,360.642 ZM1497.803,326.852 L1479.453,341.257 C1486.200,349.386 1495.587,350.927 1500.647,346.955 C1507.443,341.620 1501.743,332.181 1497.803,326.852 ZM1438.504,296.565 C1437.861,301.229 1437.45,333.330 1436.930,338.421 L1427.694,338.360 C1428.24,336.741 1430.126,295.313 1430.688,289.151 C1432.924,289.300 1471.448,290.958 1474.779,290.874 L1473.934,299.267 C1468.918,298.950 1445.696,296.824 1438.504,296.565 ZM1426.154,292.453 C1420.742,297.488 1405.195,312.349 1403.990,313.732 L1397.450,306.704 C1399.619,304.948 1411.693,294.106 1419.706,286.651 L1427.155,279.718 C1433.270,274.28 1446.437,261.120 1448.53,259.616 L1454.593,266.644 C1453.404,267.621 1439.859,279.700 1433.744,285.390 L1426.154,292.453 ZM1351.778,294.985 L1416.933,224.475 L1422.151,229.296 L1356.996,299.807 L1351.778,294.985 ZM1368.155,1463.906 L1398.785,1433.932 L1394.679,1429.362 C1391.791,1426.148 1379.771,1413.201 1378.224,1411.623 L1385.151,1405.399 C1387.831,1408.669 1402.774,1425.444 1404.442,1427.300 L1411.372,1435.13 C1412.463,1436.227 1428.525,1453.673 1430.208,1455.258 L1423.67,1461.675 C1422.55,1460.261 1409.180,1445.500 1408.25,1444.215 L1403.20,1438.645 L1372.390,1468.619 L1377.523,1474.332 C1378.614,1475.545 1390.306,1488.271 1391.860,1489.714 L1384.576,1496.259 C1383.251,1494.352 1366.284,1474.750 1364.744,1473.37 L1358.327,1465.895 C1357.493,1464.967 1341.310,1447.243 1339.948,1446.14 L1347.89,1439.598 C1349.56,1442.218 1360.263,1455.122 1361.482,1456.479 L1368.155,1463.906 ZM1327.753,244.443 C1328.383,240.369 1331.930,218.500 1331.996,216.637 L1304.436,197.877 C1302.424,198.656 1285.66,208.851 1281.811,210.501 L1278.460,201.803 C1288.190,197.544 1342.875,170.208 1346.899,168.649 L1347.53,168.764 C1345.721,184.746 1338.212,233.76 1337.510,244.984 L1327.753,244.443 ZM1310.831,194.731 L1333.342,209.986 C1333.751,207.660 1337.587,182.659 1337.731,180.854 C1335.316,181.693 1312.440,194.12 1310.831,194.731 ZM1273.661,195.168 L1264.762,197.641 C1264.636,195.994 1255.305,155.577 1254.156,149.497 C1256.347,149.27 1293.849,140.65 1297.30,139.71 L1298.517,147.374 C1293.607,148.444 1270.691,152.763 1263.705,154.485 C1264.364,159.147 1272.377,190.241 1273.661,195.168 ZM1250.700,153.915 C1246.876,160.240 1235.997,178.792 1235.218,180.452 L1227.2,175.485 C1228.607,173.202 1237.247,159.467 1242.909,150.102 L1248.174,141.394 C1252.495,134.246 1261.620,118.224 1262.763,116.335 L1270.978,121.302 C1270.101,122.566 1260.385,137.895 1256.64,145.42 L1250.700,153.915 ZM1179.863,176.749 L1223.152,91.55 L1229.493,94.259 L1186.204,179.952 L1179.863,176.749 ZM1178.733,141.858 L1170.266,145.547 C1169.912,143.934 1155.40,105.211 1153.55,99.352 C1155.160,98.581 1191.47,84.480 1194.58,83.53 L1196.687,91.68 C1191.974,92.811 1169.884,100.281 1163.206,102.960 C1164.508,107.484 1176.775,137.158 1178.733,141.858 ZM1150.249,104.207 C1147.343,111.4 1139.155,130.890 1138.615,132.643 L1129.788,128.869 C1131.58,126.385 1137.700,111.580 1142.2,101.517 L1146.2,92.160 C1149.285,84.481 1156.89,67.344 1156.957,65.313 L1165.784,69.87 C1165.92,70.462 1157.607,86.994 1154.324,94.674 L1150.249,104.207 ZM1083.296,136.706 L1114.180,45.810 L1120.906,48.95 L1090.23,138.992 L1083.296,136.706 ZM1072.520,1663.534 L1072.334,1663.585 C1060.823,1652.634 1027.168,1616.848 1018.206,1608.975 L1024.707,1601.889 C1026.315,1603.734 1066.985,1646.838 1068.321,1648.61 C1068.947,1645.296 1079.132,1590.855 1079.903,1586.456 L1088.788,1588.671 C1086.167,1598.964 1073.948,1659.351 1072.520,1663.534 ZM1058.709,75.249 C1058.423,76.464 1053.105,99.869 1052.874,101.688 L1043.529,99.487 C1044.558,96.375 1048.758,79.808 1049.176,78.33 L1051.466,68.315 L1009.371,60.270 L1007.962,66.250 C1006.971,70.455 1003.200,87.715 1002.787,89.886 L993.723,87.751 C994.879,83.683 1000.125,61.839 1000.697,59.410 L1003.75,49.317 C1003.449,47.729 1008.608,24.582 1008.949,22.295 L1018.294,24.497 C1017.710,26.135 1012.938,45.132 1012.542,46.814 L1010.825,54.103 L1052.919,62.147 L1054.681,54.672 C1055.55,53.83 1058.832,36.219 1059.129,34.119 L1068.660,36.365 C1067.852,38.542 1061.439,63.662 1060.911,65.904 L1058.709,75.249 ZM965.738,1590.329 L972.745,1589.161 L988.538,1683.857 L981.531,1685.25 L965.738,1590.329 ZM969.823,54.729 C968.394,64.222 966.119,81.256 965.885,83.454 L956.677,82.67 C957.496,77.919 960.937,55.721 961.309,53.253 L962.853,43.1 C963.96,41.387 966.343,17.898 966.496,15.591 L975.988,17.21 C975.541,18.701 973.83,33.87 971.367,44.478 L969.823,54.729 ZM912.974,101.111 L922.7,5.530 L929.80,6.198 L920.47,101.780 L912.974,101.111 ZM844.235,71.713 C844.262,73.344 844.415,76.895 844.561,79.965 L835.730,80.108 C835.773,76.843 835.926,74.440 835.887,72.40 C819.645,71.151 804.778,60.254 804.491,42.591 C804.157,21.953 819.422,9.991 834.945,8.11 C834.827,6.669 834.684,3.790 834.540,0.816 L843.371,0.673 C843.327,3.842 843.177,6.437 843.195,7.589 C858.87,8.116 874.298,18.991 874.602,37.710 C874.897,55.948 863.110,69.198 844.235,71.713 ZM835.546,45.64 L835.377,34.697 C835.346,32.777 835.263,21.736 835.54,14.730 C823.474,17.127 813.250,26.126 813.507,41.965 C813.750,56.940 824.712,63.867 835.776,65.224 C835.859,58.502 835.566,46.312 835.546,45.64 ZM843.212,14.502 C843.196,19.495 843.465,30.149 843.540,34.757 L843.708,45.124 C843.767,48.772 843.951,60.99 844.126,64.993 C854.752,62.996 865.876,56.191 865.588,38.432 C865.317,21.729 853.596,15.390 843.212,14.502 ZM775.99,47.859 L774.267,37.524 C774.136,35.898 771.946,12.286 771.570,10.5 L781.138,9.234 C781.86,10.972 781.970,25.540 782.895,37.22 L783.727,47.356 C784.497,56.925 786.164,74.30 786.437,76.223 L777.155,76.971 C777.7,72.745 775.300,50.346 775.99,47.859 ZM726.573,1687.813 L739.466,1592.675 L746.507,1593.629 L733.613,1688.768 L726.573,1687.813 ZM725.933,10.349 L732.973,9.389 L745.942,104.513 L738.903,105.473 L725.933,10.349 ZM662.270,94.949 C665.667,89.952 691.242,30.419 692.872,26.857 C689.202,27.600 657.225,33.184 654.496,33.736 L653.426,26.508 C659.657,25.836 703.662,18.701 706.109,18.206 L706.147,18.394 C702.770,23.975 676.783,84.374 676.108,85.882 C681.190,84.854 712.468,78.236 715.27,77.327 L716.230,85.213 C713.877,85.689 667.201,94.148 662.308,95.137 L662.270,94.949 ZM628.249,74.385 L625.517,64.383 C625.86,62.809 618.560,40.11 617.767,37.839 L627.28,35.309 C627.298,37.27 630.866,51.179 633.902,62.292 L636.634,72.293 C639.164,81.554 643.970,98.54 644.645,100.159 L635.662,102.613 C634.734,98.487 628.907,76.792 628.249,74.385 ZM630.742,1618.240 L663.337,1625.230 C664.907,1623.750 677.142,1607.766 679.535,1605.11 L685.917,1611.805 C678.509,1619.416 638.161,1665.342 635.21,1668.302 L634.836,1668.254 C630.47,1652.949 618.790,1605.356 614.953,1594.62 L624.193,1590.886 C625.145,1594.897 630.101,1616.489 630.742,1618.240 ZM638.914,1653.543 C640.834,1651.856 657.380,1631.826 658.599,1630.553 L632.1,1624.907 C632.498,1627.215 638.366,1651.816 638.914,1653.543 ZM572.951,46.664 L579.688,44.413 L610.114,135.462 L603.377,137.713 L572.951,46.664 ZM524.893,112.403 L519.958,100.523 C519.368,99.105 510.314,77.813 509.525,76.165 C511.653,75.281 534.239,64.338 536.928,62.804 L540.193,69.661 C537.356,70.839 521.583,77.913 520.164,78.502 L529.520,101.20 C531.116,100.357 542.279,95.199 546.402,92.862 L549.578,99.755 C547.628,100.566 533.651,105.957 531.878,106.694 L540.865,128.326 C542.993,127.442 554.983,122.772 562.32,119.219 L565.554,126.696 C564.135,127.285 537.83,137.486 535.309,138.223 C533.623,133.414 525.740,114.442 524.893,112.403 ZM501.407,154.112 C499.728,150.231 489.967,129.997 488.873,127.754 L484.328,118.434 C483.612,116.968 472.959,95.781 471.776,93.794 L480.405,89.585 C480.990,91.223 487.128,104.465 492.178,114.819 L496.723,124.139 C500.931,132.767 508.723,148.87 509.777,150.29 L501.407,154.112 ZM476.192,194.610 L429.393,110.794 L435.596,107.331 L482.394,191.147 L476.192,194.610 ZM430.664,193.234 C423.851,197.565 411.687,206.136 398.503,215.426 C388.357,222.694 377.472,230.246 368.165,237.39 L367.921,236.859 C367.112,227.211 359.872,172.770 358.703,158.444 L358.860,158.333 C372.225,164.300 419.356,188.519 430.577,192.943 L430.664,193.234 ZM367.306,170.820 C368.268,179.185 374.79,221.598 374.257,223.351 C376.588,221.826 385.567,215.734 394.434,209.485 C403.436,203.260 412.350,196.744 414.617,194.794 C412.758,193.990 374.593,174.494 367.306,170.820 ZM332.526,229.152 L325.958,221.129 C324.925,219.866 309.683,201.697 308.75,200.36 L315.504,193.955 C316.450,195.414 325.470,206.889 332.767,215.805 L339.334,223.828 C345.414,231.258 356.521,244.374 357.994,246.22 L350.788,251.921 C348.261,248.530 334.106,231.84 332.526,229.152 ZM335.549,297.129 L270.760,226.298 L276.2,221.503 L340.791,292.335 L335.549,297.129 ZM280.161,318.260 L273.588,325.256 C270.77,321.562 255.105,307.495 253.496,305.983 L244.121,297.174 C243.2,296.122 226.10,280.420 224.614,279.241 C226.192,277.562 242.300,258.316 244.123,255.814 L249.913,260.728 C247.810,262.967 236.327,275.888 235.275,277.8 L253.46,293.704 C261.21,301.198 275.639,314.801 280.161,318.260 ZM232.565,327.960 C239.906,334.146 253.232,344.998 254.983,346.348 L248.982,353.468 C245.876,350.600 228.760,336.51 226.851,334.443 L218.923,327.762 C217.675,326.711 199.357,311.652 197.471,310.314 L203.657,302.973 C204.855,304.233 215.828,313.856 224.637,321.279 L232.565,327.960 ZM242.313,400.699 L165.607,342.975 L169.879,337.299 L246.585,395.23 L242.313,400.699 ZM167.960,400.92 L168.121,400.197 C172.628,395.229 181.668,391.45 188.901,395.770 C198.465,402.18 199.779,420.192 187.258,439.533 L186.838,440.176 C182.680,436.886 158.409,421.30 156.882,420.32 L147.961,414.204 C145.550,412.629 131.944,403.968 130.98,403.107 C132.881,398.847 135.377,395.203 137.826,392.331 C149.799,376.989 157.538,378.835 162.38,381.775 C165.92,383.770 169.587,389.0 167.960,400.92 ZM158.147,390.12 C150.914,385.286 143.803,393.713 140.20,399.154 L159.549,411.913 C165.84,402.915 163.532,393.530 158.147,390.12 ZM185.830,429.82 C190.669,419.744 191.688,409.57 184.133,404.122 C178.507,400.447 170.264,404.464 164.130,414.906 L185.830,429.82 ZM146.735,449.987 C155.91,454.715 170.190,462.926 172.159,463.929 L167.573,472.34 C163.991,469.787 144.486,458.642 142.314,457.413 L133.290,452.308 C131.869,451.504 111.89,440.79 108.989,439.111 L113.716,430.755 C115.125,431.773 127.684,439.209 137.711,444.882 L146.735,449.987 ZM169.739,519.677 L83.695,477.120 L86.844,470.752 L172.888,513.309 L169.739,519.677 ZM129.344,553.902 C125.256,554.437 103.269,557.148 101.461,557.605 L91.158,589.311 C92.469,591.24 107.111,604.838 109.605,607.502 L102.191,613.151 C95.382,605.0 53.844,560.144 51.223,556.717 L51.290,556.537 C67.6,553.346 115.506,547.40 127.135,544.384 L129.344,553.902 ZM65.504,562.105 C66.985,564.189 85.209,582.707 86.349,584.50 L94.700,558.173 C92.353,558.430 67.278,561.738 65.504,562.105 ZM73.568,621.346 C82.791,624.10 99.379,628.503 101.526,629.23 L98.942,637.969 C94.938,636.612 73.384,630.286 70.986,629.593 L61.26,626.716 C59.458,626.263 36.599,619.959 34.332,619.504 L36.996,610.282 C38.603,610.946 52.541,615.272 63.608,618.469 L73.568,621.346 ZM112.84,683.827 L18.517,662.358 L20.106,655.434 L113.673,676.903 L112.84,683.827 ZM49.513,730.715 C59.17,732.66 76.71,734.198 78.271,734.413 L76.961,743.633 C72.806,742.848 50.578,739.593 48.107,739.242 L37.842,737.784 C36.226,737.554 12.709,734.504 10.401,734.370 L11.752,724.865 C13.435,725.298 27.842,727.636 39.248,729.257 L49.513,730.715 ZM96.365,787.206 L0.723,778.967 L1.333,771.889 L96.975,780.129 L96.365,787.206 ZM33.386,826.168 C48.361,825.925 71.81,835.542 71.523,862.804 C71.863,883.731 57.273,895.874 40.378,896.148 C19.67,896.493 1.544,881.702 1.169,858.568 C0.875,840.425 12.652,826.504 33.386,826.168 ZM38.789,886.956 C53.92,886.724 64.650,877.126 64.406,862.56 C64.172,847.657 52.928,835.165 34.17,835.471 C16.834,835.750 8.91,847.222 8.294,859.797 C8.573,876.979 22.374,887.222 38.789,886.956 ZM41.503,876.734 L34.405,877.137 C34.382,869.840 32.919,850.660 32.259,845.486 L39.353,844.794 C39.791,854.5 40.818,870.23 41.503,876.734 ZM97.815,926.593 L2.264,935.947 L1.572,928.876 L97.123,919.522 L97.815,926.593 ZM52.190,975.807 C53.414,975.565 76.921,970.727 78.674,970.185 L80.534,979.603 C77.276,979.953 60.457,982.981 58.667,983.335 L48.873,985.269 L58.958,1026.919 L64.985,1025.728 C69.223,1024.891 86.496,1021.186 88.644,1020.664 L90.448,1029.800 C86.267,1030.430 64.211,1034.688 61.762,1035.171 L51.591,1037.180 C49.990,1037.497 26.784,1042.374 24.561,1043.8 L22.701,1033.590 C24.433,1033.444 43.701,1029.932 45.396,1029.597 L52.742,1028.146 L42.657,986.497 L35.123,987.985 C33.522,988.301 16.607,991.837 14.572,992.435 L12.675,982.829 C14.991,982.665 40.512,978.114 42.772,977.667 L52.190,975.807 ZM124.855,1063.280 L32.707,1090.181 L30.716,1083.362 L122.864,1056.461 L124.855,1063.280 ZM80.500,1122.411 C97.390,1115.525 114.10,1121.709 123.194,1138.388 C124.705,1137.772 127.958,1136.342 130.767,1135.94 L134.101,1143.272 C131.42,1144.416 128.747,1145.144 126.525,1146.50 C131.583,1161.508 126.815,1179.313 110.458,1185.982 C91.345,1193.773 74.665,1183.882 67.194,1170.133 C65.985,1170.729 63.355,1171.905 60.635,1173.117 L57.301,1164.939 C60.271,1163.832 62.744,1163.31 63.810,1162.596 C58.905,1148.527 63.165,1129.478 80.500,1122.411 ZM106.607,1177.806 C120.475,1172.153 122.958,1159.426 120.213,1148.623 C113.918,1150.982 102.664,1155.673 101.508,1156.144 L91.907,1160.58 C90.129,1160.783 79.870,1164.862 73.417,1167.596 C79.846,1177.519 91.939,1183.786 106.607,1177.806 ZM70.247,1160.76 C74.906,1158.280 84.738,1154.169 89.5,1152.429 L98.606,1148.515 C101.984,1147.138 112.474,1142.862 116.971,1140.925 C111.260,1131.746 100.886,1123.845 84.440,1130.550 C68.971,1136.855 67.311,1150.76 70.247,1160.76 ZM176.839,1192.531 L91.298,1236.110 L88.73,1229.780 L173.614,1186.201 L176.839,1192.531 ZM179.788,1259.518 C177.137,1255.64 160.538,1227.742 158.833,1225.629 L165.876,1221.883 C167.104,1223.946 190.536,1265.186 193.89,1269.476 L192.924,1269.574 C187.85,1268.22 122.448,1263.598 118.548,1263.239 C120.463,1266.456 136.317,1294.779 137.741,1297.172 L131.275,1300.573 C128.579,1294.917 107.280,1255.758 106.3,1253.614 L106.168,1253.515 C112.551,1254.855 178.143,1259.381 179.788,1259.518 ZM231.96,1281.912 L152.437,1336.951 L148.364,1331.130 L227.23,1276.92 L231.96,1281.912 ZM198.895,1379.689 L217.812,1364.303 C216.722,1362.962 208.596,1353.732 205.181,1350.446 L210.883,1345.437 C212.215,1347.75 221.367,1358.936 222.579,1360.426 L240.752,1345.645 C239.298,1343.858 231.404,1333.696 225.990,1327.952 L232.152,1322.444 C233.122,1323.636 250.611,1346.660 251.822,1348.149 C247.693,1351.136 231.755,1364.100 230.42,1365.493 L220.62,1373.611 C218.870,1374.580 201.42,1389.328 199.688,1390.553 C198.234,1388.766 181.306,1370.236 179.69,1368.95 L184.711,1363.11 C186.649,1365.395 197.926,1378.498 198.895,1379.689 ZM297.221,1362.927 L226.924,1428.311 L222.85,1423.109 L292.383,1357.725 L297.221,1362.927 ZM307.188,1407.958 C313.17,1413.545 324.237,1423.320 336.398,1433.915 C345.871,1442.41 355.798,1450.816 364.610,1458.239 L364.494,1458.519 C355.315,1461.600 304.159,1481.589 290.522,1486.134 L290.377,1486.8 C292.992,1471.606 305.300,1420.64 306.927,1408.112 L307.188,1407.958 ZM349.865,1455.579 C347.829,1453.678 339.776,1446.407 331.596,1439.281 C323.407,1432.19 314.956,1424.911 312.523,1423.173 C312.184,1425.170 302.330,1466.881 300.496,1474.832 C308.392,1471.907 348.205,1456.170 349.865,1455.579 ZM401.575,1455.306 L344.491,1532.485 L338.780,1528.260 L395.863,1451.82 L401.575,1455.306 ZM402.440,1558.425 L415.370,1537.751 C421.173,1528.473 431.679,1511.493 434.194,1506.385 L442.333,1511.476 C439.391,1515.637 428.498,1533.54 427.327,1534.926 L420.506,1545.833 C419.692,1547.135 407.587,1566.852 406.701,1568.449 C404.748,1567.227 382.741,1555.162 379.933,1553.859 L383.629,1547.226 C386.233,1548.854 401.138,1557.610 402.440,1558.425 ZM490.36,1511.81 L444.214,1595.447 L437.971,1592.56 L483.793,1507.690 L490.36,1511.81 ZM501.751,1585.357 L501.831,1585.183 C496.245,1581.469 490.756,1573.156 494.348,1565.298 C499.96,1554.908 516.868,1550.892 537.863,1560.381 L538.561,1560.700 C535.930,1565.303 523.880,1591.671 523.122,1593.330 L518.693,1603.21 C517.496,1605.641 510.967,1620.389 510.391,1622.342 C505.763,1620.227 501.787,1618.304 498.581,1616.312 C481.623,1606.767 482.291,1598.840 484.525,1593.950 C486.41,1590.632 490.541,1585.406 501.751,1585.357 ZM527.743,1563.356 C517.787,1559.967 507.69,1560.557 503.318,1568.764 C500.525,1574.876 505.729,1582.426 516.970,1586.930 L527.743,1563.356 ZM504.999,1613.123 L514.695,1591.906 C504.971,1587.779 495.924,1590.716 493.251,1596.566 C489.660,1604.424 499.55,1610.195 504.999,1613.123 ZM585.398,1553.997 L551.814,1643.932 L545.158,1641.447 L578.743,1551.511 L585.398,1553.997 ZM1140.363,1642.999 L1133.695,1645.451 L1100.568,1555.347 L1107.236,1552.896 L1140.363,1642.999 ZM1189.910,1541.406 C1208.661,1532.109 1225.895,1540.67 1233.401,1555.205 C1242.869,1574.301 1237.41,1596.479 1216.312,1606.757 C1200.55,1614.818 1182.424,1610.165 1173.212,1591.585 C1166.559,1578.167 1165.482,1553.519 1189.910,1541.406 ZM1181.342,1587.19 C1188.976,1602.415 1203.92,1605.382 1214.360,1599.795 C1229.757,1592.161 1233.76,1575.298 1225.783,1560.590 C1219.428,1547.774 1205.796,1541.460 1192.292,1548.156 C1179.390,1554.553 1172.940,1570.74 1181.342,1587.19 ZM1218.800,1568.767 C1212.220,1571.923 1195.530,1581.484 1191.141,1584.303 L1187.468,1578.194 C1195.598,1573.842 1209.621,1566.32 1215.386,1562.530 L1218.800,1568.767 ZM1231.633,1528.655 L1233.468,1519.604 C1234.993,1520.238 1275.242,1530.268 1281.180,1532.4 C1280.604,1534.170 1271.569,1571.654 1271.10,1574.939 L1262.937,1572.495 C1264.212,1567.635 1270.765,1545.255 1272.402,1538.249 C1267.949,1536.720 1236.606,1529.747 1231.633,1528.655 ZM1262.194,1501.80 L1270.348,1496.14 C1271.654,1498.479 1279.971,1512.412 1285.746,1521.708 L1291.116,1530.352 C1295.523,1537.446 1305.658,1552.849 1306.823,1554.725 L1298.668,1559.791 C1297.939,1558.435 1288.691,1542.821 1284.284,1535.727 L1278.812,1526.920 C1274.912,1520.641 1263.319,1502.527 1262.194,1501.80 ZM1290.638,1453.431 L1347.324,1530.900 L1341.592,1535.95 L1284.905,1457.626 L1290.638,1453.431 ZM1402.870,1386.711 C1404.511,1386.905 1445.967,1385.524 1452.154,1385.567 C1452.193,1387.808 1453.772,1426.332 1454.135,1429.645 L1445.702,1429.506 C1445.597,1424.482 1445.767,1401.164 1445.422,1393.977 C1440.721,1393.728 1408.667,1395.607 1403.585,1395.919 L1402.870,1386.711 ZM1425.422,1361.27 L1431.876,1353.921 C1433.808,1355.935 1445.624,1367.56 1453.725,1374.414 L1461.257,1381.256 C1467.439,1386.871 1481.406,1398.908 1483.40,1400.393 L1476.585,1407.499 C1475.513,1406.395 1462.341,1393.912 1456.158,1388.297 L1448.484,1381.326 C1443.12,1376.356 1426.901,1362.111 1425.422,1361.27 ZM1439.722,1307.424 L1515.452,1366.430 L1511.85,1372.34 L1435.356,1313.28 L1439.722,1307.424 ZM1498.928,1329.481 C1483.783,1319.317 1479.629,1302.77 1488.335,1285.144 C1486.980,1284.234 1483.977,1282.334 1481.373,1280.702 L1486.295,1273.369 C1488.951,1275.267 1490.837,1276.764 1492.830,1278.102 C1502.828,1265.272 1520.259,1259.282 1534.926,1269.125 C1552.64,1280.627 1553.176,1299.988 1545.944,1313.864 C1547.114,1314.533 1549.559,1316.58 1552.83,1317.637 L1547.161,1324.971 C1544.584,1323.125 1542.539,1321.521 1541.583,1320.880 C1532.653,1332.807 1514.472,1339.913 1498.928,1329.481 ZM1540.364,1310.119 C1545.4,1299.244 1543.448,1285.713 1530.296,1276.886 C1517.861,1268.540 1505.917,1273.589 1498.489,1281.900 C1503.962,1285.804 1514.139,1292.519 1515.176,1293.214 L1523.784,1298.992 C1525.379,1300.62 1534.492,1306.293 1540.364,1310.119 ZM1535.897,1316.948 C1531.805,1314.86 1522.904,1308.228 1519.78,1305.660 L1510.469,1299.883 C1507.440,1297.850 1498.34,1291.537 1493.915,1288.888 C1489.491,1298.753 1488.732,1311.770 1503.479,1321.667 C1517.349,1330.976 1529.242,1324.968 1535.897,1316.948 ZM1515.391,1237.685 C1517.31,1237.480 1556.963,1226.249 1562.981,1224.814 C1563.554,1226.981 1574.280,1264.19 1575.422,1267.149 L1567.199,1269.27 C1565.898,1264.173 1560.500,1241.486 1558.450,1234.589 C1553.825,1235.468 1523.143,1244.941 1518.282,1246.457 L1515.391,1237.685 ZM1558.405,1221.571 C1551.906,1218.50 1532.860,1208.60 1531.165,1207.360 L1535.738,1198.918 C1538.94,1200.413 1552.223,1208.395 1561.846,1213.608 L1570.793,1218.456 C1578.137,1222.434 1594.573,1230.792 1596.514,1231.844 L1591.941,1240.286 C1590.636,1239.469 1574.866,1230.489 1567.522,1226.510 L1558.405,1221.571 ZM1543.24,1126.161 L1632.74,1162.19 L1629.421,1168.609 L1540.371,1132.750 L1543.24,1126.161 ZM1580.726,1115.448 L1573.264,1112.628 C1574.4,1110.344 1589.533,1065.526 1591.72,1060.778 L1591.254,1060.837 C1593.941,1066.248 1633.264,1117.737 1635.568,1120.905 C1636.722,1117.344 1647.544,1086.742 1648.402,1084.94 L1655.224,1086.708 C1652.753,1092.467 1637.381,1134.308 1636.612,1136.683 L1636.429,1136.624 C1633.224,1130.943 1593.348,1078.669 1592.365,1077.342 C1590.767,1082.274 1581.189,1112.773 1580.726,1115.448 ZM1635.349,1030.735 C1631.129,1032.820 1604.106,1050.162 1599.829,1052.924 L1594.696,1045.247 C1596.220,1044.611 1631.683,1023.99 1637.97,1020.105 C1638.229,1022.39 1658.479,1054.849 1660.419,1057.559 L1652.999,1061.570 C1650.446,1057.242 1639.171,1036.831 1635.349,1030.735 ZM1631.820,1018.206 C1624.616,1016.554 1603.593,1012.29 1601.772,1011.808 L1603.917,1002.452 C1606.588,1003.261 1622.336,1007.167 1633.3,1009.613 L1642.921,1011.887 C1651.61,1013.754 1669.133,1017.405 1671.285,1017.898 L1669.140,1027.255 C1667.664,1026.818 1650.66,1022.389 1641.926,1020.523 L1631.820,1018.206 ZM1587.949,958.72 L1682.890,972.323 L1681.835,979.349 L1586.895,965.97 L1587.949,958.72 ZM1677.707,928.313 C1677.932,925.249 1678.716,907.979 1678.829,906.447 L1654.508,904.664 C1654.382,906.388 1653.962,918.679 1654.193,923.413 L1646.608,923.145 C1646.762,921.39 1648.240,906.130 1648.380,904.215 L1625.18,902.502 C1624.849,904.801 1623.622,917.610 1623.620,925.503 L1615.358,925.283 C1615.470,923.751 1618.541,895.0 1618.681,893.85 C1623.734,893.745 1644.225,895.247 1646.427,895.408 L1659.257,896.349 C1660.789,896.461 1683.879,897.961 1685.705,897.999 C1685.537,900.297 1685.141,925.393 1685.299,928.485 L1677.707,928.313 ZM1655.777,843.563 C1652.177,846.598 1630.87,869.904 1626.594,873.610 L1619.772,867.383 C1621.101,866.401 1650.390,837.25 1654.931,832.823 C1656.493,834.430 1684.8,861.445 1686.540,863.612 L1680.294,869.282 C1676.780,865.691 1660.947,848.568 1655.777,843.563 ZM1659.719,832.73 L1649.352,832.241 C1641.961,832.361 1620.463,832.997 1618.642,833.219 L1618.486,823.620 C1621.273,823.766 1637.501,823.791 1648.444,823.614 L1658.619,823.449 C1666.971,823.314 1685.394,822.535 1687.602,822.499 L1687.757,832.98 C1686.220,832.27 1668.71,831.937 1659.719,832.73 Z"/>
</svg>