<svg 
 xmlns="http://www.w3.org/2000/svg"
 xmlns:xlink="http://www.w3.org/1999/xlink"
 width="1821px" height="1241px">
<path fill-rule="evenodd"  fill="rgb(17, 7, 8)"
 d="M1808.543,105.433 L1804.260,118.577 C1800.295,130.747 1793.561,152.651 1792.771,155.490 L1780.965,151.643 C1782.954,146.368 1792.355,117.929 1793.386,114.764 L1797.669,101.620 C1798.344,99.551 1807.774,69.371 1808.482,66.371 L1820.653,70.337 C1819.695,72.448 1813.302,90.828 1808.543,105.433 ZM1724.996,107.374 L1723.10,114.660 C1722.337,117.130 1718.668,130.590 1718.208,133.250 L1706.600,130.86 C1708.294,124.844 1716.777,95.184 1719.167,86.416 L1722.870,72.832 C1723.644,69.992 1729.904,45.563 1730.409,43.711 C1735.596,45.125 1745.868,48.323 1753.188,51.645 C1768.995,58.872 1777.214,69.603 1773.645,82.693 C1769.34,99.611 1749.738,109.77 1724.996,107.374 ZM1739.32,55.879 L1727.352,98.730 C1743.821,99.637 1757.459,94.864 1761.162,81.280 C1762.172,77.575 1763.876,63.49 1739.32,55.879 ZM1679.34,56.709 C1668.505,64.744 1659.865,76.956 1657.144,90.248 L1654.732,102.35 C1654.373,103.791 1652.465,115.28 1652.202,117.587 L1639.663,115.21 C1640.378,112.162 1643.600,98.973 1643.934,97.343 L1645.859,87.938 C1649.195,71.636 1644.241,56.904 1637.639,45.754 C1633.778,39.85 1628.236,32.332 1622.54,28.62 L1629.198,19.334 C1636.376,25.114 1643.241,33.705 1645.757,38.9 C1650.264,45.986 1655.912,57.333 1656.540,68.306 L1656.791,68.357 C1662.558,58.693 1668.811,52.395 1677.148,46.132 C1683.923,41.117 1696.273,35.675 1704.561,34.758 L1706.321,45.309 C1697.808,46.49 1687.724,49.995 1679.34,56.709 ZM1576.85,23.15 L1573.252,43.944 C1569.768,69.694 1566.951,100.55 1566.861,102.626 L1553.162,100.772 C1554.242,97.560 1559.382,60.538 1562.111,40.370 L1564.669,21.470 C1550.81,19.496 1531.983,17.692 1528.617,17.753 L1530.76,6.971 C1535.12,8.673 1565.6,13.248 1566.402,13.437 L1577.437,14.931 C1579.847,15.257 1607.568,18.492 1613.287,18.232 L1611.828,29.14 C1610.121,28.266 1586.740,24.457 1576.85,23.15 ZM1354.820,63.381 L1354.942,70.933 C1354.983,73.493 1355.210,87.444 1355.509,90.127 L1343.478,90.322 C1343.645,84.815 1343.528,53.963 1343.381,44.875 L1343.153,30.796 C1343.105,27.853 1342.312,2.645 1342.281,0.725 C1347.657,0.638 1358.414,0.847 1366.371,1.998 C1383.567,4.536 1394.451,12.553 1394.671,26.120 C1394.955,43.655 1379.59,58.123 1354.820,63.381 ZM1353.954,10.9 L1354.674,54.422 C1370.745,50.705 1382.515,42.320 1382.287,28.241 C1382.225,24.402 1379.814,9.974 1353.954,10.9 ZM1291.666,54.32 L1290.788,40.235 C1290.650,38.63 1288.257,6.534 1287.807,3.485 L1300.581,2.672 C1300.472,4.987 1301.325,24.429 1302.301,39.759 L1303.180,53.555 C1303.993,66.330 1305.832,89.172 1306.147,92.102 L1293.755,92.891 C1293.653,87.254 1291.878,57.353 1291.666,54.32 ZM1259.363,97.361 C1255.951,93.646 1225.333,64.194 1221.727,61.18 C1220.432,63.108 1195.574,102.972 1194.197,105.458 L1184.927,98.64 C1187.625,94.774 1211.112,59.587 1214.486,54.411 C1208.699,49.176 1186.60,28.177 1180.273,22.942 L1188.526,13.311 C1192.381,17.489 1210.556,35.673 1221.179,45.741 C1224.919,40.392 1244.330,10.981 1247.339,5.978 L1257.20,13.580 C1253.77,18.310 1230.854,47.929 1228.435,52.475 C1232.753,56.210 1262.211,82.449 1267.474,87.618 L1259.363,97.361 ZM1118.534,78.902 L1115.373,62.44 C1114.996,60.31 1109.59,29.758 1108.485,27.392 C1111.505,26.825 1143.987,18.781 1147.918,17.523 L1150.285,27.368 C1146.259,28.123 1123.732,32.998 1121.719,33.375 L1127.711,65.331 C1129.975,64.906 1145.961,61.258 1151.984,59.347 L1154.225,69.215 C1151.457,69.734 1131.737,72.911 1129.220,73.382 L1134.976,104.80 C1137.996,103.514 1154.925,100.730 1165.100,98.41 L1167.632,108.766 C1165.619,109.143 1127.514,114.986 1124.998,115.458 C1124.125,108.719 1119.77,81.796 1118.534,78.902 ZM1049.403,66.146 C1046.857,74.278 1035.618,118.909 1032.760,128.322 L1032.513,128.390 C1021.694,117.25 998.154,91.234 990.133,81.358 C989.765,89.688 987.576,148.427 987.416,153.647 L976.245,152.600 C977.166,146.772 981.721,59.908 981.525,56.776 L981.772,56.708 C987.733,63.434 1023.477,102.731 1028.874,107.886 C1031.296,99.788 1044.600,47.687 1045.894,43.217 L1046.141,43.149 C1053.240,52.84 1091.838,106.128 1100.704,117.630 L1091.343,125.112 C1085.716,116.702 1052.631,70.170 1049.403,66.146 ZM788.737,220.707 C796.676,204.896 809.192,180.819 813.865,170.666 L813.591,170.88 C804.701,168.74 778.183,162.951 761.937,159.469 L761.553,158.660 C774.658,147.764 799.677,128.237 814.230,116.512 L820.416,124.769 C808.265,133.795 794.539,144.278 782.333,153.188 L782.553,153.651 C798.634,156.785 814.661,159.805 828.233,162.430 L828.508,163.8 C823.62,174.519 813.324,194.301 806.303,207.268 L806.577,207.847 C820.912,204.18 849.81,195.606 856.458,193.238 L859.230,203.257 C841.962,207.770 805.404,217.613 789.121,221.516 L788.737,220.707 ZM747.823,244.976 C750.514,243.494 765.725,235.558 774.550,229.823 L780.308,239.220 C778.514,240.207 744.143,257.669 741.901,258.904 C738.965,252.775 725.753,228.778 724.333,226.199 L716.61,211.172 C715.73,209.378 699.970,182.477 698.685,180.408 C701.376,178.926 729.718,161.131 733.59,158.707 L738.385,167.318 C734.797,169.294 714.921,180.967 713.126,181.955 L728.808,210.438 C730.826,209.327 744.871,200.864 749.995,197.166 L755.209,205.839 C752.742,207.198 735.2,216.380 732.759,217.615 L747.823,244.976 ZM673.933,278.852 L668.791,270.745 C659.878,256.693 646.86,249.525 633.594,246.80 C626.185,243.958 617.508,242.944 610.94,244.160 L609.178,232.918 C618.359,232.97 629.264,233.517 634.62,234.870 C642.845,237.484 654.786,241.734 662.854,249.197 L663.71,249.60 C660.515,238.100 660.646,229.225 662.301,218.930 C663.698,210.617 668.812,198.127 674.143,191.714 L682.733,198.89 C677.118,204.530 672.597,214.370 670.999,225.236 C668.997,238.329 671.252,253.117 678.519,264.575 L684.964,274.736 C685.923,276.249 692.349,285.664 693.937,287.688 L683.127,294.544 C681.659,291.989 674.824,280.257 673.933,278.852 ZM608.500,348.693 C586.93,365.325 561.599,358.957 548.171,340.867 C531.234,318.49 533.638,287.570 558.409,269.183 C577.835,254.764 602.69,256.702 618.549,278.903 C630.451,294.937 637.690,327.26 608.500,348.693 ZM608.960,286.817 C595.304,268.419 576.80,267.863 562.615,277.857 C544.217,291.514 543.848,314.425 556.894,332.1 C568.262,347.316 587.642,352.379 603.779,340.400 C619.197,328.956 623.990,307.65 608.960,286.817 ZM564.124,319.620 C572.11,313.925 591.652,297.433 596.745,292.696 L603.7,299.844 C593.369,307.477 576.815,321.40 570.78,326.997 L564.124,319.620 ZM505.122,369.776 C510.793,370.438 549.906,375.578 557.165,376.893 L555.934,389.511 C551.23,388.356 509.144,381.212 504.377,380.612 C504.480,383.69 506.333,430.12 506.592,432.842 L494.768,431.939 C495.150,427.701 494.794,385.397 494.674,379.219 C486.945,378.143 456.417,373.503 448.688,372.427 L450.99,359.822 C455.636,361.110 480.890,365.932 495.335,368.286 C495.421,361.760 494.941,326.524 494.616,320.695 L506.897,321.539 C506.294,327.668 504.567,364.657 505.122,369.776 ZM480.558,454.732 L471.670,463.401 C467.921,459.191 447.100,437.660 444.776,435.278 L435.124,425.382 C433.605,423.824 411.255,401.460 408.927,399.440 L418.90,390.503 C419.515,392.331 432.825,406.527 443.549,417.522 L453.201,427.418 C462.138,436.581 478.411,452.714 480.558,454.732 ZM324.110,616.741 C324.55,599.48 324.353,571.914 323.940,560.744 L323.434,560.352 C314.592,562.569 288.616,569.969 272.548,574.197 L271.839,573.649 C278.614,558.9 292.123,529.290 299.815,512.256 L309.63,516.831 C302.296,530.371 294.780,545.922 287.912,559.384 L288.317,559.698 C304.82,555.235 319.745,550.693 333.42,546.908 L333.548,547.300 C333.885,560.30 334.128,582.78 333.717,596.819 L334.223,597.211 C345.285,587.323 366.623,567.99 372.136,561.655 L379.133,569.343 C365.762,581.167 337.585,606.455 324.818,617.290 L324.110,616.741 ZM301.160,673.437 C285.725,696.685 260.523,699.6 241.754,686.545 C218.79,670.827 209.999,641.340 227.62,615.639 C240.443,595.483 263.898,589.83 286.933,604.376 C303.569,615.421 321.267,643.150 301.160,673.437 ZM233.962,622.371 C221.289,641.460 228.715,663.138 246.951,675.245 C262.841,685.794 282.790,683.981 293.906,667.238 C304.526,651.241 301.607,629.22 280.598,615.75 C261.509,602.401 243.237,608.401 233.962,622.371 ZM244.967,766.385 C231.532,790.841 206.614,795.261 186.870,784.414 C161.965,770.732 151.448,742.26 166.301,714.990 C177.949,693.787 200.785,685.449 225.17,698.761 C242.517,708.375 262.470,734.526 244.967,766.385 ZM219.599,709.951 C199.519,698.919 181.813,706.425 173.740,721.121 C162.708,741.202 171.920,762.181 191.103,772.720 C207.819,781.903 227.545,778.428 237.221,760.815 C246.465,743.988 241.699,722.92 219.599,709.951 ZM213.101,827.409 C208.157,828.410 167.120,839.400 162.537,840.844 C163.657,843.34 184.935,884.917 186.352,887.381 L175.231,891.495 C173.809,887.485 155.826,849.192 153.139,843.629 C145.667,845.877 115.989,854.405 108.517,856.653 L104.538,844.610 C110.106,843.469 135.67,837.309 149.176,833.418 C146.530,827.452 131.385,795.634 128.657,790.473 L140.169,786.114 C142.179,791.934 156.50,826.267 158.691,830.687 C164.120,828.921 201.808,817.265 208.953,815.430 L213.101,827.409 ZM131.436,887.434 C150.225,894.191 174.22,916.897 161.719,951.101 C152.276,977.357 128.357,985.620 107.160,977.996 C80.423,968.379 65.545,941.672 75.985,912.647 C84.172,889.884 105.422,878.77 131.436,887.434 ZM84.291,917.539 C76.537,939.97 88.917,958.376 109.512,965.784 C127.457,972.238 146.396,965.720 153.197,946.812 C159.695,928.746 151.563,907.867 127.837,899.333 C106.278,891.578 89.966,901.761 84.291,917.539 ZM79.17,991.531 C95.906,996.254 105.247,1015.612 103.382,1040.345 L110.655,1042.378 C113.121,1043.68 126.558,1046.825 129.215,1047.302 L125.975,1058.890 C120.743,1057.161 91.137,1048.484 82.385,1046.37 L68.824,1042.245 C65.989,1041.453 41.600,1035.32 39.751,1034.515 C41.199,1029.337 44.464,1019.86 47.834,1011.787 C55.165,996.26 65.950,987.877 79.17,991.531 ZM51.976,1025.971 L94.752,1037.932 C95.767,1021.468 91.83,1007.798 77.523,1004.6 C73.825,1002.972 59.309,1001.172 51.976,1025.971 ZM121.425,1075.301 C118.748,1085.727 114.735,1105.156 110.385,1126.215 C107.144,1142.536 103.445,1159.809 100.588,1174.903 L100.186,1174.951 C90.601,1166.305 33.911,1119.958 19.708,1107.92 L19.760,1106.841 C38.201,1100.456 106.126,1081.28 121.75,1075.98 L121.425,1075.301 ZM39.362,1111.282 C47.927,1118.541 92.258,1154.492 94.30,1156.34 C94.906,1152.425 98.83,1138.312 101.9,1124.148 C104.86,1109.883 106.814,1095.416 107.240,1091.453 C104.699,1092.365 49.799,1108.210 39.362,1111.282 ZM23.799,1184.281 C18.353,1177.848 12.119,1165.879 10.664,1157.668 L21.78,1155.225 C22.371,1163.671 26.965,1173.477 34.230,1181.711 C42.935,1191.694 55.683,1199.520 69.124,1201.368 L81.43,1203.8 C82.818,1203.252 94.156,1204.424 96.727,1204.519 L94.983,1217.199 C92.84,1216.671 78.712,1214.315 77.64,1214.88 L67.554,1212.780 C51.70,1210.513 36.692,1216.417 25.996,1223.731 C19.592,1228.18 13.216,1233.989 9.357,1240.435 L0.182,1233.875 C5.483,1226.336 13.608,1218.926 17.738,1216.135 C25.405,1211.117 36.360,1204.743 47.268,1203.401 L47.303,1203.147 C37.284,1198.23 30.592,1192.192 23.799,1184.281 Z"/>
</svg>