<svg 
 xmlns="http://www.w3.org/2000/svg"
 xmlns:xlink="http://www.w3.org/1999/xlink"
 width="2516px" height="2514px">
<path fill-rule="evenodd"  fill="rgb(17, 7, 8)"
 d="M2498.795,1162.651 C2501.657,1162.188 2503.817,1161.503 2505.273,1160.593 C2506.729,1159.684 2507.738,1158.527 2508.301,1157.124 C2508.863,1155.720 2509.11,1153.564 2508.746,1150.655 L2506.939,1130.842 L2485.872,1150.584 L2460.288,1132.639 L2462.298,1154.676 C2462.662,1158.670 2463.583,1161.663 2465.59,1163.658 C2466.535,1165.651 2469.361,1166.990 2473.537,1167.674 L2473.300,1169.335 L2455.530,1168.453 L2451.435,1123.566 L2452.975,1123.425 L2481.372,1143.357 L2507.919,1118.413 L2509.459,1118.272 L2513.429,1161.791 L2498.943,1164.277 L2498.795,1162.651 ZM2480.178,1114.709 C2471.411,1115.933 2463.748,1114.183 2457.188,1109.458 C2450.628,1104.734 2446.799,1098.442 2445.702,1090.584 C2444.593,1082.640 2446.484,1075.572 2451.375,1069.379 C2456.266,1063.186 2463.194,1059.464 2472.160,1058.212 C2481.323,1056.933 2489.235,1059.10 2495.894,1064.443 C2501.672,1069.161 2505.88,1075.293 2506.142,1082.840 C2507.187,1090.330 2505.249,1097.217 2500.327,1103.500 C2495.405,1109.784 2488.689,1113.520 2480.178,1114.709 ZM2502.922,1082.465 C2502.201,1077.301 2499.708,1073.427 2495.442,1070.841 C2490.133,1067.619 2482.883,1066.651 2473.691,1067.934 C2464.271,1069.249 2457.304,1072.275 2452.788,1077.13 C2449.361,1080.643 2448.3,1084.998 2448.712,1090.77 C2449.468,1095.496 2452.206,1099.676 2456.927,1102.618 C2461.647,1105.560 2468.561,1106.395 2477.668,1105.124 C2487.541,1103.746 2494.632,1100.774 2498.941,1096.210 C2502.363,1092.550 2503.690,1087.969 2502.922,1082.465 ZM2497.373,1045.65 C2496.953,1042.724 2495.956,1041.142 2494.383,1040.319 C2493.354,1039.776 2491.120,1039.813 2487.680,1040.430 L2450.631,1047.76 C2447.726,1047.597 2445.842,1048.124 2444.977,1048.658 C2444.323,1049.66 2443.823,1049.766 2443.478,1050.760 C2443.18,1052.94 2442.910,1053.438 2443.153,1054.791 L2443.524,1056.863 L2441.960,1057.144 L2437.552,1032.572 L2439.117,1032.291 L2439.481,1034.321 C2439.905,1036.689 2440.905,1038.285 2442.479,1039.109 C2443.502,1039.624 2445.734,1039.573 2449.174,1038.956 L2486.223,1032.310 C2489.127,1031.789 2491.12,1031.261 2491.877,1030.728 C2492.530,1030.319 2493.33,1029.632 2493.384,1028.668 C2493.838,1027.305 2493.944,1025.948 2493.701,1024.595 L2493.337,1022.564 L2494.902,1022.284 L2499.310,1046.856 L2497.745,1047.137 L2497.373,1045.65 ZM2470.314,1018.456 C2464.524,1019.734 2459.260,1019.245 2454.524,1016.990 C2449.787,1014.735 2446.44,1011.94 2443.292,1006.69 L2440.388,1006.270 L2442.962,1017.935 C2443.548,1020.592 2444.439,1022.236 2445.634,1022.867 C2446.830,1023.498 2448.202,1023.672 2449.754,1023.388 L2450.96,1024.941 L2436.963,1027.838 L2431.779,1004.341 L2444.691,1002.636 C2448.549,1009.354 2456.17,1011.490 2467.94,1009.46 C2474.339,1007.448 2479.502,1004.453 2482.581,1000.63 C2485.661,995.672 2486.676,991.100 2485.627,986.344 C2484.510,981.281 2481.536,977.545 2476.707,975.134 C2471.878,972.723 2466.274,972.221 2459.896,973.629 C2455.281,974.647 2451.241,976.315 2447.778,978.634 C2444.314,980.953 2442.276,984.380 2441.664,988.916 L2429.168,992.509 L2423.984,969.11 L2437.117,966.114 L2437.460,967.666 C2435.498,968.216 2434.243,969.109 2433.695,970.345 C2433.145,971.580 2433.127,973.359 2433.640,975.681 L2436.167,987.136 L2438.960,986.432 C2438.874,981.787 2440.454,977.184 2443.702,972.625 C2446.949,968.65 2451.664,965.104 2457.847,963.740 C2464.700,962.228 2471.109,963.491 2477.75,967.528 C2483.40,971.565 2486.931,977.696 2488.745,985.921 C2490.504,993.893 2489.655,1000.915 2486.199,1006.987 C2482.742,1013.59 2477.448,1016.882 2470.314,1018.456 ZM2475.626,947.416 C2474.351,947.161 2471.905,947.539 2468.291,948.546 C2462.993,950.23 2458.746,950.605 2455.551,950.291 C2452.356,949.977 2449.392,948.387 2446.661,945.521 C2443.928,942.654 2441.674,938.302 2439.898,932.463 L2426.777,936.120 C2423.549,937.20 2421.510,937.789 2420.662,938.427 C2419.814,939.65 2419.268,940.65 2419.23,941.427 C2418.778,942.789 2419.5,944.725 2419.706,947.236 L2418.174,947.663 L2411.228,922.746 L2412.759,922.319 C2413.471,924.767 2414.250,926.520 2415.95,927.578 C2415.940,928.636 2416.908,929.229 2418.0,929.356 C2419.90,929.482 2421.278,929.89 2424.562,928.173 L2437.683,924.516 C2436.166,918.544 2435.834,913.671 2436.685,909.895 C2437.535,906.119 2439.225,903.246 2441.754,901.278 C2444.283,899.308 2448.265,897.567 2453.702,896.51 C2457.178,895.82 2459.416,894.175 2460.415,893.332 C2461.414,892.489 2461.766,891.216 2461.470,889.514 L2463.43,889.76 C2463.764,891.878 2463.950,894.250 2463.599,896.192 C2463.248,898.133 2462.168,899.914 2460.360,901.533 C2458.551,903.153 2455.955,904.508 2452.572,905.600 C2448.404,906.970 2445.496,908.219 2443.848,909.348 C2442.200,910.476 2441.11,912.213 2440.282,914.557 C2439.552,916.902 2439.707,919.937 2440.746,923.662 L2458.792,918.631 C2462.20,917.731 2464.59,916.962 2464.907,916.324 C2465.755,915.686 2466.289,914.697 2466.510,913.357 C2466.731,912.16 2466.502,910.73 2465.822,907.527 L2467.353,907.100 L2474.300,932.17 L2472.768,932.444 C2472.33,929.913 2471.231,928.129 2470.362,927.93 C2469.493,926.56 2468.524,925.486 2467.454,925.383 C2466.384,925.280 2464.236,925.678 2461.7,926.578 L2442.961,931.609 C2444.7,935.361 2445.436,938.34 2447.248,939.625 C2449.59,941.217 2450.966,942.83 2452.968,942.224 C2454.970,942.364 2458.122,941.939 2462.426,940.947 C2467.198,939.825 2471.3,939.902 2473.842,941.177 C2476.680,942.453 2478.712,945.284 2479.935,949.672 L2478.362,950.110 C2477.813,948.568 2476.901,947.670 2475.626,947.416 ZM2458.593,882.635 C2457.804,880.300 2456.539,878.884 2454.798,878.383 C2453.728,878.80 2451.646,878.450 2448.552,879.496 L2402.23,895.216 L2401.528,893.751 L2433.685,842.339 L2399.694,853.823 C2396.301,854.969 2394.308,856.51 2393.715,857.68 C2392.923,858.484 2392.890,860.264 2393.614,862.408 L2394.274,864.362 L2392.768,864.871 L2386.276,845.657 L2387.782,845.148 L2388.429,847.61 C2389.227,849.422 2390.496,850.853 2392.238,851.353 C2393.307,851.656 2395.390,851.286 2398.483,850.241 L2436.871,837.271 C2438.203,835.37 2439.27,833.405 2439.345,832.376 C2439.662,831.346 2439.808,829.944 2439.783,828.169 C2439.761,827.299 2439.480,826.64 2438.939,824.463 L2440.445,823.954 L2445.506,838.934 L2415.508,886.669 L2447.342,875.913 C2450.734,874.767 2452.722,873.672 2453.307,872.628 C2454.108,871.239 2454.141,869.458 2453.408,867.287 L2452.761,865.374 L2454.268,864.865 L2460.759,884.80 L2459.253,884.588 L2458.593,882.635 ZM2386.190,836.489 C2385.665,837.839 2385.855,839.768 2386.762,842.275 L2385.285,842.863 L2376.487,820.790 L2377.964,820.202 C2379.184,822.645 2380.260,824.104 2381.190,824.582 C2382.120,825.59 2383.91,825.97 2384.103,824.693 C2385.353,824.195 2387.145,822.771 2389.478,820.423 L2415.722,794.5 L2379.297,793.721 C2375.919,793.679 2373.552,793.929 2372.195,794.470 C2371.77,794.915 2370.341,795.640 2369.986,796.645 C2369.631,797.650 2369.824,799.315 2370.566,801.641 L2369.90,802.230 L2362.440,785.545 L2363.916,784.957 C2365.52,786.878 2366.343,788.183 2367.790,788.871 C2369.235,789.559 2371.634,789.929 2374.985,789.981 L2428.572,790.502 L2429.161,791.979 L2390.877,830.551 C2388.278,833.159 2386.716,835.138 2386.190,836.489 ZM2398.921,764.223 C2394.591,766.191 2390.422,766.363 2386.412,764.739 C2382.401,763.117 2379.212,759.697 2376.841,754.481 C2376.260,753.203 2375.724,751.780 2375.231,750.210 C2374.737,748.641 2374.288,746.925 2373.883,745.64 L2358.431,752.86 C2355.93,753.604 2353.186,754.911 2352.709,756.8 C2352.12,757.521 2352.120,759.281 2353.33,761.289 L2353.957,763.323 L2352.509,763.981 L2342.181,741.253 L2343.628,740.595 L2344.535,742.591 C2345.554,744.833 2347.13,746.105 2348.912,746.407 C2349.957,746.561 2351.993,745.951 2355.18,744.576 L2389.286,729.2 C2392.624,727.486 2394.537,726.191 2395.26,725.120 C2395.711,723.581 2395.597,721.807 2394.685,719.800 L2393.778,717.805 L2395.226,717.147 L2404.61,736.589 C2406.218,741.335 2407.430,745.300 2407.697,748.483 C2407.963,751.665 2407.362,754.723 2405.895,757.655 C2404.426,760.588 2402.102,762.777 2398.921,764.223 ZM2401.248,738.811 C2400.644,737.481 2399.619,735.885 2398.176,734.24 L2376.113,744.51 C2376.480,745.552 2376.842,746.866 2377.197,747.995 C2377.552,749.123 2377.902,750.65 2378.246,750.822 C2379.479,753.534 2381.592,755.397 2384.586,756.413 C2387.580,757.428 2390.746,757.177 2394.85,755.660 C2396.379,754.617 2398.298,753.178 2399.841,751.345 C2401.383,749.511 2402.252,747.511 2402.448,745.346 C2402.644,743.180 2402.244,741.2 2401.248,738.811 ZM2310.962,594.842 C2313.275,593.91 2314.861,591.474 2315.721,589.988 C2316.581,588.503 2316.931,587.8 2316.770,585.505 C2316.610,584.1 2315.731,582.27 2314.133,579.581 L2303.253,562.924 L2293.891,590.236 L2262.882,586.369 L2274.983,604.896 C2277.176,608.253 2279.392,610.467 2281.630,611.537 C2283.869,612.607 2286.992,612.465 2291.2,611.113 L2291.571,612.691 L2275.458,620.239 L2250.809,582.501 L2252.104,581.656 L2286.530,585.960 L2298.296,551.484 L2299.591,550.638 L2323.488,587.224 L2311.855,596.208 L2310.962,594.842 ZM2272.74,561.245 C2264.903,566.433 2257.312,568.477 2249.303,567.377 C2241.295,566.277 2234.965,562.512 2230.314,556.83 C2225.612,549.585 2223.971,542.454 2225.391,534.692 C2226.811,526.929 2231.188,520.395 2238.522,515.89 C2246.18,509.665 2253.981,507.794 2262.409,509.474 C2269.724,510.935 2275.615,514.752 2280.82,520.926 C2284.514,527.53 2286.28,534.46 2284.624,541.903 C2283.220,549.760 2279.37,556.208 2272.74,561.245 ZM2277.62,522.103 C2274.6,517.879 2269.988,515.624 2265.8,515.338 C2258.808,514.979 2251.948,517.520 2244.429,522.960 C2236.723,528.535 2231.986,534.473 2230.216,540.774 C2228.889,545.587 2229.729,550.71 2232.735,554.225 C2235.942,558.658 2240.320,561.69 2245.868,561.456 C2251.417,561.844 2257.916,559.343 2265.366,553.953 C2273.443,548.110 2278.315,542.162 2279.984,536.112 C2281.293,531.275 2280.319,526.605 2277.62,522.103 ZM2254.632,491.650 C2253.165,489.778 2251.543,488.848 2249.768,488.857 C2248.604,488.859 2246.647,489.938 2243.897,492.94 L2214.274,515.317 C2211.952,517.137 2210.534,518.485 2210.20,519.362 C2209.633,520.29 2209.519,520.882 2209.679,521.922 C2209.898,523.315 2210.432,524.553 2211.280,525.635 L2212.579,527.292 L2211.328,528.273 L2195.926,508.626 L2197.177,507.645 L2198.449,509.268 C2199.934,511.162 2201.564,512.104 2203.340,512.95 C2204.486,512.70 2206.434,510.980 2209.184,508.824 L2238.807,485.601 C2241.129,483.781 2242.547,482.432 2243.62,481.556 C2243.448,480.889 2243.571,480.47 2243.429,479.30 C2243.192,477.614 2242.650,476.365 2241.802,475.283 L2240.529,473.659 L2241.780,472.679 L2257.183,492.326 L2255.931,493.307 L2254.632,491.650 ZM2224.370,471.309 C2226.329,468.875 2227.511,467.11 2227.918,465.714 C2228.325,464.418 2228.297,463.27 2227.836,461.544 C2227.427,460.390 2226.292,458.707 2224.429,456.493 L2214.141,444.260 L2196.515,459.84 L2204.757,468.884 C2206.896,471.427 2208.708,472.803 2210.195,473.13 C2212.162,473.304 2214.472,472.447 2217.126,470.439 L2218.150,471.656 L2202.628,484.711 L2201.605,483.494 C2203.517,481.361 2204.651,479.884 2205.7,479.61 C2205.442,478.21 2205.501,476.867 2205.184,475.599 C2204.866,474.332 2203.924,472.766 2202.356,470.903 L2194.114,461.103 L2179.415,473.467 C2177.442,475.126 2176.315,476.223 2176.36,476.758 C2175.756,477.293 2175.674,477.886 2175.791,478.536 C2175.907,479.187 2176.482,480.125 2177.515,481.354 L2183.876,488.917 C2185.996,491.438 2187.711,493.121 2189.21,493.966 C2190.330,494.811 2191.943,495.326 2193.859,495.512 C2196.361,495.728 2199.581,495.396 2203.520,494.516 L2204.627,495.831 L2190.210,501.388 L2161.308,467.24 L2162.524,466.1 L2163.852,467.579 C2164.737,468.631 2165.828,469.417 2167.125,469.935 C2168.65,470.342 2168.993,470.376 2169.907,470.38 C2170.820,469.700 2172.362,468.619 2174.532,466.793 L2203.503,442.427 C2206.331,440.48 2207.834,438.297 2208.13,437.174 C2208.225,435.647 2207.558,433.963 2206.9,432.122 L2204.681,430.543 L2205.898,429.520 L2234.801,463.883 L2225.449,472.591 L2224.370,471.309 ZM2194.721,421.930 C2193.283,421.896 2191.157,423.185 2188.343,425.796 L2161.189,450.986 C2158.375,453.597 2156.931,455.620 2156.857,457.57 C2156.782,458.493 2157.930,460.574 2160.301,463.297 L2159.136,464.379 L2142.99,446.13 L2143.264,444.932 C2145.783,447.479 2147.757,448.774 2149.185,448.818 C2150.611,448.862 2152.743,447.568 2155.578,444.938 L2188.182,414.692 L2169.800,394.878 L2137.197,425.124 C2134.382,427.735 2132.934,429.753 2132.850,431.179 C2132.766,432.604 2133.918,434.690 2136.309,437.435 L2135.144,438.516 L2118.77,420.120 L2119.243,419.38 C2121.781,421.607 2123.770,422.907 2125.208,422.941 C2126.645,422.975 2128.771,421.687 2131.586,419.76 L2158.740,393.885 C2161.554,391.275 2162.998,389.251 2163.72,387.815 C2163.146,386.378 2161.998,384.298 2159.627,381.574 L2160.793,380.493 L2201.851,424.752 L2200.686,425.833 C2198.147,423.265 2196.159,421.964 2194.721,421.930 ZM2144.205,386.833 C2140.873,390.226 2137.45,391.887 2132.719,391.814 C2128.394,391.743 2124.187,389.699 2120.100,385.685 C2119.98,384.701 2118.85,383.566 2117.61,382.279 C2116.36,380.992 2115.0,379.553 2113.953,377.962 L2102.61,390.72 C2099.491,392.689 2098.182,394.595 2098.132,395.790 C2098.25,397.452 2098.759,399.55 2100.333,400.601 L2101.927,402.167 L2100.813,403.301 L2083.1,385.809 L2084.115,384.675 L2085.679,386.210 C2087.436,387.936 2089.255,388.599 2091.135,388.197 C2092.166,387.964 2093.846,386.663 2096.174,384.292 L2122.547,357.435 C2125.116,354.819 2126.436,352.924 2126.507,351.748 C2126.593,350.66 2125.849,348.452 2124.275,346.907 L2122.711,345.371 L2123.825,344.237 L2139.62,359.200 C2142.782,362.852 2145.339,366.116 2146.732,368.990 C2148.126,371.864 2148.665,374.933 2148.350,378.197 C2148.35,381.461 2146.654,384.340 2144.205,386.833 ZM2140.707,367.951 C2140.110,365.860 2138.954,363.971 2137.237,362.285 C2136.195,361.261 2134.665,360.141 2132.649,358.924 L2115.669,376.215 C2116.551,377.483 2117.361,378.579 2118.99,379.505 C2118.836,380.430 2119.501,381.183 2120.94,381.765 C2122.220,383.853 2124.862,384.831 2128.21,384.702 C2131.180,384.572 2134.44,383.199 2136.613,380.582 C2138.379,378.784 2139.652,376.752 2140.432,374.486 C2141.211,372.220 2141.303,370.42 2140.707,367.951 ZM2078.167,371.394 C2070.111,371.894 2063.189,369.556 2057.403,364.381 C2050.976,358.633 2047.856,351.788 2048.42,343.845 C2048.228,335.903 2051.109,328.814 2056.686,322.579 C2062.720,315.832 2069.751,312.321 2077.780,312.46 C2085.809,311.771 2092.727,314.230 2098.535,319.425 C2103.851,324.180 2106.817,330.532 2107.433,338.480 C2108.48,346.429 2105.329,353.788 2099.275,360.556 C2093.260,367.282 2086.223,370.895 2078.167,371.394 ZM2095.835,321.218 C2091.692,317.513 2086.834,316.252 2081.261,317.436 C2075.686,318.618 2069.978,322.477 2064.134,329.11 C2058.673,335.117 2055.392,341.148 2054.294,347.102 C2053.196,353.57 2054.889,358.40 2059.373,362.50 C2063.728,365.946 2068.679,367.328 2074.226,366.197 C2079.771,365.67 2085.429,361.277 2091.196,354.829 C2097.40,348.295 2100.448,342.110 2101.421,336.274 C2102.394,330.438 2100.532,325.419 2095.835,321.218 ZM2077.407,355.293 C2079.30,353.479 2079.821,351.842 2079.780,350.383 C2079.739,348.925 2078.727,347.308 2076.741,345.532 L2074.82,343.154 C2072.182,341.454 2070.499,340.661 2069.35,340.773 C2067.570,340.885 2066.26,341.849 2064.404,343.663 L2063.186,342.575 L2077.22,327.105 L2078.239,328.194 C2076.597,330.31 2075.795,331.677 2075.837,333.136 C2075.877,334.594 2076.901,336.221 2078.908,338.16 L2081.503,340.336 C2083.403,342.36 2085.86,342.840 2086.552,342.748 C2088.17,342.656 2089.581,341.682 2091.242,339.824 L2092.459,340.912 L2078.624,356.382 L2077.407,355.293 ZM2061.788,292.6 C2060.786,291.606 2059.422,291.290 2057.697,291.61 C2055.970,290.831 2053.630,290.815 2050.677,291.14 C2049.827,291.66 2045.721,291.533 2038.360,292.415 L2025.882,293.742 L2029.249,323.847 C2029.788,328.801 2030.629,332.555 2031.773,335.110 C2032.917,337.665 2034.406,339.790 2036.241,341.485 L2035.245,342.724 L2013.643,325.361 L2014.639,324.122 C2015.934,325.163 2017.41,325.695 2017.961,325.717 C2018.880,325.739 2019.555,325.482 2019.986,324.947 C2020.416,324.411 2020.696,323.845 2020.825,323.251 C2020.953,322.656 2020.893,321.303 2020.643,319.190 L2017.433,291.86 L2005.669,305.721 C2003.821,308.21 2002.745,309.656 2002.443,310.626 C2002.217,311.364 2002.301,312.220 2002.693,313.197 C2003.222,314.504 2004.22,315.589 2005.94,316.450 L2006.635,317.689 L2005.639,318.928 L1986.281,303.369 L1987.277,302.129 L1988.884,303.421 C1990.760,304.929 1992.561,305.477 1994.289,305.65 C1995.399,304.781 1997.49,303.277 1999.239,300.553 L2022.820,271.215 C2024.668,268.915 2025.752,267.269 2026.72,266.276 C2026.280,265.561 2026.199,264.724 2025.830,263.766 C2025.278,262.440 2024.467,261.347 2023.395,260.486 L2021.787,259.193 L2022.783,257.954 L2042.141,273.514 L2041.145,274.753 L2039.605,273.514 C2038.555,272.671 2037.333,272.111 2035.938,271.835 C2034.958,271.636 2034.48,271.786 2033.206,272.285 C2032.363,272.785 2031.45,274.151 2029.250,276.383 L2018.79,290.282 C2018.866,290.217 2021.535,290.28 2026.86,289.716 C2037.598,288.973 2044.863,288.142 2047.881,287.223 C2049.201,286.815 2050.131,286.275 2050.669,285.605 C2051.82,285.92 2051.211,284.452 2051.56,283.684 C2050.901,282.917 2050.266,282.84 2049.150,281.186 L2048.111,280.352 L2049.107,279.113 L2065.786,292.519 L2064.790,293.758 C2063.789,292.990 2062.789,292.407 2061.788,292.6 ZM2005.363,263.408 C2006.904,260.951 2007.813,258.875 2008.90,257.181 C2008.367,255.487 2008.164,253.965 2007.480,252.617 C2006.796,251.269 2005.273,249.735 2002.912,248.15 L1986.829,236.304 L1987.769,265.160 L1957.405,272.550 L1975.294,285.576 C1978.536,287.937 1981.393,289.220 1983.865,289.426 C1986.338,289.631 1989.208,288.391 1992.476,285.703 L1993.569,286.977 L1981.183,299.751 L1944.746,273.218 L1945.657,271.968 L1979.370,263.774 L1978.134,227.368 L1979.45,226.117 L2014.371,251.841 L2006.683,264.369 L2005.363,263.408 ZM1937.676,2319.122 L1936.410,2319.932 L1893.200,2290.42 C1889.724,2287.640 1887.113,2286.310 1885.366,2286.51 C1883.618,2285.792 1881.705,2286.243 1879.625,2287.404 L1878.768,2286.65 L1898.130,2273.673 L1898.987,2275.12 C1897.94,2276.359 1895.982,2277.530 1895.650,2278.526 C1895.317,2279.520 1895.406,2280.416 1895.915,2281.213 C1896.595,2282.274 1898.151,2283.642 1900.583,2285.317 L1908.67,2290.474 L1927.67,2278.314 L1925.440,2268.438 C1925.40,2266.7 1924.540,2264.321 1923.937,2263.380 C1923.458,2262.632 1922.682,2262.202 1921.607,2262.91 C1920.533,2261.979 1918.759,2262.595 1916.287,2263.940 L1915.429,2262.601 L1930.883,2252.711 L1931.740,2254.50 C1929.921,2255.724 1928.895,2257.44 1928.662,2258.9 C1928.173,2259.955 1928.316,2263.179 1929.90,2267.684 L1937.676,2319.122 ZM1927.659,2281.710 L1910.794,2292.504 L1931.812,2307.9 L1927.659,2281.710 ZM1872.174,2293.674 C1871.811,2295.66 1872.577,2297.431 1874.472,2300.769 L1892.759,2332.979 C1894.654,2336.317 1896.293,2338.187 1897.674,2338.589 C1899.55,2338.991 1901.343,2338.350 1904.538,2336.668 L1905.323,2338.51 L1852.823,2367.857 L1852.38,2366.475 C1855.120,2364.593 1856.843,2362.956 1857.206,2361.565 C1857.569,2360.173 1856.802,2357.808 1854.907,2354.470 L1836.620,2322.260 C1834.725,2318.921 1833.87,2317.52 1831.706,2316.650 C1830.325,2316.248 1828.36,2316.888 1824.841,2318.571 L1824.56,2317.188 L1845.841,2304.820 L1846.626,2306.203 C1843.569,2308.70 1841.855,2309.693 1841.485,2311.73 C1841.115,2312.452 1841.885,2314.824 1843.794,2318.187 L1865.752,2356.861 L1889.255,2343.517 L1867.298,2304.843 C1865.403,2301.504 1863.771,2299.631 1862.402,2299.222 C1861.34,2298.813 1858.739,2299.457 1855.519,2301.154 L1854.734,2299.771 L1876.556,2287.382 L1877.341,2288.764 C1874.259,2290.646 1872.537,2292.283 1872.174,2293.674 ZM1845.478,161.283 C1846.627,158.621 1847.210,156.431 1847.226,154.715 C1847.242,152.998 1846.810,151.525 1845.929,150.297 C1845.48,149.68 1843.310,147.783 1840.714,146.443 L1823.38,137.313 L1828.355,165.691 L1799.468,177.612 L1819.130,187.767 C1822.693,189.607 1825.712,190.441 1828.187,190.268 C1830.662,190.96 1833.310,188.433 1836.132,185.280 L1837.405,186.372 L1827.107,200.882 L1787.58,180.198 L1787.768,178.824 L1819.842,165.599 L1813.85,129.804 L1813.795,128.429 L1852.622,148.482 L1846.929,162.33 L1845.478,161.283 ZM1778.294,167.784 C1770.784,170.776 1763.421,170.623 1756.204,167.325 C1748.909,163.991 1743.965,158.597 1741.372,151.144 C1738.778,143.691 1739.363,135.848 1743.126,127.615 C1746.973,119.200 1752.976,113.644 1761.137,110.949 C1768.221,108.612 1775.228,109.28 1782.159,112.195 C1789.37,115.339 1793.802,120.675 1796.456,128.203 C1799.110,135.731 1798.651,143.403 1795.78,151.219 C1791.398,159.269 1785.804,164.791 1778.294,167.784 ZM1789.563,125.454 C1788.316,120.601 1785.166,117.19 1780.112,114.709 C1775.370,112.541 1770.763,112.561 1766.290,114.769 C1760.719,117.514 1756.5,123.108 1752.147,131.549 C1748.193,140.199 1747.0,147.701 1748.569,154.55 C1749.789,158.897 1752.730,162.383 1757.395,164.515 C1762.371,166.789 1767.368,166.727 1772.386,164.327 C1777.404,161.928 1781.824,156.547 1785.646,148.184 C1789.791,139.117 1791.96,131.540 1789.563,125.454 ZM1745.576,99.282 C1743.376,98.379 1741.507,98.370 1739.967,99.254 C1738.956,99.830 1737.786,101.734 1736.458,104.967 L1722.155,139.784 C1721.34,142.513 1720.466,144.385 1720.451,145.401 C1720.443,146.173 1720.766,146.971 1721.418,147.796 C1722.296,148.900 1723.371,149.713 1724.643,150.236 L1726.591,151.36 L1725.987,152.507 L1702.895,143.20 L1703.499,141.549 L1705.406,142.333 C1707.632,143.247 1709.515,143.262 1711.55,142.378 C1712.40,141.791 1713.196,139.882 1714.524,136.649 L1728.827,101.832 C1729.948,99.103 1730.516,97.230 1730.531,96.214 C1730.538,95.443 1730.229,94.650 1729.604,93.835 C1728.699,92.720 1727.611,91.902 1726.339,91.379 L1724.431,90.596 L1725.36,89.125 L1748.128,98.612 L1747.523,100.82 L1745.576,99.282 ZM1717.339,87.507 C1715.25,86.661 1713.128,86.760 1711.648,87.804 C1710.741,88.449 1709.727,90.304 1708.604,93.370 L1691.726,139.492 L1690.273,138.961 L1670.324,81.695 L1657.994,115.389 C1656.763,118.752 1656.358,120.983 1656.780,122.82 C1657.388,123.586 1658.755,124.727 1660.880,125.505 L1662.817,126.214 L1662.271,127.707 L1643.225,120.736 L1643.771,119.244 L1645.668,119.938 C1648.8,120.794 1649.918,120.700 1651.399,119.656 C1652.305,119.11 1653.320,117.156 1654.443,114.89 L1668.368,76.38 C1667.460,73.600 1666.704,71.936 1666.100,71.44 C1665.496,70.152 1664.494,69.160 1663.94,68.68 C1662.402,67.540 1661.263,66.986 1659.676,66.405 L1660.223,64.912 L1675.72,70.346 L1693.505,123.626 L1705.53,92.71 C1706.284,88.709 1706.675,86.472 1706.227,85.363 C1705.645,83.868 1704.278,82.728 1702.126,81.940 L1700.229,81.246 L1700.776,79.753 L1719.822,86.723 L1719.276,88.216 L1717.339,87.507 ZM1631.828,54.798 L1633.224,55.230 L1639.150,119.457 L1589.240,103.998 L1631.828,54.798 ZM1626.460,66.900 L1595.820,102.213 L1630.421,112.930 L1626.460,66.900 ZM1590.781,57.317 C1590.969,54.199 1590.853,51.994 1590.435,50.701 C1590.15,49.409 1589.188,48.291 1587.953,47.349 C1586.952,46.645 1585.51,45.929 1582.251,45.202 L1566.780,41.185 L1560.992,63.478 L1573.386,66.695 C1576.602,67.530 1578.877,67.604 1580.210,66.913 C1581.982,66.13 1583.370,63.976 1584.372,60.802 L1585.910,61.202 L1580.814,80.832 L1579.275,80.433 C1579.599,77.587 1579.668,75.726 1579.482,74.848 C1579.235,73.749 1578.614,72.774 1577.622,71.924 C1576.628,71.74 1574.954,70.343 1572.597,69.731 L1560.204,66.514 L1555.377,85.104 C1554.729,87.600 1554.446,89.146 1554.527,89.745 C1554.609,90.343 1554.885,90.874 1555.357,91.336 C1555.829,91.799 1556.841,92.232 1558.394,92.635 L1567.959,95.119 C1571.148,95.947 1573.520,96.326 1575.78,96.257 C1576.634,96.188 1578.248,95.674 1579.917,94.716 C1582.82,93.444 1584.516,91.309 1587.218,88.310 L1588.882,88.742 L1580.344,101.619 L1536.883,90.336 L1537.282,88.797 L1539.279,89.315 C1540.610,89.661 1541.954,89.670 1543.312,89.341 C1544.314,89.128 1545.90,88.619 1545.639,87.815 C1546.188,87.10 1546.820,85.235 1547.532,82.491 L1557.45,45.850 C1557.974,42.273 1558.185,39.975 1557.680,38.956 C1556.970,37.588 1555.451,36.602 1553.122,35.997 L1551.125,35.479 L1551.525,33.940 L1594.986,45.224 L1592.403,57.738 L1590.781,57.317 ZM1540.538,45.418 C1540.999,42.705 1540.885,40.425 1540.195,38.579 C1539.505,36.734 1538.457,35.434 1537.51,34.679 C1535.644,33.926 1533.526,33.247 1530.697,32.643 L1514.728,29.237 L1505.451,72.732 C1504.651,76.486 1504.626,78.970 1505.378,80.185 C1506.129,81.400 1508.243,82.437 1511.722,83.295 L1511.390,84.850 L1486.933,79.634 L1487.264,78.79 C1490.818,78.720 1493.192,78.640 1494.388,77.841 C1495.584,77.42 1496.582,74.765 1497.383,71.11 L1505.109,34.786 C1505.910,31.33 1505.927,28.546 1505.162,27.329 C1504.396,26.111 1502.261,25.70 1498.755,24.205 L1499.86,22.650 L1544.808,32.402 L1542.177,45.768 L1540.538,45.418 ZM1485.870,23.541 C1484.713,24.397 1483.826,26.719 1483.206,30.507 L1477.223,67.60 C1476.603,70.848 1476.704,73.332 1477.527,74.511 C1478.350,75.691 1480.533,76.629 1484.77,77.325 L1483.820,78.894 L1459.98,74.848 L1459.355,73.279 C1462.907,73.744 1465.259,73.556 1466.414,72.714 C1467.567,71.873 1468.457,69.544 1469.81,65.727 L1476.265,21.838 L1449.592,17.473 L1442.409,61.362 C1441.789,65.150 1441.883,67.632 1442.692,68.810 C1443.501,69.987 1445.691,70.927 1449.263,71.627 L1449.6,73.196 L1424.241,69.143 L1424.498,67.574 C1428.79,68.44 1430.447,67.851 1431.603,66.995 C1432.759,66.139 1433.647,63.818 1434.267,60.29 L1440.250,23.476 C1440.870,19.688 1440.768,17.204 1439.946,16.25 C1439.122,14.845 1436.939,13.907 1433.396,13.211 L1433.653,11.642 L1493.231,21.393 L1492.974,22.962 C1489.394,22.493 1487.25,22.685 1485.870,23.541 ZM1398.836,66.272 L1399.9,64.692 C1401.328,64.831 1402.929,64.618 1403.813,64.52 C1404.696,63.486 1405.189,62.733 1405.293,61.793 C1405.430,60.541 1405.77,58.499 1404.235,55.669 L1401.647,46.956 L1379.223,44.496 L1374.290,53.205 C1373.75,55.348 1372.407,56.975 1372.285,58.86 C1372.188,58.969 1372.523,59.791 1373.290,60.552 C1374.56,61.313 1375.824,61.947 1378.593,62.452 L1378.419,64.32 L1360.181,62.31 L1360.354,60.451 C1362.821,60.289 1364.449,59.906 1365.236,59.301 C1366.838,58.93 1368.751,55.493 1370.976,51.501 L1396.579,6.69 L1398.74,6.233 L1412.949,56.625 C1414.147,60.676 1415.345,63.350 1416.542,64.648 C1417.740,65.947 1419.512,66.797 1421.861,67.199 L1421.687,68.779 L1398.836,66.272 ZM1393.541,19.179 L1380.894,41.480 L1400.798,43.664 L1393.541,19.179 ZM1177.773,60.654 L1177.701,59.109 L1198.875,31.625 L1175.134,3.997 L1175.62,2.452 L1218.714,0.419 L1220.555,15.1 L1218.924,15.77 C1218.589,12.196 1217.999,10.9 1217.155,8.514 C1216.311,7.19 1215.201,5.959 1213.824,5.335 C1212.447,4.711 1210.300,4.467 1207.381,4.603 L1187.508,5.528 L1206.294,27.451 L1187.230,52.213 L1209.335,51.183 C1213.341,50.997 1216.373,50.210 1218.431,48.824 C1220.488,47.438 1221.951,44.674 1222.819,40.533 L1224.468,40.843 L1222.799,58.557 L1177.773,60.654 ZM1144.582,64.906 C1136.596,65.659 1129.620,63.454 1123.652,58.291 C1117.684,53.128 1114.275,46.40 1113.426,37.27 C1112.557,27.816 1114.986,20.5 1120.712,13.596 C1125.683,8.34 1131.962,4.896 1139.548,4.181 C1147.78,3.471 1153.871,5.716 1159.928,10.913 C1165.986,16.112 1169.418,22.988 1170.224,31.544 C1171.55,40.357 1168.964,47.934 1163.951,54.276 C1158.938,60.618 1152.481,64.162 1144.582,64.906 ZM1160.537,33.623 C1159.601,23.698 1156.950,16.481 1152.583,11.973 C1149.80,8.390 1144.562,6.859 1139.30,7.381 C1133.839,7.870 1129.857,10.187 1127.83,14.333 C1123.627,19.493 1122.335,26.693 1123.206,35.933 C1124.99,45.402 1126.810,52.497 1131.341,57.220 C1134.815,60.806 1139.105,62.358 1144.210,61.877 C1149.657,61.364 1153.956,58.815 1157.106,54.231 C1160.256,49.647 1161.400,42.777 1160.537,33.623 ZM1086.44,68.873 L1088.88,68.600 C1090.473,68.282 1092.112,67.356 1093.6,65.820 C1093.566,64.821 1093.615,62.590 1093.153,59.125 L1088.177,21.815 C1087.787,18.891 1087.344,16.984 1086.851,16.96 C1086.472,15.425 1085.808,14.891 1084.860,14.498 C1083.520,13.983 1082.168,13.816 1080.806,13.998 L1078.761,14.271 L1078.551,12.695 L1103.297,9.394 L1103.507,10.970 L1101.420,11.249 C1099.63,11.563 1097.438,12.488 1096.545,14.23 C1095.956,15.27 1095.893,17.260 1096.355,20.724 L1101.331,58.34 C1101.721,60.959 1102.163,62.865 1102.657,63.753 C1103.35,64.425 1103.713,64.956 1104.690,65.346 C1106.2,65.864 1107.340,66.33 1108.702,65.851 L1110.790,65.573 L1110.999,67.149 L1086.254,70.449 L1086.44,68.873 ZM1101.579,2446.455 C1110.128,2447.575 1116.566,2451.467 1120.893,2458.130 C1125.220,2464.793 1126.840,2472.272 1125.753,2480.565 C1124.577,2489.540 1120.752,2496.406 1114.278,2501.163 C1107.804,2505.919 1100.705,2507.791 1092.979,2506.778 C1085.906,2505.851 1079.874,2502.280 1074.882,2496.64 C1069.889,2489.848 1067.983,2482.238 1069.163,2473.235 C1070.336,2464.288 1074.107,2457.335 1080.478,2452.378 C1086.848,2447.420 1093.882,2445.446 1101.579,2446.455 ZM1081.90,2494.494 C1083.579,2499.862 1087.947,2502.955 1094.196,2503.774 C1099.707,2504.497 1104.429,2502.797 1108.363,2498.676 C1112.299,2494.555 1114.835,2488.148 1115.974,2479.457 C1117.39,2471.334 1116.346,2464.504 1113.893,2458.968 C1111.441,2453.431 1107.232,2450.273 1101.267,2449.491 C1095.473,2448.731 1090.605,2450.383 1086.664,2454.445 C1082.723,2458.508 1080.189,2464.828 1079.65,2473.406 C1077.926,2482.97 1078.601,2489.126 1081.90,2494.494 ZM1090.189,2465.243 C1089.872,2467.657 1090.143,2469.455 1090.999,2470.636 C1091.855,2471.817 1093.604,2472.581 1096.245,2472.928 L1099.781,2473.391 C1102.310,2473.723 1104.147,2473.428 1105.292,2472.510 C1106.439,2471.591 1107.170,2469.924 1107.486,2467.510 L1109.105,2467.723 L1106.408,2488.300 L1104.789,2488.88 C1105.109,2485.645 1104.842,2483.833 1103.985,2482.653 C1103.129,2481.471 1101.365,2480.706 1098.695,2480.356 L1095.244,2479.903 C1092.717,2479.572 1090.874,2479.857 1089.715,2480.761 C1088.557,2481.663 1087.815,2483.350 1087.492,2485.821 L1085.873,2485.609 L1088.570,2465.31 L1090.189,2465.243 ZM1069.919,20.953 C1068.599,19.490 1067.146,18.666 1065.562,18.481 C1063.976,18.296 1061.757,18.443 1058.904,18.921 L1042.800,21.620 L1050.151,65.481 C1050.785,69.267 1051.675,71.586 1052.820,72.440 C1053.965,73.294 1056.313,73.482 1059.864,73.2 L1060.126,74.570 L1035.462,78.704 L1035.200,77.136 C1038.741,76.426 1040.920,75.480 1041.738,74.297 C1042.557,73.114 1042.649,70.630 1042.14,66.844 L1035.893,30.315 C1035.258,26.529 1034.361,24.210 1033.202,23.359 C1032.42,22.508 1029.674,22.324 1026.95,22.807 L1025.832,21.239 L1071.939,13.513 L1074.403,26.911 L1072.750,27.188 C1072.182,24.494 1071.238,22.416 1069.919,20.953 ZM1032.616,77.457 L1032.954,79.10 L1009.735,84.58 L1009.397,82.505 C1012.7,81.703 1013.624,80.882 1014.248,80.43 C1014.872,79.204 1015.69,78.253 1014.837,77.189 C1014.551,75.873 1013.441,73.872 1011.509,71.184 L989.766,40.953 L983.496,76.835 C982.899,80.160 982.757,82.536 983.67,83.964 C983.322,85.139 983.917,85.985 984.850,86.500 C985.782,87.16 987.457,87.99 989.873,86.749 L990.210,88.303 L972.659,92.118 L972.322,90.565 C974.404,89.760 975.903,88.702 976.820,87.388 C977.736,86.75 978.496,83.770 979.98,80.473 L988.424,27.701 L989.978,27.364 L1021.729,71.469 C1023.874,74.462 1025.570,76.328 1026.816,77.69 C1028.61,77.810 1029.995,77.939 1032.616,77.457 ZM945.935,97.731 C947.530,97.265 948.672,96.773 949.363,96.257 C949.875,95.849 950.247,95.339 950.480,94.725 C950.713,94.112 950.758,93.543 950.614,93.18 C950.439,92.383 950.141,91.782 949.718,91.214 C949.396,90.797 948.303,89.790 946.439,88.192 L932.955,76.383 L925.321,94.693 C924.517,96.636 924.64,97.911 923.963,98.518 C923.862,99.125 923.891,99.718 924.50,100.298 C924.293,101.183 924.866,101.812 925.771,102.188 C926.676,102.564 928.190,102.505 930.312,102.13 L930.732,103.546 L910.800,109.9 L910.790,108.976 L884.563,117.693 L884.61,116.185 C885.637,115.661 886.684,115.18 887.202,114.258 C887.719,113.497 887.869,112.791 887.652,112.139 C887.435,111.486 887.111,110.945 886.682,110.514 C886.251,110.84 885.81,109.401 883.171,108.466 L857.813,95.930 L863.736,113.749 C864.666,116.549 865.457,118.338 866.109,119.118 C866.606,119.708 867.371,120.102 868.404,120.302 C869.790,120.566 871.135,120.481 872.440,120.47 L874.316,119.424 L874.817,120.933 L851.249,128.766 L850.748,127.258 L852.705,126.607 C854.988,125.848 856.425,124.631 857.15,122.956 C857.379,121.869 857.9,119.668 855.907,116.351 L844.34,80.632 C843.104,77.832 842.308,76.29 841.647,75.222 C841.159,74.660 840.411,74.274 839.407,74.65 C837.993,73.810 836.635,73.899 835.330,74.333 L833.373,74.984 L832.871,73.475 L856.439,65.641 L856.941,67.150 L855.65,67.773 C853.787,68.198 852.654,68.922 851.666,69.945 C850.968,70.660 850.601,71.506 850.564,72.484 C850.527,73.463 850.960,75.312 851.863,78.29 L857.488,94.951 C857.860,94.255 859.148,91.909 861.353,87.916 C866.969,77.839 870.208,71.283 871.71,68.249 C871.444,66.918 871.495,65.844 871.224,65.29 C871.16,64.404 870.547,63.948 869.818,63.662 C869.90,63.377 868.45,63.459 866.686,63.911 L865.422,64.331 L864.921,62.822 L885.227,56.73 L885.728,57.582 C884.541,58.7 883.508,58.531 882.629,59.155 C881.750,59.780 880.745,60.755 879.617,62.81 C878.487,63.407 877.206,65.365 875.773,67.954 C875.356,68.697 873.522,72.400 870.274,79.64 L864.625,90.270 L891.749,103.758 C896.204,105.991 899.815,107.319 902.582,107.742 C905.349,108.166 907.942,108.66 910.361,107.443 L910.413,107.598 L910.379,107.476 C911.751,106.952 912.886,106.329 913.788,105.606 C915.303,104.419 916.668,103.5 917.882,101.365 C919.96,99.726 920.354,97.376 921.653,94.317 L930.326,73.940 L914.820,60.770 C910.605,57.203 907.259,55.23 904.785,54.231 C902.311,53.439 899.695,53.376 896.937,54.43 L896.517,52.510 L922.500,45.388 L922.920,46.921 C920.732,47.610 919.318,48.384 918.678,49.242 C918.37,50.102 917.823,50.918 918.35,51.691 C918.315,52.713 919.387,54.23 921.250,55.621 L933.402,66.147 L939.925,50.770 C940.677,48.960 941.108,47.744 941.219,47.119 C941.330,46.494 941.306,45.892 941.147,45.312 C940.988,44.731 940.682,44.266 940.229,43.915 C939.656,43.448 939.19,43.185 938.320,43.124 C937.620,43.64 936.272,43.292 934.275,43.809 L933.855,42.276 L953.787,36.813 L954.208,38.346 C952.656,38.860 951.439,39.461 950.558,40.148 C949.241,41.193 948.108,42.424 947.160,43.842 C946.212,45.260 945.2,47.730 943.532,51.252 L936.292,68.563 L953.281,83.242 C957.986,87.299 961.328,89.762 963.303,90.631 C965.279,91.501 967.529,91.664 970.53,91.120 L970.474,92.654 L946.356,99.264 L945.935,97.731 ZM838.238,123.240 C839.750,121.273 840.262,118.189 839.772,113.986 L841.435,113.757 L845.466,131.87 L803.427,147.348 L802.869,145.905 L814.239,113.127 L782.965,94.448 L782.407,93.6 L823.164,77.241 L829.532,90.488 L828.9,91.77 C826.778,88.451 825.526,86.563 824.251,85.413 C822.977,84.263 821.588,83.609 820.85,83.454 C818.580,83.299 816.466,83.748 813.741,84.802 L795.186,91.979 L819.953,106.817 L809.721,136.344 L830.360,128.361 C834.100,126.914 836.726,125.208 838.238,123.240 ZM788.852,2370.530 C791.531,2377.952 791.36,2385.801 787.368,2394.77 C783.619,2402.536 777.680,2408.160 769.551,2410.949 C762.494,2413.368 755.483,2413.33 748.517,2409.946 C741.603,2406.882 736.776,2401.601 734.35,2394.104 C731.295,2386.607 731.666,2378.930 735.148,2371.74 C738.735,2362.981 744.265,2357.396 751.740,2354.317 C759.215,2351.237 766.579,2351.306 773.834,2354.521 C781.167,2357.771 786.173,2363.107 788.852,2370.530 ZM781.622,2367.701 C780.346,2362.874 777.364,2359.422 772.676,2357.344 C767.674,2355.128 762.678,2355.247 757.688,2357.705 C752.698,2360.162 748.340,2365.593 744.614,2374.0 C740.575,2383.114 739.357,2390.705 740.960,2396.773 C742.262,2401.612 745.453,2405.157 750.534,2407.409 C755.301,2409.522 759.908,2409.448 764.355,2407.190 C769.893,2404.380 774.542,2398.733 778.303,2390.247 C782.157,2381.552 783.263,2374.37 781.622,2367.701 ZM739.880,2342.327 C738.652,2341.708 737.340,2341.416 735.943,2341.451 C734.919,2341.448 734.53,2341.782 733.346,2342.453 C732.640,2343.124 731.649,2344.726 730.374,2347.259 L713.356,2381.73 C711.694,2384.374 711.3,2386.576 711.282,2387.678 C711.688,2389.165 712.966,2390.450 715.115,2391.532 L716.957,2392.459 L716.243,2393.879 L676.134,2373.692 L681.295,2362.3 L682.792,2362.757 C681.952,2365.765 681.600,2367.945 681.737,2369.297 C681.875,2370.649 682.448,2371.915 683.457,2373.97 C684.287,2373.996 685.995,2375.96 688.579,2376.396 L702.857,2383.582 L713.211,2363.10 L701.773,2357.253 C698.805,2355.759 696.597,2355.209 695.148,2355.602 C693.226,2356.110 691.440,2357.809 689.793,2360.700 L688.372,2359.985 L697.490,2341.869 L698.910,2342.584 C697.994,2345.297 697.534,2347.102 697.532,2347.999 C697.542,2349.126 697.943,2350.210 698.734,2351.250 C699.526,2352.289 701.9,2353.357 703.184,2354.451 L714.621,2360.208 L723.256,2343.51 C724.415,2340.748 725.18,2339.296 725.64,2338.694 C725.111,2338.92 724.953,2337.515 724.589,2336.963 C724.225,2336.411 723.327,2335.775 721.894,2335.54 L713.66,2330.611 C710.124,2329.130 707.884,2328.259 706.347,2327.999 C704.811,2327.738 703.126,2327.900 701.292,2328.485 C698.907,2329.273 696.79,2330.848 692.805,2333.209 L691.270,2332.436 L702.328,2321.647 L742.437,2341.834 L741.722,2343.254 L739.880,2342.327 ZM641.120,227.53 L643.21,225.961 C645.156,224.734 646.285,223.161 646.404,221.242 C646.459,220.187 645.658,218.218 644.3,215.337 L625.251,182.699 C623.425,179.520 621.955,177.738 620.842,177.354 C619.245,176.817 617.491,177.98 615.578,178.197 L613.678,179.289 L612.886,177.910 L631.403,167.272 C635.923,164.675 639.755,163.92 642.898,162.525 C646.42,161.958 649.142,162.267 652.201,163.450 C655.259,164.633 657.659,166.740 659.400,169.770 C661.769,173.893 662.336,178.27 661.100,182.173 C659.864,186.319 656.762,189.819 651.795,192.673 C650.578,193.372 649.212,194.42 647.696,194.681 C646.180,195.321 644.515,195.931 642.701,196.510 L651.156,211.227 C652.983,214.406 654.465,216.181 655.603,216.551 C657.175,217.102 658.917,216.828 660.829,215.729 L662.767,214.616 L663.559,215.994 L641.912,228.431 L641.120,227.53 ZM645.304,192.933 C646.394,192.473 647.298,192.35 648.19,191.621 C650.602,190.137 652.257,187.857 652.984,184.780 C653.710,181.703 653.160,178.575 651.333,175.395 C650.78,173.210 648.464,171.436 646.492,170.74 C644.521,168.713 642.448,168.37 640.273,168.48 C638.99,168.58 635.968,168.663 633.882,169.861 C632.615,170.589 631.124,171.760 629.408,173.373 L641.481,194.387 C642.940,193.879 644.214,193.395 645.304,192.933 ZM603.663,223.260 L611.526,235.572 C613.454,238.591 614.994,240.258 616.148,240.574 C617.713,241.2 619.486,240.584 621.465,239.320 L623.59,238.302 L623.914,239.642 L603.56,252.964 L602.200,251.624 L603.938,250.514 C606.14,249.188 607.86,247.620 607.154,245.809 C607.191,244.698 606.331,242.765 604.573,240.13 L597.149,228.389 L570.541,216.424 C567.406,215.28 565.361,214.209 564.409,213.967 C563.456,213.727 561.816,213.754 559.490,214.50 C558.853,214.117 558.76,214.443 557.158,215.29 L556.303,213.689 L577.306,200.274 L578.162,201.614 L577.75,202.308 C575.940,203.33 575.66,203.966 574.452,205.105 C573.837,206.246 573.870,207.347 574.548,208.409 C575.103,209.278 576.842,210.378 579.764,211.706 L600.119,220.985 L600.84,199.696 C600.83,196.502 599.728,194.349 599.19,193.239 C598.587,192.563 598.26,192.71 597.337,191.763 C596.648,191.456 595.881,191.360 595.37,191.474 C594.192,191.589 593.118,192.62 591.814,192.895 L590.958,191.555 L608.87,180.615 L608.943,181.955 L608.1,182.556 C607.373,182.957 606.633,183.821 605.781,185.147 C604.929,186.474 604.339,187.972 604.12,189.642 C603.685,191.312 603.546,193.781 603.593,197.47 L603.663,223.260 ZM567.228,241.174 C572.480,248.511 574.472,256.166 573.202,264.137 C571.933,272.109 568.142,278.354 561.829,282.872 C554.818,287.891 547.457,289.443 539.746,287.529 C532.35,285.616 525.746,281.258 520.877,274.456 C515.609,267.95 513.715,259.467 515.198,251.572 C516.680,243.677 520.589,237.462 526.925,232.926 C532.725,228.775 539.571,227.266 547.463,228.398 C555.355,229.531 561.943,233.790 567.228,241.174 ZM543.999,233.784 C538.516,231.562 533.211,232.284 528.87,235.952 C523.568,239.187 521.278,243.653 521.217,249.350 C521.156,255.48 523.676,261.461 528.778,268.589 C533.547,275.251 538.717,279.768 544.289,282.138 C549.860,284.509 555.92,283.943 559.984,280.442 C564.736,277.40 567.165,272.510 567.271,266.850 C567.377,261.192 564.912,254.844 559.877,247.809 C554.775,240.681 549.482,236.7 543.999,233.784 ZM553.49,257.981 C551.616,257.703 549.817,258.338 547.651,259.889 L544.751,261.965 C542.677,263.449 541.536,264.918 541.326,266.371 C541.116,267.825 541.720,269.542 543.137,271.522 L541.809,272.472 L529.730,255.596 L531.57,254.646 C532.491,256.649 533.924,257.790 535.356,258.68 C536.789,258.347 538.599,257.702 540.789,256.135 L543.619,254.109 C545.692,252.625 546.844,251.158 547.74,249.707 C547.304,248.257 546.694,246.518 545.243,244.492 L546.571,243.541 L558.651,260.418 L557.323,261.368 C555.906,259.389 554.481,258.259 553.49,257.981 ZM521.430,309.333 L523.13,308.79 L524.0,309.326 L504.634,324.667 L503.646,323.421 L505.263,322.140 C507.194,320.611 508.101,318.942 507.985,317.134 C507.909,316.24 506.858,314.189 504.830,311.629 L477.189,276.735 L471.699,281.84 C469.565,282.774 468.174,284.132 467.525,285.158 C466.696,286.510 466.345,288.121 466.475,289.991 C466.605,291.862 467.409,293.893 468.889,296.82 L467.609,297.96 L459.663,285.959 L496.949,256.423 L505.939,266.733 L504.659,267.747 C502.917,266.57 501.513,264.977 500.447,264.506 C498.719,263.755 497.32,263.529 495.387,263.827 C493.741,264.126 491.975,265.22 490.89,266.516 L483.656,271.612 L511.297,306.506 C513.521,309.314 515.211,310.825 516.369,311.40 C517.969,311.308 519.656,310.739 521.430,309.333 ZM485.877,335.263 C487.643,335.260 489.468,334.530 491.352,333.72 L492.399,334.268 L475.94,349.401 L474.48,348.205 C475.719,346.591 476.645,345.268 476.826,344.234 C477.7,343.201 476.786,342.328 476.164,341.617 C475.334,340.668 473.592,339.547 470.938,338.252 L462.770,334.264 L445.789,349.114 L448.866,358.639 C449.623,360.984 450.369,362.576 451.104,363.417 C451.689,364.86 452.521,364.395 453.600,364.345 C454.679,364.296 456.341,363.423 458.587,361.725 L459.633,362.922 L445.822,375.0 L445.798,374.973 L425.945,394.270 L424.837,393.130 C426.28,391.972 426.691,390.938 426.826,390.28 C426.960,389.118 426.788,388.417 426.309,387.924 C425.830,387.431 425.303,387.84 424.728,386.884 C424.154,386.684 422.803,386.578 420.676,386.568 L392.390,386.318 L405.478,399.783 C407.534,401.899 409.25,403.166 409.951,403.584 C410.656,403.898 411.516,403.920 412.533,403.651 C413.895,403.286 415.70,402.623 416.56,401.665 L417.473,400.287 L418.581,401.427 L400.772,418.738 L399.664,417.598 L401.143,416.160 C402.868,414.483 403.632,412.762 403.434,410.997 C403.289,409.860 401.998,408.39 399.562,405.533 L373.326,378.542 C371.270,376.426 369.769,375.149 368.823,374.710 C368.138,374.416 367.298,374.395 366.302,374.644 C364.918,375.29 363.734,375.701 362.748,376.659 L361.269,378.97 L360.161,376.957 L377.970,359.646 L379.79,360.786 L377.661,362.164 C376.695,363.103 375.991,364.247 375.546,365.598 C375.229,366.546 375.267,367.468 375.659,368.365 C376.52,369.262 377.246,370.738 379.242,372.791 L391.671,385.578 C391.703,384.789 391.842,382.117 392.89,377.562 C392.759,366.45 392.822,358.734 392.279,355.626 C392.35,354.265 391.613,353.277 391.14,352.660 C390.555,352.188 389.935,351.982 389.154,352.41 C388.374,352.102 387.470,352.630 386.443,353.629 L385.487,354.557 L384.379,353.417 L399.724,338.502 L400.832,339.642 C399.948,340.542 399.246,341.464 398.726,342.408 C398.207,343.353 397.727,344.668 397.288,346.353 C396.848,348.39 396.547,350.359 396.384,353.314 C396.331,354.165 396.292,358.297 396.268,365.710 L396.60,378.257 L426.350,378.596 C431.333,378.667 435.162,378.291 437.837,377.468 C440.513,376.645 442.804,375.426 444.711,373.812 L445.431,374.553 L444.775,373.804 C446.325,371.878 447.143,370.420 447.230,369.431 C447.425,367.434 446.804,364.266 445.369,359.927 L429.231,310.337 L430.363,309.347 L477.536,332.482 C481.330,334.340 484.110,335.267 485.877,335.263 ZM436.831,321.443 L444.698,345.844 L459.771,332.663 L436.831,321.443 ZM361.29,394.698 C358.378,393.46 356.385,392.96 355.49,391.848 C353.713,391.600 352.336,391.794 350.919,392.431 C349.823,392.975 348.288,394.305 346.314,396.420 L335.406,408.104 L352.241,423.820 L360.979,414.460 C363.247,412.31 364.396,410.67 364.425,408.566 C364.478,406.578 363.349,404.387 361.37,401.994 L362.122,400.832 L376.947,414.671 L375.862,415.833 C373.515,414.192 371.912,413.244 371.52,412.989 C369.968,412.682 368.815,412.762 367.595,413.229 C366.374,413.698 364.933,414.821 363.272,416.601 L354.534,425.961 L368.574,439.67 C370.459,440.827 371.683,441.814 372.248,442.27 C372.813,442.241 373.411,442.251 374.43,442.56 C374.675,441.863 375.538,441.179 376.633,440.6 L383.377,432.782 C385.624,430.374 387.89,428.470 387.771,427.68 C388.452,425.667 388.770,424.4 388.724,422.79 C388.638,419.570 387.921,416.412 386.574,412.607 L387.747,411.351 L394.996,424.995 L364.355,457.818 L363.193,456.733 L364.600,455.226 C365.538,454.221 366.187,453.43 366.546,451.693 C366.837,450.711 366.759,449.786 366.314,448.919 C365.868,448.53 364.609,446.652 362.536,444.717 L334.865,418.885 C332.163,416.363 330.244,415.81 329.108,415.39 C327.567,415.11 325.975,415.877 324.333,417.636 L322.926,419.143 L321.763,418.58 L352.404,385.235 L362.173,393.473 L361.29,394.698 ZM327.796,500.579 L299.354,442.52 L300.301,440.940 L361.668,460.796 L327.796,500.579 ZM328.748,493.828 L352.230,466.247 L308.363,451.754 L328.748,493.828 ZM282.439,481.74 L311.802,503.650 C314.845,505.990 317.80,507.77 318.509,506.911 C319.938,506.745 321.798,505.266 324.88,502.474 L325.349,503.443 L310.79,523.302 L308.819,522.333 C310.911,519.425 311.859,517.264 311.664,515.849 C311.469,514.434 309.839,512.548 306.773,510.191 L271.517,483.83 L255.43,504.509 L290.299,531.617 C293.342,533.957 295.573,535.49 296.993,534.894 C298.413,534.739 300.277,533.255 302.586,530.441 L303.846,531.410 L288.550,551.303 L287.290,550.334 C289.400,547.403 290.350,545.226 290.144,543.802 C289.938,542.379 288.314,540.497 285.270,538.157 L255.907,515.581 C252.864,513.241 250.628,512.154 249.200,512.320 C247.771,512.487 245.911,513.966 243.620,516.757 L242.360,515.788 L279.158,467.928 L280.419,468.897 C278.310,471.829 277.358,474.6 277.564,475.429 C277.771,476.853 279.396,478.734 282.439,481.74 ZM256.666,597.366 L222.539,541.961 L223.370,540.759 L286.409,554.408 L256.666,597.366 ZM256.941,590.553 L277.561,560.772 L232.468,550.717 L256.941,590.553 ZM198.49,1828.72 C196.545,1827.522 194.122,1827.377 190.781,1827.638 L137.379,1832.113 L136.655,1830.697 L171.177,1788.726 C173.522,1785.886 174.893,1783.770 175.290,1782.376 C175.688,1780.983 175.319,1779.80 174.182,1776.669 L175.598,1775.945 L186.414,1797.103 L184.999,1797.826 C183.556,1795.508 182.349,1794.154 181.378,1793.766 C180.408,1793.377 179.438,1793.430 178.469,1793.926 C177.270,1794.539 175.619,1796.123 173.515,1798.679 L149.847,1827.428 L186.139,1824.316 C189.506,1824.43 191.840,1823.573 193.141,1822.908 C194.212,1822.361 194.878,1821.570 195.137,1820.537 C195.398,1819.503 195.49,1817.863 194.94,1815.617 L195.510,1814.893 L203.685,1830.885 L202.270,1831.609 C200.960,1829.802 199.553,1828.623 198.49,1828.72 ZM166.12,757.429 L151.951,725.712 L116.346,733.405 L114.953,732.731 L133.981,693.392 L147.677,698.728 L146.966,700.198 C144.274,699.119 142.70,698.594 140.353,698.623 C138.637,698.652 137.176,699.123 135.971,700.35 C134.766,700.948 133.527,702.719 132.255,705.349 L123.592,723.259 L151.820,717.200 L164.495,745.764 L174.130,725.843 C175.877,722.233 176.631,719.193 176.394,716.723 C176.156,714.254 174.425,711.651 171.199,708.912 L172.258,707.611 L187.32,717.526 L167.405,758.102 L166.12,757.429 ZM112.994,757.786 C113.275,758.591 114.837,762.416 117.682,769.262 L122.343,780.913 L150.407,769.509 C155.29,767.647 158.415,765.820 160.564,764.26 C162.713,762.232 164.354,760.222 165.488,757.996 L166.951,758.619 L156.96,784.120 L154.633,783.497 C155.284,781.969 155.496,780.759 155.268,779.868 C155.40,778.977 154.610,778.397 153.977,778.127 C153.345,777.858 152.725,777.742 152.117,777.779 C151.510,777.817 150.224,778.242 148.258,779.55 L122.77,789.766 L139.354,797.121 C142.69,798.276 143.934,798.868 144.950,798.895 C145.721,798.913 146.523,798.601 147.357,797.959 C148.472,797.95 149.299,796.30 149.837,794.765 L150.611,792.946 L152.74,793.569 L142.347,816.421 L140.884,815.798 L141.692,813.900 C142.634,811.686 142.673,809.804 141.808,808.252 C141.234,807.261 139.339,806.80 136.123,804.712 L101.490,789.969 C98.775,788.813 96.896,788.217 95.854,788.177 C95.110,788.172 94.326,788.477 93.504,789.91 C92.377,789.982 91.545,791.60 91.7,792.325 L90.199,794.223 L88.736,793.600 L98.463,770.748 L99.926,771.371 L99.152,773.189 C98.625,774.429 98.418,775.757 98.530,777.174 C98.604,778.171 98.995,779.7 99.704,779.682 C100.413,780.358 102.85,781.256 104.721,782.378 L121.128,789.362 C120.852,788.622 119.947,786.104 118.413,781.808 C114.576,770.929 111.806,764.162 110.103,761.506 C109.352,760.346 108.581,759.597 107.790,759.260 C107.184,759.3 106.532,759.52 105.835,759.409 C105.139,759.766 104.509,760.604 103.949,761.922 L103.427,763.147 L101.964,762.525 L110.345,742.836 L111.808,743.458 C111.341,744.630 111.50,745.751 110.936,746.823 C110.822,747.896 110.888,749.294 111.135,751.18 C111.382,752.742 112.2,754.999 112.994,757.786 ZM96.393,809.657 C93.309,809.162 91.104,809.58 89.776,809.347 C88.448,809.636 87.254,810.349 86.194,811.484 C85.395,812.411 84.494,814.232 83.494,816.946 L77.964,831.943 L99.573,839.911 L104.3,827.896 C105.152,824.779 105.450,822.522 104.896,821.127 C104.175,819.274 102.285,817.692 99.227,816.381 L99.777,814.889 L118.806,821.905 L118.256,823.397 C115.456,822.792 113.611,822.539 112.720,822.638 C111.601,822.775 110.569,823.296 109.625,824.199 C108.681,825.103 107.788,826.697 106.946,828.982 L102.516,840.996 L120.538,847.640 C122.957,848.532 124.468,848.967 125.71,848.945 C125.674,848.923 126.230,848.701 126.737,848.277 C127.245,847.854 127.775,846.889 128.330,845.384 L131.749,836.111 C132.889,833.21 133.501,830.697 133.586,829.141 C133.672,827.585 133.321,825.929 132.533,824.173 C131.481,821.892 129.597,819.259 126.882,816.273 L127.476,814.660 L139.444,824.431 L123.912,866.561 L122.420,866.11 L123.133,864.76 C123.609,862.786 123.751,861.449 123.559,860.65 C123.446,859.47 123.17,858.225 122.270,857.598 C121.524,856.972 119.821,856.168 117.160,855.187 L81.641,842.92 C78.174,840.814 75.909,840.376 74.845,840.777 C73.413,841.348 72.281,842.763 71.448,845.20 L70.735,846.955 L69.243,846.405 L84.776,804.275 L96.973,808.85 L96.393,809.657 ZM110.296,874.811 C113.111,875.694 115.25,876.100 116.39,876.27 C116.808,875.969 117.571,875.593 118.329,874.899 C119.362,873.903 120.85,872.748 120.496,871.436 L121.114,869.468 L122.631,869.944 L115.171,893.723 L113.654,893.247 L114.272,891.280 C114.983,889.11 114.832,887.148 113.819,885.688 C113.159,884.731 111.161,883.729 107.826,882.683 L90.894,877.371 L82.792,903.201 L99.724,908.512 C102.540,909.395 104.454,909.801 105.467,909.728 C106.236,909.670 107.4,909.280 107.770,908.559 C108.795,907.590 109.513,906.449 109.925,905.137 L110.555,903.128 L112.72,903.604 L104.600,927.424 L103.83,926.949 L103.700,924.981 C104.420,922.685 104.274,920.808 103.260,919.348 C102.591,918.418 100.590,917.430 97.255,916.384 L61.381,905.131 C58.538,904.239 56.610,903.830 55.597,903.902 C54.828,903.961 54.64,904.337 53.306,905.30 C52.273,906.27 51.551,907.181 51.139,908.493 L50.522,910.461 L49.5,909.985 L56.477,886.165 L57.994,886.640 L57.364,888.649 C56.952,889.961 56.877,891.304 57.137,892.676 C57.308,893.661 57.787,894.456 58.572,895.63 C59.358,895.670 61.117,896.402 63.850,897.259 L79.758,902.249 L87.860,876.420 L71.952,871.430 C69.110,870.538 67.182,870.129 66.168,870.201 C65.400,870.260 64.632,870.650 63.865,871.370 C62.841,872.339 62.123,873.480 61.711,874.792 L61.94,876.760 L59.577,876.284 L67.36,852.505 L68.553,852.980 L67.936,854.948 C67.524,856.260 67.448,857.603 67.708,858.975 C67.871,859.987 68.348,860.790 69.137,861.382 C69.927,861.975 71.689,862.701 74.422,863.558 L110.296,874.811 ZM48.410,921.179 C48.665,922.841 49.174,924.435 49.936,925.961 C50.699,927.486 52.246,929.760 54.577,932.781 L66.31,947.644 L87.197,940.155 C93.52,938.76 96.847,936.393 98.580,935.107 C100.314,933.821 101.570,931.947 102.348,929.485 L103.888,929.879 L97.687,954.106 L96.147,953.712 C96.531,952.96 96.670,950.860 96.563,950.4 C96.463,949.357 96.204,948.781 95.786,948.275 C95.369,947.769 94.897,947.448 94.369,947.313 C93.731,947.150 93.61,947.112 92.358,947.198 C91.837,947.272 90.421,947.722 88.109,948.550 L71.172,954.416 L83.298,970.116 C84.589,971.777 85.472,972.802 85.949,973.190 C86.426,973.578 86.956,973.847 87.539,973.996 C88.428,974.224 89.259,974.37 90.33,973.437 C90.808,972.837 91.506,971.493 92.130,969.405 L93.670,969.799 L88.545,989.822 L87.5,989.428 C87.228,987.977 87.249,986.682 87.68,985.541 C86.787,983.636 86.235,981.750 85.411,979.883 C84.588,978.17 83.170,975.761 81.156,973.116 L67.748,955.491 L48.627,962.439 C43.440,964.335 39.890,966.162 37.977,967.919 C36.63,969.676 34.713,971.918 33.927,974.644 L32.387,974.250 L39.67,948.150 L40.607,948.544 C40.122,950.786 40.94,952.398 40.523,953.379 C40.952,954.362 41.555,954.952 42.332,955.151 C43.359,955.413 45.28,955.131 47.339,954.303 L62.501,948.959 L52.373,935.677 C51.172,934.128 50.329,933.151 49.841,932.744 C49.354,932.339 48.818,932.61 48.236,931.912 C47.653,931.763 47.97,931.798 46.567,932.18 C45.878,932.285 45.334,932.707 44.935,933.285 C44.536,933.864 44.66,935.147 43.527,937.138 L41.987,936.744 L47.112,916.722 L48.652,917.116 C48.330,918.719 48.250,920.73 48.410,921.179 ZM83.618,996.208 C85.17,995.129 86.20,993.438 86.626,991.135 L88.185,991.446 L83.679,1013.989 L82.120,1013.677 C82.463,1011.379 82.391,1009.766 81.905,1008.836 C81.419,1007.906 80.712,1007.349 79.785,1007.163 C78.550,1006.916 76.485,1007.88 73.592,1007.678 L64.685,1009.491 L60.263,1031.612 L68.506,1037.291 C70.534,1038.690 72.96,1039.498 73.191,1039.717 C74.62,1039.891 74.911,1039.630 75.736,1038.933 C76.562,1038.237 77.348,1036.532 78.95,1033.818 L79.654,1034.129 L76.58,1052.121 L74.499,1051.810 C74.555,1049.338 74.316,1047.683 73.782,1046.846 C72.720,1045.144 70.298,1043.10 66.517,1040.443 L23.511,1010.946 L23.806,1009.471 L75.310,999.83 C79.450,998.245 82.219,997.287 83.618,996.208 ZM36.304,1015.124 L57.406,1029.683 L61.331,1010.48 L36.304,1015.124 ZM26.609,1056.148 L64.317,1061.385 C67.864,1061.878 70.133,1061.788 71.122,1061.115 C72.460,1060.232 73.286,1058.655 73.601,1056.384 L73.879,1054.384 L75.454,1054.603 L72.49,1079.117 L70.474,1078.899 L70.758,1076.856 C71.101,1074.387 70.604,1072.554 69.266,1071.356 C68.445,1070.606 66.417,1070.6 63.182,1069.557 L24.623,1064.201 L70.92,1093.205 L69.897,1094.609 L18.239,1110.166 L56.798,1115.522 C60.345,1116.14 62.612,1115.939 63.597,1115.295 C64.935,1114.411 65.761,1112.834 66.76,1110.563 L66.360,1108.520 L67.935,1108.739 L65.145,1128.828 L63.570,1128.609 L63.854,1126.566 C64.193,1124.126 63.696,1122.293 62.362,1121.66 C61.541,1120.316 59.513,1119.716 56.278,1119.267 L18.570,1114.30 C16.16,1113.675 14.133,1113.703 12.919,1114.112 C12.41,1114.396 11.251,1115.30 10.550,1116.18 C9.849,1117.5 9.335,1118.676 9.8,1121.31 L7.433,1120.812 L9.703,1104.469 L57.768,1089.801 L15.472,1062.930 L17.742,1046.587 L19.317,1046.806 L19.39,1048.806 C18.696,1051.275 19.192,1053.122 20.525,1054.349 C21.347,1055.99 23.374,1055.699 26.609,1056.148 ZM15.154,1269.786 C12.267,1270.56 10.66,1270.597 8.552,1271.407 C7.40,1272.217 5.955,1273.304 5.300,1274.666 C4.646,1276.29 4.354,1278.171 4.424,1281.92 L4.906,1300.980 L27.243,1282.688 L51.573,1302.300 L51.37,1280.178 C50.940,1276.169 50.221,1273.120 48.881,1271.32 C47.541,1268.944 44.811,1267.420 40.690,1266.459 L41.37,1264.818 L58.710,1266.882 L59.801,1311.944 L58.255,1311.981 L31.251,1290.199 L3.99,1313.317 L1.552,1313.354 L0.494,1269.668 L15.114,1268.153 L15.154,1269.786 ZM30.529,1318.832 C39.358,1318.200 46.886,1320.461 53.114,1325.615 C59.342,1330.769 62.739,1337.304 63.305,1345.219 C63.878,1353.219 61.517,1360.144 56.220,1365.994 C50.924,1371.845 43.761,1375.93 34.732,1375.739 C25.504,1376.400 17.749,1373.796 11.470,1367.927 C6.22,1362.832 3.26,1356.485 2.482,1348.884 C1.942,1341.341 4.339,1334.600 9.672,1328.661 C15.5,1322.722 21.957,1319.445 30.529,1318.832 ZM5.669,1349.474 C6.41,1354.675 8.269,1358.708 12.351,1361.575 C17.432,1365.146 24.601,1366.600 33.858,1365.937 C43.345,1365.258 50.500,1362.707 55.323,1358.283 C58.987,1354.891 60.635,1350.637 60.268,1345.522 C59.878,1340.65 57.427,1335.710 52.914,1332.457 C48.403,1329.205 41.560,1327.907 32.389,1328.564 C22.445,1329.276 15.171,1331.764 10.565,1336.28 C6.905,1339.449 5.272,1343.931 5.669,1349.474 ZM8.686,1387.144 C8.947,1389.508 9.836,1391.153 11.350,1392.81 C12.340,1392.693 14.571,1392.806 18.45,1392.423 L55.458,1388.292 C58.391,1387.968 60.307,1387.570 61.205,1387.96 C61.886,1386.733 62.432,1386.67 62.844,1385.99 C63.392,1383.800 63.591,1382.466 63.440,1381.99 L63.209,1379.7 L64.789,1378.832 L67.528,1403.646 L65.948,1403.821 L65.722,1401.771 C65.458,1399.379 64.569,1397.719 63.54,1396.791 C62.68,1396.208 59.838,1396.109 56.363,1396.492 L18.950,1400.623 C16.18,1400.947 14.102,1401.346 13.203,1401.820 C12.523,1402.183 11.975,1402.834 11.560,1403.773 C11.15,1405.102 10.818,1406.449 10.969,1407.816 L11.195,1409.866 L9.615,1410.40 L6.875,1385.226 L8.455,1385.52 L8.686,1387.144 ZM12.175,1417.644 C12.494,1420.1 13.422,1421.624 14.958,1422.515 C15.963,1423.102 18.196,1423.161 21.660,1422.693 L58.961,1417.651 C61.885,1417.255 63.790,1416.810 64.677,1416.314 C65.349,1415.935 65.878,1415.256 66.266,1414.278 C66.783,1412.966 66.949,1411.628 66.765,1410.265 L66.483,1408.179 L68.58,1407.966 L71.402,1432.705 L69.827,1432.918 L69.550,1430.874 C69.228,1428.490 68.299,1426.853 66.762,1425.962 C65.761,1425.403 63.530,1425.358 60.66,1425.826 L22.765,1430.868 C19.841,1431.264 17.935,1431.710 17.48,1432.205 C16.378,1432.585 15.845,1433.249 15.453,1434.198 C14.941,1435.540 14.777,1436.891 14.961,1438.254 L15.237,1440.298 L13.662,1440.511 L10.318,1415.771 L11.893,1415.558 L12.175,1417.644 ZM42.917,1443.353 C51.636,1441.829 59.355,1443.314 66.74,1447.810 C72.792,1452.306 76.835,1458.462 78.202,1466.278 C79.584,1474.179 77.937,1481.308 73.262,1487.665 C68.587,1494.23 61.791,1497.981 52.874,1499.541 C43.760,1501.135 35.781,1499.331 28.939,1494.130 C23.2,1489.614 19.377,1483.603 18.65,1476.97 C16.762,1468.647 18.462,1461.698 23.165,1455.248 C27.868,1448.799 34.452,1444.834 42.917,1443.353 ZM21.295,1476.361 C22.193,1481.497 24.819,1485.283 29.171,1487.721 C34.587,1490.758 41.867,1491.476 51.9,1489.878 C60.378,1488.239 67.237,1484.975 71.587,1480.85 C74.887,1476.338 76.95,1471.940 75.212,1466.888 C74.269,1461.499 71.389,1457.415 66.570,1454.637 C61.751,1451.859 54.813,1451.262 45.755,1452.846 C35.935,1454.564 28.951,1457.778 24.801,1462.487 C21.507,1466.262 20.338,1470.887 21.295,1476.361 ZM33.857,1514.742 C35.895,1512.172 38.618,1510.506 42.29,1509.742 C46.669,1508.703 50.786,1509.389 54.378,1511.799 C57.971,1514.209 60.392,1518.209 61.644,1523.800 C61.951,1525.170 62.185,1526.673 62.346,1528.310 C62.507,1529.947 62.595,1531.719 62.610,1533.623 L79.173,1529.915 C82.752,1529.114 84.886,1528.225 85.577,1527.248 C86.570,1525.911 86.825,1524.166 86.343,1522.13 L85.854,1519.833 L87.406,1519.486 L92.860,1543.847 L91.309,1544.195 L90.830,1542.56 C90.292,1539.652 89.124,1538.108 87.327,1537.424 C86.336,1537.59 84.219,1537.240 80.975,1537.966 L44.244,1546.189 C40.666,1546.990 38.528,1547.865 37.831,1548.814 C36.845,1550.179 36.593,1551.939 37.75,1554.91 L37.553,1556.229 L36.2,1556.577 L31.336,1535.737 C30.197,1530.650 29.823,1526.521 30.214,1523.351 C30.606,1520.181 31.820,1517.311 33.857,1514.742 ZM34.545,1534.138 C34.864,1535.564 35.540,1537.335 36.571,1539.453 L60.220,1534.158 C60.168,1532.614 60.84,1531.254 59.967,1530.76 C59.850,1528.899 59.701,1527.905 59.519,1527.94 C58.869,1524.187 57.182,1521.930 54.459,1520.323 C51.737,1518.716 48.586,1518.313 45.8,1519.114 C42.548,1519.665 40.376,1520.680 38.490,1522.159 C36.605,1523.638 35.344,1525.417 34.709,1527.497 C34.74,1529.576 34.19,1531.790 34.545,1534.138 ZM51.58,1560.580 C48.817,1561.511 47.269,1562.373 46.415,1563.166 C45.43,1564.456 44.168,1565.916 43.791,1567.546 C43.415,1569.175 43.539,1571.151 44.165,1573.475 L46.302,1581.399 L89.283,1569.811 C92.741,1568.879 94.797,1567.924 95.453,1566.946 C96.331,1565.582 96.476,1563.808 95.887,1561.622 L95.361,1559.673 L96.896,1559.259 L103.327,1583.114 L101.792,1583.528 L101.255,1581.537 C100.614,1579.158 99.440,1577.665 97.734,1577.57 C96.685,1576.687 94.583,1576.927 91.430,1577.777 L48.449,1589.364 L50.272,1596.127 C50.981,1598.755 51.678,1600.570 52.363,1601.571 C53.277,1602.868 54.618,1603.827 56.387,1604.447 C58.157,1605.68 60.340,1605.132 62.936,1604.640 L63.361,1606.216 L49.990,1609.109 L37.608,1563.182 L50.633,1559.3 L51.58,1560.580 ZM80.3,1609.522 C88.426,1606.799 96.276,1607.197 103.555,1610.716 C110.833,1614.234 115.693,1619.768 118.133,1627.318 C120.600,1634.950 119.960,1642.239 116.214,1649.185 C112.468,1656.130 106.288,1660.995 97.675,1663.779 C88.871,1666.625 80.719,1665.948 73.220,1661.748 C66.713,1658.101 62.288,1652.653 59.944,1645.402 C57.619,1638.206 58.337,1631.88 62.97,1624.47 C65.857,1617.6 71.826,1612.165 80.3,1609.522 ZM63.180,1645.214 C64.784,1650.176 67.910,1653.560 72.559,1655.369 C78.345,1657.624 85.654,1657.323 94.485,1654.469 C103.535,1651.544 109.874,1647.358 113.501,1641.911 C116.249,1637.742 116.833,1633.218 115.256,1628.338 C113.574,1623.132 110.154,1619.488 104.995,1617.407 C99.837,1615.327 92.883,1615.700 84.133,1618.528 C74.648,1621.594 68.178,1625.747 64.724,1630.988 C61.986,1635.184 61.471,1639.927 63.180,1645.214 ZM74.818,1681.81 C75.699,1683.382 77.20,1684.746 78.780,1685.176 C79.862,1685.437 81.927,1684.983 84.976,1683.814 L130.837,1666.238 L131.391,1667.683 L101.323,1720.344 L134.826,1707.505 C138.170,1706.223 140.118,1705.62 140.670,1704.23 C141.404,1702.576 141.366,1700.796 140.556,1698.683 L139.818,1696.757 L141.302,1696.188 L148.560,1715.126 L147.76,1715.695 L146.353,1713.809 C145.461,1711.482 144.135,1710.103 142.375,1709.673 C141.294,1709.413 139.228,1709.867 136.179,1711.36 L98.343,1725.536 C97.102,1727.822 96.344,1729.485 96.68,1730.526 C95.792,1731.568 95.702,1732.975 95.799,1734.748 C95.856,1735.616 96.186,1736.839 96.791,1738.417 L95.306,1738.986 L89.648,1724.220 L117.706,1675.320 L86.329,1687.345 C82.986,1688.626 81.43,1689.801 80.501,1690.867 C79.757,1692.288 79.795,1694.68 80.615,1696.207 L81.337,1698.93 L79.853,1698.662 L72.595,1679.724 L74.80,1679.155 L74.818,1681.81 ZM148.743,1724.514 C149.260,1722.825 149.100,1720.866 148.263,1718.636 L149.715,1717.988 L159.74,1738.985 L157.622,1739.632 C156.573,1737.560 155.581,1736.285 154.647,1735.807 C153.713,1735.330 152.814,1735.284 151.950,1735.669 C150.799,1736.182 149.214,1737.516 147.195,1739.670 L140.976,1746.299 L150.160,1766.904 L160.168,1766.771 C162.632,1766.739 164.374,1766.496 165.394,1766.41 C166.205,1765.680 166.747,1764.976 167.17,1763.930 C167.288,1762.884 166.944,1761.39 165.984,1758.393 L167.436,1757.745 L174.905,1774.504 L173.453,1775.151 C172.70,1773.102 170.918,1771.890 169.998,1771.516 C168.148,1770.741 164.938,1770.401 160.369,1770.492 L108.225,1771.294 L107.613,1769.920 L143.626,1731.664 C146.520,1728.586 148.225,1726.203 148.743,1724.514 ZM121.78,1767.306 L146.713,1766.982 L138.562,1748.693 L121.78,1767.306 ZM242.505,1975.154 C240.286,1977.22 238.786,1978.720 238.4,1980.248 C237.222,1981.776 236.950,1983.287 237.189,1984.780 C237.427,1986.273 238.408,1988.199 240.130,1990.559 L251.859,2006.628 L259.791,1978.868 L290.960,1981.120 L277.914,1963.246 C275.549,1960.7 273.222,1957.912 270.931,1956.959 C268.640,1956.7 265.528,1956.310 261.594,1957.869 L260.944,1956.322 L276.643,1947.949 L303.217,1984.356 L301.967,1985.268 L267.364,1982.756 L257.404,2017.796 L256.155,2018.708 L230.391,1983.411 L241.542,1973.835 L242.505,1975.154 ZM283.96,2006.704 C289.989,2001.151 297.463,1998.716 305.518,1999.400 C313.573,2000.84 320.90,2003.516 325.68,2009.695 C330.100,2015.941 332.108,2022.976 331.92,2030.802 C330.77,2038.628 326.44,2045.381 318.995,2051.59 C311.790,2056.864 303.935,2059.146 295.431,2057.904 C288.50,2056.825 281.969,2053.318 277.189,2047.384 C272.444,2041.495 270.570,2034.590 271.565,2026.671 C272.560,2018.751 276.404,2012.95 283.96,2006.704 ZM280.144,2046.52 C283.415,2050.112 287.544,2052.156 292.532,2052.183 C298.742,2052.221 305.461,2049.327 312.688,2043.505 C320.95,2037.538 324.518,2031.363 325.959,2024.978 C327.34,2020.103 325.963,2015.669 322.746,2011.675 C319.314,2007.415 314.817,2005.234 309.256,2005.135 C303.694,2005.35 297.333,2007.870 290.173,2013.639 C282.410,2019.893 277.852,2026.84 276.499,2032.214 C275.443,2037.112 276.657,2041.724 280.144,2046.52 ZM304.103,2075.281 C305.665,2077.74 307.332,2077.920 309.105,2077.819 C310.267,2077.756 312.165,2076.578 314.800,2074.282 L343.182,2049.558 C345.407,2047.620 346.753,2046.200 347.221,2045.298 C347.574,2044.612 347.643,2043.754 347.429,2042.724 C347.139,2041.344 346.541,2040.135 345.638,2039.98 L344.255,2037.510 L345.454,2036.466 L361.852,2055.290 L360.654,2056.334 L359.299,2054.779 C357.718,2052.965 356.42,2052.108 354.268,2052.209 C353.125,2052.293 351.236,2053.482 348.601,2055.778 L320.219,2080.503 C317.995,2082.441 316.648,2083.861 316.180,2084.762 C315.829,2085.449 315.750,2086.297 315.944,2087.304 C316.254,2088.707 316.860,2089.926 317.763,2090.963 L319.118,2092.518 L317.919,2093.562 L301.521,2074.738 L302.720,2073.694 L304.103,2075.281 ZM335.393,2094.48 C333.563,2096.579 332.478,2098.502 332.139,2099.818 C331.800,2101.134 331.899,2102.521 332.437,2103.978 C332.905,2105.109 334.126,2106.732 336.100,2108.847 L347.8,2120.531 L363.843,2104.814 L355.105,2095.455 C352.838,2093.26 350.957,2091.745 349.461,2091.612 C347.482,2091.423 345.219,2092.399 342.672,2094.541 L341.587,2093.379 L356.412,2079.538 L357.497,2080.701 C355.698,2082.929 354.642,2084.464 354.329,2085.304 C353.948,2086.365 353.949,2087.520 354.332,2088.770 C354.715,2090.20 355.737,2091.534 357.398,2093.314 L366.136,2102.674 L380.176,2089.567 C382.60,2087.808 383.129,2086.654 383.381,2086.105 C383.633,2085.556 383.684,2084.960 383.533,2084.316 C383.383,2083.673 382.761,2082.765 381.666,2081.592 L374.922,2074.368 C372.674,2071.960 370.874,2070.368 369.522,2069.592 C368.172,2068.816 366.534,2068.384 364.612,2068.298 C362.102,2068.212 358.903,2068.710 355.14,2069.792 L353.841,2068.536 L367.951,2062.241 L398.593,2095.64 L397.431,2096.149 L396.23,2094.641 C395.85,2093.636 393.955,2092.908 392.632,2092.457 C391.672,2092.100 390.745,2092.114 389.849,2092.498 C388.955,2092.883 387.470,2094.43 385.397,2095.978 L357.726,2121.811 C355.25,2124.333 353.615,2126.160 353.495,2127.290 C353.361,2128.826 354.115,2130.473 355.757,2132.232 L357.164,2133.740 L356.2,2134.825 L325.361,2102.2 L334.249,2092.822 L335.393,2094.48 ZM362.615,2139.419 C364.382,2141.136 366.154,2141.820 367.931,2141.471 C369.23,2141.252 370.705,2139.973 372.982,2137.631 L407.212,2102.412 L408.322,2103.490 L403.165,2163.911 L428.171,2138.183 C430.667,2135.614 431.947,2133.743 432.11,2132.567 C432.69,2130.946 431.287,2129.347 429.664,2127.769 L428.185,2126.331 L429.293,2125.192 L443.837,2139.327 L442.729,2140.467 L441.281,2139.59 C439.493,2137.323 437.711,2136.629 435.933,2136.978 C434.843,2137.196 433.159,2138.476 430.883,2140.818 L402.642,2169.874 C402.476,2172.470 402.487,2174.298 402.674,2175.359 C402.862,2176.420 403.372,2177.734 404.204,2179.302 C404.621,2180.67 405.434,2181.37 406.646,2182.215 L405.538,2183.355 L394.199,2172.334 L399.113,2116.171 L375.693,2140.266 C373.198,2142.834 371.928,2144.716 371.884,2145.912 C371.806,2147.513 372.588,2149.112 374.231,2150.710 L375.679,2152.117 L374.571,2153.257 L360.28,2139.122 L361.136,2137.982 L362.615,2139.419 ZM447.924,2147.755 C447.685,2146.5 446.719,2144.294 445.23,2142.621 L446.69,2141.424 L463.374,2156.556 L462.328,2157.753 C460.506,2156.312 459.71,2155.570 458.22,2155.529 C456.974,2155.487 456.138,2155.823 455.516,2156.534 C454.687,2157.483 453.808,2159.359 452.878,2162.162 L450.15,2170.789 L466.997,2185.639 L476.26,2181.319 C478.249,2180.256 479.728,2179.305 480.463,2178.464 C481.48,2177.795 481.244,2176.929 481.50,2175.866 C480.858,2174.804 479.771,2173.272 477.789,2171.274 L478.835,2170.77 L492.647,2182.154 L491.601,2183.351 C489.485,2182.72 487.931,2181.455 486.939,2181.501 C484.935,2181.575 481.878,2182.612 477.769,2184.613 L430.773,2207.218 L429.641,2206.228 L446.280,2156.392 C447.615,2152.384 448.163,2149.505 447.924,2147.755 ZM463.901,2187.155 L448.828,2173.974 L440.767,2198.205 L463.901,2187.155 ZM480.366,2211.247 C484.676,2210.867 489.72,2212.461 493.556,2216.27 C494.655,2216.901 495.781,2217.924 496.934,2219.98 C498.87,2220.271 499.267,2221.594 500.475,2223.67 L511.40,2209.784 C513.322,2206.914 514.426,2204.882 514.351,2203.688 C514.284,2202.23 513.387,2200.505 511.660,2199.132 L509.912,2197.741 L510.901,2196.497 L530.440,2212.37 L529.450,2213.281 L527.735,2211.917 C525.807,2210.384 523.929,2209.914 522.101,2210.510 C521.100,2210.849 519.565,2212.318 517.496,2214.919 L494.66,2244.378 C491.784,2247.247 490.669,2249.271 490.721,2250.447 C490.811,2252.129 491.720,2253.657 493.446,2255.29 L495.161,2256.394 L494.171,2257.638 L477.457,2244.345 C473.377,2241.100 470.494,2238.120 468.809,2235.407 C467.123,2232.694 466.267,2229.698 466.240,2226.419 C466.213,2223.140 467.287,2220.132 469.462,2217.398 C472.422,2213.676 476.57,2211.625 480.366,2211.247 ZM474.910,2235.813 C475.721,2237.830 477.68,2239.588 478.951,2241.86 C480.95,2241.995 481.733,2242.950 483.865,2243.951 L498.950,2224.984 C497.940,2223.815 497.21,2222.809 496.190,2221.965 C495.361,2221.122 494.620,2220.442 493.970,2219.925 C491.638,2218.70 488.909,2217.372 485.780,2217.831 C482.653,2218.289 479.947,2219.953 477.665,2222.823 C476.96,2224.796 475.42,2226.950 474.502,2229.284 C473.963,2231.619 474.99,2233.795 474.910,2235.813 ZM507.14,2264.685 C508.35,2265.32 509.413,2265.277 511.149,2265.417 C512.885,2265.557 515.223,2265.451 518.161,2265.100 C519.8,2265.4 523.84,2264.325 530.389,2263.62 L542.782,2261.91 L537.860,2231.201 C537.65,2226.282 536.31,2222.576 534.756,2220.84 C533.481,2217.591 531.883,2215.547 529.963,2213.949 L530.894,2212.660 L553.366,2228.880 L552.436,2230.169 C551.89,2229.197 549.955,2228.723 549.36,2228.749 C548.117,2228.774 547.456,2229.66 547.54,2229.623 C546.651,2230.181 546.401,2230.759 546.303,2231.360 C546.206,2231.961 546.336,2233.309 546.695,2235.405 L551.357,2263.306 L562.347,2248.81 C564.74,2245.688 565.63,2244.0 565.314,2243.16 C565.501,2242.267 565.374,2241.416 564.932,2240.461 C564.336,2239.183 563.480,2238.141 562.365,2237.336 L560.763,2236.180 L561.693,2234.891 L581.831,2249.426 L580.901,2250.715 L579.228,2249.508 C577.277,2248.100 575.450,2247.646 573.745,2248.147 C572.652,2248.488 571.82,2250.75 569.36,2252.909 L547.7,2283.430 C545.280,2285.822 544.283,2287.522 544.14,2288.530 C543.844,2289.255 543.969,2290.87 544.387,2291.24 C545.7,2292.320 545.873,2293.369 546.988,2294.174 L548.661,2295.381 L547.730,2296.670 L527.592,2282.135 L528.523,2280.846 L530.125,2282.2 C531.217,2282.791 532.467,2283.286 533.874,2283.489 C534.863,2283.638 535.764,2283.440 536.580,2282.899 C537.395,2282.356 538.641,2280.924 540.317,2278.601 L550.754,2264.142 C549.971,2264.248 547.315,2264.575 542.787,2265.122 C531.328,2266.460 524.116,2267.667 521.150,2268.741 C519.853,2269.217 518.952,2269.804 518.449,2270.501 C518.64,2271.35 517.968,2271.681 518.162,2272.440 C518.357,2273.198 519.34,2273.997 520.196,2274.835 L521.276,2275.615 L520.345,2276.904 L502.995,2264.380 L503.925,2263.91 C504.964,2263.806 505.994,2264.337 507.14,2264.685 ZM785.262,2422.443 C787.472,2423.321 789.342,2423.308 790.872,2422.406 C791.876,2421.818 793.23,2419.901 794.314,2416.653 L808.214,2381.673 C809.303,2378.931 809.850,2377.52 809.853,2376.36 C809.851,2375.265 809.520,2374.471 808.858,2373.653 C807.967,2372.559 806.883,2371.758 805.605,2371.250 L803.648,2370.473 L804.235,2368.995 L827.436,2378.215 L826.848,2379.692 L824.932,2378.930 C822.696,2378.42 820.813,2378.49 819.283,2378.951 C818.305,2379.549 817.171,2381.472 815.881,2384.720 L801.980,2419.700 C800.891,2422.441 800.345,2424.321 800.341,2425.337 C800.344,2426.108 800.662,2426.897 801.296,2427.705 C802.214,2428.809 803.311,2429.615 804.589,2430.122 L806.506,2430.884 L805.919,2432.362 L782.719,2423.143 L783.306,2421.665 L785.262,2422.443 ZM851.952,2387.311 L851.423,2388.810 C849.197,2388.146 847.589,2387.988 846.600,2388.339 C845.611,2388.688 844.959,2389.309 844.644,2390.200 C844.225,2391.388 844.103,2393.456 844.277,2396.404 L844.811,2405.478 L866.84,2412.986 L872.872,2405.630 C874.544,2403.820 875.565,2402.389 875.937,2401.335 C876.233,2400.498 876.94,2399.621 875.521,2398.705 C874.949,2397.789 873.372,2396.769 870.791,2395.646 L871.320,2394.147 L888.622,2400.253 L888.610,2400.288 L915.179,2408.98 L914.731,2409.623 C913.137,2409.155 911.910,2409.85 911.52,2409.415 C910.194,2409.745 909.668,2410.240 909.474,2410.900 C909.280,2411.559 909.237,2412.188 909.344,2412.788 C909.452,2413.386 910.24,2414.614 911.60,2416.472 L924.743,2441.230 L930.38,2423.215 C930.871,2420.384 931.241,2418.463 931.151,2417.451 C931.78,2416.683 930.675,2415.922 929.940,2415.169 C928.953,2414.162 927.799,2413.465 926.480,2413.77 L924.583,2412.519 L925.32,2410.994 L948.859,2417.998 L948.411,2419.524 L946.432,2418.942 C944.124,2418.263 942.250,2418.444 940.809,2419.484 C939.891,2420.169 938.939,2422.188 937.954,2425.541 L927.338,2461.654 C926.506,2464.485 926.132,2466.420 926.214,2467.459 C926.295,2468.200 926.689,2468.943 927.395,2469.688 C928.411,2470.703 929.578,2471.404 930.897,2471.792 L932.876,2472.374 L932.428,2473.899 L908.600,2466.895 L909.48,2465.370 L910.944,2465.927 C912.237,2466.307 913.580,2466.358 914.975,2466.81 C915.956,2465.892 916.741,2465.406 917.329,2464.624 C917.917,2463.841 918.615,2462.75 919.423,2459.328 L924.452,2442.219 C923.749,2442.580 921.353,2443.772 917.265,2445.795 C906.906,2450.871 900.507,2454.409 898.67,2456.409 C897.2,2457.290 896.348,2458.143 896.106,2458.967 C895.920,2459.599 896.45,2460.241 896.481,2460.892 C896.916,2461.542 897.821,2462.70 899.195,2462.473 L900.473,2462.849 L900.25,2464.374 L879.495,2458.340 L879.944,2456.814 C881.161,2457.142 882.309,2457.300 883.387,2457.289 C884.465,2457.277 885.846,2457.49 887.530,2456.603 C889.214,2456.158 891.383,2455.280 894.36,2453.970 C894.803,2453.598 898.421,2451.601 904.889,2447.979 L915.919,2441.995 L901.329,2415.448 C898.942,2411.73 896.733,2407.923 894.702,2405.998 C892.670,2404.72 890.483,2402.675 888.141,2401.807 L888.475,2400.670 L888.93,2401.752 C885.654,2401.347 883.982,2401.350 883.78,2401.759 C881.243,2402.570 878.787,2404.665 875.711,2408.45 L840.424,2446.443 L839.6,2445.943 L836.11,2393.487 C835.768,2389.269 835.212,2386.393 834.342,2384.855 C833.472,2383.318 831.940,2382.86 829.745,2381.160 L830.274,2379.660 L851.952,2387.311 ZM846.370,2434.371 L863.770,2415.541 L844.888,2408.877 L846.370,2434.371 ZM940.622,2474.85 C942.928,2474.666 944.780,2474.409 946.178,2473.314 C947.97,2472.600 947.983,2470.549 948.837,2467.160 L958.37,2430.661 C958.758,2427.799 959.53,2425.865 958.923,2424.858 C958.821,2424.93 958.388,2423.349 957.625,2422.625 C956.599,2421.657 955.419,2421.6 954.85,2420.669 L952.44,2420.155 L952.432,2418.613 L976.640,2424.715 L976.251,2426.257 L974.251,2425.752 C971.918,2425.164 970.53,2425.418 968.654,2426.513 C967.763,2427.233 966.891,2429.288 966.36,2432.677 L956.837,2469.176 C956.116,2472.37 955.821,2473.972 955.950,2474.979 C956.53,2475.743 956.472,2476.485 957.207,2477.202 C958.262,2478.176 959.455,2478.832 960.788,2479.168 L962.788,2479.672 L962.399,2481.213 L938.192,2475.112 L938.580,2473.570 L940.622,2474.85 ZM970.233,2481.715 C972.644,2482.223 974.507,2481.855 975.823,2480.611 C976.630,2479.843 977.369,2477.863 978.43,2474.668 L988.184,2426.612 L989.697,2426.932 L1017.596,2480.774 L1025.4,2445.668 C1025.743,2442.164 1025.826,2439.898 1025.252,2438.870 C1024.436,2437.468 1022.920,2436.533 1020.706,2436.66 L1018.688,2435.640 L1019.16,2434.85 L1038.860,2438.272 L1038.532,2439.828 L1036.556,2439.411 C1034.118,2438.896 1032.240,2439.261 1030.923,2440.506 C1030.118,2441.272 1029.378,2443.253 1028.703,2446.449 L1020.338,2486.95 C1021.584,2488.378 1022.569,2489.918 1023.293,2490.715 C1024.18,2491.512 1025.151,2492.351 1026.692,2493.233 C1027.452,2493.657 1028.659,2494.43 1030.312,2494.392 L1029.984,2495.947 L1014.512,2492.683 L988.681,2442.571 L981.743,2475.448 C981.4,2478.952 980.936,2481.221 981.537,2482.255 C982.325,2483.652 983.841,2484.586 986.83,2485.59 L988.59,2485.476 L987.731,2487.32 L967.887,2482.844 L968.215,2481.289 L970.233,2481.715 ZM1035.606,2494.956 C1037.950,2495.356 1039.776,2494.955 1041.85,2493.755 C1041.946,2492.972 1042.670,2490.858 1043.258,2487.413 L1049.592,2450.309 C1050.88,2447.401 1050.233,2445.449 1050.25,2444.455 C1049.863,2443.701 1049.374,2442.992 1048.556,2442.330 C1047.458,2441.445 1046.231,2440.887 1044.876,2440.655 L1042.800,2440.301 L1043.68,2438.734 L1067.677,2442.935 L1067.409,2444.502 L1065.376,2444.155 C1063.4,2443.750 1061.164,2444.148 1059.854,2445.348 C1059.22,2446.136 1058.312,2448.252 1057.724,2451.697 L1051.390,2488.801 C1050.894,2491.709 1050.750,2493.661 1050.957,2494.656 C1051.119,2495.410 1051.595,2496.116 1052.383,2496.774 C1053.510,2497.664 1054.751,2498.224 1056.106,2498.455 L1058.139,2498.802 L1057.872,2500.370 L1033.263,2496.169 L1033.530,2494.601 L1035.606,2494.956 ZM1141.568,2466.929 C1146.395,2463.222 1152.592,2461.662 1160.160,2462.248 C1160.129,2457.821 1157.558,2455.410 1152.445,2455.14 L1152.568,2453.429 L1177.244,2455.338 L1177.121,2456.924 C1172.9,2456.528 1169.97,2458.515 1168.385,2462.884 C1175.925,2463.468 1181.802,2465.962 1186.15,2470.368 C1190.228,2474.774 1192.110,2479.876 1191.661,2485.674 C1191.182,2491.871 1188.500,2496.641 1183.615,2499.984 C1178.731,2503.327 1172.578,2504.869 1165.156,2504.611 C1165.159,2509.36 1167.730,2511.447 1172.871,2511.845 L1172.749,2513.430 L1148.72,2511.521 L1148.195,2509.936 C1153.308,2510.331 1156.220,2508.344 1156.931,2503.975 C1148.783,2503.86 1142.759,2500.457 1138.859,2496.90 C1134.959,2491.722 1133.224,2486.755 1133.655,2481.185 C1134.104,2475.387 1136.741,2470.635 1141.568,2466.929 ZM1177.173,2498.581 C1180.157,2496.39 1181.920,2491.255 1182.464,2484.229 C1183.335,2472.976 1178.582,2466.647 1168.203,2465.241 L1165.339,2502.255 C1170.245,2502.347 1174.190,2501.122 1177.173,2498.581 ZM1157.113,2501.619 L1159.978,2464.604 C1155.250,2464.439 1151.345,2465.602 1148.265,2468.94 C1145.185,2470.585 1143.367,2475.414 1142.813,2482.583 C1141.940,2493.865 1146.707,2500.210 1157.113,2501.619 ZM1504.998,2434.539 L1487.821,2464.682 L1515.149,2488.768 L1515.434,2490.289 L1472.480,2498.329 L1468.644,2484.141 L1470.249,2483.840 C1470.979,2486.647 1471.864,2488.732 1472.906,2490.97 C1473.949,2491.460 1475.195,2492.357 1476.645,2492.785 C1478.95,2493.213 1480.255,2493.158 1483.127,2492.621 L1502.682,2488.960 L1481.49,2469.841 L1496.512,2442.684 L1474.761,2446.756 C1470.819,2447.494 1467.925,2448.691 1466.78,2450.348 C1464.232,2452.5 1463.165,2454.944 1462.876,2459.166 L1461.200,2459.86 L1460.408,2441.311 L1504.713,2433.18 L1504.998,2434.539 ZM1519.295,2437.417 C1523.379,2430.441 1529.282,2426.36 1537.2,2424.203 C1544.806,2422.349 1552.21,2423.565 1558.647,2427.851 C1565.274,2432.136 1569.633,2438.682 1571.725,2447.490 C1573.862,2456.492 1572.541,2464.564 1567.759,2471.706 C1563.608,2477.903 1557.825,2481.882 1550.411,2483.643 C1543.53,2485.390 1536.14,2484.110 1529.294,2479.802 C1522.574,2475.495 1518.221,2469.161 1516.236,2460.800 C1514.191,2452.188 1515.210,2444.393 1519.295,2437.417 ZM1525.541,2457.397 C1527.845,2467.96 1531.472,2473.875 1536.421,2477.735 C1540.388,2480.796 1545.74,2481.686 1550.481,2480.402 C1555.554,2479.197 1559.176,2476.350 1561.348,2471.859 C1564.55,2466.270 1564.335,2458.961 1562.191,2449.931 C1559.993,2440.677 1556.323,2434.26 1551.181,2429.977 C1547.243,2426.908 1542.780,2425.966 1537.790,2427.151 C1532.468,2428.415 1528.564,2431.535 1526.80,2436.512 C1523.596,2441.489 1523.417,2448.451 1525.541,2457.397 ZM1570.362,2418.854 L1569.934,2417.322 L1593.980,2410.612 L1594.408,2412.143 L1592.421,2412.698 C1590.103,2413.345 1588.609,2414.490 1587.938,2416.135 C1587.522,2417.202 1587.784,2419.419 1588.723,2422.786 L1598.840,2459.41 C1599.633,2461.883 1600.337,2463.709 1600.949,2464.520 C1601.418,2465.132 1602.149,2465.568 1603.143,2465.826 C1604.542,2466.149 1605.903,2466.126 1607.228,2465.757 L1609.214,2465.202 L1609.641,2466.734 L1585.595,2473.444 L1585.168,2471.913 L1587.196,2471.347 C1589.487,2470.707 1590.967,2469.565 1591.638,2467.921 C1592.82,2466.845 1591.833,2464.625 1590.894,2461.259 L1580.777,2425.3 C1579.984,2422.161 1579.281,2420.335 1578.668,2419.525 C1578.200,2418.912 1577.455,2418.480 1576.433,2418.230 C1575.62,2417.899 1573.714,2417.918 1572.390,2418.288 L1570.362,2418.854 ZM1603.513,2411.711 C1601.890,2411.14 1599.925,2410.961 1597.617,2411.553 L1597.130,2410.40 L1619.15,2403.2 L1619.502,2404.516 C1617.328,2405.335 1615.953,2406.183 1615.378,2407.60 C1614.802,2407.937 1614.659,2408.826 1614.948,2409.726 C1615.334,2410.926 1616.489,2412.645 1618.413,2414.886 L1624.332,2421.784 L1645.808,2414.878 L1646.756,2404.914 C1646.991,2402.461 1646.937,2400.703 1646.595,2399.640 C1646.323,2398.794 1645.682,2398.180 1644.671,2397.799 C1643.661,2397.416 1641.789,2397.559 1639.55,2398.228 L1638.568,2396.715 L1656.35,2391.98 L1656.521,2392.611 C1654.335,2393.766 1653.6,2394.780 1652.535,2395.653 C1651.565,2397.410 1650.880,2400.564 1650.478,2405.116 L1645.645,2457.42 L1644.214,2457.502 L1610.68,2417.569 C1607.321,2414.360 1605.136,2412.408 1603.513,2411.711 ZM1643.68,2443.833 L1645.513,2418.313 L1626.451,2424.443 L1643.68,2443.833 ZM1680.334,2383.569 C1677.874,2384.753 1676.398,2385.807 1675.907,2386.730 C1675.416,2387.653 1675.365,2388.623 1675.753,2389.640 C1676.233,2390.898 1677.630,2392.710 1679.944,2395.78 L1705.975,2421.705 L1706.793,2385.289 C1706.884,2381.913 1706.669,2379.542 1706.148,2378.177 C1705.719,2377.53 1705.4,2376.306 1704.5,2375.936 C1703.5,2375.566 1701.337,2375.736 1699.1,2376.444 L1698.434,2374.958 L1715.214,2368.553 L1715.781,2370.39 C1713.843,2371.146 1712.520,2372.417 1711.811,2373.854 C1711.102,2375.289 1710.696,2377.683 1710.595,2381.33 L1709.290,2434.606 L1707.804,2435.173 L1669.797,2396.329 C1667.227,2393.692 1665.271,2392.101 1663.928,2391.555 C1662.586,2391.10 1660.654,2391.172 1658.135,2392.42 L1657.568,2390.557 L1679.767,2382.83 L1680.334,2383.569 ZM1739.536,2359.555 C1737.143,2360.870 1735.726,2362.1 1735.285,2362.949 C1734.844,2363.897 1734.844,2364.869 1735.287,2365.864 C1735.833,2367.94 1737.326,2368.829 1739.762,2371.69 L1767.181,2396.266 L1766.49,2359.859 C1765.959,2356.481 1765.618,2354.126 1765.25,2352.791 C1764.536,2351.691 1763.783,2350.983 1762.765,2350.668 C1761.747,2350.352 1760.91,2350.610 1757.795,2351.442 L1757.150,2349.989 L1773.563,2342.696 L1774.209,2344.149 C1772.333,2345.358 1771.79,2346.699 1770.448,2348.171 C1769.817,2349.642 1769.540,2352.54 1769.618,2355.404 L1771.181,2408.971 L1769.728,2409.617 L1729.697,2372.861 C1726.989,2370.365 1724.951,2368.881 1723.581,2368.409 C1722.211,2367.936 1720.291,2368.201 1717.822,2369.204 L1717.176,2367.751 L1738.891,2358.102 L1739.536,2359.555 ZM1821.703,2320.111 L1819.862,2321.40 C1818.634,2321.659 1817.619,2322.540 1816.817,2323.684 C1816.205,2324.505 1815.958,2325.400 1816.77,2326.367 C1816.196,2327.333 1816.894,2329.83 1818.172,2331.615 L1835.227,2365.411 C1836.892,2368.710 1838.250,2370.575 1839.302,2371.7 C1840.739,2371.565 1842.531,2371.303 1844.680,2370.218 L1846.521,2369.289 L1847.237,2370.709 L1807.150,2390.938 L1800.825,2379.835 L1802.321,2379.80 C1804.239,2381.546 1805.782,2383.125 1806.951,2383.819 C1808.119,2384.513 1809.478,2384.806 1811.28,2384.698 C1812.245,2384.565 1814.144,2383.847 1816.727,2382.544 L1830.997,2375.342 L1820.621,2354.781 L1809.190,2360.550 C1806.223,2362.47 1804.467,2363.494 1803.921,2364.893 C1803.185,2366.740 1803.488,2369.186 1804.832,2372.230 L1803.413,2372.946 L1794.276,2354.840 L1795.695,2354.124 C1797.331,2356.475 1798.509,2357.918 1799.228,2358.454 C1800.140,2359.116 1801.249,2359.438 1802.556,2359.421 C1803.863,2359.403 1805.603,2358.846 1807.777,2357.749 L1819.208,2351.980 L1810.555,2334.833 C1809.393,2332.531 1808.585,2331.183 1808.128,2330.788 C1807.672,2330.392 1807.114,2330.176 1806.454,2330.140 C1805.794,2330.104 1804.749,2330.447 1803.316,2331.170 L1794.493,2335.623 C1791.552,2337.107 1789.520,2338.389 1788.396,2339.469 C1787.273,2340.549 1786.401,2342.0 1785.780,2343.822 C1784.995,2346.207 1784.577,2349.418 1784.528,2353.454 L1782.994,2354.228 L1780.900,2338.921 L1820.987,2318.691 L1821.703,2320.111 ZM2074.679,2140.330 L2075.498,2175.15 L2111.331,2181.569 L2112.358,2182.726 L2079.695,2211.755 L2069.94,2201.574 L2070.314,2200.489 C2072.386,2202.518 2074.220,2203.849 2075.817,2204.481 C2077.413,2205.112 2078.943,2205.238 2080.405,2204.858 C2081.869,2204.477 2083.692,2203.316 2085.876,2201.375 L2100.746,2188.159 L2072.353,2182.926 L2071.606,2151.685 L2055.66,2166.385 C2052.68,2169.49 2050.206,2171.567 2049.477,2173.939 C2048.749,2176.311 2049.349,2179.379 2051.279,2183.146 L2049.801,2183.941 L2039.961,2169.118 L2073.652,2139.174 L2074.679,2140.330 ZM2088.269,2135.365 C2088.309,2127.293 2091.105,2120.544 2096.656,2115.117 C2102.822,2109.89 2109.860,2106.434 2117.773,2107.152 C2125.685,2107.869 2132.565,2111.218 2138.412,2117.199 C2144.740,2123.672 2147.773,2130.922 2147.510,2138.952 C2147.247,2146.980 2144.331,2153.718 2138.759,2159.165 C2133.658,2164.152 2127.122,2166.686 2119.150,2166.768 C2111.178,2166.850 2104.18,2163.645 2097.670,2157.152 C2091.362,2150.700 2088.228,2143.437 2088.269,2135.365 ZM2121.754,2160.918 C2127.511,2162.279 2132.644,2160.757 2137.150,2156.352 C2141.124,2152.466 2142.707,2147.704 2141.899,2142.63 C2141.92,2136.423 2137.624,2130.469 2131.497,2124.201 C2125.769,2118.342 2119.972,2114.666 2114.104,2113.172 C2108.236,2111.677 2103.152,2113.33 2098.850,2117.238 C2094.672,2121.324 2092.961,2126.171 2093.718,2131.781 C2094.475,2137.390 2097.877,2143.288 2103.925,2149.474 C2110.53,2155.742 2115.996,2159.556 2121.754,2160.918 ZM2109.125,2138.381 C2110.582,2138.438 2112.264,2137.536 2114.169,2135.673 L2116.719,2133.180 C2118.542,2131.397 2119.447,2129.772 2119.433,2128.303 C2119.419,2126.834 2118.561,2125.229 2116.859,2123.489 L2118.26,2122.347 L2132.535,2137.187 L2131.367,2138.329 C2129.645,2136.567 2128.55,2135.657 2126.597,2135.601 C2125.139,2135.544 2123.448,2136.456 2121.522,2138.339 L2119.34,2140.772 C2117.211,2142.554 2116.296,2144.180 2116.290,2145.648 C2116.283,2147.117 2117.151,2148.742 2118.893,2150.524 L2117.726,2151.666 L2103.217,2136.826 L2104.384,2135.684 C2106.86,2137.425 2107.667,2138.324 2109.125,2138.381 ZM2162.837,2118.996 L2134.671,2093.383 C2132.22,2090.973 2130.99,2089.767 2128.903,2089.763 C2127.300,2089.737 2125.727,2090.572 2124.185,2092.268 L2122.826,2093.762 L2121.650,2092.693 L2138.301,2074.382 L2139.478,2075.451 L2138.90,2076.977 C2136.413,2078.821 2135.789,2080.614 2136.216,2082.359 C2136.471,2083.441 2137.806,2085.82 2140.222,2087.279 L2169.23,2113.470 L2147.870,2063.859 L2148.824,2062.810 L2200.245,2079.137 L2171.443,2052.946 C2168.793,2050.536 2166.880,2049.319 2165.703,2049.294 C2164.100,2049.269 2162.528,2050.104 2160.986,2051.799 L2159.598,2053.326 L2158.422,2052.256 L2172.67,2037.251 L2173.243,2038.320 L2171.855,2039.847 C2170.198,2041.669 2169.573,2043.463 2169.981,2045.228 C2170.236,2046.311 2171.571,2047.951 2173.987,2050.148 L2202.153,2075.761 C2204.60,2077.496 2205.631,2078.536 2206.864,2078.883 C2207.748,2079.145 2208.759,2079.67 2209.895,2078.648 C2211.30,2078.229 2212.398,2077.140 2213.998,2075.381 L2215.174,2076.451 L2204.73,2088.658 L2156.121,2073.627 L2175.858,2119.685 L2164.758,2131.893 L2163.581,2130.823 L2164.940,2129.329 C2166.617,2127.485 2167.250,2125.681 2166.843,2123.916 C2166.588,2122.832 2165.253,2121.193 2162.837,2118.996 ZM2179.768,2033.151 C2178.28,2033.458 2176.356,2034.492 2174.751,2036.252 L2173.514,2035.253 L2187.955,2017.367 L2189.192,2018.365 C2187.823,2020.243 2187.139,2021.706 2187.139,2022.755 C2187.138,2023.804 2187.506,2024.626 2188.242,2025.219 C2189.222,2026.11 2191.131,2026.815 2193.968,2027.634 L2202.701,2030.156 L2216.872,2012.604 L2212.201,2003.752 C2211.52,2001.572 2210.42,2000.132 2209.173,1999.430 C2208.482,1998.872 2207.609,1998.710 2206.555,1998.945 C2205.500,1999.179 2204.13,2000.326 2202.94,2002.384 L2200.857,2001.386 L2212.382,1987.110 L2213.619,1988.109 C2212.424,1990.273 2211.869,1991.850 2211.954,1992.839 C2212.106,1994.840 2213.263,1997.853 2215.423,2001.880 L2239.859,2047.951 L2238.915,2049.121 L2188.462,2034.454 C2184.405,2033.277 2181.507,2032.843 2179.768,2033.151 ZM2230.460,2038.319 L2218.509,2015.638 L2205.931,2031.217 L2230.460,2038.319 ZM2257.417,2007.103 L2217.630,1978.310 L2218.537,1977.57 L2279.70,1973.446 L2250.4,1952.411 C2247.103,1950.311 2245.66,1949.315 2243.894,1949.421 C2242.281,1949.597 2240.811,1950.602 2239.484,1952.436 L2238.275,1954.106 L2236.987,1953.174 L2248.877,1936.744 L2250.165,1937.676 L2248.981,1939.312 C2247.520,1941.331 2247.90,1943.195 2247.693,1944.904 C2248.66,1945.951 2249.575,1947.433 2252.221,1949.348 L2285.46,1973.103 C2287.639,1972.893 2289.446,1972.618 2290.468,1972.280 C2291.491,1971.941 2292.718,1971.247 2294.150,1970.197 C2294.846,1969.675 2295.690,1968.730 2296.680,1967.361 L2297.968,1968.293 L2288.698,1981.103 L2232.413,1984.341 L2259.634,2004.40 C2262.535,2006.139 2264.580,2007.124 2265.770,2006.995 C2267.366,2006.842 2268.836,2005.837 2270.179,2003.981 L2271.363,2002.345 L2272.651,2003.277 L2260.761,2019.707 L2259.473,2018.775 L2260.682,2017.104 C2262.126,2015.108 2262.547,2013.256 2261.945,2011.547 C2261.572,2010.499 2260.63,2009.18 2257.417,2007.103 ZM2256.628,1931.483 C2254.931,1931.972 2253.377,1933.176 2251.966,1935.95 L2250.631,1934.233 L2263.106,1914.924 L2264.441,1915.786 C2263.278,1917.797 2262.751,1919.324 2262.862,1920.368 C2262.972,1921.411 2263.425,1922.189 2264.219,1922.702 C2265.277,1923.386 2267.260,1923.985 2270.168,1924.500 L2279.118,1926.87 L2291.360,1907.139 L2285.781,1898.829 C2284.409,1896.782 2283.254,1895.456 2282.315,1894.850 C2281.569,1894.368 2280.684,1894.299 2279.661,1894.644 C2278.637,1894.988 2277.279,1896.285 2275.587,1898.535 L2274.251,1897.672 L2284.208,1882.261 L2285.543,1883.123 C2284.583,1885.402 2284.197,1887.28 2284.386,1888.3 C2284.748,1889.976 2286.216,1892.851 2288.789,1896.628 L2317.945,1939.866 L2317.129,1941.130 L2265.411,1931.862 C2261.253,1931.120 2258.325,1930.993 2256.628,1931.483 ZM2307.583,1931.279 L2293.308,1909.984 L2282.442,1926.802 L2307.583,1931.279 ZM2330.907,1896.692 L2298.775,1878.268 C2295.445,1876.358 2293.84,1875.581 2291.690,1875.938 C2290.297,1876.295 2288.653,1878.10 2286.758,1881.85 L2285.379,1880.294 L2297.840,1858.562 L2299.219,1859.353 C2297.537,1862.516 2296.888,1864.786 2297.272,1866.162 C2297.655,1867.537 2299.524,1869.187 2302.879,1871.111 L2341.459,1893.233 L2354.904,1869.787 L2316.323,1847.664 C2312.993,1845.755 2310.635,1844.972 2309.249,1845.317 C2307.863,1845.661 2306.215,1847.382 2304.306,1850.482 L2302.927,1849.691 L2315.410,1827.922 L2316.789,1828.713 C2315.92,1831.901 2314.443,1834.186 2314.839,1835.569 C2315.235,1836.952 2317.97,1838.598 2320.427,1840.507 L2352.559,1858.932 C2355.888,1860.841 2358.250,1861.618 2359.644,1861.261 C2361.37,1860.904 2362.681,1859.189 2364.576,1856.115 L2365.955,1856.905 L2335.924,1909.278 L2334.545,1908.487 C2336.241,1905.298 2336.891,1903.13 2336.495,1901.630 C2336.100,1900.247 2334.236,1898.601 2330.907,1896.692 ZM2397.900,1660.517 C2405.364,1657.798 2413.16,1657.899 2420.853,1660.821 C2429.335,1663.984 2435.166,1669.254 2438.347,1676.631 C2441.527,1684.7 2441.756,1691.346 2439.34,1698.647 C2436.542,1705.330 2431.706,1710.406 2424.528,1713.874 C2417.349,1717.343 2409.506,1717.491 2400.998,1714.318 C2392.543,1711.165 2386.615,1705.928 2383.216,1698.608 C2379.815,1691.286 2379.472,1683.988 2382.184,1676.715 C2385.197,1668.636 2390.435,1663.237 2397.900,1660.517 ZM2386.620,1693.44 C2389.693,1697.797 2395.282,1701.685 2403.389,1704.708 C2411.602,1707.770 2418.603,1708.692 2424.393,1707.473 C2430.182,1706.253 2434.178,1702.691 2436.380,1696.786 C2438.322,1691.579 2437.727,1686.595 2434.594,1681.835 C2431.463,1677.75 2425.790,1673.164 2417.577,1670.101 C2409.900,1667.239 2403.89,1666.380 2397.144,1667.527 C2391.198,1668.672 2387.174,1672.64 2385.73,1677.701 C2383.31,1683.176 2383.547,1688.290 2386.620,1693.44 ZM2403.371,1692.457 C2404.714,1691.887 2405.851,1690.355 2406.782,1687.859 L2408.28,1684.518 C2408.919,1682.128 2409.45,1680.272 2408.408,1678.950 C2407.770,1677.626 2406.310,1676.539 2404.29,1675.689 L2404.599,1674.159 L2424.45,1681.410 L2423.475,1682.940 C2421.166,1682.79 2419.340,1681.933 2417.997,1682.502 C2416.654,1683.71 2415.512,1684.617 2414.571,1687.141 L2413.355,1690.402 C2412.464,1692.790 2412.328,1694.651 2412.948,1695.982 C2413.567,1697.314 2415.45,1698.415 2417.380,1699.286 L2416.809,1700.816 L2397.363,1693.565 L2397.934,1692.35 C2400.215,1692.885 2402.27,1693.26 2403.371,1692.457 ZM2401.542,1639.326 C2400.773,1639.374 2400.0,1639.753 2399.223,1640.463 C2398.185,1641.418 2397.451,1642.549 2397.21,1643.855 L2396.363,1645.855 L2394.853,1645.358 L2402.657,1621.644 L2404.167,1622.141 L2403.522,1624.100 C2402.770,1626.386 2402.891,1628.265 2403.884,1629.738 C2404.539,1630.677 2406.527,1631.693 2409.847,1632.786 L2445.601,1644.552 C2448.404,1645.474 2450.312,1645.906 2451.327,1645.848 C2452.96,1645.799 2452.865,1645.434 2453.633,1644.752 C2454.680,1643.769 2455.418,1642.626 2455.848,1641.320 L2456.493,1639.361 L2458.3,1639.858 L2450.199,1663.571 L2448.689,1663.74 L2449.347,1661.74 C2450.90,1658.815 2449.965,1656.950 2448.972,1655.477 C2448.325,1654.510 2446.342,1653.481 2443.22,1652.389 L2407.268,1640.622 C2404.465,1639.700 2402.557,1639.268 2401.542,1639.326 ZM2405.373,1610.249 L2405.799,1608.762 L2461.483,1584.750 L2426.991,1574.872 C2423.548,1573.886 2421.294,1573.643 2420.228,1574.142 C2418.771,1574.857 2417.731,1576.303 2417.108,1578.478 L2416.541,1580.461 L2415.12,1580.23 L2420.596,1560.526 L2422.124,1560.964 L2421.568,1562.905 C2420.882,1565.301 2421.113,1567.200 2422.261,1568.601 C2422.969,1569.459 2424.893,1570.338 2428.32,1571.237 L2466.986,1582.392 C2469.351,1581.311 2470.957,1580.438 2471.803,1579.772 C2472.650,1579.105 2473.567,1578.34 2474.556,1576.559 C2475.32,1575.831 2475.503,1574.655 2475.969,1573.31 L2477.497,1573.469 L2473.144,1588.670 L2421.327,1610.884 L2453.630,1620.135 C2457.72,1621.121 2459.330,1621.350 2460.405,1620.823 C2461.853,1620.135 2462.893,1618.690 2463.524,1616.487 L2464.80,1614.546 L2465.608,1614.983 L2460.25,1634.481 L2458.497,1634.43 L2459.64,1632.60 C2459.743,1629.692 2459.507,1627.807 2458.359,1626.406 C2457.651,1625.547 2455.728,1624.669 2452.589,1623.770 L2405.373,1610.249 ZM2425.739,1552.928 C2424.539,1553.740 2423.599,1555.435 2422.920,1558.13 L2421.370,1557.657 L2426.682,1534.497 L2428.232,1534.852 C2427.847,1537.556 2427.902,1539.368 2428.395,1540.290 C2428.889,1541.211 2429.666,1541.794 2430.728,1542.37 C2432.40,1542.338 2434.323,1542.185 2437.578,1541.580 L2474.187,1534.768 L2444.384,1513.825 C2441.629,1511.871 2439.539,1510.730 2438.115,1510.404 C2436.943,1510.135 2435.924,1510.313 2435.61,1510.938 C2434.197,1511.562 2433.410,1513.42 2432.698,1515.377 L2431.149,1515.22 L2435.164,1497.516 L2436.714,1497.871 C2436.555,1500.98 2436.875,1501.905 2437.674,1503.293 C2438.472,1504.681 2440.235,1506.350 2442.963,1508.298 L2486.750,1539.192 L2486.395,1540.742 L2432.971,1550.707 C2429.350,1551.376 2426.939,1552.116 2425.739,1552.928 ZM2484.175,1494.826 L2447.187,1487.848 C2444.287,1487.301 2442.339,1487.123 2441.341,1487.314 C2440.584,1487.462 2439.867,1487.939 2439.191,1488.745 C2438.287,1489.828 2437.707,1491.45 2437.452,1492.396 L2437.62,1494.465 L2435.500,1494.170 L2440.127,1469.638 L2441.690,1469.933 L2441.307,1471.960 C2440.861,1474.324 2441.227,1476.171 2442.405,1477.501 C2443.178,1478.347 2445.281,1479.93 2448.716,1479.741 L2485.704,1486.718 C2488.603,1487.265 2490.552,1487.443 2491.550,1487.253 C2492.307,1487.104 2493.21,1486.641 2493.693,1485.864 C2494.602,1484.753 2495.184,1483.522 2495.439,1482.171 L2495.821,1480.144 L2497.383,1480.439 L2492.756,1504.971 L2491.193,1504.676 L2491.584,1502.607 C2492.25,1500.270 2491.656,1498.437 2490.478,1497.108 C2489.710,1496.234 2487.609,1495.473 2484.175,1494.826 ZM2492.258,1469.217 C2489.422,1470.865 2486.278,1471.421 2482.824,1470.886 C2478.125,1470.158 2474.544,1468.16 2472.80,1464.460 C2469.616,1460.904 2468.823,1456.296 2469.700,1450.634 C2469.915,1449.247 2470.246,1447.762 2470.695,1446.179 C2471.142,1444.596 2471.707,1442.915 2472.389,1441.137 L2455.616,1438.539 C2451.993,1437.977 2449.681,1438.24 2448.681,1438.681 C2447.268,1439.564 2446.394,1441.95 2446.56,1443.275 L2445.714,1445.483 L2444.143,1445.240 L2447.965,1420.569 L2449.536,1420.812 L2449.201,1422.978 C2448.823,1425.412 2449.346,1427.276 2450.769,1428.569 C2451.559,1429.271 2453.595,1429.877 2456.880,1430.386 L2494.76,1436.149 C2497.700,1436.710 2500.9,1436.677 2501.6,1436.48 C2502.422,1435.137 2503.299,1433.592 2503.637,1431.412 L2503.973,1429.247 L2505.544,1429.490 L2502.274,1450.594 C2501.476,1455.746 2500.316,1459.726 2498.793,1462.534 C2497.271,1465.341 2495.92,1467.569 2492.258,1469.217 ZM2498.703,1450.910 C2498.927,1449.466 2498.945,1447.570 2498.758,1445.223 L2474.809,1441.512 C2474.294,1442.968 2473.875,1444.266 2473.554,1445.405 C2473.232,1446.543 2473.9,1447.523 2472.881,1448.344 C2472.425,1451.288 2473.171,1454.5 2475.118,1456.496 C2477.66,1458.986 2479.851,1460.512 2483.475,1461.73 C2485.966,1461.459 2488.359,1461.308 2490.655,1460.621 C2492.949,1459.933 2494.773,1458.736 2496.124,1457.33 C2497.475,1455.329 2498.334,1453.288 2498.703,1450.910 ZM2493.19,1420.155 C2495.764,1420.349 2498.22,1420.11 2499.792,1419.145 C2501.561,1418.277 2502.752,1417.106 2503.365,1415.634 C2503.978,1414.160 2504.446,1411.986 2504.770,1409.111 L2506.597,1392.886 L2462.403,1387.910 C2458.589,1387.480 2456.114,1387.699 2454.979,1388.565 C2453.843,1389.432 2453.18,1391.637 2452.504,1395.183 L2450.924,1395.6 L2453.722,1370.155 L2455.302,1370.333 C2455.12,1373.932 2455.323,1376.287 2456.236,1377.400 C2457.149,1378.511 2459.512,1379.282 2463.326,1379.711 L2500.133,1383.856 C2503.947,1384.285 2506.423,1384.59 2507.560,1383.179 C2508.697,1382.297 2509.524,1380.70 2510.42,1376.497 L2511.622,1376.674 L2506.391,1423.131 L2492.831,1421.820 L2493.19,1420.155 ZM2458.11,1362.264 C2456.767,1363.518 2455.997,1365.326 2455.700,1367.690 L2454.113,1367.587 L2455.600,1344.647 L2457.186,1344.750 C2457.150,1347.73 2457.435,1348.663 2458.40,1349.520 C2458.645,1350.377 2459.419,1350.837 2460.362,1350.898 C2461.620,1350.979 2463.643,1350.536 2466.433,1349.569 L2475.22,1346.595 L2476.481,1324.83 L2467.561,1319.544 C2465.365,1318.425 2463.710,1317.830 2462.595,1317.758 C2461.709,1317.701 2460.903,1318.71 2460.177,1318.872 C2459.450,1319.671 2458.896,1321.465 2458.515,1324.254 L2456.928,1324.151 L2458.114,1305.842 L2459.701,1305.945 C2459.972,1308.402 2460.428,1310.10 2461.68,1310.769 C2462.345,1312.316 2465.28,1314.112 2469.115,1316.157 L2515.643,1339.711 L2515.545,1341.211 L2465.867,1358.316 C2461.873,1359.694 2459.255,1361.9 2458.11,1362.264 ZM2502.410,1337.260 L2479.568,1325.618 L2478.273,1345.600 L2502.410,1337.260 Z"/>
</svg>