<svg 
 xmlns="http://www.w3.org/2000/svg"
 xmlns:xlink="http://www.w3.org/1999/xlink"
 width="472px" height="465px">
<path fill-rule="evenodd"  fill="rgb(17, 7, 8)"
 d="M470.191,190.965 C468.641,195.127 466.175,198.631 462.791,201.477 C459.408,204.323 455.493,206.128 451.47,206.891 C446.599,207.655 442.295,207.262 438.133,205.712 C433.969,204.163 430.464,201.684 427.614,198.277 C424.764,194.870 422.958,190.943 422.194,186.497 C421.715,183.705 421.721,180.904 422.212,178.93 C422.389,177.136 422.940,176.591 423.867,176.457 C424.793,176.322 425.476,176.679 425.914,177.530 C427.992,181.410 431.55,184.354 435.102,186.362 C439.147,188.370 443.417,188.988 447.912,188.216 C452.358,187.453 456.135,185.477 459.240,182.289 C462.345,179.101 464.254,175.328 464.967,170.969 C465.104,170.68 465.645,169.537 466.593,169.374 C467.538,169.212 468.227,169.532 468.657,170.335 C470.2,172.782 470.907,175.354 471.370,178.51 C472.134,182.497 471.741,186.802 470.191,190.965 ZM467.467,178.721 C467.394,178.296 467.301,177.897 467.189,177.527 C465.550,181.315 463.94,184.524 459.821,187.157 C456.547,189.789 452.805,191.467 448.595,192.190 C444.289,192.930 440.139,192.583 436.143,191.151 C432.146,189.719 428.740,187.466 425.924,184.395 C426.5,184.867 426.86,185.341 426.168,185.814 C427.151,191.538 429.998,196.66 434.710,199.396 C439.421,202.726 444.627,203.903 450.329,202.924 C456.29,201.945 460.556,199.96 463.911,194.381 C467.265,189.665 468.450,184.445 467.467,178.721 ZM437.384,138.608 C436.424,139.50 435.499,139.105 434.608,138.776 C433.652,138.424 432.964,137.790 432.542,136.874 C432.121,135.959 432.86,135.23 432.439,134.68 C432.767,133.176 433.412,132.510 434.371,132.68 C435.243,131.666 436.157,131.642 437.112,131.995 C438.67,132.347 438.745,132.959 439.147,133.832 C439.569,134.747 439.614,135.650 439.286,136.542 C438.933,137.497 438.299,138.186 437.384,138.608 ZM418.539,108.763 C414.988,111.739 410.965,113.607 406.469,114.368 C401.972,115.130 397.576,114.742 393.283,113.205 C388.989,111.668 385.354,109.124 382.380,105.574 C379.404,102.23 377.536,98.0 376.774,93.503 C376.12,89.6 376.407,84.620 377.960,80.345 C379.512,76.70 382.64,72.445 385.615,69.470 C389.165,66.495 393.181,64.617 397.663,63.837 C402.143,63.56 406.522,63.443 410.798,64.995 C415.72,66.548 418.698,69.99 421.673,72.650 C424.648,76.200 426.525,80.216 427.306,84.697 C428.86,89.178 427.707,93.567 426.171,97.860 C424.633,102.154 422.89,105.789 418.539,108.763 ZM400.55,110.302 C405.74,110.761 409.682,109.609 413.879,106.844 L401.578,92.165 L387.119,104.280 C390.723,107.835 395.35,109.842 400.55,110.302 ZM380.855,87.219 C380.417,92.189 381.564,96.754 384.298,100.913 L398.758,88.798 L386.688,74.394 C383.238,77.974 381.294,82.249 380.855,87.219 ZM403.772,67.877 C398.730,67.466 394.143,68.680 390.9,71.518 L402.124,85.977 L416.749,73.723 C413.137,70.236 408.812,68.287 403.772,67.877 ZM419.625,77.43 L405.0,89.297 L417.300,103.977 C420.824,100.335 422.801,95.987 423.230,90.931 C423.658,85.875 422.456,81.246 419.625,77.43 ZM378.227,397.833 C380.527,401.85 381.340,404.684 380.664,408.633 C380.446,409.903 380.86,411.99 379.584,412.218 C380.327,412.104 381.98,412.30 381.895,411.995 C383.559,411.934 385.193,412.43 386.799,412.318 C387.306,412.370 387.788,412.470 388.245,412.618 L387.308,416.280 C386.986,416.155 386.636,416.78 386.263,416.49 C381.646,415.258 377.869,415.902 374.930,417.981 C373.636,418.896 372.529,420.135 371.607,421.699 C370.684,423.262 370.68,424.552 369.756,425.566 C369.445,426.580 369.209,427.554 369.48,428.492 C369.3,428.759 368.976,429.13 368.969,429.253 L365.205,428.918 C365.235,428.544 365.283,428.157 365.352,427.756 C365.611,426.43 366.90,424.352 366.790,422.682 C367.89,421.940 367.415,421.238 367.770,420.577 C366.509,420.705 365.242,420.659 363.971,420.442 C360.23,419.765 356.899,417.802 354.598,414.550 C352.463,411.531 351.603,408.216 352.15,404.603 C352.427,400.988 353.959,397.979 356.609,395.576 L351.453,388.287 L342.577,394.566 L340.415,391.510 L349.290,385.231 L343.11,376.355 L346.68,374.193 L352.347,383.68 L361.222,376.789 L363.385,379.846 L354.509,386.125 L359.665,393.413 C362.776,391.742 366.113,391.306 369.677,392.107 C373.242,392.906 376.92,394.815 378.227,397.833 ZM368.209,395.703 C365.299,395.205 362.648,395.801 360.258,397.492 C357.868,399.183 356.423,401.484 355.925,404.394 C355.426,407.305 356.22,409.955 357.713,412.345 C359.404,414.735 361.705,416.180 364.615,416.679 C367.526,417.177 370.177,416.581 372.567,414.890 C374.957,413.199 376.401,410.898 376.900,407.988 C377.399,405.77 376.802,402.427 375.111,400.37 C373.420,397.646 371.120,396.202 368.209,395.703 ZM356.921,47.101 C355.926,47.317 355.4,47.152 354.157,46.606 C353.309,46.61 352.778,45.290 352.562,44.295 C352.360,43.366 352.546,42.458 353.117,41.570 C353.637,40.763 354.395,40.251 355.390,40.36 C356.385,39.820 357.285,39.972 358.93,40.492 C358.941,41.37 359.464,41.775 359.666,42.703 C359.882,43.698 359.717,44.620 359.171,45.467 C358.600,46.356 357.849,46.900 356.921,47.101 ZM346.844,62.621 C345.849,62.837 344.947,62.684 344.141,62.165 C343.333,61.645 342.822,60.888 342.606,59.893 C342.391,58.898 342.542,57.997 343.62,57.189 C343.608,56.342 344.378,55.810 345.373,55.594 C346.369,55.379 347.269,55.530 348.77,56.51 C348.884,56.570 349.395,57.328 349.611,58.323 C349.827,59.318 349.662,60.239 349.116,61.87 C348.596,61.895 347.839,62.405 346.844,62.621 ZM321.190,20.916 L326.188,14.49 L308.330,23.298 C309.835,27.409 309.806,31.470 308.245,35.481 C306.682,39.491 304.0,42.475 300.198,44.432 C296.33,46.576 291.711,46.930 287.231,45.494 C282.751,44.59 279.440,41.259 277.297,37.95 C275.153,32.930 274.799,28.609 276.234,24.128 C277.670,19.649 280.470,16.337 284.634,14.193 C288.437,12.236 292.423,11.788 296.595,12.847 C300.766,13.907 304.89,16.243 306.560,19.857 L324.576,10.584 L315.878,10.595 L315.902,6.746 L336.394,6.735 L324.314,23.202 L321.190,20.916 ZM304.50,23.325 C302.387,20.96 299.831,17.928 296.380,16.823 C292.928,15.717 289.588,15.995 286.360,17.657 C283.130,19.319 280.963,21.876 279.858,25.327 C278.751,28.779 279.33,32.107 280.703,35.313 C282.371,38.520 284.932,40.675 288.384,41.781 C291.834,42.886 295.171,42.620 298.393,40.981 C301.614,39.342 303.778,36.797 304.884,33.345 C305.990,29.894 305.711,26.554 304.50,23.325 ZM248.802,461.142 C244.830,463.357 240.528,464.428 235.896,464.353 C231.265,464.278 227.0,463.68 223.101,460.725 C219.203,458.381 216.134,455.223 213.894,451.251 C211.654,447.277 210.571,442.975 210.646,438.344 C210.722,433.712 211.943,429.447 214.310,425.550 C216.678,421.652 219.849,418.583 223.821,416.343 C227.794,414.103 232.96,413.21 236.727,413.96 C241.359,413.171 245.624,414.392 249.522,416.760 C253.420,419.127 256.477,422.297 258.693,426.270 C260.909,430.241 261.979,434.543 261.904,439.176 C261.829,443.806 260.620,448.71 258.276,451.970 C255.933,455.868 252.775,458.926 248.802,461.142 ZM251.601,423.958 C247.518,419.739 242.536,417.583 236.656,417.487 C230.778,417.392 225.728,419.386 221.509,423.470 C217.291,427.554 215.133,432.536 215.38,438.416 C214.943,444.294 216.938,449.343 221.21,453.562 C225.106,457.781 230.88,459.938 235.966,460.34 C241.846,460.129 246.895,458.134 251.113,454.51 C255.332,449.966 257.489,444.984 257.584,439.105 C257.680,433.226 255.686,428.177 251.601,423.958 ZM236.76,444.409 C234.516,444.384 233.217,443.834 232.178,442.762 C231.140,441.689 230.632,440.372 230.658,438.813 C230.683,437.253 231.233,435.942 232.306,434.879 C233.379,433.816 234.696,433.298 236.255,433.323 C237.815,433.348 239.126,433.909 240.188,435.7 C241.251,436.104 241.769,437.432 241.744,438.993 C241.719,440.552 241.158,441.851 240.61,442.890 C238.964,443.927 237.636,444.435 236.76,444.409 ZM239.575,23.979 C240.534,23.995 241.369,24.369 242.77,25.100 C242.785,25.832 243.131,26.701 243.115,27.709 C243.99,28.670 242.726,29.503 241.994,30.211 C241.262,30.920 240.416,31.266 239.457,31.250 C238.496,31.235 237.663,30.861 236.955,30.130 C236.246,29.398 235.900,28.553 235.916,27.593 C235.932,26.585 236.306,25.727 237.37,25.18 C237.769,24.310 238.614,23.964 239.575,23.979 ZM239.757,12.749 C238.749,12.733 237.891,12.359 237.183,11.627 C236.521,10.944 236.200,10.75 236.217,9.19 C236.232,8.59 236.606,7.225 237.338,6.517 C238.69,5.809 238.914,5.462 239.875,5.478 C240.883,5.494 241.716,5.844 242.378,6.526 C243.86,7.258 243.432,8.128 243.416,9.136 C243.399,10.192 243.48,11.50 242.366,11.711 C241.634,12.419 240.765,12.765 239.757,12.749 ZM192.898,49.224 L188.893,50.404 L184.133,34.243 L163.965,40.182 L161.684,37.26 C163.105,35.57 164.286,32.608 165.225,29.679 C166.588,25.475 166.755,21.622 165.724,18.123 C164.870,15.222 163.306,12.631 161.32,10.348 C158.758,8.65 156.333,6.203 153.757,4.759 C153.56,4.416 152.443,4.121 151.920,3.874 L153.491,0.34 C154.180,0.332 154.911,0.692 155.686,1.114 C157.772,2.252 159.715,3.580 161.514,5.102 C165.690,8.576 168.428,12.523 169.730,16.943 C171.5,21.271 170.832,25.951 169.211,30.981 C168.819,32.198 168.327,33.419 167.738,34.643 L182.932,30.168 L178.172,14.6 L182.178,12.826 L186.938,28.988 L200.959,24.859 L202.159,28.933 L188.138,33.63 L192.898,49.224 ZM144.598,405.558 L133.371,398.526 L127.332,408.167 C130.642,410.749 132.687,414.154 133.466,418.381 C134.246,422.607 133.476,426.571 131.157,430.273 L131.43,430.456 L127.870,428.468 L127.984,428.285 C129.895,425.234 130.445,421.939 129.631,418.400 C128.819,414.860 126.876,412.129 123.804,410.205 C120.733,408.281 117.439,407.732 113.919,408.558 C110.400,409.384 107.684,411.323 105.774,414.374 L105.659,414.557 L102.486,412.569 L102.601,412.386 C104.919,408.684 108.150,406.262 112.292,405.119 C116.436,403.976 120.391,404.329 124.159,406.179 L130.198,396.538 L118.909,389.468 L120.897,386.295 L132.185,393.365 L139.217,382.138 L142.390,384.125 L135.358,395.353 L146.586,402.385 L144.598,405.558 ZM134.481,61.574 C133.671,62.90 132.770,62.238 131.775,62.17 C130.781,61.797 130.27,61.283 129.510,60.473 C128.968,59.623 128.808,58.701 129.28,57.707 C129.248,56.712 129.762,55.958 130.572,55.441 C131.381,54.926 132.284,54.777 133.278,54.998 C134.272,55.218 135.40,55.753 135.582,56.603 C136.98,57.413 136.246,58.314 136.26,59.308 C135.805,60.302 135.290,61.58 134.481,61.574 ZM124.535,45.970 C123.685,46.512 122.763,46.672 121.769,46.452 C120.841,46.248 120.93,45.699 119.526,44.808 C119.10,43.999 118.862,43.97 119.82,42.103 C119.302,41.109 119.816,40.354 120.626,39.838 C121.476,39.296 122.365,39.128 123.293,39.333 C124.287,39.553 125.55,40.88 125.597,40.938 C126.165,41.829 126.346,42.739 126.140,43.666 C125.920,44.660 125.385,45.428 124.535,45.970 ZM94.683,116.752 L94.454,117.30 L91.231,114.375 L91.460,114.97 C93.321,111.838 94.645,109.399 95.433,106.783 C96.220,104.166 96.492,101.608 96.251,99.108 C95.879,95.257 94.507,92.355 92.136,90.401 C89.617,88.326 86.967,87.636 84.187,88.331 C81.407,89.26 78.887,90.744 76.629,93.486 L75.255,95.153 L64.196,86.43 L56.231,95.713 L52.952,93.13 L60.917,83.343 L51.247,75.378 L53.948,72.99 L63.618,80.64 L71.583,70.394 L74.862,73.95 L66.897,82.765 L74.844,89.311 C77.839,86.430 81.125,84.706 84.702,84.138 C88.279,83.572 91.642,84.584 94.791,87.178 C98.51,89.864 99.923,93.707 100.406,98.706 C100.700,101.747 100.369,104.848 99.413,108.9 C98.456,111.171 96.880,114.85 94.683,116.752 ZM54.733,193.574 C56.509,195.848 57.206,198.411 56.822,201.266 C56.438,204.120 55.88,206.408 52.774,208.131 C50.460,209.854 47.876,210.524 45.21,210.140 C42.453,209.794 40.313,208.683 38.604,206.806 C36.895,204.931 35.960,202.794 35.798,200.399 L22.383,198.594 L21.768,203.161 C25.251,203.920 28.556,205.625 31.687,208.273 C33.472,209.773 35.67,211.416 36.473,213.203 C36.796,213.683 37.77,214.109 37.318,214.479 L34.128,216.593 C33.929,216.276 33.705,215.955 33.458,215.631 C32.875,214.924 32.223,214.193 31.500,213.442 C30.778,212.692 29.821,211.800 28.627,210.767 C27.435,209.735 26.51,208.859 24.477,208.139 C22.903,207.418 21.284,206.946 19.618,206.722 C17.811,206.479 15.976,206.523 14.115,206.854 C12.255,207.185 10.574,207.710 9.73,208.427 C7.572,209.146 6.374,209.772 5.478,210.305 C4.583,210.838 3.812,211.352 3.164,211.846 C2.949,212.11 2.733,212.176 2.516,212.340 L0.1,209.459 C0.275,209.206 0.574,208.955 0.898,208.708 C2.788,207.268 4.868,206.22 7.140,204.971 C10.847,203.339 14.460,202.590 17.977,202.724 L18.601,198.85 L3.187,196.12 L3.706,192.159 L19.119,194.232 L19.733,189.665 C16.258,188.860 12.952,187.155 9.814,184.553 C8.31,183.54 6.439,181.387 5.39,179.552 C4.709,179.120 4.424,178.719 4.183,178.347 L7.374,176.234 C7.580,176.504 7.806,176.800 8.53,177.124 C8.630,177.880 9.279,178.633 10.1,179.384 C10.724,180.135 11.683,181.16 12.879,182.23 C14.76,183.32 15.459,183.908 17.30,184.652 C18.600,185.397 20.219,185.880 21.883,186.104 C23.692,186.348 25.514,186.302 27.350,185.968 C29.188,185.634 30.869,185.110 32.393,184.394 C33.918,183.680 35.129,183.55 36.23,182.521 C36.919,181.988 37.693,181.451 38.347,180.909 C38.557,180.792 38.773,180.628 38.995,180.415 L41.503,183.368 C41.227,183.621 40.927,183.871 40.603,184.118 C38.714,185.560 36.613,186.778 34.299,187.775 C30.641,189.414 27.49,190.190 23.525,190.103 L22.901,194.741 L36.316,196.546 C37.106,194.279 38.572,192.466 40.716,191.108 C42.860,189.750 45.217,189.243 47.786,189.589 C50.640,189.973 52.955,191.301 54.733,193.574 ZM51.687,195.962 C50.549,194.526 49.64,193.684 47.232,193.437 C45.401,193.191 43.746,193.611 42.268,194.695 C40.791,195.780 39.931,197.214 39.691,198.998 C39.451,200.781 39.903,202.380 41.44,203.793 C42.187,205.206 43.673,206.35 45.504,206.281 C47.336,206.528 48.989,206.121 50.463,205.60 C51.937,203.999 52.795,202.577 53.35,200.793 C53.275,199.9 52.825,197.399 51.687,195.962 ZM43.565,137.726 C42.672,138.52 41.747,137.991 40.789,137.545 C39.920,137.140 39.310,136.458 38.961,135.502 C38.613,134.545 38.641,133.632 39.47,132.761 C39.473,131.848 40.132,131.229 41.25,130.903 C41.982,130.554 42.917,130.593 43.831,131.19 C44.788,131.465 45.429,132.135 45.754,133.27 C46.103,133.984 46.64,134.919 45.638,135.833 C45.213,136.747 44.521,137.378 43.565,137.726 ZM21.831,308.428 L23.200,311.364 L22.173,313.591 L14.866,313.425 L19.465,307.784 L21.831,308.428 ZM24.432,258.114 C23.480,258.240 22.600,257.994 21.791,257.375 C20.983,256.756 20.515,255.972 20.389,255.19 C20.256,254.20 20.479,253.144 21.56,252.389 C21.675,251.580 22.484,251.109 23.483,250.976 C24.530,250.837 25.431,251.57 26.185,251.634 C26.994,252.253 27.464,253.62 27.597,254.61 C27.730,255.60 27.487,255.964 26.868,256.773 C26.291,257.528 25.479,257.974 24.432,258.114 ZM42.846,255.666 C41.846,255.799 40.942,255.556 40.134,254.937 C39.325,254.318 38.858,253.534 38.731,252.581 C38.605,251.630 38.851,250.749 39.470,249.941 C40.89,249.132 40.898,248.662 41.897,248.529 C42.849,248.402 43.729,248.648 44.537,249.267 C45.346,249.886 45.813,250.672 45.940,251.623 C46.66,252.575 45.820,253.455 45.201,254.263 C44.582,255.72 43.798,255.539 42.846,255.666 ZM60.367,145.477 C59.411,145.825 58.498,145.797 57.627,145.391 C56.713,144.965 56.82,144.274 55.734,143.317 C55.385,142.361 55.413,141.448 55.819,140.577 C56.225,139.707 56.906,139.98 57.863,138.749 C58.819,138.401 59.755,138.439 60.668,138.865 C61.539,139.271 62.148,139.952 62.496,140.908 C62.845,141.865 62.816,142.779 62.411,143.649 C62.5,144.519 61.324,145.128 60.367,145.477 ZM28.565,327.294 L21.288,327.193 L25.887,321.552 L28.253,322.196 L28.924,323.634 L29.592,325.67 L28.565,327.294 ZM28.253,322.196 L28.131,321.935 L41.312,315.787 C39.22,312.354 35.527,309.800 30.826,308.125 L23.322,311.625 L21.739,308.232 L29.635,304.550 C29.745,304.446 29.844,304.373 29.931,304.332 C30.322,304.150 30.742,304.140 31.188,304.302 C31.487,304.375 31.860,304.492 32.305,304.655 C34.263,305.331 36.118,306.240 37.868,307.383 C40.823,309.289 43.124,311.553 44.770,314.174 L54.427,309.669 L48.735,297.468 L52.129,295.885 L57.820,308.87 L70.22,302.395 L71.605,305.788 L59.403,311.480 L65.94,323.682 L61.701,325.264 L56.10,313.62 L46.418,317.537 C48.9,322.197 47.805,327.324 45.806,332.917 C45.597,333.491 45.392,333.958 45.188,334.317 C45.6,334.720 44.718,335.13 44.327,335.196 C44.240,335.236 44.154,335.277 44.66,335.318 L36.105,339.31 L35.983,338.770 L35.984,338.770 L35.165,337.15 L34.523,335.638 L42.26,332.138 C42.116,331.990 42.185,331.853 42.231,331.724 C43.882,327.89 44.125,322.896 42.960,319.150 L29.714,325.328 L28.924,323.634 L28.253,322.196 L28.253,322.196 ZM34.957,340.997 L27.680,340.895 L32.248,335.189 L34.614,335.833 L35.165,337.15 L35.983,338.770 L34.957,340.997 ZM73.588,362.135 C74.603,362.219 75.436,362.646 76.88,363.415 C76.739,364.185 77.23,365.76 76.939,366.91 C76.861,367.39 76.418,367.853 75.612,368.535 C74.880,369.156 74.6,369.424 72.991,369.340 C71.976,369.256 71.159,368.848 70.538,368.115 C69.887,367.345 69.601,366.488 69.679,365.540 C69.763,364.525 70.190,363.692 70.959,363.41 C71.765,362.358 72.642,362.57 73.588,362.135 ZM87.756,350.232 C88.771,350.316 89.589,350.725 90.209,351.457 C90.830,352.190 91.97,353.63 91.13,354.78 C90.929,355.93 90.521,355.910 89.788,356.531 C89.19,357.182 88.127,357.466 87.112,357.382 C86.97,357.298 85.280,356.890 84.659,356.156 C84.39,355.424 83.771,354.550 83.855,353.536 C83.939,352.521 84.366,351.688 85.135,351.36 C85.868,350.416 86.741,350.148 87.756,350.232 ZM114.633,411.894 C117.160,411.296 119.521,411.685 121.718,413.61 C123.915,414.437 125.296,416.392 125.860,418.927 C126.426,421.461 126.26,423.816 124.663,425.993 C123.300,428.168 121.362,429.546 118.847,430.124 C116.334,430.701 113.978,430.302 111.781,428.926 C109.584,427.550 108.198,425.605 107.620,423.91 C107.43,420.577 107.435,418.231 108.798,416.56 C110.161,413.879 112.107,412.492 114.633,411.894 ZM111.272,422.278 C111.635,423.780 112.467,424.938 113.769,425.753 C115.71,426.569 116.476,426.812 117.984,426.482 C119.494,426.153 120.662,425.327 121.490,424.5 C122.318,422.683 122.558,421.261 122.208,419.739 C121.859,418.218 121.33,417.50 119.731,416.234 C118.429,415.419 117.18,415.186 115.496,415.536 C113.974,415.885 112.799,416.721 111.971,418.43 C111.143,419.364 110.910,420.777 111.272,422.278 ZM162.57,425.868 C162.982,425.443 163.917,425.405 164.863,425.754 C165.808,426.104 166.494,426.741 166.920,427.666 C167.318,428.529 167.333,429.456 166.966,430.446 C166.634,431.346 166.5,432.10 165.80,432.436 C164.155,432.861 163.243,432.908 162.341,432.575 C161.396,432.225 160.725,431.619 160.327,430.756 C159.901,429.831 159.863,428.895 160.213,427.950 C160.579,426.959 161.194,426.265 162.57,425.868 ZM166.653,410.526 C166.987,409.625 167.615,408.963 168.540,408.537 C169.465,408.111 170.378,408.65 171.278,408.398 C172.180,408.731 172.842,409.360 173.268,410.284 C173.693,411.209 173.740,412.122 173.407,413.23 C173.57,413.968 172.420,414.654 171.495,415.79 C170.570,415.505 169.658,415.552 168.757,415.219 C167.857,414.886 167.193,414.257 166.768,413.332 C166.342,412.407 166.304,411.472 166.653,410.526 ZM295.414,412.101 C296.333,411.822 297.241,411.922 298.139,412.401 C299.38,412.881 299.626,413.579 299.906,414.499 C300.199,415.463 300.105,416.394 299.626,417.292 C299.146,418.191 298.448,418.779 297.529,419.59 C296.611,419.338 295.702,419.238 294.804,418.758 C293.906,418.279 293.310,417.557 293.17,416.592 C292.737,415.673 292.838,414.765 293.317,413.867 C293.797,412.969 294.496,412.380 295.414,412.101 ZM300.795,429.805 C301.760,429.512 302.691,429.605 303.589,430.85 C304.428,430.532 305.0,431.261 305.307,432.272 C305.586,433.190 305.486,434.99 305.7,434.997 C304.527,435.895 303.829,436.484 302.910,436.763 C301.945,437.56 301.44,436.978 300.206,436.531 C299.307,436.52 298.712,435.330 298.418,434.365 C298.111,433.355 298.182,432.430 298.629,431.592 C299.109,430.694 299.831,430.98 300.795,429.805 ZM385.966,354.907 C385.886,353.892 386.158,353.19 386.782,352.289 C387.406,351.559 388.225,351.155 389.240,351.75 C390.255,350.996 391.127,351.267 391.857,351.891 C392.624,352.546 393.46,353.381 393.126,354.396 C393.206,355.411 392.934,356.283 392.310,357.14 C391.687,357.743 390.867,358.148 389.852,358.228 C388.837,358.307 387.946,358.20 387.180,357.365 C386.449,356.741 386.45,355.922 385.966,354.907 ZM403.354,363.41 C404.302,362.967 405.176,363.273 405.979,363.959 C406.709,364.583 407.114,365.402 407.193,366.417 C407.273,367.432 407.1,368.304 406.377,369.35 C405.722,369.801 404.922,370.220 403.974,370.296 C402.959,370.375 402.68,370.88 401.302,369.433 C400.499,368.747 400.60,367.929 399.986,366.983 C399.906,365.968 400.194,365.77 400.849,364.311 C401.504,363.544 402.339,363.121 403.354,363.41 ZM417.771,146.453 C416.816,146.100 416.137,145.488 415.736,144.616 C415.334,143.744 415.310,142.831 415.662,141.875 C416.15,140.920 416.627,140.242 417.499,139.840 C418.415,139.418 419.350,139.384 420.305,139.737 C421.260,140.89 421.939,140.701 422.341,141.574 C422.742,142.445 422.767,143.359 422.414,144.314 C422.61,145.269 421.427,145.958 420.512,146.380 C419.639,146.782 418.726,146.806 417.771,146.453 ZM437.408,256.12 C436.597,256.627 435.692,256.866 434.693,256.729 C433.742,256.599 432.959,256.128 432.344,255.317 C431.729,254.505 431.486,253.624 431.617,252.673 C431.747,251.721 432.218,250.939 433.30,250.323 C433.841,249.708 434.721,249.466 435.673,249.596 C436.672,249.734 437.479,250.208 438.94,251.19 C438.709,251.830 438.952,252.711 438.821,253.662 C438.690,254.613 438.219,255.397 437.408,256.12 ZM455.812,258.539 C455.0,259.155 454.95,259.394 453.97,259.257 C452.50,259.113 451.240,258.662 450.666,257.906 C450.51,257.94 449.812,256.189 449.949,255.191 C450.86,254.192 450.560,253.385 451.371,252.770 C452.128,252.195 453.30,251.980 454.76,252.124 C455.27,252.254 455.811,252.725 456.426,253.536 C457.41,254.348 457.284,255.228 457.153,256.180 C457.16,257.179 456.568,257.964 455.812,258.539 ZM409.355,293.488 L420.80,297.889 L424.453,287.231 L428.50,288.707 L423.677,299.365 L432.402,302.946 C434.231,299.752 436.943,297.505 440.538,296.206 C444.133,294.905 447.706,294.983 451.259,296.442 C455.166,298.45 457.926,300.773 459.536,304.625 C461.146,308.476 461.155,312.344 459.560,316.230 C457.966,320.116 455.242,322.864 451.391,324.474 C447.539,326.84 443.658,326.88 439.751,324.484 C436.198,323.26 433.600,320.571 431.955,317.121 C430.310,313.669 429.958,310.165 430.899,306.609 L422.173,303.28 L417.800,313.686 L414.203,312.210 L418.576,301.552 L407.852,297.151 L409.355,293.488 ZM435.158,314.816 C436.362,317.697 438.396,319.726 441.261,320.901 C444.125,322.76 446.998,322.61 449.878,320.857 C452.759,319.652 454.788,317.619 455.963,314.754 C457.138,311.890 457.124,309.17 455.919,306.137 C454.715,303.255 452.681,301.228 449.816,300.52 C446.952,298.877 444.79,298.891 441.199,300.96 C438.318,301.299 436.290,303.334 435.114,306.199 C433.939,309.63 433.953,311.935 435.158,314.816 Z"/>
</svg>