<svg 
 xmlns="http://www.w3.org/2000/svg"
 xmlns:xlink="http://www.w3.org/1999/xlink"
 width="1198px" height="1179px">
<path fill-rule="evenodd"  fill="rgb(17, 7, 8)"
 d="M1197.312,476.668 C1196.925,480.104 1195.108,482.177 1191.855,482.887 C1188.603,483.599 1186.93,482.503 1184.324,479.597 C1175.974,466.360 1164.371,456.691 1149.512,450.589 C1134.658,444.487 1119.357,443.372 1103.610,447.243 C1088.34,451.72 1075.138,459.33 1064.928,471.120 C1054.719,483.211 1048.900,497.73 1047.473,512.714 C1047.212,515.941 1045.427,517.962 1042.110,518.778 C1038.796,519.592 1036.274,518.630 1034.546,515.892 C1029.159,507.553 1025.300,498.657 1022.978,489.210 C1019.148,473.634 1019.457,458.268 1023.903,443.112 C1028.351,427.960 1036.214,414.910 1047.496,403.964 C1058.777,393.18 1072.209,385.630 1087.785,381.801 C1103.365,377.970 1118.731,378.279 1133.883,382.726 C1149.39,387.173 1162.96,395.80 1173.62,406.443 C1184.29,417.809 1191.427,431.281 1195.256,446.857 C1197.660,456.638 1198.344,466.574 1197.312,476.668 ZM1181.334,450.279 C1176.405,430.228 1165.166,414.888 1147.614,404.263 C1130.67,393.641 1111.305,390.781 1091.332,395.692 C1071.363,400.601 1056.23,411.844 1045.316,429.412 C1034.609,446.984 1031.721,465.798 1036.651,485.849 C1037.17,487.340 1037.449,488.729 1037.938,490.14 C1042.797,476.165 1050.696,464.165 1061.642,454.1 C1072.589,443.842 1085.439,436.947 1100.188,433.321 C1115.270,429.613 1130.78,429.796 1144.611,433.868 C1159.147,437.939 1171.795,445.70 1182.557,455.251 C1182.150,453.597 1181.742,451.938 1181.334,450.279 ZM1069.541,798.676 C1082.851,808.381 1092.746,820.664 1099.225,835.527 C1105.708,850.392 1108.134,865.893 1106.510,882.25 C1104.883,898.160 1099.219,912.881 1089.517,926.188 C1079.812,939.498 1067.529,949.392 1052.666,955.872 C1037.801,962.354 1022.327,964.750 1006.243,963.52 C990.161,961.360 975.466,955.660 962.156,945.956 C948.849,936.254 938.929,924.6 932.396,909.208 C925.865,894.417 923.446,878.975 925.140,862.889 C926.835,846.809 932.532,832.112 942.237,818.802 C951.939,805.495 964.190,795.577 978.984,789.43 C993.779,782.514 1009.246,780.59 1025.379,781.683 C1041.514,783.310 1056.235,788.974 1069.541,798.676 ZM1004.63,797.665 C983.438,800.899 966.963,810.960 954.648,827.851 C942.330,844.746 937.788,863.508 941.19,884.130 C944.250,904.758 954.314,921.229 971.205,933.545 C988.99,945.863 1006.859,950.408 1027.484,947.174 C1048.109,943.946 1064.581,933.882 1076.898,916.988 C1089.214,900.97 1093.759,881.337 1090.528,860.709 C1087.297,840.87 1077.235,823.612 1060.341,811.294 C1043.450,798.979 1024.688,794.437 1004.63,797.665 ZM1018.743,891.376 C1013.378,892.217 1008.455,891.4 1003.972,887.735 C999.493,884.469 996.865,880.177 996.92,874.861 C995.323,869.548 996.568,864.649 999.837,860.166 C1003.103,855.687 1007.363,853.35 1012.607,852.211 C1017.853,851.392 1022.719,852.614 1027.199,855.880 C1031.682,859.148 1034.366,863.432 1035.258,868.726 C1036.148,874.23 1034.958,878.913 1031.692,883.393 C1028.424,887.876 1024.108,890.536 1018.743,891.376 ZM889.350,143.109 C874.949,147.990 860.694,147.470 846.581,141.549 C832.473,135.628 822.20,125.662 815.233,111.654 L746.999,134.779 L777.591,139.320 L775.483,152.840 L703.416,142.96 L754.563,90.549 L764.343,100.231 L743.156,121.747 L810.817,98.624 C807.688,83.375 809.928,69.109 817.529,55.829 C825.135,42.548 836.135,33.468 850.536,28.587 C866.309,23.242 881.695,24.272 896.691,31.676 C911.690,39.82 921.859,50.669 927.204,66.442 C932.550,82.214 931.521,97.596 924.116,112.596 C916.712,127.592 905.123,137.764 889.350,143.109 ZM914.290,70.914 C910.111,58.760 902.241,49.834 890.685,44.128 C879.133,38.424 867.261,37.603 855.67,41.673 C842.878,45.741 833.928,53.550 828.223,65.106 C822.519,76.659 821.741,88.552 825.883,100.781 C830.30,113.9 837.878,121.978 849.431,127.682 C860.987,133.388 872.880,134.165 885.105,130.22 C897.337,125.877 906.302,118.27 912.7,106.474 C917.712,94.918 918.474,83.66 914.290,70.914 ZM530.71,1044.549 L486.807,1033.947 L478.94,1069.502 C491.941,1074.655 502.533,1082.522 509.869,1093.104 C517.200,1103.689 519.144,1116.26 515.691,1130.114 C512.116,1144.702 502.691,1156.625 487.421,1165.885 C478.133,1171.516 467.687,1175.236 456.86,1177.51 C444.482,1178.861 432.715,1178.308 420.780,1175.384 L419.537,1175.79 L423.71,1160.658 L424.314,1160.962 C434.423,1163.440 444.280,1163.920 453.876,1162.408 C463.472,1160.893 472.88,1157.819 479.725,1153.192 C491.488,1146.59 498.670,1137.189 501.270,1126.579 C504.32,1115.309 502.156,1105.756 495.642,1097.920 C489.127,1090.88 479.736,1084.665 467.471,1081.659 L460.11,1079.831 L472.137,1030.351 L428.874,1019.749 L432.469,1005.79 L475.732,1015.681 L486.335,972.418 L501.5,976.13 L490.402,1019.277 L533.666,1029.879 L530.71,1044.549 ZM470.100,156.634 C462.163,153.741 454.627,150.99 447.495,145.705 C430.972,135.705 419.250,123.282 412.328,108.432 C405.550,93.890 403.677,77.345 406.707,58.801 C407.440,54.315 408.523,49.763 409.945,45.146 L358.898,68.939 L384.205,123.235 L370.747,129.508 L345.440,75.212 L298.337,97.166 L291.956,83.477 L339.59,61.522 L313.752,7.226 L327.210,0.953 L352.517,55.249 L420.271,23.669 L429.963,33.556 C426.12,41.232 423.159,50.470 421.413,61.266 C418.850,76.769 420.306,90.402 425.786,102.159 C430.329,111.905 437.202,120.184 446.406,127.7 C455.611,133.824 465.125,139.85 474.948,142.795 C477.596,143.630 479.905,144.341 481.875,144.932 L478.389,159.267 C475.811,158.584 473.49,157.705 470.100,156.634 ZM210.508,832.165 C205.802,829.716 201.474,827.59 197.516,824.195 C198.184,836.541 195.520,848.264 189.525,859.367 C183.524,870.468 174.947,879.153 163.787,885.421 C147.863,894.366 131.70,896.357 113.413,891.401 C95.750,886.444 82.428,875.966 73.444,859.972 C64.459,843.975 62.443,827.146 67.402,809.487 C72.356,791.826 82.796,778.525 98.719,769.581 C110.26,763.230 121.981,760.378 134.585,761.33 C147.183,761.687 158.624,765.588 168.904,772.733 C168.433,767.713 168.299,762.599 168.509,757.393 C169.135,746.664 170.975,737.216 174.20,729.46 L186.499,733.488 L185.423,737.322 C184.472,739.811 183.700,743.231 183.108,747.578 C182.512,751.923 182.92,756.664 181.845,761.794 C181.594,766.927 182.112,772.554 183.403,778.683 C184.689,784.810 186.756,790.402 189.599,795.463 C195.281,805.580 204.279,813.937 216.595,820.525 C225.133,824.927 232.914,827.802 239.934,829.143 L237.583,842.208 C229.22,840.558 219.994,837.210 210.508,832.165 ZM177.616,801.312 C170.427,788.513 159.765,780.165 145.634,776.261 C131.498,772.356 118.34,774.0 105.239,781.187 C92.440,788.376 84.68,798.997 80.125,813.58 C76.176,827.117 77.799,840.542 84.988,853.341 C92.175,866.137 102.817,874.547 116.921,878.567 C131.20,882.585 144.468,881.4 157.268,873.815 C170.63,866.628 178.450,855.944 182.430,841.770 C186.406,827.595 184.803,814.108 177.616,801.312 ZM186.924,443.909 L152.743,433.129 L142.656,465.112 L130.693,461.339 L140.780,429.356 L102.693,417.343 C97.276,429.413 88.447,438.259 76.203,443.885 C63.962,449.507 51.328,450.266 38.308,446.160 C24.148,441.694 13.696,432.983 6.956,420.31 C0.216,407.76 0.923,393.522 3.542,379.361 C8.9,365.201 16.720,354.749 29.671,348.9 C42.623,341.264 56.181,340.129 70.341,344.595 C83.361,348.702 93.261,356.610 100.35,368.322 C106.812,380.30 108.955,392.383 106.467,405.380 L144.553,417.393 L154.640,385.410 L166.604,389.183 L156.516,421.166 L190.697,431.946 L186.924,443.909 ZM90.293,376.658 C85.166,366.807 77.233,360.191 66.491,356.803 C55.749,353.415 45.413,354.269 35.483,359.371 C25.553,364.468 18.894,372.392 15.506,383.134 C12.118,393.877 13.14,404.226 18.196,414.181 C23.377,424.137 31.339,430.809 42.81,434.197 C52.824,437.585 63.131,436.675 73.6,431.468 C82.878,426.260 89.511,418.286 92.900,407.544 C96.288,396.802 95.417,386.503 90.293,376.658 Z"/>
</svg>