<svg 
 xmlns="http://www.w3.org/2000/svg"
 xmlns:xlink="http://www.w3.org/1999/xlink"
 width="858px" height="864px">
<path fill-rule="evenodd"  fill="rgb(17, 7, 8)"
 d="M849.847,368.263 C851.997,369.159 854.15,370.274 855.901,371.606 C856.343,371.919 856.736,372.217 857.77,372.500 L854.665,375.471 C854.387,375.275 854.83,375.60 853.751,374.825 C852.974,374.276 852.129,373.752 851.215,373.251 C850.301,372.751 849.122,372.198 847.680,371.594 C846.236,370.990 844.654,370.567 842.932,370.328 C841.211,370.87 839.522,370.110 837.867,370.395 C836.68,370.704 834.343,371.293 832.691,372.161 C831.38,373.29 829.591,374.33 828.350,375.172 C827.109,376.310 826.141,377.268 825.447,378.45 C824.752,378.822 824.174,379.566 823.712,380.279 C823.547,380.453 823.390,380.674 823.242,380.944 L819.965,378.877 C820.152,378.553 820.364,378.224 820.599,377.892 C821.970,375.951 823.610,374.160 825.520,372.517 C828.520,369.857 831.715,368.42 835.104,367.71 L834.311,362.458 L820.971,364.751 C820.896,367.150 820.39,369.318 818.400,371.256 C816.760,373.193 814.663,374.382 812.108,374.821 C809.270,375.309 806.663,374.734 804.287,373.97 C801.912,371.460 800.480,369.222 799.992,366.384 C799.505,363.545 800.108,360.958 801.800,358.621 C803.493,356.285 805.758,354.873 808.596,354.385 C811.151,353.946 813.524,354.366 815.717,355.645 C817.909,356.924 819.440,358.682 820.312,360.919 L833.653,358.627 L832.872,354.85 C829.322,354.403 825.658,353.766 821.878,352.176 C819.726,351.278 817.713,350.188 815.837,348.904 C815.384,348.543 814.989,348.221 814.648,347.939 L817.60,344.968 C817.345,345.211 817.654,345.450 817.986,345.685 C818.754,346.185 819.595,346.687 820.509,347.187 C821.423,347.688 822.603,348.252 824.51,348.880 C825.498,349.508 827.81,349.930 828.798,350.146 C830.516,350.362 832.202,350.328 833.858,350.44 C835.655,349.735 837.393,349.144 839.69,348.272 C840.746,347.399 842.192,346.395 843.410,345.261 C844.627,344.126 845.583,343.171 846.278,342.394 C846.972,341.617 847.555,340.896 848.25,340.231 C848.181,340.9 848.338,339.786 848.495,339.565 L851.760,341.561 C851.571,341.886 851.361,342.214 851.126,342.547 C849.754,344.487 848.142,346.298 846.288,347.981 C843.240,350.647 840.17,352.443 836.621,353.368 L837.414,357.980 L852.741,355.346 L853.399,359.178 L838.72,361.812 L838.852,366.354 C842.410,366.82 846.75,366.720 849.847,368.263 ZM817.16,363.421 C816.712,361.647 815.803,360.257 814.291,359.251 C812.777,358.244 811.111,357.898 809.290,358.211 C807.469,358.524 806.13,359.406 804.924,360.860 C803.835,362.314 803.442,363.928 803.747,365.702 C804.52,367.476 804.963,368.877 806.479,369.908 C807.995,370.937 809.664,371.296 811.485,370.983 C813.306,370.671 814.759,369.775 815.846,368.298 C816.931,366.821 817.321,365.195 817.16,363.421 ZM788.130,252.984 C789.205,253.186 790.316,253.612 791.462,254.264 C792.802,255.84 793.858,256.241 794.628,257.735 C795.991,260.380 795.990,262.946 794.626,265.431 C793.722,267.31 792.353,268.304 790.519,269.249 C788.215,270.437 785.943,270.798 783.705,270.331 C781.188,269.847 779.346,268.474 778.181,266.213 C777.872,265.615 777.637,264.792 777.474,263.742 C777.192,261.834 777.553,259.758 778.557,257.514 C776.905,257.663 775.796,257.762 775.227,257.812 C774.659,257.862 773.570,257.924 771.961,257.997 C770.352,258.70 769.144,258.32 768.337,257.881 C767.530,257.729 766.438,257.495 765.60,257.180 C763.682,256.864 762.571,256.410 761.727,255.820 C760.882,255.229 759.987,254.462 759.42,253.519 C758.97,252.574 757.282,251.441 756.601,250.119 L755.578,248.135 L759.546,246.90 L760.569,248.74 C761.338,249.567 762.298,250.747 763.446,251.613 C764.595,252.479 766.7,253.19 767.684,253.235 C769.361,253.451 770.881,253.544 772.245,253.518 C773.607,253.490 775.489,253.344 777.891,253.78 C778.212,253.74 778.818,253.18 779.708,252.911 C780.597,252.803 781.278,252.736 781.750,252.709 C784.609,249.560 788.855,246.535 794.487,243.632 L800.823,240.367 C793.311,238.784 786.470,239.448 780.303,242.357 L778.193,238.422 C784.118,234.936 788.684,231.746 791.891,228.851 C793.779,227.68 794.974,225.614 795.476,224.492 C795.622,224.146 795.714,223.803 795.753,223.458 C795.793,223.221 795.780,223.39 795.714,222.911 C795.648,222.783 795.528,222.656 795.355,222.529 C795.246,222.424 795.106,222.360 794.934,222.341 L792.865,221.626 L794.326,217.390 L796.460,218.72 C796.848,218.196 797.333,218.458 797.919,218.859 C798.654,219.343 799.242,220.12 799.682,220.866 C800.474,222.402 800.432,224.206 799.555,226.278 C798.761,228.91 797.208,230.52 794.894,232.164 C793.769,233.229 792.599,234.209 791.388,235.105 C793.405,235.37 795.122,235.69 796.541,235.202 C798.453,235.351 800.330,235.639 802.171,236.67 C804.12,236.495 805.358,236.855 806.210,237.145 C807.60,237.435 807.541,237.633 807.650,237.739 L807.796,241.794 L796.532,247.600 C793.503,249.162 790.701,250.956 788.130,252.984 ZM784.288,257.475 C783.178,258.48 782.427,258.947 782.35,260.176 C781.641,261.404 781.731,262.573 782.303,263.683 C782.875,264.792 783.775,265.543 785.4,265.936 C786.231,266.328 787.401,266.239 788.511,265.667 C789.620,265.96 790.370,264.195 790.764,262.967 C791.156,261.738 791.67,260.569 790.495,259.460 C789.923,258.350 789.22,257.599 787.795,257.207 C786.566,256.814 785.397,256.904 784.288,257.475 ZM737.660,718.840 C732.636,717.138 728.278,714.676 724.583,711.456 L719.741,716.489 C723.2,720.91 725.613,724.335 727.575,729.220 C729.38,732.891 729.933,736.150 730.259,738.996 C729.446,739.78 728.744,739.152 728.150,739.215 C727.557,739.277 727.125,739.328 726.855,739.367 C726.583,739.406 726.347,739.428 726.143,739.432 L725.968,738.264 C725.851,737.485 725.583,736.396 725.166,734.995 C724.748,733.594 724.236,732.68 723.626,730.417 C723.17,728.765 722.116,726.949 720.923,724.970 C719.732,722.989 718.371,721.166 716.846,719.498 L709.159,727.489 L706.201,724.644 L713.938,716.601 C712.247,715.174 710.381,713.894 708.339,712.763 C706.297,711.631 704.490,710.792 702.918,710.246 C701.346,709.699 699.749,709.246 698.130,708.887 C696.510,708.528 695.429,708.320 694.885,708.263 C694.341,708.205 693.932,708.179 693.661,708.185 L693.888,704.107 C696.742,704.255 700.31,704.954 703.756,706.207 C708.781,707.976 713.123,710.455 716.783,713.644 L721.675,708.559 C718.415,705.23 715.804,700.813 713.843,695.929 C712.380,692.257 711.502,688.982 711.208,686.101 L715.223,685.667 L715.398,686.835 C715.550,687.646 715.834,688.753 716.252,690.154 C716.669,691.554 717.183,693.80 717.792,694.732 C718.401,696.383 719.302,698.199 720.494,700.179 C721.687,702.159 723.28,703.966 724.520,705.601 L732.207,697.610 L735.165,700.455 L727.428,708.498 C729.153,709.958 731.46,711.244 733.104,712.360 C735.162,713.474 736.961,714.305 738.499,714.852 C740.37,715.399 741.616,715.853 743.236,716.212 C744.855,716.570 745.937,716.778 746.481,716.836 C747.26,716.893 747.451,716.935 747.757,716.964 L747.530,721.42 C744.641,720.861 741.351,720.126 737.660,718.840 ZM739.916,146.610 L736.870,149.571 L728.137,140.589 L720.755,147.766 C723.287,151.61 724.639,154.516 724.809,158.134 C724.978,161.751 723.601,164.983 720.676,167.826 C717.647,170.771 713.621,172.208 708.599,172.137 C705.545,172.94 702.499,171.423 699.463,170.125 C696.426,168.825 693.703,166.938 691.294,164.460 L691.43,164.202 L694.37,161.291 L694.288,161.549 C696.328,163.648 698.607,165.233 701.120,166.304 C703.634,167.374 706.147,167.927 708.658,167.963 C712.527,168.17 715.562,166.974 717.765,164.832 C720.105,162.557 721.83,160.0 720.699,157.160 C720.314,154.320 718.884,151.626 716.408,149.80 L714.902,147.531 L725.175,137.543 L716.442,128.561 L719.488,125.600 L728.221,134.582 L737.203,125.849 L740.165,128.895 L731.182,137.628 L739.916,146.610 ZM632.410,80.797 L642.322,71.528 L604.637,82.513 L607.41,90.721 L602.902,91.986 L600.435,83.744 L591.445,86.377 L590.214,82.175 L599.267,79.576 L596.800,71.333 L601.2,70.103 L603.406,78.311 L641.189,67.298 L627.688,64.674 L628.555,60.388 C631.519,60.971 635.966,61.816 641.897,62.926 C647.828,64.35 652.276,64.882 655.240,65.463 L635.452,83.938 L632.410,80.797 ZM565.677,829.867 C563.504,832.580 560.986,834.343 558.122,835.156 C556.368,835.654 554.811,835.621 553.454,835.59 C552.546,834.668 551.715,834.30 550.965,833.146 C549.988,834.622 548.720,835.955 547.161,837.146 C545.603,838.336 544.62,839.148 542.538,839.581 C540.831,840.66 539.274,840.33 537.870,839.484 C535.618,838.577 533.884,836.75 532.671,831.979 L532.592,831.702 L532.572,831.633 L525.99,805.314 C524.535,803.328 523.724,801.613 522.664,800.167 C521.224,798.81 519.580,797.300 517.733,797.825 C516.348,798.218 515.542,799.420 515.314,801.431 C515.235,801.853 515.373,803.485 515.731,806.327 L517.311,801.612 L521.27,803.626 L515.608,815.119 L505.305,807.566 L507.952,803.970 L511.437,807.546 C510.902,804.255 510.722,802.36 510.894,800.889 C511.376,796.961 513.249,794.508 516.514,793.531 C519.687,792.580 522.544,793.416 525.84,796.37 C527.0,798.38 528.436,800.724 529.393,804.94 L536.886,830.483 C537.253,831.775 537.617,832.794 537.979,833.541 C538.512,834.537 539.55,835.131 539.608,835.323 C540.57,835.495 540.626,835.483 541.319,835.287 C542.382,834.985 543.463,834.403 544.566,833.541 C545.668,832.679 546.547,831.731 547.201,830.697 C548.114,829.340 548.432,828.178 548.156,827.208 L540.899,801.650 L545.193,800.431 L552.450,825.989 C552.830,827.327 553.201,828.369 553.563,829.116 C554.49,830.125 554.570,830.725 555.123,830.918 C555.571,831.90 556.165,831.71 556.903,830.862 C557.966,830.560 559.36,829.981 560.115,829.126 C561.194,828.270 562.85,827.319 562.785,826.272 C563.651,824.928 563.946,823.772 563.671,822.802 L556.414,797.245 L560.708,796.25 L570.187,829.410 L565.893,830.629 L565.677,829.867 ZM520.776,48.128 L506.411,45.434 L503.305,61.993 L499.201,61.223 L502.307,44.664 L481.643,40.789 L481.46,36.941 C483.206,35.833 485.371,34.187 487.539,32.5 C490.664,28.880 492.563,25.524 493.236,21.938 C493.793,18.966 493.578,15.948 492.591,12.880 C491.602,9.814 490.288,7.53 488.650,4.596 C488.181,3.971 487.770,3.431 487.416,2.973 L490.561,0.266 C491.38,0.844 491.526,1.498 492.25,2.225 C493.366,4.187 494.493,6.254 495.404,8.427 C497.544,13.419 498.190,18.179 497.340,22.708 C496.509,27.143 494.227,31.233 490.498,34.977 C489.595,35.883 488.602,36.746 487.521,37.569 L503.89,40.489 L506.195,23.929 L510.299,24.699 L507.194,41.258 L521.559,43.953 L520.776,48.128 ZM436.468,860.445 C432.496,862.660 428.195,863.731 423.562,863.656 C418.932,863.581 414.667,862.371 410.768,860.28 C406.870,857.684 403.800,854.526 401.560,850.554 C399.320,846.580 398.238,842.278 398.313,837.647 C398.388,833.15 399.609,828.750 401.977,824.853 C404.344,820.954 407.515,817.886 411.487,815.646 C415.460,813.406 419.763,812.324 424.393,812.399 C429.26,812.474 433.290,813.695 437.188,816.63 C441.86,818.430 444.144,821.600 446.359,825.572 C448.575,829.544 449.645,833.846 449.570,838.478 C449.495,843.109 448.286,847.374 445.942,851.273 C443.599,855.171 440.441,858.229 436.468,860.445 ZM408.724,852.866 C412.265,856.499 416.551,858.621 421.582,859.231 L421.891,840.154 L402.742,839.843 C403.189,844.891 405.182,849.232 408.724,852.866 ZM409.249,822.666 C405.617,826.160 403.471,830.397 402.814,835.380 L421.964,835.690 L422.269,816.829 C417.222,817.226 412.883,819.172 409.249,822.666 ZM439.267,823.261 C435.797,819.677 431.595,817.556 426.661,816.900 L426.355,835.762 L445.145,836.66 C444.697,831.114 442.738,826.846 439.267,823.261 ZM426.284,840.153 L425.974,859.230 C430.975,858.783 435.280,856.789 438.889,853.247 C442.500,849.705 444.585,845.442 445.145,840.459 L426.284,840.153 ZM397.474,18.151 C396.987,17.916 396.630,17.740 396.399,17.622 C396.168,17.503 395.975,17.405 395.821,17.325 C396.188,16.317 396.305,15.217 396.168,14.24 C396.48,12.976 395.741,11.984 395.248,11.50 C394.754,10.117 394.167,9.423 393.487,8.969 C392.902,8.505 392.300,8.307 391.681,8.378 C390.440,8.520 389.307,9.592 388.280,11.594 C387.16,14.58 386.72,17.621 385.446,22.282 C384.552,29.245 384.468,38.217 385.195,49.197 L381.690,49.599 C379.867,38.744 377.733,30.26 375.288,23.445 C373.625,19.46 371.899,15.789 370.111,13.675 C368.658,11.957 367.311,11.169 366.72,11.311 C365.452,11.382 364.910,11.710 364.445,12.295 C363.885,12.891 363.470,13.699 363.201,14.720 C362.931,15.742 362.857,16.777 362.977,17.825 C363.114,19.18 363.475,20.64 364.61,20.963 L361.214,23.318 C359.838,21.11 359.239,18.520 359.416,15.842 C359.592,13.165 360.428,10.968 361.922,9.250 C362.994,8.65 364.221,7.392 365.605,7.234 C367.989,6.961 370.325,8.167 372.614,10.852 C374.689,13.368 376.658,17.56 378.519,21.916 C379.493,24.511 380.403,27.401 381.252,30.589 C381.357,27.292 381.590,24.270 381.953,21.522 C382.667,16.368 383.750,12.330 385.204,9.410 C386.826,6.278 388.828,4.574 391.214,4.301 C392.596,4.143 393.944,4.520 395.257,5.432 C397.100,6.768 398.411,8.720 399.188,11.287 C399.965,13.856 399.945,16.418 399.127,18.976 C398.511,18.660 397.960,18.385 397.474,18.151 ZM337.113,807.339 C332.716,807.539 328.738,809.31 325.180,811.815 C321.623,814.597 319.222,818.182 317.978,822.570 C316.747,826.910 316.900,831.170 318.434,835.347 C319.970,839.524 322.549,842.875 326.174,845.399 C326.927,845.912 327.173,846.629 326.911,847.553 C326.649,848.477 326.63,848.959 325.153,849.1 C322.366,849.158 319.654,848.864 317.22,848.118 C312.682,846.887 308.968,844.675 305.882,841.480 C302.797,838.285 300.700,834.548 299.593,830.268 C298.487,825.988 298.549,821.676 299.779,817.336 C301.10,812.995 303.223,809.281 306.417,806.196 C309.612,803.110 313.361,801.18 317.664,799.918 C321.968,798.818 326.290,798.883 330.630,800.113 C333.356,800.886 335.880,802.101 338.204,803.757 C338.990,804.329 339.244,805.62 338.965,805.956 C338.687,806.850 338.70,807.311 337.113,807.339 ZM329.531,803.992 C323.943,802.409 318.630,803.22 313.592,805.835 C308.555,808.647 305.246,812.836 303.668,818.401 C302.91,823.965 302.706,829.279 305.511,834.340 C308.318,839.401 312.515,842.724 318.102,844.308 C318.517,844.426 318.917,844.513 319.299,844.572 C316.590,841.459 314.755,837.858 313.793,833.769 C312.832,829.680 312.934,825.580 314.99,821.470 C315.290,817.267 317.394,813.673 320.411,810.687 C323.428,807.700 326.930,805.600 330.916,804.385 C330.455,804.255 329.993,804.123 329.531,803.992 ZM267.847,39.348 L260.930,58.232 C264.818,60.246 267.540,63.260 269.99,67.271 C270.657,71.284 270.695,75.295 269.214,79.307 C267.592,83.701 264.645,86.883 260.373,88.851 C256.100,90.820 251.767,90.993 247.373,89.371 C242.979,87.749 239.798,84.802 237.829,80.529 C235.861,76.257 235.688,71.924 237.310,67.530 C238.791,63.518 241.427,60.494 245.218,58.456 C249.9,56.419 253.37,55.897 257.300,56.892 L264.318,37.883 L257.912,43.767 L255.329,40.914 L270.429,27.60 L272.649,47.362 L268.802,47.787 L267.847,39.348 ZM247.745,61.532 C244.453,63.49 242.179,65.512 240.922,68.918 C239.664,72.325 239.794,75.674 241.310,78.965 C242.827,82.257 245.283,84.521 248.681,85.756 C252.77,86.993 255.421,86.852 258.713,85.335 C262.4,83.819 264.284,81.368 265.552,77.982 C266.819,74.598 266.695,71.259 265.178,67.967 C263.662,64.676 261.200,62.402 257.793,61.144 C254.386,59.887 251.36,60.16 247.745,61.532 ZM221.462,759.620 C216.673,756.419 212.71,753.891 207.653,752.34 C204.819,750.833 202.171,749.957 199.709,749.408 C202.90,751.462 203.477,754.50 203.872,757.172 C204.268,760.294 203.585,763.172 201.825,765.806 C199.904,768.679 197.239,770.462 193.830,771.157 C190.421,771.852 187.271,771.233 184.377,769.298 C181.484,767.364 179.697,764.683 179.16,761.254 C178.335,757.824 178.954,754.674 180.875,751.801 C182.689,749.87 185.48,747.199 187.951,746.139 C190.3,745.316 192.299,744.945 194.842,745.29 C198.969,745.73 203.720,746.258 209.95,748.582 C213.740,750.531 218.555,753.173 223.543,756.508 C225.299,757.682 226.729,758.695 227.832,759.548 L225.512,762.501 C224.369,761.620 223.18,760.661 221.462,759.620 ZM196.231,751.501 C194.196,750.140 191.974,749.708 189.563,750.204 C187.153,750.700 185.267,751.966 183.907,754.1 C182.547,756.36 182.104,758.252 182.581,760.649 C183.57,763.46 184.313,764.925 186.348,766.285 C188.383,767.646 190.609,768.95 193.26,767.632 C195.443,767.169 197.331,765.920 198.692,763.885 C200.52,761.850 200.492,759.617 200.8,757.187 C199.526,754.756 198.266,752.861 196.231,751.501 ZM172.412,155.523 C170.850,155.470 169.290,154.925 167.729,153.889 C167.164,153.496 166.637,153.37 166.145,152.511 C164.833,151.109 163.797,149.122 163.33,146.549 C162.552,144.700 161.996,141.505 161.367,136.967 C160.978,134.374 160.657,132.308 160.403,130.771 C160.149,129.235 159.722,127.268 159.123,124.870 C158.523,122.474 157.816,120.276 157.0,118.279 C156.245,116.488 155.343,115.32 154.294,113.910 C152.589,112.87 150.663,111.292 148.515,111.526 C146.948,111.678 145.515,112.360 144.219,113.573 C142.290,115.376 141.401,117.588 141.552,120.208 C141.708,122.624 142.820,124.936 144.885,127.145 C145.476,127.776 146.117,128.393 146.810,128.992 C149.290,131.11 151.382,132.932 153.87,134.755 C156.399,138.296 158.360,141.588 158.971,144.630 C159.757,148.563 158.467,152.101 155.101,155.249 C152.893,157.315 150.270,158.289 147.235,158.170 C144.199,158.52 141.649,156.888 139.584,154.679 C137.518,152.471 136.536,149.857 136.637,146.838 C136.738,143.820 137.892,141.276 140.101,139.211 C142.625,136.850 145.578,135.862 148.962,136.247 C147.612,134.946 146.63,133.569 144.312,132.118 C143.417,131.443 142.610,130.720 141.888,129.948 C139.134,127.4 137.678,123.831 137.520,120.429 C137.277,116.516 138.576,113.231 141.415,110.575 C143.764,108.379 146.431,107.331 149.416,107.430 C152.402,107.531 155.9,108.772 157.238,111.155 C158.616,112.628 159.793,114.484 160.771,116.724 C161.650,118.860 162.421,121.229 163.80,123.831 C163.740,126.435 164.197,128.504 164.452,130.41 C164.706,131.578 165.9,133.694 165.360,136.388 C165.960,140.755 166.505,143.762 166.994,145.408 C167.541,147.329 168.257,148.761 169.142,149.708 C169.437,150.23 169.717,150.287 169.982,150.500 C170.878,151.107 171.717,151.407 172.499,151.399 C173.483,151.398 174.286,150.992 174.908,150.181 C175.529,149.369 175.770,148.503 175.632,147.582 C175.547,147.69 175.357,146.656 175.62,146.340 C174.472,145.709 173.533,145.338 172.247,145.227 L172.534,141.212 C174.432,141.344 176.9,141.889 177.267,142.848 C178.525,143.807 179.311,145.191 179.625,147.2 C179.925,149.152 179.368,151.102 177.952,152.855 C176.534,154.607 174.687,155.497 172.412,155.523 ZM147.716,139.975 C145.749,139.910 144.46,140.548 142.609,141.892 C141.171,143.237 140.420,144.893 140.355,146.860 C140.289,148.829 140.928,150.530 142.272,151.967 C143.617,153.405 145.272,154.157 147.240,154.222 C149.208,154.289 150.909,153.649 152.347,152.304 C153.784,150.960 154.536,149.305 154.602,147.337 C154.668,145.370 154.29,143.667 152.684,142.229 C151.340,140.792 149.684,140.41 147.716,139.975 ZM132.975,683.804 L130.56,686.148 L123.249,677.671 L116.287,683.260 C118.144,686.263 118.782,689.568 118.199,693.175 C117.618,696.781 115.886,699.741 113.3,702.56 C109.897,704.550 106.354,705.580 102.371,705.145 C101.90,705.5 99.875,704.718 98.727,704.285 C98.887,705.20 99.7,705.784 99.91,706.578 C99.252,708.235 99.243,709.873 99.66,711.492 C99.45,712.2 98.974,712.489 98.855,712.954 L95.143,712.241 C95.247,711.912 95.303,711.559 95.309,711.184 C95.818,706.528 94.946,702.796 92.692,699.989 C91.700,698.754 90.397,697.723 88.779,696.898 C87.162,696.73 85.838,695.536 84.807,695.286 C83.776,695.37 82.789,694.861 81.843,694.757 C81.574,694.728 81.318,694.717 81.78,694.725 L81.184,690.947 C81.559,690.954 81.949,690.979 82.354,691.23 C84.79,691.177 85.796,691.553 87.506,692.150 C88.264,692.404 88.984,692.687 89.666,693.0 C89.462,691.749 89.430,690.482 89.569,689.200 C90.5,685.218 91.776,681.981 94.882,679.487 C97.765,677.172 101.22,676.112 104.653,676.304 C108.286,676.496 111.382,677.842 113.943,680.341 L120.905,674.751 L114.98,666.274 L117.17,663.930 L123.824,672.407 L132.302,665.600 L134.646,668.520 L126.168,675.327 L132.975,683.804 ZM112.252,684.100 C110.419,681.817 108.34,680.515 105.99,680.194 C102.163,679.873 99.555,680.629 97.271,682.462 C94.989,684.295 93.686,686.680 93.365,689.615 C93.44,692.550 93.801,695.160 95.634,697.443 C97.467,699.726 99.851,701.28 102.786,701.349 C105.722,701.670 108.332,700.913 110.614,699.80 C112.898,697.247 114.199,694.863 114.520,691.927 C114.841,688.992 114.85,686.383 112.252,684.100 ZM83.278,258.413 C79.370,260.765 75.143,261.999 70.596,262.115 C66.49,262.232 61.742,261.181 57.675,258.962 C53.609,256.744 50.395,253.692 48.31,249.805 C45.668,245.919 44.428,241.702 44.312,237.154 C44.195,232.608 45.246,228.301 47.464,224.234 C49.683,220.168 52.736,216.954 56.622,214.590 C60.508,212.227 64.732,210.976 69.290,210.838 C73.849,210.701 78.161,211.742 82.227,213.960 C86.294,216.178 89.503,219.241 91.854,223.149 C94.206,227.57 95.450,231.290 95.588,235.848 C95.725,240.407 94.685,244.720 92.467,248.786 C90.248,252.852 87.185,256.61 83.278,258.413 ZM90.351,230.489 C88.695,224.857 85.286,220.632 80.124,217.815 C74.963,214.999 69.564,214.420 63.931,216.76 C58.298,217.733 54.73,221.142 51.257,226.303 C48.441,231.465 47.861,236.863 49.517,242.496 C51.174,248.129 54.583,252.354 59.745,255.170 C64.907,257.986 70.304,258.566 75.937,256.909 C81.570,255.254 85.795,251.844 88.611,246.682 C91.427,241.521 92.7,236.123 90.351,230.489 ZM71.456,241.670 C69.991,242.101 68.574,241.943 67.204,241.196 C65.835,240.449 64.945,239.348 64.535,237.894 C64.126,236.441 64.294,235.29 65.41,233.659 C65.788,232.290 66.879,231.395 68.311,230.973 C69.744,230.553 71.146,230.715 72.515,231.462 C73.884,232.209 74.789,233.305 75.232,234.749 C75.674,236.194 75.522,237.601 74.775,238.969 C74.28,240.339 72.922,241.239 71.456,241.670 ZM33.900,355.671 C30.105,355.85 26.674,355.915 23.607,358.161 C20.540,360.407 18.713,363.427 18.127,367.222 C17.540,371.18 18.370,374.448 20.616,377.515 C22.863,380.583 25.883,382.409 29.678,382.995 L32.26,383.358 L29.497,399.723 L24.801,398.998 L26.637,387.115 C22.171,385.842 18.674,383.250 16.146,379.338 C13.617,375.426 12.712,371.146 13.431,366.497 C14.149,361.848 16.303,358.41 19.894,355.74 C23.485,352.107 27.602,350.691 32.244,350.825 L34.80,338.942 L38.776,339.668 L36.248,356.34 L33.900,355.671 ZM47.955,341.86 L52.580,341.801 L43.302,401.856 L38.676,401.142 L47.955,341.86 ZM23.680,485.376 C26.886,487.460 29.16,490.264 30.71,493.788 L39.382,492.284 L37.545,480.911 L41.383,480.291 L43.221,491.664 L54.664,489.815 L55.296,493.724 L43.852,495.573 L45.690,506.946 L41.851,507.566 L40.14,496.193 L30.703,497.697 C30.811,501.376 29.672,504.708 27.285,507.695 C24.900,510.682 21.811,512.481 18.20,513.93 C13.851,513.767 10.72,512.882 6.687,510.439 C3.302,507.995 1.275,504.701 0.605,500.554 C0.64,496.408 0.822,492.642 3.266,489.257 C5.709,485.872 9.16,483.843 13.185,483.169 C16.977,482.557 20.475,483.293 23.680,485.376 ZM6.444,491.552 C4.617,494.84 3.950,496.878 4.443,499.934 C4.937,502.991 6.451,505.433 8.982,507.260 C11.514,509.88 14.308,509.755 17.364,509.261 C20.421,508.767 22.863,507.255 24.690,504.722 C26.518,502.191 27.185,499.396 26.691,496.340 C26.197,493.284 24.685,490.842 22.152,489.14 C19.621,487.187 16.826,486.520 13.770,487.13 C10.713,487.507 8.272,489.21 6.444,491.552 ZM50.1,601.974 C49.637,601.886 48.651,601.568 47.45,601.21 L44.989,600.106 L45.904,598.51 C47.621,594.692 50.913,591.815 55.780,589.420 L56.620,589.7 C63.596,585.788 70.147,585.186 76.273,587.200 C77.936,585.687 79.200,584.235 80.68,582.844 L84.81,584.802 C83.537,585.872 82.433,587.271 80.770,588.999 C81.198,589.217 81.824,589.511 82.648,589.880 C83.472,590.251 84.88,590.524 84.494,590.697 C84.276,591.125 83.977,591.794 83.596,592.704 C83.214,593.614 82.915,594.283 82.698,594.711 C80.279,593.602 78.407,592.784 77.78,592.260 C74.58,594.603 70.653,596.706 66.863,598.571 L51.552,606.105 C49.873,606.932 48.709,607.719 48.60,608.466 C47.671,608.871 47.475,609.235 47.473,609.557 C47.470,610.94 47.585,610.599 47.818,611.72 C48.72,611.589 48.616,612.312 49.446,613.240 C50.492,614.278 51.539,615.46 52.587,615.546 C54.257,616.330 55.544,616.499 56.448,616.54 L79.253,604.832 L81.224,608.837 L58.419,620.59 C56.654,620.928 55.479,621.694 54.895,622.355 C54.506,622.761 54.310,623.124 54.308,623.446 C54.305,623.983 54.420,624.488 54.653,624.962 C54.928,625.522 55.472,626.244 56.281,627.130 C57.327,628.167 58.374,628.936 59.422,629.436 C61.91,630.219 62.379,630.388 63.283,629.943 L86.87,618.721 L88.58,622.727 L58.341,637.350 L56.370,633.345 L56.823,633.122 C56.224,632.775 55.529,632.288 54.739,631.660 C52.902,630.210 51.560,628.624 50.712,626.901 C50.55,625.567 49.773,624.341 49.866,623.225 C49.917,622.24 50.375,620.888 51.240,619.820 C47.858,618.383 45.403,616.112 43.877,613.12 C43.221,611.677 42.938,610.452 43.31,609.335 C43.126,607.898 43.715,606.592 44.795,605.418 C45.725,604.373 47.460,603.224 50.1,601.974 ZM60.14,597.46 L64.924,594.630 C66.991,593.613 69.276,592.276 71.776,590.616 C71.261,590.549 70.585,590.480 69.748,590.410 C66.80,590.237 62.70,591.220 57.719,593.361 C55.178,594.611 53.119,596.80 51.541,597.765 C54.778,598.473 57.603,598.233 60.14,597.46 ZM184.478,776.208 C189.307,779.436 193.930,781.977 198.347,783.834 C201.142,785.9 203.770,785.870 206.232,786.420 C203.892,784.393 202.513,781.812 202.98,778.676 C201.682,775.541 202.355,772.656 204.116,770.22 C206.36,767.149 208.712,765.372 212.140,764.691 C215.570,764.9 218.730,764.636 221.623,766.570 C224.517,768.504 226.294,771.178 226.954,774.594 C227.616,778.9 226.986,781.154 225.66,784.27 C223.252,786.740 220.913,788.641 218.49,789.729 C215.958,790.525 213.662,790.896 211.158,790.839 C206.992,790.767 202.228,789.603 196.865,787.346 C192.249,785.357 187.425,782.682 182.397,779.320 C180.642,778.147 179.232,777.146 178.168,776.320 L180.428,773.327 C181.572,774.207 182.922,775.167 184.478,776.208 ZM209.688,784.747 C211.724,786.107 213.946,786.539 216.356,786.43 C218.767,785.546 220.646,784.291 221.993,782.276 C223.340,780.260 223.782,778.45 223.319,775.628 C222.856,773.210 221.607,771.322 219.572,769.962 C217.537,768.601 215.305,768.162 212.874,768.645 C210.444,769.128 208.555,770.377 207.208,772.392 C205.861,774.407 205.429,776.630 205.911,779.61 C206.395,781.491 207.653,783.386 209.688,784.747 ZM613.866,761.724 L617.119,759.870 L623.679,771.380 L635.189,764.819 L637.43,768.72 L625.533,774.632 L631.166,784.515 C635.8,782.823 638.975,782.633 643.67,783.948 C647.159,785.262 650.286,787.816 652.449,791.611 L652.556,791.799 L649.303,793.653 L649.196,793.465 C647.414,790.338 644.771,788.293 641.268,787.335 C637.766,786.375 634.441,786.793 631.292,788.588 C628.143,790.382 626.100,793.25 625.161,796.516 C624.223,800.6 624.645,803.316 626.427,806.444 L626.534,806.631 L623.282,808.485 L623.175,808.298 C621.12,804.503 620.408,800.510 621.361,796.320 C622.316,792.129 624.500,788.813 627.914,786.369 L622.280,776.486 L610.708,783.82 L608.854,779.830 L620.426,773.234 L613.866,761.724 ZM632.820,791.778 C635.72,790.494 637.448,790.203 639.947,790.906 C642.447,791.607 644.332,793.74 645.604,795.306 C646.876,797.536 647.172,799.895 646.490,802.384 C645.808,804.871 644.342,806.758 642.90,808.41 C639.838,809.325 637.469,809.625 634.980,808.944 C632.492,808.262 630.612,806.806 629.341,804.576 C628.69,802.344 627.768,799.974 628.438,797.466 C629.108,794.957 630.568,793.61 632.820,791.778 ZM632.594,802.722 C633.366,804.76 634.500,804.950 635.993,805.342 C637.488,805.733 638.902,805.549 640.236,804.789 C641.571,804.28 642.450,802.905 642.874,801.420 C643.299,799.935 643.124,798.514 642.352,797.160 C641.579,795.804 640.440,794.920 638.934,794.508 C637.428,794.95 636.9,794.269 634.674,795.30 C633.339,795.791 632.466,796.923 632.53,798.430 C631.641,799.935 631.821,801.366 632.594,802.722 ZM805.692,626.919 L807.141,624.102 L809.530,623.550 L813.907,629.364 L806.631,629.184 L805.692,626.919 ZM766.171,602.697 L778.143,608.857 L784.303,596.885 L787.632,598.598 L781.472,610.570 L790.883,615.412 C793.592,611.300 797.771,608.321 803.416,606.477 C803.998,606.290 804.493,606.166 804.902,606.107 C805.331,606.5 805.740,606.52 806.124,606.250 C806.209,606.294 806.294,606.338 806.380,606.382 L814.191,610.401 L814.59,610.657 L814.59,610.657 L813.441,611.857 L812.477,613.730 L805.115,609.942 C804.943,609.961 804.792,609.991 804.663,610.33 C799.987,611.567 796.524,613.942 794.276,617.158 L807.273,623.846 L805.560,627.175 L792.627,620.520 C791.315,624.433 791.437,628.760 792.992,633.502 L800.355,637.290 L800.223,637.546 L800.223,637.546 L799.557,638.842 L798.642,640.619 L790.895,636.633 C790.745,636.609 790.627,636.576 790.542,636.533 C790.158,636.335 789.893,636.9 789.748,635.557 C789.622,635.276 789.487,634.909 789.342,634.458 C788.678,632.496 788.262,630.473 788.92,628.390 C787.790,624.886 788.170,621.681 789.234,618.775 L779.759,613.899 L773.599,625.871 L770.269,624.158 L776.430,612.186 L764.457,606.26 L766.171,602.697 ZM816.448,610.105 L820.825,615.920 L813.516,615.803 L812.576,613.538 L813.441,611.857 L814.59,610.657 L816.448,610.105 ZM802.612,636.994 L806.956,642.873 L799.681,642.692 L798.741,640.427 L799.557,638.842 L800.223,637.546 L802.612,636.994 ZM809.826,520.22 L807.170,516.415 L816.190,509.774 L808.313,498.819 L819.66,490.839 L811.179,479.955 L821.931,471.975 L815.322,462.742 L818.920,460.157 L828.195,472.927 L817.443,480.907 L825.319,491.862 L814.578,499.770 L822.454,510.725 L809.826,520.22 ZM826.252,501.543 L837.4,493.564 L829.117,482.680 L839.869,474.700 L833.190,465.456 L836.858,462.882 L846.62,475.641 L835.310,483.620 L843.186,494.576 L832.444,502.484 L840.321,513.439 L827.693,522.736 L825.37,519.129 L834.128,512.499 L826.252,501.543 Z"/>
</svg>