<svg 
 xmlns="http://www.w3.org/2000/svg"
 xmlns:xlink="http://www.w3.org/1999/xlink"
 width="1907px" height="1929px">
<path fill-rule="evenodd"  fill="rgb(17, 7, 8)"
 d="M1874.860,856.593 C1872.394,859.120 1857.603,878.123 1855.265,881.143 L1849.720,876.992 C1850.640,876.162 1870.363,852.105 1873.446,848.638 C1874.729,849.724 1897.232,867.884 1899.279,869.318 L1895.31,874.4 C1892.146,871.580 1879.83,859.952 1874.860,856.593 ZM1869.240,848.610 C1863.732,849.237 1847.733,851.277 1846.390,851.575 L1845.575,844.422 C1847.666,844.328 1859.780,843.166 1867.935,842.237 L1875.517,841.373 C1881.740,840.664 1895.434,838.742 1897.79,838.555 L1897.894,845.708 C1896.742,845.767 1883.189,847.21 1876.966,847.730 L1869.240,848.610 ZM1871.434,827.118 C1860.372,829.62 1842.412,824.618 1838.872,804.480 C1836.154,789.22 1845.528,778.310 1858.8,776.116 C1873.749,773.348 1888.470,782.237 1891.474,799.325 C1893.831,812.727 1886.750,824.425 1871.434,827.118 ZM1886.53,799.255 C1883.821,786.563 1872.394,780.604 1860.268,782.736 C1849.703,784.593 1842.274,793.63 1844.231,804.196 C1846.101,814.832 1855.901,822.758 1869.870,820.302 C1882.562,818.71 1887.686,808.544 1886.53,799.255 ZM1875.392,748.714 L1857.564,752.791 C1849.562,754.621 1834.979,758.30 1830.934,759.398 L1829.328,752.379 C1833.97,751.739 1848.117,748.304 1849.732,747.935 L1859.137,745.784 C1860.260,745.527 1877.144,741.518 1878.462,741.143 C1878.847,742.827 1884.89,760.906 1884.884,763.88 L1879.403,764.637 C1878.889,762.391 1875.649,749.837 1875.392,748.714 ZM1845.159,726.80 C1838.199,727.926 1825.797,731.440 1824.215,731.934 L1822.424,725.183 C1825.523,724.510 1841.827,720.259 1843.636,719.779 L1851.153,717.785 C1852.336,717.471 1869.470,712.702 1871.104,712.120 L1872.950,719.79 C1871.661,719.272 1861.27,721.870 1852.675,724.85 L1845.159,726.80 ZM1816.729,708.721 C1818.905,706.523 1830.682,694.800 1831.542,693.698 L1823.57,670.175 C1821.492,669.763 1806.462,668.317 1803.759,667.887 L1805.552,661.129 C1813.336,662.824 1858.582,670.283 1861.712,671.107 L1861.755,671.245 C1853.913,680.366 1828.84,706.419 1822.417,713.343 L1816.729,708.721 ZM1850.772,674.486 C1848.937,673.933 1829.620,671.349 1828.326,671.78 L1835.287,690.250 C1836.559,689.18 1849.891,675.520 1850.772,674.486 ZM1761.905,606.549 L1828.21,578.61 L1830.129,582.953 L1764.13,611.441 L1761.905,606.549 ZM1775.855,499.269 L1775.602,499.407 C1774.348,508.538 1773.157,517.635 1772.110,525.341 L1771.794,525.513 C1765.157,522.817 1753.739,517.971 1746.235,514.436 L1745.919,514.608 C1748.521,522.539 1754.133,538.95 1755.696,542.164 L1750.156,544.37 C1747.77,534.480 1740.397,514.257 1737.691,505.234 L1738.134,504.993 C1747.265,508.953 1761.182,515.225 1767.31,517.530 L1767.347,517.358 C1768.199,512.301 1770.241,497.246 1771.685,488.11 L1772.127,487.770 C1778.660,494.787 1790.416,508.224 1797.459,516.29 L1793.17,519.764 C1787.564,513.224 1781.244,505.844 1775.855,499.269 ZM1743.285,485.792 C1742.493,486.291 1727.330,495.991 1726.248,496.841 L1722.417,490.745 C1724.604,489.625 1735.570,482.988 1736.728,482.260 L1743.68,478.275 L1724.821,451.816 L1720.920,454.268 C1718.177,455.992 1707.75,463.225 1705.712,464.167 L1701.995,458.254 C1704.754,456.690 1719.57,447.785 1720.642,446.789 L1727.225,442.651 C1728.261,442.0 1743.203,432.353 1744.590,431.312 L1748.421,437.408 C1747.247,437.975 1734.697,445.609 1733.599,446.298 L1728.845,449.287 L1747.91,475.747 L1751.968,472.681 C1753.4,472.30 1763.900,465.11 1765.165,464.47 L1769.73,470.264 C1767.495,471.1 1750.844,481.41 1749.381,481.961 L1743.285,485.792 ZM1720.925,406.769 L1711.280,413.706 C1699.413,422.239 1685.921,432.829 1684.836,433.787 L1680.296,427.473 C1682.26,426.673 1699.137,414.456 1708.432,407.772 L1717.142,401.508 C1712.307,394.786 1706.46,386.695 1704.719,385.343 L1709.688,381.770 C1710.902,384.445 1720.631,398.467 1721.93,399.110 L1724.750,404.196 C1725.549,405.307 1734.947,417.882 1737.265,420.118 L1732.296,423.691 C1731.941,422.704 1724.456,411.680 1720.925,406.769 ZM1687.976,391.935 C1679.261,399.19 1661.411,403.881 1648.514,388.16 C1638.615,375.838 1641.587,361.918 1651.419,353.926 C1663.820,343.845 1681.5,344.441 1691.949,357.904 C1700.531,368.462 1700.42,382.127 1687.976,391.935 ZM1687.179,360.482 C1679.51,350.483 1666.168,350.842 1656.616,358.607 C1648.292,365.374 1645.927,376.388 1653.57,385.158 C1659.868,393.538 1672.287,395.689 1683.292,386.744 C1693.291,378.615 1693.128,367.800 1687.179,360.482 ZM1632.537,301.733 L1636.784,297.524 C1642.294,303.608 1654.571,316.182 1662.160,323.776 L1657.856,328.135 C1651.415,321.148 1639.243,308.477 1632.537,301.733 ZM1644.59,336.643 L1639.755,341.3 C1636.498,337.151 1624.221,324.577 1617.865,318.1 L1622.59,313.841 C1627.219,319.757 1639.655,332.185 1644.59,336.643 ZM1571.624,304.688 C1560.288,293.834 1561.507,279.652 1570.270,270.499 C1581.323,258.955 1598.449,257.411 1610.982,269.411 C1620.810,278.821 1622.23,292.441 1611.269,303.673 C1603.501,311.786 1586.393,318.828 1571.624,304.688 ZM1606.570,272.562 C1597.261,263.650 1584.523,265.607 1576.9,274.499 C1568.590,282.247 1567.612,293.471 1575.776,301.288 C1583.577,308.756 1596.167,309.348 1605.975,299.104 C1614.888,289.796 1613.382,279.84 1606.570,272.562 ZM1565.381,236.670 L1557.675,245.711 C1548.193,256.834 1537.625,270.343 1536.800,271.532 L1530.882,266.487 C1532.371,265.296 1546.64,249.343 1553.490,240.631 L1560.450,232.466 C1554.148,227.95 1546.134,220.737 1544.522,219.741 L1548.493,215.84 C1550.311,217.391 1563.110,228.679 1563.713,229.193 L1568.480,233.257 C1569.521,234.144 1581.653,244.107 1584.438,245.724 L1580.468,250.381 C1579.887,249.508 1569.984,240.593 1565.381,236.670 ZM1548.269,1646.947 L1554.914,1647.516 C1554.677,1649.898 1554.659,1673.694 1554.694,1677.169 C1559.36,1677.814 1576.183,1680.582 1580.524,1681.227 L1579.665,1688.309 C1576.558,1687.556 1562.379,1684.714 1554.266,1683.315 C1554.184,1686.985 1554.272,1706.806 1554.425,1710.87 L1547.521,1709.548 C1547.892,1706.104 1549.55,1685.309 1548.769,1682.427 C1545.583,1682.25 1523.610,1678.932 1519.534,1678.154 L1520.292,1671.64 C1523.48,1671.739 1546.566,1675.973 1549.244,1676.335 C1549.199,1674.953 1548.399,1648.540 1548.269,1646.947 ZM1524.708,1698.293 C1534.309,1711.74 1533.54,1728.226 1519.179,1738.648 C1508.298,1746.821 1494.660,1745.808 1485.319,1733.373 C1478.573,1724.392 1474.399,1706.365 1490.749,1694.84 C1503.299,1684.657 1517.98,1688.161 1524.708,1698.293 ZM1493.431,1698.733 C1484.795,1705.220 1482.169,1717.549 1490.687,1728.890 C1498.428,1739.196 1509.243,1739.447 1516.785,1733.782 C1527.90,1726.41 1527.225,1713.153 1519.830,1703.308 C1513.387,1694.730 1502.469,1691.944 1493.431,1698.733 ZM1493.994,1721.543 C1499.392,1717.219 1508.660,1709.537 1512.431,1706.165 L1515.803,1710.295 C1511.385,1713.524 1500.389,1722.864 1497.540,1725.544 L1493.994,1721.543 ZM1452.799,229.236 L1494.59,170.230 L1498.425,173.283 L1457.165,232.289 L1452.799,229.236 ZM1457.438,1738.277 C1462.604,1746.83 1470.439,1749.964 1477.502,1751.765 C1481.691,1752.878 1486.582,1753.354 1490.739,1752.589 L1491.376,1758.901 C1486.222,1759.463 1480.74,1758.783 1477.360,1758.75 C1472.393,1756.700 1465.631,1754.440 1461.12,1750.331 L1460.892,1750.410 C1462.448,1756.546 1462.471,1761.539 1461.653,1767.347 C1460.958,1772.37 1458.218,1779.117 1455.290,1782.781 L1450.389,1779.290 C1453.477,1775.606 1455.913,1770.23 1456.692,1763.895 C1457.676,1756.510 1456.247,1748.218 1452.35,1741.853 L1448.300,1736.209 C1447.743,1735.369 1444.27,1730.144 1443.112,1729.22 L1449.116,1725.49 C1449.970,1726.470 1453.942,1732.993 1454.458,1733.774 L1457.438,1738.277 ZM1420.107,1797.286 C1422.90,1796.113 1433.61,1789.203 1434.52,1788.616 L1424.739,1772.877 C1423.623,1773.537 1415.875,1778.540 1413.59,1780.708 L1409.976,1775.923 C1411.339,1775.116 1421.153,1769.644 1422.392,1768.911 L1413.445,1753.791 C1411.958,1754.671 1403.545,1759.398 1398.683,1762.777 L1395.282,1757.595 C1396.274,1757.8 1415.292,1746.591 1416.531,1745.858 C1418.289,1749.252 1426.135,1762.512 1426.979,1763.938 L1431.892,1772.241 C1432.479,1773.233 1441.439,1788.93 1442.198,1789.234 C1440.711,1790.114 1425.88,1800.613 1423.252,1802.34 L1420.107,1797.286 ZM1392.806,122.293 L1392.668,122.546 C1396.571,130.897 1400.507,139.184 1403.810,146.225 L1403.638,146.541 C1396.600,147.879 1384.379,150.5 1376.157,151.108 L1375.985,151.425 C1382.475,156.674 1395.632,166.695 1399.153,169.265 L1395.515,173.845 C1387.743,167.488 1371.156,154.126 1363.987,148.16 L1364.228,147.573 C1374.47,145.945 1389.140,143.660 1395.305,142.421 L1395.477,142.105 C1393.448,137.395 1386.992,123.640 1383.193,115.100 L1383.434,114.657 C1392.730,117.6 1409.897,121.913 1420.49,124.646 L1418.344,130.194 C1410.215,127.660 1400.901,124.891 1392.806,122.293 ZM1330.814,139.627 C1316.597,132.974 1313.210,119.146 1318.581,107.668 C1325.356,93.190 1341.88,86.243 1356.805,93.598 C1369.131,99.365 1374.642,111.881 1368.51,125.968 C1363.290,136.142 1349.336,148.294 1330.814,139.627 ZM1353.634,97.996 C1341.960,92.534 1330.518,98.468 1325.300,109.620 C1320.753,119.337 1323.421,130.284 1333.660,135.75 C1343.442,139.653 1355.560,136.182 1361.572,123.334 C1367.35,111.660 1362.177,101.994 1353.634,97.996 ZM1302.648,102.216 C1299.921,108.879 1295.240,120.889 1294.680,122.449 L1288.216,119.804 C1289.549,116.926 1295.996,101.361 1296.705,99.629 L1299.650,92.432 C1300.114,91.299 1306.649,74.759 1307.170,73.105 L1313.833,75.831 C1313.209,76.976 1308.865,87.23 1305.593,95.19 L1302.648,102.216 ZM1283.398,69.381 C1282.695,70.737 1278.46,84.214 1277.475,85.845 L1275.93,92.640 C1274.783,93.523 1269.32,110.581 1268.783,111.944 L1262.125,109.610 C1263.70,107.347 1268.569,91.879 1269.22,90.588 L1273.166,78.765 C1274.190,75.843 1276.695,68.481 1277.35,67.74 C1272.935,65.713 1256.12,60.10 1251.412,58.550 C1250.895,59.590 1247.690,68.79 1246.499,71.477 L1242.664,82.416 C1241.235,86.493 1237.56,99.67 1236.576,100.654 L1230.53,98.367 C1231.237,95.425 1236.879,79.549 1237.498,77.782 L1240.71,70.444 C1240.476,69.289 1243.838,59.481 1244.794,56.535 C1242.232,55.790 1239.783,55.160 1238.332,54.728 L1240.261,49.224 C1246.444,51.392 1261.393,56.632 1264.610,57.683 C1267.488,58.616 1283.822,64.37 1291.599,66.229 L1289.599,71.936 C1288.399,71.440 1286.1,70.446 1283.398,69.381 ZM1197.342,73.9 L1196.181,77.96 C1195.787,78.481 1193.642,86.30 1193.367,87.524 L1186.856,85.674 C1187.841,82.735 1192.793,66.102 1194.190,61.185 L1196.355,53.566 C1196.808,51.974 1200.478,38.270 1200.773,37.231 C1203.682,38.58 1209.441,39.919 1213.538,41.832 C1222.386,45.994 1226.944,52.80 1224.858,59.421 C1222.161,68.910 1211.250,74.117 1197.342,73.9 ZM1205.550,44.128 L1198.720,68.161 C1207.978,68.771 1215.679,66.169 1217.844,58.551 C1218.435,56.473 1219.482,48.312 1205.550,44.128 ZM1147.153,77.187 C1131.828,73.787 1125.513,61.28 1128.257,48.655 C1131.719,33.49 1145.563,22.844 1162.505,26.602 C1175.791,29.550 1183.894,40.567 1180.526,55.751 C1178.93,66.717 1167.117,81.615 1147.153,77.187 ZM1160.366,31.586 C1147.783,28.795 1137.906,37.77 1135.240,49.98 C1132.916,59.572 1137.903,69.677 1148.939,72.125 C1159.484,74.464 1170.557,68.438 1173.629,54.590 C1176.420,42.7 1169.575,33.629 1160.366,31.586 ZM1130.412,1857.406 C1131.332,1858.234 1157.317,1875.341 1161.86,1878.46 C1160.141,1879.436 1144.425,1903.711 1143.212,1905.896 L1138.108,1902.160 C1140.219,1899.38 1150.421,1884.832 1153.322,1880.282 C1150.552,1878.93 1130.109,1865.363 1126.861,1863.354 L1130.412,1857.406 ZM1088.382,1901.134 C1086.774,1891.401 1094.423,1882.36 1107.476,1877.107 L1106.784,1872.915 C1106.549,1871.494 1105.270,1863.750 1104.882,1862.282 L1111.560,1861.179 C1111.922,1864.257 1114.537,1881.414 1115.370,1886.458 L1116.661,1894.273 C1116.931,1895.907 1119.456,1909.868 1119.632,1910.934 C1116.648,1911.427 1110.645,1912.199 1106.123,1912.216 C1096.344,1912.226 1089.626,1908.665 1088.382,1901.134 ZM1112.369,1906.733 L1108.297,1882.80 C1099.663,1885.477 1093.806,1891.115 1095.97,1898.930 C1095.449,1901.61 1097.983,1908.890 1112.369,1906.733 ZM1115.718,64.545 L1110.242,68.787 C1109.687,67.679 1091.743,42.270 1089.220,38.376 C1090.608,37.428 1114.99,20.566 1116.25,18.974 L1119.413,24.315 C1116.308,26.451 1101.626,35.951 1097.264,39.129 C1099.45,42.178 1113.429,61.489 1115.718,64.545 ZM1088.75,42.422 C1087.215,47.899 1084.926,63.864 1084.856,65.237 L1077.744,64.120 C1078.210,62.80 1080.311,50.94 1081.584,41.986 L1082.769,34.447 C1083.740,28.260 1085.529,14.549 1085.786,12.913 L1092.898,14.30 C1092.648,15.157 1090.253,28.554 1089.281,34.741 L1088.75,42.422 ZM1065.495,1897.832 L1064.534,1890.116 C1063.645,1882.972 1061.838,1870.210 1061.562,1868.576 L1068.492,1867.713 C1068.740,1870.874 1070.751,1887.601 1070.982,1889.458 L1071.943,1897.174 C1072.94,1898.388 1074.506,1916.8 1074.862,1917.705 L1067.718,1918.594 C1067.701,1917.291 1066.563,1906.405 1065.495,1897.832 ZM1040.993,17.213 C1047.822,23.403 1054.659,29.521 1060.429,34.735 L1060.393,35.93 C1054.421,39.50 1043.975,45.739 1036.821,49.938 L1036.785,50.296 C1044.800,52.625 1060.809,56.774 1065.50,57.781 L1063.468,63.411 C1053.842,60.558 1033.377,54.656 1024.403,51.796 L1024.454,51.294 C1032.877,45.993 1045.910,38.46 1051.115,34.519 L1051.151,34.160 C1047.458,30.603 1036.183,20.419 1029.375,14.14 L1029.426,13.513 C1038.906,12.81 1056.634,9.963 1067.52,8.554 L1067.627,14.330 C1059.151,15.138 1049.492,16.190 1041.22,16.927 L1040.993,17.213 ZM1047.972,1893.167 C1049.164,1909.105 1038.859,1922.871 1021.557,1924.165 C1007.989,1925.180 997.51,1916.974 995.891,1901.467 C995.53,1890.268 1001.257,1872.838 1021.646,1871.312 C1037.297,1870.141 1047.26,1880.531 1047.972,1893.167 ZM1021.397,1876.673 C1010.629,1877.479 1001.770,1886.444 1002.828,1900.587 C1003.789,1913.438 1012.760,1919.481 1022.165,1918.777 C1035.16,1917.816 1042.79,1907.36 1041.160,1894.760 C1040.360,1884.62 1032.669,1875.830 1021.397,1876.673 ZM964.110,1900.877 C968.193,1903.979 980.578,1912.778 988.86,1918.344 L988.94,1918.848 C978.846,1921.375 961.488,1925.547 951.305,1928.162 L950.60,1922.493 C958.384,1920.701 967.854,1918.531 976.179,1916.810 L976.175,1916.522 C968.670,1911.172 961.167,1905.894 954.829,1901.389 L954.823,1901.29 C960.292,1896.403 969.885,1888.541 976.500,1883.536 L976.494,1883.177 C968.263,1881.799 951.880,1879.546 947.551,1879.40 L948.465,1873.264 C958.358,1874.975 979.370,1878.449 988.616,1880.242 L988.625,1880.746 C980.877,1886.993 968.861,1896.407 964.104,1900.517 L964.110,1900.877 ZM955.536,72.965 L956.710,0.974 L962.38,1.61 L960.863,73.52 L955.536,72.965 ZM870.830,1925.389 L876.888,1853.643 L882.197,1854.91 L876.140,1925.838 L870.830,1925.389 ZM870.531,36.874 L869.855,29.127 C869.749,27.907 867.988,10.208 867.695,8.499 L874.868,7.874 C874.837,9.177 875.573,20.99 876.323,28.707 L876.999,36.454 C877.625,43.627 878.960,56.449 879.175,58.92 L872.217,58.699 C872.86,55.530 870.693,38.739 870.531,36.874 ZM842.751,44.324 L818.128,48.669 C817.455,50.141 813.466,64.702 812.580,67.292 L806.228,64.373 C809.227,56.992 824.298,13.688 825.644,10.746 L825.787,10.726 C833.435,20.9 854.694,49.903 860.549,56.667 L855.24,61.483 C853.231,58.964 843.691,45.360 842.751,44.324 ZM827.106,22.100 C826.248,23.814 820.405,42.404 819.917,43.632 L839.994,40.47 C838.997,38.583 827.974,23.145 827.106,22.100 ZM783.988,53.473 L759.700,59.422 C759.125,60.934 756.97,75.727 755.384,78.370 L748.853,75.872 C751.362,68.311 763.566,24.109 764.716,21.84 L764.857,21.55 C773.98,29.818 796.272,58.258 802.557,64.625 L797.359,69.792 C795.405,67.396 784.993,54.445 783.988,53.473 ZM766.919,32.319 C766.175,34.86 761.562,53.20 761.156,54.278 L780.956,49.385 C779.865,47.990 767.854,33.305 766.919,32.319 ZM727.353,66.768 L725.360,59.551 L694.773,69.417 L696.0,73.859 C696.862,76.981 700.596,89.693 701.107,91.270 L694.375,93.129 C693.671,90.37 689.255,73.779 688.757,71.975 L686.687,64.480 C686.362,63.300 681.420,46.217 680.821,44.589 L687.760,42.673 C687.967,43.960 691.668,58.175 692.13,59.424 L693.508,64.837 L724.95,54.971 L722.562,49.419 C722.236,48.239 718.647,35.786 718.87,34.298 L725.166,32.343 C725.417,34.66 730.245,52.899 730.705,54.564 L732.621,61.504 C732.870,62.406 737.801,79.717 738.303,80.997 L731.364,82.914 C730.920,80.497 727.717,68.87 727.353,66.768 ZM676.166,100.201 C673.840,98.576 653.441,86.129 651.75,84.823 C650.618,86.129 641.819,111.46 641.365,112.579 L635.374,109.647 C636.456,107.512 645.71,85.330 646.294,82.77 C642.479,79.906 627.490,71.130 623.675,68.959 L627.36,62.666 C629.661,64.491 641.855,72.265 648.914,76.501 C650.317,73.108 657.397,54.594 658.440,51.481 L664.683,54.477 C663.93,57.554 654.494,76.525 653.719,79.316 C656.544,80.842 675.915,91.665 679.435,93.863 L676.166,100.201 ZM643.818,1835.559 L645.294,1831.575 C645.794,1830.225 648.520,1822.865 648.910,1821.397 L655.257,1823.748 C654.47,1826.601 647.817,1842.799 646.41,1847.593 L643.290,1855.20 C642.715,1856.573 637.991,1869.949 637.616,1870.962 C634.780,1869.912 629.183,1867.608 625.247,1865.383 C616.750,1860.546 612.679,1854.124 615.330,1846.967 C618.756,1837.717 630.39,1833.373 643.818,1835.559 ZM622.254,1848.380 C621.504,1850.406 619.826,1858.460 633.390,1863.715 L642.68,1840.285 C632.885,1838.957 625.5,1840.953 622.254,1848.380 ZM571.427,1845.674 C558.968,1840.197 553.164,1827.814 559.423,1813.576 C563.943,1803.292 577.608,1790.815 596.329,1799.45 C610.699,1805.362 614.410,1819.106 609.310,1830.708 C602.878,1845.341 587.313,1852.657 571.427,1845.674 ZM593.591,1803.662 C583.703,1799.315 571.670,1803.71 565.962,1816.57 C560.775,1827.856 565.858,1837.406 574.494,1841.202 C586.293,1846.388 597.593,1840.187 602.548,1828.915 C606.865,1819.93 603.940,1808.211 593.591,1803.662 ZM549.562,91.670 L554.384,89.403 L585.23,154.558 L580.202,156.825 L549.562,91.670 ZM562.725,1791.887 C552.948,1793.748 537.913,1796.390 531.780,1797.774 L531.615,1798.94 C533.756,1802.754 540.535,1816.352 544.535,1824.799 L544.305,1825.247 C534.957,1823.119 517.679,1818.621 507.465,1816.129 L509.38,1810.543 C517.225,1812.884 526.601,1815.431 534.755,1817.836 L534.887,1817.580 C530.788,1809.324 526.656,1801.133 523.188,1794.173 L523.352,1793.853 C530.356,1792.349 542.522,1789.934 550.716,1788.636 L550.880,1788.316 C544.268,1783.222 530.878,1773.516 527.298,1771.31 L530.825,1766.366 C538.746,1772.537 555.644,1785.500 562.955,1791.439 L562.725,1791.887 ZM467.804,191.419 C471.306,182.104 476.876,167.894 478.888,161.938 L478.700,161.630 C473.608,161.32 458.471,159.741 449.177,158.759 L448.914,158.329 C455.597,151.456 468.431,139.48 475.875,131.625 L479.826,135.876 C473.565,141.647 466.510,148.325 460.213,154.34 L460.363,154.280 C469.544,155.78 478.687,155.815 486.435,156.477 L486.623,156.784 C484.260,163.546 479.989,175.189 476.832,182.859 L477.19,183.167 C484.810,180.174 500.66,173.796 504.52,172.33 L506.197,177.472 C496.806,181.22 476.943,188.699 468.67,191.849 L467.804,191.419 ZM444.191,216.376 C431.314,225.350 417.650,221.359 410.405,210.963 C401.265,197.850 403.129,180.755 417.364,170.833 C428.527,163.52 442.120,164.549 451.12,177.307 C457.434,186.522 460.966,204.684 444.191,216.376 ZM445.489,181.596 C438.119,171.23 427.321,170.388 419.583,175.781 C409.10,183.150 408.418,196.25 415.458,206.125 C421.592,214.926 432.403,218.98 441.676,211.634 C450.536,205.459 453.599,193.232 445.489,181.596 ZM412.103,239.925 C409.370,239.631 357.562,233.389 355.424,232.801 L355.312,232.891 C356.893,234.853 378.530,262.628 380.77,264.433 L374.491,268.286 C371.384,263.856 347.514,231.130 343.142,225.130 L343.255,225.40 C346.270,225.569 396.121,231.907 399.361,232.256 C398.96,230.686 377.159,204.11 375.725,202.115 L381.164,198.195 C383.650,201.740 401.58,225.527 412.215,239.835 L412.103,239.925 ZM335.17,273.120 L346.827,286.125 C348.106,284.963 355.394,278.637 359.474,274.349 L363.849,278.739 C362.997,279.513 346.470,293.549 345.404,294.517 C342.998,291.547 332.640,280.141 331.527,278.915 L325.42,271.773 C324.267,270.920 312.496,258.172 311.523,257.208 C312.802,256.46 325.987,242.614 327.499,240.852 L331.536,244.869 C329.831,246.418 320.479,255.396 319.626,256.171 L331.920,269.709 C332.879,268.838 339.459,262.376 341.781,259.684 L345.764,263.750 C344.592,264.815 336.83,272.152 335.17,273.120 ZM316.211,324.584 C305.194,335.761 291.32,334.336 282.9,325.441 C270.627,314.222 269.333,297.76 281.512,284.720 C291.63,275.30 304.699,274.16 315.773,284.932 C323.771,292.815 330.564,310.24 316.211,324.584 ZM284.598,289.177 C275.552,298.355 277.324,311.119 286.91,319.761 C293.730,327.291 304.938,328.432 312.872,320.383 C320.453,312.693 321.228,300.113 311.127,290.157 C301.950,281.111 291.219,282.461 284.598,289.177 ZM289.41,312.257 C292.933,308.411 302.425,297.551 304.846,294.479 L308.943,297.911 C304.246,302.984 296.216,311.951 292.986,315.843 L289.41,312.257 ZM269.265,357.790 C270.347,358.740 276.244,363.917 277.476,364.807 L273.11,369.893 C270.779,367.742 257.882,356.132 254.40,352.760 L248.88,347.535 C246.844,346.442 236.42,337.247 235.230,336.534 C237.225,334.262 241.378,329.859 244.864,326.979 C252.419,320.774 259.872,319.269 265.608,324.304 C273.20,330.812 273.41,342.902 266.72,354.987 L269.265,357.790 ZM261.812,330.265 C260.188,328.840 253.267,324.392 243.509,335.180 L262.285,351.662 C266.809,343.562 267.764,335.490 261.812,330.265 ZM262.745,383.873 C259.704,383.317 243.381,380.209 241.985,380.121 L227.355,400.397 C227.897,401.921 235.184,415.145 236.354,417.619 L229.764,419.952 C226.771,412.570 207.401,371.10 206.315,367.962 L206.404,367.848 C218.359,369.176 254.438,375.798 263.351,376.569 L262.745,383.873 ZM215.277,375.86 C215.856,376.913 224.621,394.317 225.128,395.538 L237.27,378.975 C235.292,378.620 216.627,375.230 215.277,375.86 ZM207.814,419.976 C208.587,420.504 223.571,430.481 224.822,431.74 L220.841,436.900 C218.901,435.400 205.388,426.79 204.258,425.308 L193.914,418.240 C191.358,416.493 184.897,412.166 183.627,411.472 C181.249,415.80 171.354,429.945 168.751,434.9 C169.621,434.778 176.990,440.74 179.962,442.105 L189.534,448.645 C193.100,451.82 204.161,458.378 205.569,459.252 L201.669,464.959 C199.135,463.53 185.265,453.489 183.719,452.433 L177.298,448.46 C176.288,447.356 167.687,441.566 165.90,439.879 C163.706,442.160 162.462,444.362 161.669,445.651 L156.854,442.361 C160.550,436.951 169.486,423.873 171.336,421.38 C172.982,418.500 182.452,404.130 186.586,397.187 L191.579,400.599 C190.789,401.629 189.208,403.688 187.504,405.925 C188.631,406.956 200.442,414.939 201.869,415.914 L207.814,419.976 ZM178.396,539.907 L115.72,505.651 L117.607,500.966 L180.931,535.221 L178.396,539.907 ZM130.250,600.946 C127.720,602.21 79.437,621.815 77.284,622.343 L77.230,622.476 C79.566,623.419 111.995,637.131 114.225,637.953 L111.224,644.40 C106.352,641.685 69.562,624.738 62.821,621.629 L62.875,621.495 C65.766,620.488 112.387,601.732 115.386,600.458 C113.516,599.704 82.235,586.611 80.59,585.655 L82.899,579.582 C86.797,581.465 113.589,593.755 130.304,600.813 L130.250,600.946 ZM79.648,649.558 C89.239,652.657 95.454,659.886 97.926,666.285 L98.381,666.281 C99.354,663.38 101.278,656.850 102.217,652.538 L107.992,654.102 C107.125,656.318 100.51,677.35 99.540,678.383 L98.331,678.144 C96.650,671.169 89.375,659.965 78.276,656.378 C66.423,652.548 57.526,658.72 54.692,666.841 C50.884,678.625 58.416,688.97 69.173,691.573 C78.901,694.717 89.257,691.707 95.258,688.123 L96.219,688.660 C95.844,690.53 90.72,708.617 89.7,711.678 L83.546,709.611 C85.16,706.0 87.279,699.467 88.51,696.841 L87.548,696.527 C83.855,698.587 75.109,700.831 67.93,698.240 C53.939,693.989 44.707,680.412 49.821,664.586 C53.895,651.980 66.14,645.152 79.648,649.558 ZM56.250,728.827 C56.577,727.573 58.553,718.565 59.25,715.42 L64.583,716.267 C64.184,717.800 61.72,728.596 60.709,729.989 L77.709,734.420 C78.145,732.748 80.787,723.466 81.858,717.644 L87.923,718.927 C87.632,720.42 81.470,740.832 81.107,742.225 C77.468,741.54 62.559,737.168 60.956,736.750 L51.620,734.317 C50.506,734.27 33.678,729.790 32.336,729.515 C32.772,727.842 36.466,709.386 36.769,707.84 L42.345,708.239 C41.764,710.469 38.844,723.101 38.554,724.215 L56.250,728.827 ZM78.86,759.309 C76.305,759.754 33.641,772.205 32.368,772.680 C34.1,774.42 66.882,799.421 69.557,801.437 L65.46,806.615 C59.66,801.352 22.908,772.585 20.602,770.204 L20.631,770.63 C31.872,766.112 67.256,755.848 75.572,752.550 L78.86,759.309 ZM76.391,875.361 L4.766,868.83 L5.305,862.783 L76.930,870.61 L76.391,875.361 ZM12.81,974.73 L12.368,974.68 C17.720,966.565 23.0,959.63 27.507,952.725 L27.867,952.720 C32.491,958.190 40.351,967.785 45.354,974.401 L45.714,974.395 C47.94,966.164 49.350,949.781 49.857,945.453 L55.632,946.368 C53.919,956.260 50.441,977.271 48.646,986.518 L48.142,986.526 C41.896,978.777 32.485,966.759 28.376,962.1 L28.16,962.6 C24.914,966.89 16.112,978.472 10.544,985.979 L10.40,985.987 C7.515,976.739 3.347,959.380 0.734,949.196 L6.403,947.953 C8.193,956.277 10.362,965.747 12.81,974.73 ZM27.18,993.328 C38.232,992.676 55.560,999.169 56.747,1019.584 C57.658,1035.255 47.107,1044.813 34.455,1045.549 C18.497,1046.477 4.901,1035.944 3.894,1018.619 C3.103,1005.33 11.491,994.231 27.18,993.328 ZM9.272,1019.316 C10.20,1032.184 20.683,1039.425 32.975,1038.710 C43.686,1038.87 52.46,1030.533 51.390,1019.247 C50.763,1008.464 41.944,999.456 27.783,1000.280 C14.916,1001.28 8.724,1009.900 9.272,1019.316 ZM60.14,1059.252 C58.330,1061.425 25.838,1102.263 24.215,1103.775 L24.233,1103.918 C26.733,1103.601 61.733,1099.748 64.81,1099.378 L64.432,1106.155 C59.30,1106.477 18.644,1109.634 11.241,1110.208 L11.223,1110.65 C13.256,1107.776 44.804,1068.654 46.800,1066.79 C44.800,1066.333 11.104,1070.166 8.738,1070.393 L8.253,1063.705 C12.575,1063.448 41.960,1061.104 59.996,1059.110 L60.14,1059.252 ZM46.470,1128.915 C53.558,1127.646 66.207,1125.161 67.824,1124.798 L69.55,1131.673 C65.911,1132.90 49.313,1134.989 47.471,1135.320 L39.816,1136.691 C38.611,1136.906 21.143,1140.255 19.467,1140.701 L18.197,1133.614 C19.499,1133.527 30.310,1131.810 38.815,1130.286 L46.470,1128.915 ZM50.49,1173.561 C52.229,1170.783 64.893,1150.297 66.893,1147.43 L72.853,1150.574 C72.27,1151.498 55.3,1177.540 52.310,1181.318 C50.917,1180.377 26.589,1164.738 24.400,1163.533 L28.120,1158.416 C31.250,1160.517 45.489,1170.674 50.49,1173.561 ZM56.495,1180.894 C61.904,1179.678 77.593,1175.930 78.896,1175.489 L80.476,1182.514 C78.407,1182.832 66.487,1185.290 58.478,1187.90 L51.31,1188.764 C44.920,1190.138 31.510,1193.522 29.895,1193.885 L28.315,1186.860 C29.455,1186.677 42.796,1183.974 48.908,1182.600 L56.495,1180.894 ZM48.831,1205.936 C58.330,1203.275 68.474,1209.855 74.799,1222.291 L78.890,1221.145 C80.276,1220.757 87.834,1218.639 89.251,1218.93 L91.77,1224.610 C88.57,1225.307 71.289,1229.780 66.366,1231.159 L58.739,1233.296 C57.144,1233.743 43.543,1237.777 42.503,1238.69 C41.687,1235.157 40.264,1229.274 39.753,1224.781 C38.675,1215.63 41.481,1207.995 48.831,1205.936 ZM45.886,1230.391 L69.945,1223.651 C65.626,1215.439 59.382,1210.234 51.755,1212.371 C49.675,1212.953 42.170,1216.327 45.886,1230.391 ZM97.181,1240.838 C95.56,1243.83 83.544,1255.69 82.709,1256.191 L91.722,1279.517 C93.296,1279.894 108.355,1281.1 111.68,1281.370 L109.428,1288.167 C101.607,1286.648 56.203,1280.208 53.55,1279.455 L53.9,1279.319 C60.644,1270.23 85.881,1243.395 91.390,1236.344 L97.181,1240.838 ZM63.916,1275.831 C65.764,1276.342 85.134,1278.491 86.434,1278.733 L79.44,1259.722 C77.800,1260.983 64.775,1274.778 63.916,1275.831 ZM97.146,1323.184 C98.832,1320.81 107.904,1297.771 109.333,1294.229 L115.798,1296.718 C115.138,1297.766 102.693,1326.281 100.668,1330.456 C99.138,1329.759 72.544,1318.395 70.184,1317.572 L73.0,1311.907 C76.435,1313.457 92.168,1321.98 97.146,1323.184 ZM104.724,1329.340 C109.855,1327.239 124.699,1320.928 125.911,1320.276 L128.639,1326.940 C126.652,1327.597 115.309,1332.8 107.712,1335.119 L100.649,1338.10 C94.852,1340.384 82.194,1345.956 80.662,1346.583 L77.933,1339.920 C79.27,1339.550 91.730,1334.660 97.527,1332.286 L104.724,1329.340 ZM176.949,1387.387 L113.305,1421.48 L110.814,1416.339 L174.459,1382.678 L176.949,1387.387 ZM175.17,1463.314 C181.102,1459.468 191.879,1452.399 193.240,1451.454 L196.972,1457.356 C194.217,1458.927 179.939,1467.868 178.357,1468.868 L171.785,1473.22 C170.751,1473.676 155.836,1483.360 154.452,1484.405 L150.605,1478.320 C151.778,1477.749 161.143,1472.85 168.445,1467.469 L175.17,1463.314 ZM181.439,1483.777 C190.635,1477.326 208.787,1473.739 220.531,1490.479 C229.546,1503.329 225.596,1517.6 215.222,1524.284 C202.136,1533.464 185.34,1531.653 175.68,1517.447 C167.253,1506.307 168.707,1492.709 181.439,1483.777 ZM180.9,1515.213 C187.411,1525.764 200.288,1526.317 210.368,1519.246 C219.150,1513.84 222.289,1502.263 215.797,1493.9 C209.594,1484.167 197.357,1481.142 185.745,1489.288 C175.194,1496.690 174.592,1507.491 180.9,1515.213 ZM243.961,1522.9 C240.935,1526.830 224.636,1554.504 223.311,1557.87 C228.72,1556.527 253.572,1552.50 259.62,1551.356 L259.154,1551.468 C255.802,1559.633 247.963,1577.644 244.733,1584.31 C249.95,1582.307 279.762,1569.943 282.479,1568.826 L284.507,1574.804 C281.302,1575.669 235.649,1593.276 234.86,1594.96 L233.994,1593.985 C236.79,1589.379 248.52,1561.999 249.460,1558.44 C244.745,1558.660 214.935,1563.792 212.342,1564.153 L212.250,1564.42 C215.208,1558.345 234.99,1526.114 237.970,1518.919 L243.961,1522.9 ZM267.188,1608.666 C274.633,1608.385 282.563,1605.571 288.122,1600.342 L293.52,1595.705 C293.786,1595.14 298.306,1590.467 299.256,1589.375 L304.189,1594.619 C302.934,1595.702 297.177,1600.721 296.495,1601.362 L292.562,1605.62 C285.744,1611.475 283.247,1619.854 282.668,1627.120 C282.281,1631.438 282.641,1636.339 284.98,1640.305 L277.985,1642.3 C276.559,1637.19 276.187,1630.844 276.425,1628.50 C276.939,1622.921 278.20,1615.874 281.288,1610.626 L281.189,1610.521 C275.406,1613.95 270.489,1613.963 264.626,1614.140 C259.886,1614.250 252.444,1612.749 248.337,1610.484 L250.947,1605.63 C255.101,1607.482 261.16,1608.936 267.188,1608.666 ZM314.512,1605.570 C318.681,1609.962 326.742,1617.682 335.478,1626.49 C342.288,1632.471 349.414,1639.396 355.754,1645.269 L355.657,1645.475 C348.672,1647.459 309.640,1660.626 299.263,1663.549 L299.159,1663.449 C301.628,1652.752 312.670,1614.573 314.311,1605.677 L314.512,1605.570 ZM344.802,1642.755 C343.343,1641.259 337.567,1635.527 331.691,1629.899 C325.812,1624.169 319.732,1618.546 317.971,1617.158 C317.646,1618.642 308.790,1649.542 307.135,1655.434 C313.154,1653.522 343.537,1643.139 344.802,1642.755 ZM344.344,1674.235 L349.457,1668.377 C354.192,1662.952 362.505,1653.101 363.539,1651.805 L368.801,1656.398 C366.609,1658.690 355.476,1671.336 354.245,1672.747 L349.131,1678.605 C348.326,1679.527 336.794,1693.68 335.766,1694.464 L330.342,1689.730 C331.302,1688.848 338.662,1680.745 344.344,1674.235 ZM376.25,1662.807 C380.582,1666.794 389.321,1673.736 398.793,1681.260 C406.168,1687.25 413.903,1693.262 420.759,1698.523 L420.681,1698.737 C413.909,1701.358 376.262,1718.76 366.200,1721.945 L366.87,1721.855 C367.556,1710.977 375.22,1671.941 375.835,1662.931 L376.25,1662.807 ZM409.621,1697.32 C408.31,1695.677 401.749,1690.504 395.378,1685.443 C388.995,1680.281 382.422,1675.244 380.540,1674.25 C380.354,1675.532 374.391,1707.118 373.288,1713.138 C379.104,1710.678 408.397,1697.531 409.621,1697.32 ZM484.939,1720.546 L446.105,1781.169 L441.619,1778.296 L480.453,1717.673 L484.939,1720.546 ZM667.554,1832.222 L673.950,1829.71 C674.853,1831.760 683.851,1853.896 684.977,1856.353 C686.121,1855.575 708.11,1840.776 709.287,1839.813 L712.360,1845.733 C710.221,1846.807 690.105,1859.516 687.187,1861.404 C688.963,1865.417 695.794,1881.385 697.570,1885.399 L691.127,1888.460 C690.101,1885.432 684.921,1871.931 681.765,1864.328 C678.620,1866.222 661.919,1876.895 659.229,1878.778 L655.993,1872.657 C659.101,1871.129 677.294,1860.991 679.576,1859.208 C678.212,1856.302 669.76,1836.82 667.554,1832.222 ZM729.536,1864.465 L754.64,1869.330 C755.225,1868.202 764.217,1856.72 765.979,1853.979 L770.844,1859.0 C765.376,1864.794 735.646,1899.707 733.326,1901.963 L733.186,1901.929 C729.417,1890.506 720.423,1854.940 717.414,1846.514 L724.308,1844.25 C725.68,1847.22 729.36,1863.160 729.536,1864.465 ZM736.74,1890.849 C737.495,1889.561 749.673,1874.347 750.572,1873.378 L730.558,1869.451 C730.958,1871.176 735.644,1889.560 736.74,1890.849 ZM781.34,1904.108 L783.176,1892.423 C785.812,1878.48 788.195,1861.63 788.313,1859.621 L795.961,1861.24 C795.269,1862.800 791.407,1883.465 789.342,1894.725 L787.407,1905.277 C795.551,1906.770 805.672,1908.260 807.565,1908.314 L806.461,1914.333 C803.732,1913.247 787.1,1909.887 786.222,1909.744 L780.61,1908.614 C778.715,1908.367 763.226,1905.820 760.6,1905.815 L761.110,1899.796 C762.49,1900.261 775.85,1903.17 781.34,1904.108 ZM1155.344,1851.443 L1162.374,1849.886 C1162.684,1851.956 1165.104,1863.883 1166.878,1871.897 L1168.528,1879.349 C1169.882,1885.465 1173.222,1898.884 1173.580,1900.500 L1166.550,1902.57 C1166.371,1900.917 1163.711,1887.568 1162.357,1881.452 L1160.676,1873.860 C1159.478,1868.447 1155.780,1852.748 1155.344,1851.443 ZM1323.205,1854.149 L1318.295,1856.218 L1290.341,1789.857 L1295.251,1787.788 L1323.205,1854.149 ZM1390.956,1768.113 C1386.869,1777.187 1380.404,1791.15 1378.18,1796.832 L1378.186,1797.150 C1383.230,1798.72 1398.255,1800.324 1407.468,1801.896 L1407.704,1802.342 C1400.596,1808.776 1386.996,1820.343 1379.94,1827.278 L1375.422,1822.783 C1382.38,1817.423 1389.504,1811.206 1396.154,1805.909 L1396.19,1805.654 C1386.907,1804.273 1377.828,1802.956 1370.137,1801.801 L1369.969,1801.483 C1372.758,1794.884 1377.762,1783.536 1381.402,1776.81 L1381.234,1775.763 C1373.268,1778.254 1357.635,1783.648 1353.545,1785.154 L1351.749,1779.589 C1361.348,1776.644 1381.662,1770.246 1390.721,1767.667 L1390.956,1768.113 ZM1563.151,1634.896 L1568.247,1630.120 C1570.309,1632.530 1581.779,1644.872 1583.59,1646.238 L1588.377,1651.912 C1589.214,1652.805 1601.534,1665.634 1602.821,1666.796 L1597.567,1671.720 C1596.786,1670.676 1589.459,1662.543 1583.550,1656.239 L1578.232,1650.565 C1573.308,1645.311 1564.336,1636.55 1563.151,1634.896 ZM1603.739,325.834 C1611.79,334.539 1620.675,345.373 1630.326,354.885 L1625.920,359.241 C1619.377,352.250 1605.437,336.704 1599.244,329.880 L1603.739,325.834 ZM1661.606,1611.576 L1658.41,1615.536 L1604.529,1567.364 L1608.94,1563.404 L1661.606,1611.576 ZM1702.531,1482.194 C1695.540,1491.182 1686.936,1502.821 1679.635,1514.237 L1674.460,1510.832 C1679.939,1502.979 1692.250,1486.114 1697.639,1478.637 L1702.531,1482.194 ZM1718.68,1497.623 C1713.353,1503.900 1703.780,1518.646 1700.333,1523.881 L1695.175,1520.577 C1698.266,1516.590 1708.15,1501.968 1713.127,1494.385 L1718.68,1497.623 ZM1737.88,1508.637 C1732.282,1515.291 1722.533,1529.913 1716.681,1538.914 L1711.522,1535.609 C1717.19,1527.857 1726.885,1513.318 1732.89,1505.357 L1737.88,1508.637 ZM1716.562,1446.374 C1724.824,1433.28 1738.952,1431.274 1749.726,1437.945 C1763.317,1446.359 1768.385,1462.793 1759.251,1477.547 C1752.87,1489.117 1739.15,1493.133 1725.791,1484.946 C1716.241,1479.33 1705.797,1463.760 1716.562,1446.374 ZM1755.251,1473.885 C1762.36,1462.927 1757.474,1450.872 1747.6,1444.390 C1737.884,1438.743 1726.701,1440.118 1720.750,1449.729 C1715.65,1458.912 1717.102,1471.352 1729.162,1478.819 C1740.120,1485.603 1750.286,1481.904 1755.251,1473.885 ZM1746.946,1393.360 C1754.298,1379.492 1768.276,1376.797 1779.472,1382.732 C1793.594,1390.218 1799.750,1406.276 1791.623,1421.607 C1785.250,1433.630 1772.476,1438.511 1758.735,1431.227 C1748.811,1425.967 1737.369,1411.426 1746.946,1393.360 ZM1787.388,1418.221 C1793.424,1406.834 1788.66,1395.111 1777.188,1389.345 C1767.710,1384.320 1756.645,1386.440 1751.350,1396.428 C1746.292,1405.970 1749.156,1418.245 1761.688,1424.888 C1773.75,1430.925 1782.970,1426.554 1787.388,1418.221 ZM1766.838,1365.567 L1764.510,1358.828 C1767.291,1358.267 1790.377,1352.104 1792.955,1351.293 C1792.326,1350.61 1780.376,1326.495 1779.581,1325.109 L1785.837,1322.800 C1786.635,1325.56 1796.733,1346.601 1798.242,1349.731 C1802.445,1348.470 1819.141,1343.687 1823.344,1342.425 L1825.577,1349.200 C1822.445,1349.839 1808.403,1353.293 1800.466,1355.475 C1801.952,1358.832 1810.456,1376.734 1811.989,1379.638 L1805.512,1382.85 C1804.384,1378.811 1796.597,1359.495 1795.114,1357.8 C1792.59,1357.998 1770.858,1364.538 1766.838,1365.567 ZM1810.331,1325.524 C1799.826,1321.549 1786.652,1308.557 1793.889,1289.433 C1799.444,1274.754 1812.974,1270.328 1824.825,1274.813 C1839.774,1280.470 1847.894,1295.629 1841.753,1311.857 C1836.937,1324.584 1824.876,1331.28 1810.331,1325.524 ZM1837.127,1309.29 C1841.688,1296.976 1834.904,1286.17 1823.389,1281.660 C1813.356,1277.863 1802.644,1281.353 1798.643,1291.925 C1794.821,1302.26 1799.201,1313.845 1812.466,1318.864 C1824.519,1323.426 1833.789,1317.850 1837.127,1309.29 ZM1827.905,1240.120 L1823.852,1238.849 C1822.478,1238.418 1814.990,1236.69 1813.504,1235.754 L1815.530,1229.297 C1818.440,1230.361 1834.931,1235.759 1839.809,1237.289 L1847.365,1239.659 C1848.945,1240.155 1862.543,1244.193 1863.573,1244.516 C1862.668,1247.401 1860.652,1253.107 1858.630,1257.151 C1854.231,1265.882 1848.25,1270.273 1840.743,1267.989 C1831.332,1265.38 1826.422,1253.990 1827.905,1240.120 ZM1856.551,1249.104 L1832.713,1241.628 C1831.854,1250.865 1834.246,1258.633 1841.803,1261.3 C1843.864,1261.649 1851.992,1262.916 1856.551,1249.104 ZM1818.329,1220.133 C1820.98,1214.342 1822.846,1203.526 1825.825,1191.804 C1828.60,1182.715 1830.576,1173.103 1832.564,1164.694 L1832.792,1164.677 C1837.958,1169.779 1868.637,1197.260 1876.291,1204.850 L1876.256,1204.989 C1865.732,1208.110 1827.71,1217.302 1818.521,1220.256 L1818.329,1220.133 ZM1865.354,1201.997 C1860.725,1197.700 1836.728,1176.375 1835.771,1175.463 C1835.187,1177.469 1833.44,1185.318 1831.40,1193.203 C1828.949,1201.140 1827.50,1209.200 1826.709,1211.416 C1828.160,1210.968 1859.411,1203.458 1865.354,1201.997 ZM1879.959,1157.8 L1868.307,1154.694 C1853.972,1151.848 1837.25,1149.217 1835.584,1149.77 L1837.99,1141.451 C1838.864,1142.168 1859.471,1146.333 1870.699,1148.563 L1881.221,1150.653 C1882.834,1142.531 1884.472,1132.434 1884.554,1130.541 L1890.557,1131.733 C1889.431,1134.446 1885.825,1151.126 1885.671,1151.903 L1884.451,1158.47 C1884.184,1159.389 1881.410,1174.839 1881.358,1178.59 L1875.355,1176.867 C1875.834,1175.934 1878.781,1162.940 1879.959,1157.8 ZM1831.564,1055.78 L1903.189,1062.387 L1902.648,1067.687 L1831.23,1060.379 L1831.564,1055.78 ZM1875.338,993.111 C1868.141,992.925 1855.252,992.808 1853.594,992.837 L1853.775,985.855 C1856.938,986.81 1873.779,986.589 1875.650,986.637 L1883.423,986.838 C1884.647,986.870 1902.430,987.114 1904.162,987.15 L1903.976,994.212 C1902.684,994.35 1891.749,993.536 1883.112,993.312 L1875.338,993.111 ZM1879.311,942.238 L1887.230,942.110 C1888.886,942.84 1903.64,941.639 1904.145,941.622 C1904.193,944.645 1904.74,950.696 1903.427,955.171 C1901.998,964.844 1897.488,970.965 1889.857,971.88 C1879.994,971.247 1871.857,962.305 1868.901,948.671 L1864.654,948.739 C1863.214,948.762 1855.367,948.889 1853.857,949.57 L1853.749,942.290 C1856.846,942.384 1874.200,942.320 1879.311,942.238 ZM1888.665,964.122 C1890.824,964.88 1898.940,962.733 1898.921,948.187 L1873.941,948.589 C1876.31,957.629 1880.746,964.250 1888.665,964.122 ZM1856.728,887.575 L1857.231,887.544 C1863.812,895.10 1873.744,906.601 1878.59,911.173 L1878.418,911.152 C1881.337,906.936 1889.584,894.177 1894.816,886.432 L1895.319,886.402 C1898.249,895.530 1903.179,912.688 1906.238,922.746 L1900.630,924.238 C1898.474,916.1 1895.890,906.636 1893.806,898.395 L1893.518,898.412 C1888.503,906.144 1883.559,913.871 1879.336,920.401 L1878.977,920.423 C1874.115,915.162 1865.841,905.923 1860.550,899.534 L1860.191,899.556 C1859.176,907.840 1857.644,924.306 1857.329,928.653 L1851.519,927.993 C1852.794,918.34 1855.342,896.891 1856.728,887.575 Z"/>
</svg>