<svg 
 xmlns="http://www.w3.org/2000/svg"
 xmlns:xlink="http://www.w3.org/1999/xlink"
 width="1906px" height="1923px">
<path fill-rule="evenodd"  fill="rgb(17, 7, 8)"
 d="M1829.520,848.58 L1900.992,839.361 L1901.635,844.650 L1830.163,853.347 L1829.520,848.58 ZM1867.163,750.897 C1857.580,753.236 1847.665,746.318 1841.763,733.677 L1837.636,734.684 C1836.237,735.26 1828.613,736.887 1827.178,737.386 L1825.573,730.811 C1828.615,730.216 1845.523,726.311 1850.489,725.99 L1858.183,723.221 C1859.792,722.828 1873.520,719.254 1874.570,718.998 C1875.287,721.936 1876.511,727.863 1876.870,732.370 C1877.619,742.119 1874.577,749.87 1867.163,750.897 ZM1870.930,726.557 L1846.659,732.482 C1850.699,740.834 1856.763,746.246 1864.457,744.368 C1866.556,743.856 1874.169,740.737 1870.930,726.557 ZM1854.460,697.656 C1847.676,694.574 1839.325,693.539 1832.13,695.726 L1825.528,697.665 C1824.563,697.954 1818.485,699.997 1817.146,700.547 L1815.83,693.649 C1816.690,693.243 1824.85,691.333 1824.982,691.64 L1830.156,689.517 C1839.124,686.835 1845.109,680.461 1848.880,674.223 C1851.159,670.535 1853.32,665.992 1853.505,661.792 L1859.732,663.11 C1858.775,668.107 1856.343,673.795 1854.879,676.187 C1852.123,680.543 1848.1,686.360 1842.729,689.590 L1842.770,689.728 C1849.94,690.16 1853.879,691.441 1859.201,693.908 C1863.489,695.933 1869.471,700.607 1872.130,704.471 L1867.368,708.150 C1864.737,704.127 1860.99,700.178 1854.460,697.656 ZM1833.550,661.436 C1822.997,665.285 1804.535,664.49 1797.528,644.838 C1792.149,630.92 1799.507,617.905 1811.412,613.562 C1826.428,608.85 1842.478,614.263 1848.424,630.565 C1853.87,643.350 1848.160,656.107 1833.550,661.436 ZM1843.73,631.444 C1838.657,619.336 1826.362,615.467 1814.795,619.686 C1804.716,623.362 1798.882,633.1 1802.756,643.621 C1806.457,653.767 1817.492,659.859 1830.818,654.998 C1842.926,650.582 1846.305,640.305 1843.73,631.444 ZM1815.381,627.596 L1820.313,625.567 C1822.120,630.733 1827.866,643.965 1829.605,647.470 L1824.747,649.702 C1822.176,643.282 1817.514,632.183 1815.381,627.596 ZM1784.454,610.998 C1786.377,608.578 1796.808,595.644 1797.543,594.455 L1786.550,571.999 C1784.949,571.759 1769.853,571.958 1767.120,571.824 L1768.166,564.912 C1776.88,565.750 1821.870,568.241 1825.70,568.720 L1825.128,568.851 C1818.326,578.771 1795.489,607.475 1790.611,614.974 L1784.454,610.998 ZM1814.565,573.268 C1812.680,572.918 1793.200,572.452 1791.885,572.323 L1800.889,590.621 C1802.19,589.258 1813.801,574.391 1814.565,573.268 ZM1700.728,485.98 L1761.900,447.135 L1764.709,451.661 L1703.537,489.625 L1700.728,485.98 ZM1679.404,385.264 C1673.736,389.705 1663.726,397.826 1662.467,398.905 L1658.158,393.408 C1660.740,391.567 1674.46,381.229 1675.519,380.74 L1681.640,375.277 C1682.603,374.522 1696.468,363.381 1697.739,362.201 L1702.181,367.869 C1701.72,368.555 1692.324,375.136 1685.524,380.466 L1679.404,385.264 ZM1668.644,361.609 C1661.32,368.216 1651.632,369.798 1644.878,368.607 L1644.646,368.998 C1646.918,371.506 1651.220,376.352 1654.426,379.386 L1650.102,383.520 C1648.653,381.632 1634.578,364.868 1633.688,363.734 L1634.518,362.823 C1641.356,364.990 1654.707,364.554 1663.515,356.909 C1672.920,348.744 1672.792,338.273 1666.751,331.314 C1658.633,321.963 1646.633,323.514 1638.97,330.924 C1630.377,337.625 1627.600,348.44 1627.566,355.34 L1626.609,355.579 C1625.610,354.538 1612.705,340.1 1610.635,337.507 L1615.228,333.902 C1617.559,337.27 1621.981,342.340 1623.829,344.359 L1624.358,344.90 C1624.503,339.864 1627.104,331.219 1633.465,325.697 C1643.903,316.636 1660.297,315.752 1671.199,328.311 C1679.883,338.314 1679.463,352.217 1668.644,361.609 ZM1602.559,330.899 C1603.480,327.947 1608.546,312.122 1608.803,310.748 L1590.452,293.765 C1588.874,294.118 1574.864,299.746 1572.266,300.608 L1570.750,293.783 C1578.441,291.708 1622.44,277.525 1625.202,276.818 L1625.303,276.919 C1622.535,288.624 1611.582,323.633 1609.735,332.387 L1602.559,330.899 ZM1617.42,284.848 C1615.158,285.201 1596.819,291.789 1595.546,292.144 L1610.542,305.965 C1611.105,304.286 1616.735,286.171 1617.42,284.848 ZM1545.151,275.743 C1533.386,265.355 1534.32,251.135 1542.419,241.636 C1552.998,229.654 1570.49,227.421 1583.56,238.906 C1593.256,247.912 1595.17,261.473 1584.724,273.131 C1577.290,281.550 1560.479,289.277 1545.151,275.743 ZM1578.774,242.232 C1569.113,233.703 1556.464,236.172 1548.315,245.401 C1541.215,253.443 1540.690,264.697 1549.163,272.179 C1557.259,279.327 1569.863,279.410 1579.251,268.778 C1587.781,259.117 1585.844,248.475 1578.774,242.232 ZM1545.873,1653.628 L1545.982,1653.533 C1554.235,1656.662 1572.453,1664.7 1578.925,1667.63 C1577.83,1662.749 1563.890,1632.430 1562.699,1629.744 L1568.619,1627.555 C1569.571,1630.734 1588.414,1675.891 1589.276,1677.431 L1589.167,1677.526 C1584.506,1675.567 1556.812,1664.344 1552.820,1663.44 C1553.563,1667.741 1559.505,1697.400 1559.937,1699.982 L1559.828,1700.76 C1554.53,1697.274 1521.320,1679.268 1514.23,1675.594 L1516.948,1669.521 C1521.849,1672.415 1549.957,1687.954 1552.574,1689.209 C1551.885,1684.466 1546.716,1659.96 1545.873,1653.628 ZM1504.854,1713.560 C1509.980,1713.659 1525.172,1713.467 1534.518,1713.539 L1534.822,1713.941 C1528.840,1721.433 1517.276,1735.34 1510.591,1743.148 L1506.245,1739.303 C1511.913,1732.949 1518.283,1725.614 1523.995,1719.317 L1523.822,1719.87 C1514.606,1719.188 1505.433,1719.347 1497.657,1719.443 L1497.441,1719.156 C1499.132,1712.195 1502.248,1700.190 1504.643,1692.248 L1504.426,1691.961 C1496.964,1695.699 1482.401,1703.536 1478.606,1705.679 L1475.940,1700.474 C1484.941,1696.25 1503.962,1686.447 1512.489,1682.446 L1512.792,1682.848 C1510.216,1692.461 1506.57,1707.148 1504.637,1713.272 L1504.854,1713.560 ZM1431.87,210.131 L1470.532,149.905 L1474.988,152.824 L1435.544,213.50 L1431.87,210.131 ZM1436.463,1769.69 C1437.309,1770.493 1444.739,1782.578 1445.291,1783.507 C1442.691,1785.51 1437.381,1787.954 1433.175,1789.615 C1424.70,1793.181 1416.517,1792.308 1412.619,1785.746 C1407.581,1777.265 1411.299,1765.760 1421.664,1756.421 L1419.494,1752.769 C1418.758,1751.531 1414.750,1744.783 1413.854,1743.556 L1419.673,1740.100 C1421.131,1742.835 1429.807,1757.865 1432.418,1762.260 L1436.463,1769.69 ZM1418.72,1781.251 C1419.175,1783.108 1424.383,1789.478 1436.998,1782.235 L1424.238,1760.754 C1417.430,1767.59 1414.27,1774.441 1418.72,1781.251 ZM1318.344,129.523 C1304.24,123.100 1300.416,109.330 1305.602,97.769 C1312.143,83.186 1327.760,75.988 1343.591,83.89 C1356.6,88.658 1361.717,101.82 1355.352,115.271 C1350.756,125.519 1337.0,137.891 1318.344,129.523 ZM1340.491,87.537 C1328.732,82.263 1317.388,88.380 1312.350,99.612 C1307.960,109.400 1310.803,120.302 1321.116,124.928 C1330.969,129.347 1343.28,125.682 1348.833,112.742 C1354.107,100.983 1349.96,91.397 1340.491,87.537 ZM1277.236,105.325 L1277.222,105.781 C1280.424,106.878 1286.532,109.42 1290.805,110.149 L1289.17,115.859 C1286.836,114.906 1266.411,107.30 1265.84,106.466 L1265.370,105.268 C1272.405,103.860 1283.884,97.27 1287.901,86.77 C1292.191,74.383 1287.18,65.276 1278.366,62.102 C1266.740,57.838 1256.981,64.995 1253.89,75.608 C1249.568,85.206 1252.171,95.671 1255.519,101.807 L1254.944,102.747 C1253.567,102.319 1235.242,95.827 1232.225,94.643 L1234.504,89.267 C1238.55,90.876 1244.494,93.392 1247.88,94.267 L1247.421,93.776 C1245.507,90.5 1243.606,81.179 1246.507,73.270 C1251.268,60.292 1265.194,51.596 1280.809,57.323 C1293.247,61.886 1299.597,74.262 1294.663,87.714 C1291.192,97.177 1283.726,103.105 1277.236,105.325 ZM1201.423,86.710 C1186.344,82.356 1180.844,69.227 1184.359,57.54 C1188.793,41.699 1203.248,32.384 1219.917,37.198 C1232.990,40.973 1240.385,52.475 1236.70,67.415 C1232.954,78.206 1221.67,92.383 1201.423,86.710 ZM1217.471,42.37 C1205.90,38.461 1194.714,46.106 1191.299,57.934 C1188.323,68.240 1192.664,78.636 1203.524,81.772 C1213.899,84.768 1225.326,79.450 1229.261,65.824 C1232.836,53.443 1226.532,44.653 1217.471,42.37 ZM1072.952,1913.53 C1073.146,1914.44 1073.481,1916.180 1073.824,1918.387 L1067.248,1919.192 C1067.31,1916.825 1066.937,1914.878 1066.832,1914.20 C1055.684,1914.806 1042.732,1907.978 1041.24,1894.41 C1039.360,1880.461 1047.103,1869.646 1060.981,1866.277 C1060.833,1865.62 1060.437,1862.426 1060.85,1860.148 L1066.661,1859.342 C1066.887,1861.781 1066.963,1863.585 1067.182,1865.372 C1079.366,1864.749 1091.317,1871.700 1092.929,1884.851 C1094.812,1900.217 1084.373,1910.347 1072.952,1913.53 ZM1064.425,1893.785 L1063.479,1886.66 C1063.146,1883.350 1062.113,1874.916 1061.594,1871.280 C1053.827,1873.610 1046.70,1879.566 1047.690,1892.789 C1049.214,1905.225 1058.458,1909.25 1066.273,1908.865 C1065.889,1905.140 1064.845,1897.215 1064.425,1893.785 ZM1086.254,1886.32 C1084.888,1874.882 1076.163,1870.583 1067.804,1870.446 C1068.274,1875.467 1069.458,1884.535 1069.572,1885.464 L1070.518,1893.183 C1070.693,1894.613 1071.628,1902.841 1072.339,1908.50 C1080.786,1905.346 1087.699,1897.824 1086.254,1886.32 ZM1070.297,76.446 L1079.970,5.96 L1085.251,5.812 L1075.576,77.162 L1070.297,76.446 ZM1010.106,1922.139 C1003.195,1912.294 984.300,1880.850 978.984,1873.655 L984.863,1869.279 C986.457,1871.928 994.922,1886.228 995.778,1887.332 L1020.664,1884.897 C1021.449,1883.481 1026.548,1869.270 1027.630,1866.756 L1033.739,1870.156 C1030.181,1877.283 1011.818,1919.300 1010.250,1922.130 L1010.106,1922.139 ZM998.198,1891.809 C999.80,1893.345 1008.882,1909.588 1009.666,1910.697 C1010.654,1909.53 1017.911,1890.968 1018.492,1889.781 L998.198,1891.809 ZM956.259,1922.574 C954.109,1917.998 941.54,1891.118 938.960,1887.479 C936.367,1891.465 920.920,1917.472 919.512,1919.679 L919.368,1919.677 C916.954,1913.728 904.700,1878.436 901.740,1870.822 L907.980,1868.269 C909.682,1873.701 920.153,1904.64 921.257,1906.748 C923.921,1902.763 937.70,1880.460 940.106,1875.834 L940.250,1875.836 C944.285,1883.687 952.897,1901.341 955.658,1907.944 C957.179,1903.507 967.681,1872.154 968.596,1869.361 L974.459,1871.699 C973.37,1874.699 956.794,1920.855 956.403,1922.576 L956.259,1922.574 ZM958.477,29.143 C958.360,36.342 958.365,49.232 958.410,50.889 L951.427,50.775 C951.623,47.610 951.970,30.765 952.0,28.893 L952.127,21.118 C952.147,19.895 952.221,2.109 952.106,0.379 L959.305,0.497 C959.140,1.790 958.745,12.729 958.604,21.368 L958.477,29.143 ZM913.935,36.665 L914.99,40.910 C914.155,42.349 914.458,50.191 914.660,51.696 L907.897,51.958 C907.921,48.858 907.468,31.511 907.271,26.403 L906.965,18.489 C906.901,16.834 906.138,2.669 906.97,1.590 C909.118,1.474 915.170,1.456 919.659,2.3 C929.360,3.214 935.581,7.585 935.876,15.212 C936.256,25.68 927.499,33.404 913.935,36.665 ZM912.777,6.664 L913.741,31.629 C922.731,29.337 929.244,24.474 928.939,16.560 C928.855,14.402 927.319,6.319 912.777,6.664 ZM867.510,56.187 C851.885,57.697 841.931,47.519 840.712,34.905 C839.174,18.994 849.180,5.6 866.452,3.336 C879.998,2.27 891.113,9.995 892.609,25.476 C893.690,36.656 887.864,54.219 867.510,56.187 ZM885.692,26.506 C884.452,13.677 875.350,7.829 865.961,8.737 C853.132,9.977 846.304,20.909 847.489,33.165 C848.521,43.844 856.390,51.908 867.642,50.821 C878.393,49.782 887.56,40.625 885.692,26.506 ZM827.130,1915.830 C825.500,1913.239 796.756,1872.15 794.842,1869.378 C794.526,1871.369 788.788,1904.793 788.345,1907.128 L781.788,1905.724 C782.749,1901.502 788.712,1872.634 791.838,1854.761 L791.981,1854.783 C793.596,1857.8 823.723,1899.617 824.721,1901.598 L824.864,1901.621 C825.258,1899.132 831.341,1864.451 831.642,1862.94 L838.247,1863.651 C837.46,1868.928 828.789,1908.585 827.272,1915.852 L827.130,1915.830 ZM833.859,54.857 L833.762,60.704 C823.727,60.393 802.435,59.892 793.28,59.409 L792.950,58.911 C799.747,51.642 810.329,40.640 814.466,35.905 L814.409,35.550 C809.933,33.49 796.438,26.68 788.225,21.606 L788.147,21.109 C796.951,17.313 813.556,10.754 823.273,6.742 L825.298,12.180 C817.306,15.119 808.233,18.593 800.230,21.460 L800.275,21.745 C808.454,25.993 816.622,30.171 823.528,33.745 L823.584,34.101 C818.815,39.446 810.416,48.572 804.565,54.453 L804.621,54.809 C812.965,55.22 829.502,54.962 833.859,54.857 ZM757.516,51.246 L755.543,41.802 C755.308,40.674 751.618,23.718 751.268,22.393 C752.959,22.40 771.134,17.140 773.330,16.386 L774.776,21.896 C772.520,22.367 759.907,25.370 758.780,25.605 L762.520,43.507 C763.788,43.242 772.736,41.5 776.101,39.860 L777.476,45.384 C775.926,45.708 764.872,47.723 763.462,48.18 L767.55,65.215 C768.746,64.862 778.235,63.100 783.926,61.470 L785.474,67.472 C784.347,67.708 762.985,71.435 761.575,71.730 C761.6,67.950 757.855,52.867 757.516,51.246 ZM718.942,44.524 C717.537,49.107 711.362,74.250 709.785,79.554 L709.646,79.593 C703.523,73.236 690.196,58.805 685.651,53.276 C685.472,57.963 684.434,91.13 684.361,93.950 L678.73,93.397 C678.573,90.116 680.849,41.237 680.728,39.476 L680.867,39.438 C684.243,43.201 704.479,65.189 707.532,68.71 C708.868,63.508 716.180,34.156 716.893,31.637 L717.32,31.598 C721.55,36.601 742.945,66.875 747.970,73.316 L742.729,77.556 C739.536,72.844 720.772,46.777 718.942,44.524 ZM691.19,1830.11 C706.11,1834.658 711.256,1847.892 707.504,1859.996 C702.772,1875.263 688.138,1884.295 671.564,1879.158 C658.566,1875.129 651.396,1863.485 656.1,1848.630 C659.326,1837.902 671.488,1823.957 691.19,1830.11 ZM662.778,1850.354 C658.963,1862.664 665.95,1871.575 674.104,1874.367 C686.414,1878.183 696.937,1870.741 700.582,1858.981 C703.759,1848.734 699.620,1838.255 688.823,1834.908 C678.507,1831.711 666.978,1836.806 662.778,1850.354 ZM558.407,83.605 L563.250,81.385 L593.249,146.830 L588.406,149.50 L558.407,83.605 ZM570.244,1763.965 L538.353,1828.525 L533.576,1826.165 L565.466,1761.605 L570.244,1763.965 ZM457.262,175.974 L453.53,169.435 C452.391,168.406 442.583,153.568 441.527,152.192 L447.581,148.295 C448.162,149.463 453.904,158.783 458.580,166.49 L462.789,172.588 C466.686,178.642 473.844,189.363 474.800,190.717 L468.927,194.497 C467.334,191.755 458.275,177.548 457.262,175.974 ZM434.987,219.71 C422.217,228.196 408.508,224.365 401.141,214.55 C391.850,201.51 393.513,183.935 407.630,173.848 C418.701,165.938 432.310,167.275 441.351,179.928 C447.880,189.66 451.624,207.185 434.987,219.71 ZM435.878,184.280 C428.386,173.795 417.581,173.286 409.907,178.769 C399.422,186.261 398.980,199.141 406.137,209.158 C412.374,217.886 423.220,220.931 432.417,214.360 C441.204,208.82 444.123,195.820 435.878,184.280 ZM410.329,202.270 C414.823,199.147 426.36,190.73 428.949,187.462 L432.397,191.545 C426.899,195.739 417.452,203.198 413.602,206.479 L410.329,202.270 ZM397.864,245.698 C396.12,243.124 385.621,229.864 384.461,228.396 L379.639,222.297 C378.880,221.337 367.682,207.522 366.498,206.256 L372.145,201.791 C372.836,202.897 379.453,211.615 384.811,218.392 L389.632,224.491 C394.97,230.138 402.258,240.113 403.342,241.367 L397.864,245.698 ZM367.778,243.769 C368.394,244.474 380.413,257.874 381.476,258.761 L376.168,263.408 C374.664,261.471 363.905,249.74 363.4,248.44 L354.752,238.619 C352.713,236.290 347.537,230.487 346.480,229.498 C343.277,232.398 329.986,244.322 326.451,247.608 C327.102,248.569 332.915,255.537 335.286,258.245 L342.921,266.966 C345.767,270.216 354.655,280.41 355.800,281.240 L350.600,285.792 C348.622,283.314 337.579,270.591 336.346,269.183 L331.224,263.333 C330.417,262.412 323.534,254.659 321.441,252.377 C319.532,254.240 317.778,256.62 316.688,257.112 L312.846,252.725 C317.776,248.409 329.693,237.976 332.191,235.693 C334.419,233.647 347.176,222.96 352.911,216.405 L356.894,220.955 C355.872,221.755 353.827,223.354 351.619,225.95 C352.453,226.375 361.897,237.53 363.35,238.353 L367.778,243.769 ZM319.516,284.254 C318.386,285.363 310.170,293.27 309.142,294.36 L321.451,306.572 C322.684,305.361 329.720,298.756 333.630,294.311 L338.174,298.528 C337.352,299.335 321.383,314.5 320.355,315.14 C317.836,312.140 307.41,301.145 305.880,299.964 L299.121,293.79 C298.313,292.257 286.53,279.976 285.44,279.51 C286.277,277.840 298.929,263.903 300.371,262.83 L304.562,265.940 C302.918,267.554 293.923,276.891 293.100,277.699 L305.914,290.748 C306.838,289.840 313.162,283.126 315.377,280.346 L319.516,284.254 ZM271.299,1588.102 C259.132,1598.468 241.935,1598.267 230.683,1585.58 C221.858,1574.699 222.32,1561.25 233.871,1550.939 C242.421,1543.656 260.157,1538.383 273.418,1553.949 C283.597,1565.897 280.946,1579.884 271.299,1588.102 ZM268.942,1556.911 C261.938,1548.689 249.471,1546.824 238.674,1556.22 C228.863,1564.380 229.275,1575.190 235.392,1582.370 C243.750,1592.181 256.622,1591.525 265.995,1583.541 C274.161,1576.584 276.272,1565.516 268.942,1556.911 ZM203.672,366.59 L206.952,361.861 L263.684,406.188 L260.404,410.386 L203.672,366.59 ZM209.299,1463.212 L212.970,1468.726 C210.892,1470.23 209.314,1470.900 207.815,1471.898 C213.839,1482.506 212.992,1496.305 201.964,1503.647 C189.77,1512.226 175.341,1507.444 167.798,1498.452 C166.999,1499.71 165.240,1500.328 163.422,1501.625 L159.751,1496.111 C161.769,1494.854 163.467,1493.897 164.186,1493.417 C158.481,1483.808 158.770,1469.170 170.458,1461.389 C181.846,1453.808 194.985,1455.874 204.224,1466.763 C205.243,1466.85 207.421,1464.549 209.299,1463.212 ZM174.568,1466.784 C164.139,1473.727 164.892,1483.692 168.542,1490.605 C171.698,1488.590 178.311,1484.101 181.188,1482.185 L187.662,1477.876 C189.939,1476.360 197.12,1471.651 200.28,1469.556 C194.461,1463.661 185.657,1459.402 174.568,1466.784 ZM190.933,1483.50 L184.460,1487.360 C183.261,1488.158 176.329,1492.687 171.993,1495.659 C178.200,1501.994 188.24,1504.796 197.913,1498.212 C207.263,1491.988 207.190,1482.262 203.560,1474.731 C199.285,1477.404 191.713,1482.532 190.933,1483.50 ZM160.209,1449.398 C159.159,1450.27 144.10,1459.348 142.601,1460.360 L138.902,1454.181 C140.88,1453.639 149.590,1448.202 157.4,1443.764 L163.676,1439.769 C169.855,1436.71 180.803,1429.264 182.187,1428.352 L185.775,1434.345 C182.982,1435.849 168.488,1444.442 166.882,1445.404 L160.209,1449.398 ZM158.548,490.357 L151.834,486.433 C150.777,485.815 135.314,477.28 133.749,476.281 L137.382,470.64 C138.428,470.842 147.769,476.551 155.228,480.911 L161.942,484.835 C168.158,488.468 179.395,494.785 180.861,495.558 L177.337,501.588 C174.674,499.865 160.164,491.302 158.548,490.357 ZM168.155,520.397 C165.535,521.231 115.606,536.420 113.412,536.744 L113.346,536.872 C115.584,538.30 146.591,554.718 148.734,555.746 L145.177,561.526 C140.546,558.725 105.500,538.407 99.78,534.680 L99.145,534.552 C102.117,533.820 150.295,519.508 153.400,518.520 C151.610,517.594 121.688,501.629 119.610,500.473 L123.7,494.692 C126.711,496.932 152.238,511.677 168.221,520.270 L168.155,520.397 ZM102.825,566.306 C105.997,573.47 111.689,579.244 118.677,582.314 L124.873,585.36 C125.796,585.442 131.750,587.821 133.126,588.269 L130.230,594.861 C128.743,594.129 121.871,590.795 121.14,590.418 L116.70,588.246 C107.501,584.481 98.813,585.462 91.900,587.772 C87.775,589.105 83.406,591.354 80.326,594.247 L76.371,589.286 C80.400,586.22 85.937,583.265 88.602,582.391 C93.522,580.857 100.431,579.95 106.539,580.48 L106.597,579.916 C101.966,575.601 99.243,571.416 96.786,566.90 C94.830,561.771 93.300,554.335 93.777,549.669 L99.787,549.950 C99.186,554.719 100.162,560.732 102.825,566.306 ZM122.380,616.278 C119.312,616.656 102.807,618.570 101.449,618.903 L93.549,642.626 C94.523,643.918 105.430,654.358 107.286,656.369 L101.695,660.566 C96.632,654.416 65.723,620.549 63.776,617.964 L63.827,617.830 C75.631,615.522 112.40,611.56 120.776,609.127 L122.380,616.278 ZM74.457,622.83 C75.556,623.654 89.124,637.641 89.972,638.655 L96.375,619.292 C94.613,619.473 75.789,621.818 74.457,622.83 ZM101.892,672.526 C99.468,673.822 53.134,697.849 51.36,698.567 L50.994,698.705 C53.406,699.436 86.935,710.202 89.230,710.822 L86.784,717.154 C81.720,715.242 43.557,701.642 36.564,699.146 L36.606,699.8 C39.396,697.747 84.167,674.902 87.41,673.366 C85.112,672.781 52.781,662.529 50.528,661.770 L52.815,655.466 C56.866,656.995 84.653,666.848 101.934,672.388 L101.892,672.526 ZM82.252,827.664 L11.55,816.922 L11.850,811.654 L83.47,822.396 L82.252,827.664 ZM56.382,934.263 C54.407,936.176 16.457,972.1 14.636,973.268 L14.634,973.412 C17.154,973.453 52.348,974.596 54.725,974.562 L54.112,981.321 C48.719,980.874 8.291,978.279 0.882,977.799 L0.884,977.655 C3.220,975.677 39.993,941.416 42.334,939.150 C40.318,939.117 6.417,938.139 4.43,938.29 L4.510,931.339 C8.825,931.697 38.247,933.539 56.385,934.119 L56.382,934.263 ZM27.659,993.631 C38.868,992.927 56.224,999.338 57.506,1019.744 C58.491,1035.408 47.986,1045.14 35.339,1045.809 C19.388,1046.812 5.745,1036.344 4.657,1019.27 C3.803,1005.446 12.139,994.607 27.659,993.631 ZM10.37,1019.699 C10.845,1032.560 21.541,1039.751 33.828,1038.979 C44.534,1038.306 52.858,1030.713 52.149,1019.432 C51.471,1008.654 42.612,999.689 28.457,1000.578 C15.595,1001.387 9.445,1010.286 10.37,1019.699 ZM13.464,1059.925 C16.136,1062.129 32.862,1074.542 35.426,1075.889 C37.514,1073.450 52.187,1056.803 55.79,1053.828 L60.583,1058.361 C58.503,1060.292 42.27,1077.600 40.251,1079.637 C41.430,1080.360 63.926,1094.226 65.328,1094.993 L61.196,1100.229 C59.338,1098.721 39.477,1085.613 36.556,1083.730 C33.628,1087.1 21.882,1099.796 18.955,1103.67 L13.513,1098.452 C15.852,1096.272 26.27,1085.996 31.659,1079.991 C28.639,1077.903 12.40,1067.70 9.217,1065.393 L13.464,1059.925 ZM67.660,1110.430 C65.237,1112.350 52.141,1122.575 51.155,1123.565 L56.758,1147.931 C58.261,1148.528 73.7,1151.765 75.639,1152.516 L73.49,1159.9 C65.526,1156.393 21.509,1143.565 18.501,1142.372 L18.475,1142.230 C27.353,1134.116 56.113,1111.354 62.568,1105.160 L67.660,1110.430 ZM29.765,1140.329 C31.521,1141.98 50.384,1145.979 51.636,1146.403 L47.26,1126.539 C45.615,1127.609 30.764,1139.409 29.765,1140.329 ZM79.444,1169.126 C78.48,1171.495 50.975,1216.117 49.556,1217.822 L49.592,1217.961 C52.32,1217.331 86.268,1209.84 88.551,1208.420 L89.755,1215.100 C84.437,1216.102 44.769,1224.338 37.498,1225.844 L37.462,1225.705 C39.189,1223.176 65.542,1180.376 67.197,1177.569 C65.245,1178.74 32.300,1186.136 29.981,1186.660 L28.656,1180.86 C32.911,1179.285 61.767,1173.245 79.408,1168.987 L79.444,1169.126 ZM143.402,1311.850 L77.27,1339.743 L74.963,1334.832 L141.338,1306.938 L143.402,1311.850 ZM202.436,1525.202 C209.868,1525.726 218.55,1523.785 224.147,1519.187 L229.548,1515.109 C230.353,1514.502 235.337,1510.469 236.400,1509.486 L240.738,1515.233 C239.373,1516.173 233.108,1520.542 232.361,1521.105 L228.51,1524.359 C220.581,1529.998 217.193,1538.59 215.833,1545.220 C214.982,1549.471 214.811,1554.382 215.831,1558.482 L209.571,1559.510 C208.691,1554.401 208.988,1548.222 209.527,1545.470 C210.591,1540.427 212.427,1533.538 216.242,1528.673 L216.155,1528.558 C210.128,1530.492 205.146,1530.824 199.298,1530.368 C194.574,1529.965 187.338,1527.669 183.499,1524.974 L186.680,1519.866 C190.548,1522.720 196.271,1524.804 202.436,1525.202 ZM299.707,1583.135 C297.146,1588.218 283.511,1617.297 282.434,1619.992 C287.121,1618.988 312.89,1612.143 317.490,1610.938 L317.591,1611.40 C315.19,1619.483 308.902,1638.149 306.284,1644.810 C310.466,1642.685 339.838,1627.504 342.439,1626.137 L345.18,1631.898 C341.908,1633.60 298.107,1654.865 296.627,1655.827 L296.526,1655.725 C298.170,1650.945 307.525,1622.565 308.556,1618.496 C303.920,1619.550 274.723,1627.451 272.175,1628.54 L272.74,1627.952 C274.485,1622.3 290.273,1588.146 293.453,1580.621 L299.707,1583.135 ZM356.831,1661.340 L359.642,1658.155 C360.595,1657.75 365.787,1651.190 366.680,1649.961 L371.754,1654.439 C369.598,1656.666 357.955,1669.533 354.573,1673.366 L349.333,1679.304 C348.237,1680.546 339.14,1691.324 338.300,1692.134 C336.32,1690.133 331.641,1685.970 328.770,1682.476 C322.584,1674.905 321.98,1667.449 326.147,1661.726 C332.674,1654.330 344.764,1654.340 356.831,1661.340 ZM336.966,1683.852 L353.497,1665.119 C345.408,1660.574 337.339,1659.599 332.99,1665.537 C330.669,1667.157 326.204,1674.67 336.966,1683.852 ZM385.715,1664.747 C385.153,1667.787 382.10,1684.104 381.919,1685.500 L402.165,1700.174 C403.691,1699.634 416.930,1692.375 419.407,1691.210 L421.726,1697.805 C414.337,1700.783 372.735,1720.66 369.684,1721.146 L369.571,1721.56 C370.923,1709.104 377.623,1673.37 378.413,1664.125 L385.715,1664.747 ZM397.301,1702.391 L380.763,1690.456 C380.404,1692.190 376.975,1710.848 376.827,1712.199 C378.656,1711.623 396.79,1702.894 397.301,1702.391 ZM444.712,1712.989 C445.406,1711.981 446.858,1709.747 448.106,1707.809 L453.560,1711.567 C452.112,1713.542 450.972,1714.942 449.951,1716.424 C459.479,1724.39 463.811,1737.165 456.295,1748.72 C447.512,1760.818 432.985,1761.473 422.646,1755.923 C422.133,1756.794 420.967,1758.613 419.760,1760.492 L414.307,1756.734 C415.714,1754.818 416.935,1753.299 417.425,1752.588 C408.564,1745.782 403.402,1732.84 411.368,1720.524 C419.129,1709.261 432.94,1706.305 444.712,1712.989 ZM450.518,1744.529 C456.890,1735.281 453.214,1726.279 447.51,1720.633 C444.73,1724.701 438.944,1732.270 438.413,1733.41 L434.2,1739.443 C433.185,1740.629 428.428,1747.405 425.505,1751.773 C433.618,1755.353 443.778,1754.310 450.518,1744.529 ZM420.426,1748.361 C422.609,1745.319 427.84,1738.698 429.45,1735.853 L433.456,1729.450 C435.8,1727.198 439.828,1720.202 441.852,1717.138 C434.496,1713.730 424.742,1713.42 417.185,1724.9 C410.77,1734.323 414.473,1743.297 420.426,1748.361 ZM734.777,1849.74 L734.735,1848.621 C731.424,1847.919 725.99,1846.511 720.724,1845.930 L721.806,1840.47 C724.87,1840.729 745.315,1846.70 746.700,1846.469 L746.561,1847.693 C739.749,1849.943 729.183,1858.116 726.524,1869.472 C723.683,1881.599 729.921,1890.11 738.894,1892.113 C750.951,1894.937 759.768,1886.650 762.346,1875.644 C764.678,1865.690 760.825,1855.619 756.759,1849.934 L757.215,1848.932 C758.634,1849.190 777.610,1853.413 780.748,1854.221 L779.137,1859.834 C775.418,1858.667 768.721,1856.950 766.41,1856.397 L765.769,1856.925 C768.127,1860.435 771.83,1868.965 769.162,1877.167 C766.10,1890.626 753.240,1900.945 737.48,1897.152 C724.149,1894.131 716.346,1882.617 719.614,1868.667 C721.912,1858.853 728.604,1852.65 734.777,1849.74 ZM886.608,1912.419 L886.281,1918.390 C878.114,1917.574 860.573,1916.482 849.850,1915.939 L850.118,1909.818 C859.583,1910.680 877.111,1911.916 886.608,1912.419 ZM886.259,1896.410 C878.463,1895.483 860.902,1894.606 854.645,1894.253 L854.913,1888.133 C859.913,1888.805 877.453,1889.897 886.579,1890.511 L886.259,1896.410 ZM852.942,1865.324 C862.485,1866.121 883.252,1868.302 892.423,1869.210 L891.803,1875.226 C880.520,1873.692 866.134,1872.93 852.595,1871.510 L852.942,1865.324 ZM1252.877,1876.733 L1247.816,1878.400 L1225.294,1810.10 L1230.355,1808.344 L1252.877,1876.733 ZM1433.992,1735.866 L1435.570,1728.911 C1438.229,1729.902 1461.96,1736.846 1463.715,1737.518 C1463.830,1736.139 1466.111,1709.810 1466.167,1708.212 L1472.701,1709.552 C1472.188,1711.890 1469.401,1735.524 1469.31,1738.980 C1473.268,1740.126 1489.978,1744.872 1494.216,1746.18 L1492.538,1752.953 C1489.539,1751.843 1475.786,1747.369 1467.890,1745.35 C1467.381,1748.671 1465.161,1768.370 1464.931,1771.646 L1458.137,1770.307 C1458.906,1766.930 1462.482,1746.409 1462.533,1743.512 C1459.416,1742.743 1437.950,1737.113 1433.992,1735.866 ZM1681.52,1585.603 L1677.607,1589.668 L1622.676,1543.114 L1626.121,1539.49 L1681.52,1585.603 ZM1683.490,1494.614 C1685.973,1496.586 1699.581,1506.518 1701.97,1507.615 L1707.397,1512.171 C1708.389,1512.888 1722.924,1523.134 1724.409,1524.30 L1720.190,1529.864 C1719.224,1528.988 1710.484,1522.400 1703.484,1517.337 L1697.184,1512.780 C1691.350,1508.561 1680.782,1501.184 1679.398,1500.272 L1683.490,1494.614 ZM1716.944,1472.513 L1713.408,1470.159 C1712.209,1469.361 1705.676,1465.12 1704.337,1464.294 L1708.88,1458.660 C1710.586,1460.496 1724.911,1470.292 1729.166,1473.125 L1735.759,1477.514 C1737.138,1478.432 1749.65,1486.113 1749.964,1486.711 C1748.288,1489.228 1744.757,1494.143 1741.683,1497.460 C1735.18,1504.614 1727.830,1507.95 1721.477,1502.865 C1713.266,1497.399 1711.640,1485.418 1716.944,1472.513 ZM1724.448,1496.453 C1726.246,1497.650 1733.698,1501.140 1741.938,1489.153 L1721.139,1475.307 C1717.730,1483.936 1717.855,1492.64 1724.448,1496.453 ZM1738.252,1439.665 L1732.433,1436.208 C1731.566,1435.693 1725.947,1432.606 1724.635,1431.994 L1728.312,1425.804 C1729.699,1426.711 1736.114,1430.857 1736.919,1431.335 L1741.562,1434.93 C1749.609,1438.874 1758.353,1438.959 1765.496,1437.507 C1769.753,1436.686 1774.364,1434.986 1777.773,1432.489 L1781.94,1437.896 C1776.698,1440.644 1770.866,1442.707 1768.115,1443.250 C1763.43,1444.174 1755.972,1445.82 1750.24,1443.392 L1749.951,1443.515 C1754.23,1448.363 1756.216,1452.848 1758.6,1458.434 C1759.421,1462.960 1760.35,1470.527 1758.993,1475.101 L1753.61,1474.89 C1754.239,1469.429 1754.2,1463.342 1752.38,1457.485 C1749.709,1450.407 1744.814,1443.563 1738.252,1439.665 ZM1788.900,1409.681 L1778.376,1404.173 C1765.428,1397.395 1749.914,1390.87 1748.572,1389.547 L1752.178,1382.659 C1753.669,1383.845 1772.260,1393.658 1782.401,1398.967 L1791.905,1403.941 C1795.744,1396.606 1800.166,1387.382 1800.779,1385.590 L1806.200,1388.428 C1804.355,1390.712 1796.187,1405.695 1795.820,1406.397 L1792.915,1411.946 C1792.281,1413.157 1785.258,1427.196 1784.299,1430.269 L1778.877,1427.431 C1779.600,1426.672 1786.95,1415.39 1788.900,1409.681 ZM1783.799,1265.283 L1851.487,1289.804 L1849.672,1294.813 L1781.984,1270.292 L1783.799,1265.283 ZM1831.262,1167.938 C1832.713,1162.59 1834.870,1151.109 1837.208,1139.240 C1838.947,1130.42 1840.938,1120.306 1842.466,1111.800 L1842.692,1111.772 C1848.129,1116.585 1880.260,1142.362 1888.316,1149.527 L1888.288,1149.668 C1877.948,1153.356 1839.838,1164.637 1831.460,1168.50 L1831.262,1167.938 ZM1877.238,1147.271 C1872.383,1143.233 1847.259,1123.239 1846.253,1122.380 C1845.779,1124.415 1844.65,1132.371 1842.493,1140.354 C1840.836,1148.394 1839.377,1156.546 1839.157,1158.778 C1840.582,1158.251 1871.383,1149.53 1877.238,1147.271 ZM1869.878,1105.511 L1869.521,1105.462 C1865.792,1099.345 1859.500,1088.656 1855.573,1081.349 L1855.216,1081.299 C1852.587,1089.221 1847.840,1105.64 1846.674,1109.264 L1841.107,1107.472 C1844.321,1097.959 1850.987,1077.730 1854.182,1068.869 L1854.681,1068.939 C1859.662,1077.556 1867.115,1090.878 1870.444,1096.212 L1870.801,1096.262 C1874.494,1092.704 1885.95,1081.820 1891.751,1075.257 L1892.251,1075.327 C1893.324,1084.854 1894.776,1102.649 1895.792,1113.114 L1889.999,1113.471 C1889.509,1104.970 1888.822,1095.278 1888.403,1086.787 L1888.118,1086.747 C1881.676,1093.339 1875.305,1099.941 1869.878,1105.511 ZM1878.64,1042.56 C1875.148,1044.48 1856.901,1059.767 1854.14,1062.268 L1849.395,1057.105 C1850.460,1056.473 1874.539,1036.770 1878.245,1033.977 C1879.289,1035.295 1897.776,1057.535 1899.501,1059.344 L1894.412,1063.103 C1892.61,1060.157 1881.543,1046.182 1878.64,1042.56 ZM1874.126,1033.121 C1868.602,1032.651 1852.512,1031.499 1851.137,1031.527 L1851.747,1024.352 C1853.816,1024.673 1865.923,1025.919 1874.102,1026.615 L1881.707,1027.262 C1887.949,1027.793 1901.755,1028.606 1903.405,1028.747 L1902.795,1035.921 C1901.653,1035.752 1888.117,1034.311 1881.875,1033.780 L1874.126,1033.121 ZM1874.108,1003.627 C1873.172,1003.607 1855.172,1003.369 1853.801,1003.484 L1853.953,996.285 C1856.396,996.553 1869.206,997.41 1870.574,997.70 L1878.61,997.228 L1877.374,965.91 L1872.766,964.994 C1869.527,964.925 1856.276,964.860 1854.619,964.897 L1854.767,957.914 C1857.931,958.125 1874.776,958.554 1876.647,958.594 L1884.422,958.759 C1885.646,958.785 1903.433,958.945 1905.163,958.838 L1905.11,966.37 C1903.718,965.866 1889.36,965.339 1887.740,965.311 L1882.125,965.192 L1882.813,997.329 L1888.572,997.451 C1889.796,997.477 1902.757,997.608 1904.344,997.497 L1904.188,1004.840 C1902.465,1004.588 1883.35,1003.816 1881.307,1003.779 L1874.108,1003.627 Z"/>
</svg>