<svg 
 xmlns="http://www.w3.org/2000/svg"
 xmlns:xlink="http://www.w3.org/1999/xlink"
 width="1901px" height="1917px">
<path fill-rule="evenodd"  fill="rgb(17, 7, 8)"
 d="M1832.27,955.717 L1831.947,950.685 L1899.940,949.602 L1900.20,954.633 L1832.27,955.717 ZM1876.435,847.203 C1867.201,848.437 1858.586,840.944 1854.314,828.480 L1850.338,829.12 C1848.989,829.192 1841.643,830.173 1840.246,830.497 L1839.400,824.161 C1842.316,823.909 1858.586,821.942 1863.371,821.302 L1870.785,820.312 C1872.335,820.105 1885.585,818.129 1886.596,817.994 C1886.974,820.825 1887.528,826.513 1887.413,830.782 C1887.136,840.12 1883.579,846.249 1876.435,847.203 ZM1882.419,824.726 L1859.32,827.850 C1861.986,836.99 1867.137,841.791 1874.551,840.801 C1876.572,840.531 1884.35,838.368 1882.419,824.726 ZM1869.921,796.50 C1863.871,792.456 1856.138,790.621 1849.48,791.918 L1842.760,793.68 C1841.823,793.240 1835.906,794.530 1834.593,794.908 L1833.369,788.219 C1834.920,788.4 1842.59,786.975 1842.929,786.815 L1847.946,785.898 C1856.642,784.307 1862.920,778.941 1867.105,773.475 C1869.625,770.248 1871.854,766.177 1872.731,762.283 L1878.451,764.71 C1877.26,768.756 1874.155,773.844 1872.533,775.938 C1869.496,779.743 1865.25,784.778 1859.742,787.266 L1859.766,787.399 C1865.673,788.324 1870.18,790.156 1874.760,793.22 C1878.576,795.365 1883.709,800.372 1885.805,804.275 L1880.955,807.236 C1878.901,803.187 1874.955,799.1 1869.921,796.50 ZM1854.51,759.968 C1843.739,762.453 1826.549,759.322 1822.24,740.550 C1818.552,726.140 1826.756,715.490 1838.390,712.686 C1853.64,709.150 1867.463,716.660 1871.303,732.590 C1874.313,745.83 1868.329,756.527 1854.51,759.968 ZM1866.188,732.844 C1863.337,721.12 1852.214,716.69 1840.911,718.793 C1831.62,721.166 1824.558,729.588 1827.59,739.966 C1829.449,749.881 1839.153,756.774 1852.175,753.636 C1864.7,750.784 1868.275,741.503 1866.188,732.844 ZM1840.616,726.277 L1845.460,724.900 C1846.604,729.940 1850.584,742.969 1851.841,746.443 L1847.45,748.18 C1845.317,741.720 1842.128,730.809 1840.616,726.277 ZM1813.405,707.393 C1815.475,705.334 1826.683,694.349 1827.504,693.314 L1819.663,671.38 C1818.188,670.638 1804.5,669.162 1801.455,668.737 L1803.197,662.368 C1810.536,664.25 1853.210,671.401 1856.159,672.202 L1856.199,672.332 C1848.727,680.889 1824.145,705.302 1818.742,711.800 L1813.405,707.393 ZM1845.804,675.313 C1844.74,674.777 1825.852,672.196 1824.632,671.930 L1831.65,690.86 C1832.275,688.932 1844.964,676.282 1845.804,675.313 ZM1815.598,1205.432 L1815.813,1205.427 C1820.434,1210.494 1848.13,1237.931 1854.858,1245.469 L1854.817,1245.599 C1844.737,1248.21 1807.816,1254.782 1799.606,1257.145 L1799.431,1257.20 C1801.385,1251.645 1804.512,1241.579 1807.901,1230.669 C1810.458,1222.207 1813.307,1213.265 1815.598,1205.432 ZM1844.682,1242.237 C1840.529,1237.956 1818.947,1216.655 1818.90,1215.748 C1817.440,1217.611 1815.31,1224.909 1812.751,1232.247 C1810.387,1239.630 1808.197,1247.139 1807.766,1249.212 C1809.157,1248.861 1839.5,1243.321 1844.682,1242.237 ZM1730.954,542.783 L1791.363,511.564 L1793.673,516.34 L1733.264,547.254 L1730.954,542.783 ZM1709.509,433.538 C1703.888,437.365 1693.940,444.384 1692.686,445.321 L1688.973,439.868 C1691.523,438.296 1704.716,429.398 1706.177,428.403 L1712.248,424.270 C1713.204,423.619 1726.974,413.998 1728.246,412.967 L1732.73,418.588 C1730.985,419.165 1722.326,424.813 1715.580,429.405 L1709.509,433.538 ZM1700.909,410.628 C1693.304,416.353 1684.344,417.226 1678.58,415.660 L1677.814,416.14 C1679.791,418.526 1683.525,423.374 1686.346,426.442 L1682.0,430.54 C1680.760,428.179 1668.600,411.461 1667.836,410.334 L1668.678,409.530 C1674.979,412.21 1687.585,412.488 1696.385,405.863 C1705.783,398.788 1706.350,388.915 1701.116,381.962 C1694.82,372.618 1682.674,373.292 1674.145,379.712 C1666.432,385.519 1663.131,395.153 1662.640,401.735 L1661.702,402.186 C1660.830,401.140 1649.626,386.596 1647.840,384.111 L1652.403,381.16 C1654.395,384.113 1658.211,389.409 1659.820,391.432 L1660.336,391.214 C1660.750,387.242 1663.769,379.268 1670.125,374.484 C1680.554,366.632 1696.57,366.876 1705.503,379.424 C1713.28,389.420 1711.719,402.490 1700.909,410.628 ZM1640.698,377.327 C1641.771,374.611 1647.640,360.56 1647.977,358.779 L1631.869,341.509 C1630.357,341.732 1616.770,346.62 1614.263,346.694 L1613.308,340.160 C1620.697,338.739 1662.753,328.402 1665.777,327.954 L1665.865,328.57 C1662.446,338.891 1649.702,371.109 1647.355,379.227 L1640.698,377.327 ZM1657.534,334.953 C1655.735,335.155 1638.3,340.90 1636.779,340.335 L1649.947,354.394 C1650.593,352.852 1657.153,336.178 1657.534,334.953 ZM1590.521,321.320 C1580.199,310.679 1581.845,297.335 1590.436,289.1 C1601.273,278.490 1617.493,277.631 1628.903,289.395 C1637.852,298.621 1638.521,311.520 1627.978,321.747 C1620.363,329.133 1603.968,335.183 1590.521,321.320 ZM1624.628,292.216 C1616.153,283.478 1604.61,284.881 1595.714,292.977 C1588.441,300.32 1587.125,310.592 1594.559,318.256 C1601.661,325.578 1613.525,326.576 1623.141,317.249 C1631.878,308.773 1630.831,298.610 1624.628,292.216 ZM1618.737,1640.269 L1570.474,1592.372 L1574.18,1588.800 L1622.282,1636.697 L1618.737,1640.269 ZM1483.500,247.123 L1525.141,193.367 L1529.119,196.448 L1487.478,250.205 L1483.500,247.123 ZM1485.502,1694.742 L1485.611,1694.661 C1493.155,1698.207 1509.772,1706.449 1515.644,1709.796 C1514.224,1705.600 1504.7,1676.94 1503.82,1673.479 L1508.815,1671.848 C1509.479,1674.911 1523.936,1718.798 1524.636,1720.312 L1524.527,1720.393 C1520.281,1718.209 1495.22,1705.628 1491.357,1704.114 C1491.716,1708.590 1495.153,1736.947 1495.372,1739.409 L1495.262,1739.490 C1490.28,1736.432 1460.519,1717.98 1453.916,1713.108 L1457.112,1707.603 C1461.516,1710.685 1486.850,1727.359 1489.223,1728.731 C1488.919,1724.215 1485.898,1699.953 1485.502,1694.742 ZM1442.670,1748.240 C1447.492,1748.688 1461.814,1749.560 1470.612,1750.274 L1470.870,1750.674 C1464.718,1757.317 1452.884,1769.327 1446.26,1776.507 L1442.198,1772.583 C1447.977,1766.991 1454.485,1760.524 1460.301,1754.989 L1460.153,1754.760 C1451.466,1754.217 1442.816,1753.731 1435.485,1753.283 L1435.301,1752.998 C1437.376,1746.559 1441.142,1735.467 1443.947,1728.153 L1443.763,1727.867 C1436.476,1730.872 1422.217,1737.244 1418.494,1739.0 L1416.343,1733.913 C1425.129,1730.346 1443.708,1722.641 1452.16,1719.463 L1452.274,1719.863 C1449.182,1728.739 1444.248,1742.284 1442.486,1747.955 L1442.670,1748.240 ZM1430.508,1778.14 L1428.465,1784.435 C1425.714,1783.189 1413.58,1778.57 1405.776,1775.332 C1405.54,1778.723 1401.649,1797.131 1401.213,1800.201 L1394.903,1798.487 C1395.852,1795.357 1400.590,1776.265 1400.832,1773.541 C1397.946,1772.607 1378.102,1765.872 1374.456,1764.433 L1376.406,1757.988 C1378.845,1759.98 1399.922,1767.165 1402.344,1767.972 C1402.545,1766.682 1406.450,1742.32 1406.609,1740.531 L1412.675,1742.229 C1412.36,1744.397 1407.833,1766.474 1407.255,1769.705 C1411.169,1771.67 1426.593,1776.652 1430.508,1778.14 ZM1369.684,154.559 C1356.625,147.547 1354.150,134.333 1359.811,123.790 C1366.951,110.490 1382.146,104.757 1396.584,112.509 C1407.906,118.589 1412.452,130.677 1405.504,143.616 C1400.486,152.962 1386.697,163.694 1369.684,154.559 ZM1393.365,116.492 C1382.642,110.734 1371.544,115.735 1366.44,125.979 C1361.251,134.905 1363.198,145.366 1372.603,150.416 C1381.589,155.240 1393.196,152.597 1399.532,140.796 C1405.290,130.72 1401.213,120.706 1393.365,116.492 ZM1355.1,1770.379 L1360.706,1767.494 C1361.904,1770.165 1369.117,1784.882 1371.295,1789.191 L1374.671,1795.866 C1375.377,1797.262 1381.604,1809.125 1382.64,1810.35 C1379.515,1811.323 1374.326,1813.719 1370.256,1815.15 C1361.450,1817.791 1354.388,1816.485 1351.136,1810.53 C1346.932,1801.739 1351.172,1791.137 1361.536,1783.0 L1359.725,1779.420 C1359.112,1778.207 1355.767,1771.592 1355.1,1770.379 ZM1356.562,1806.166 C1357.482,1807.987 1361.981,1814.322 1374.332,1808.306 L1363.684,1787.249 C1356.866,1792.753 1353.186,1799.491 1356.562,1806.166 ZM1332.608,128.939 L1332.563,129.366 C1335.500,130.627 1341.100,133.97 1345.45,134.442 L1342.957,139.693 C1340.971,138.641 1322.292,129.777 1321.82,129.153 L1321.437,128.44 C1328.162,127.217 1339.457,121.594 1344.15,111.566 C1348.882,100.856 1344.656,91.914 1336.732,88.312 C1326.84,83.473 1316.388,89.523 1311.970,99.242 C1307.975,108.32 1309.686,118.72 1312.404,124.88 L1311.797,124.932 C1310.530,124.431 1293.731,117.20 1290.974,115.692 L1293.501,110.790 C1296.731,112.557 1302.618,115.382 1304.998,116.390 L1305.347,115.951 C1303.811,112.265 1302.645,103.817 1305.937,96.574 C1311.340,84.689 1325.71,77.485 1339.371,83.985 C1350.762,89.162 1355.866,101.267 1350.267,113.586 C1346.328,122.253 1338.877,127.307 1332.608,128.939 ZM1262.607,105.934 C1248.736,100.705 1244.540,87.932 1248.761,76.733 C1254.86,62.607 1268.394,54.920 1283.729,60.701 C1295.754,65.234 1301.855,76.618 1296.674,90.362 C1292.932,100.288 1280.677,112.746 1262.607,105.934 ZM1281.62,65.73 C1269.673,60.780 1259.331,67.201 1255.229,78.81 C1251.656,87.562 1254.965,97.675 1264.955,101.441 C1274.499,105.39 1285.656,100.888 1290.382,88.353 C1294.676,76.964 1289.398,68.216 1281.62,65.73 ZM1203.417,1813.384 L1208.227,1811.907 L1228.186,1876.910 L1223.375,1878.387 L1203.417,1813.384 ZM1099.493,77.913 L1111.319,10.942 L1116.274,11.817 L1104.449,78.788 L1099.493,77.913 ZM1068.713,1907.270 C1068.898,1908.207 1069.217,1910.222 1069.545,1912.306 L1063.337,1913.78 C1063.128,1910.843 1063.36,1909.4 1062.935,1908.195 C1052.410,1908.956 1040.168,1902.530 1038.531,1889.373 C1036.937,1876.552 1044.230,1866.327 1057.329,1863.122 C1057.187,1861.975 1056.809,1859.486 1056.473,1857.336 L1062.680,1856.563 C1062.898,1858.866 1062.973,1860.570 1063.183,1862.257 C1074.687,1861.648 1085.984,1868.191 1087.528,1880.606 C1089.332,1895.113 1079.493,1904.696 1068.713,1907.270 ZM1060.628,1889.91 L1059.721,1881.804 C1059.403,1879.239 1058.412,1871.278 1057.917,1867.845 C1050.587,1870.58 1043.271,1875.696 1044.824,1888.179 C1046.284,1899.919 1055.19,1903.492 1062.399,1903.328 C1062.30,1899.811 1061.31,1892.330 1060.628,1889.91 ZM1081.227,1881.732 C1079.918,1871.207 1071.672,1867.162 1063.779,1867.47 C1064.231,1871.787 1065.364,1880.348 1065.474,1881.225 L1066.380,1888.512 C1066.548,1889.862 1067.445,1897.630 1068.125,1902.547 C1076.97,1899.980 1082.612,1892.866 1081.227,1881.732 ZM1009.552,1916.60 C1002.975,1906.797 984.970,1877.196 979.912,1870.427 L985.442,1866.264 C986.962,1868.758 995.29,1882.220 995.843,1883.260 L1019.335,1880.832 C1020.69,1879.491 1024.812,1866.43 1025.822,1863.663 L1031.608,1866.843 C1028.284,1873.593 1011.155,1913.370 1009.688,1916.51 L1009.552,1916.60 ZM998.152,1887.476 C998.992,1888.922 1008.332,1904.212 1009.79,1905.256 C1010.3,1903.698 1016.766,1886.581 1017.308,1885.456 L998.152,1887.476 ZM958.547,1916.945 C956.509,1912.627 944.139,1887.260 942.155,1883.827 C939.712,1887.596 925.163,1912.182 923.837,1914.268 L923.701,1914.266 C921.412,1908.652 909.784,1875.340 906.977,1868.153 L912.866,1865.733 C914.482,1870.860 924.418,1899.520 925.465,1902.53 C927.975,1898.286 940.359,1877.201 943.219,1872.827 L943.355,1872.829 C947.178,1880.237 955.339,1896.897 957.957,1903.129 C959.386,1898.936 969.257,1869.309 970.116,1866.670 L975.657,1868.870 C974.318,1871.704 959.50,1915.321 958.683,1916.948 L958.547,1916.945 ZM973.128,27.773 C972.974,34.571 972.902,46.743 972.935,48.308 L966.341,48.159 C966.545,45.171 966.973,29.266 967.13,27.498 L967.180,20.156 C967.206,19.1 967.383,2.206 967.284,0.571 L974.81,0.725 C973.918,1.946 973.479,12.274 973.295,20.431 L973.128,27.773 ZM931.219,33.957 L931.284,37.968 C931.307,39.328 931.428,46.740 931.588,48.165 L925.196,48.270 C925.284,45.344 925.220,28.954 925.141,24.127 L925.18,16.648 C924.993,15.84 924.569,1.692 924.552,0.673 C927.408,0.626 933.123,0.736 937.350,1.347 C946.485,2.694 952.268,6.952 952.386,14.159 C952.539,23.474 944.95,31.162 931.219,33.957 ZM930.754,5.604 L931.141,29.197 C939.678,27.221 945.930,22.766 945.807,15.287 C945.774,13.247 944.492,5.583 930.754,5.604 ZM886.974,51.215 C872.185,52.230 863.56,42.359 862.236,30.419 C861.203,15.359 871.17,2.417 887.366,1.295 C900.188,0.416 910.471,8.230 911.476,22.884 C912.202,33.467 906.240,49.893 886.974,51.215 ZM904.919,23.674 C904.86,11.531 895.648,5.771 886.761,6.380 C874.617,7.213 867.884,17.354 868.679,28.955 C869.373,39.63 876.589,46.884 887.240,46.153 C897.416,45.455 905.836,37.39 904.919,23.674 ZM897.624,1872.727 C886.949,1871.426 873.343,1870.103 860.551,1869.729 L860.797,1863.883 C869.819,1864.511 889.459,1866.300 898.131,1867.38 L897.624,1872.727 ZM862.956,1885.396 C867.686,1885.965 884.264,1886.768 892.890,1887.229 L892.664,1892.804 C885.290,1892.30 868.696,1891.431 862.782,1891.179 L862.956,1885.396 ZM892.971,1913.560 C885.248,1912.896 868.669,1912.93 858.537,1911.720 L858.710,1905.937 C867.659,1906.628 884.227,1907.566 893.202,1907.917 L892.971,1913.560 ZM855.261,49.49 L854.996,54.566 C845.531,53.974 825.446,52.867 816.581,52.131 L816.521,51.659 C823.155,44.999 833.472,34.928 837.518,30.581 L837.475,30.244 C833.323,27.750 820.792,20.758 813.172,16.301 L813.113,15.829 C821.537,12.508 837.408,6.811 846.701,3.312 L848.450,8.507 C840.818,11.43 832.149,14.52 824.509,16.521 L824.543,16.791 C832.138,21.45 839.724,25.232 846.137,28.812 L846.179,29.149 C841.518,34.53 833.317,42.418 827.619,47.796 L827.661,48.133 C835.531,48.583 851.145,49.19 855.261,49.49 ZM783.335,43.276 L781.779,34.298 C781.593,33.226 778.661,17.102 778.373,15.841 C779.981,15.562 797.295,11.526 799.392,10.887 L800.578,16.133 C798.434,16.505 786.431,18.930 785.359,19.116 L788.309,36.134 C789.515,35.925 798.33,34.104 801.246,33.133 L802.365,38.391 C800.891,38.647 790.392,40.190 789.52,40.422 L791.885,56.771 C793.493,56.492 802.506,55.137 807.931,53.783 L809.197,59.498 C808.125,59.684 787.842,62.509 786.502,62.742 C786.87,59.156 783.602,44.817 783.335,43.276 ZM747.265,35.606 C745.774,39.880 739.38,63.383 737.359,68.331 L737.227,68.363 C731.678,62.143 719.624,48.44 715.535,42.663 C715.196,47.79 713.23,78.228 712.848,80.997 L706.935,80.249 C707.525,77.170 711.438,31.129 711.388,29.463 L711.520,29.431 C714.569,33.105 732.871,54.584 735.648,57.414 C737.73,53.156 745.33,25.723 745.797,23.372 L745.930,23.340 C749.545,28.206 769.108,57.564 773.617,63.824 L768.518,67.635 C765.675,63.73 748.910,37.799 747.265,35.606 ZM723.491,1861.564 C719.392,1876.93 705.794,1884.974 690.22,1880.524 C677.653,1877.35 670.602,1866.214 674.590,1852.78 C677.470,1841.868 688.616,1828.409 707.202,1833.652 C721.469,1837.677 726.741,1850.45 723.491,1861.564 ZM681.31,1853.541 C677.726,1865.256 683.731,1873.521 692.305,1875.940 C704.19,1879.245 713.774,1871.964 716.932,1860.773 C719.683,1851.21 715.521,1841.228 705.247,1838.329 C695.430,1835.560 684.668,1840.649 681.31,1853.541 ZM564.427,1837.174 L592.30,1775.24 L596.629,1777.67 L569.26,1839.216 L564.427,1837.174 ZM553.841,83.643 L558.414,81.544 L586.780,143.342 L582.207,145.441 L553.841,83.643 ZM451.762,1772.442 C451.313,1773.284 450.284,1775.47 449.219,1776.867 L443.924,1773.536 C445.176,1771.673 446.269,1770.191 446.704,1769.501 C438.72,1763.428 432.660,1750.704 439.721,1739.481 C446.601,1728.545 458.720,1725.244 470.891,1731.53 C471.507,1730.75 472.789,1727.909 473.890,1726.31 L479.185,1729.362 C477.897,1731.283 476.876,1732.649 475.971,1734.88 C485.264,1740.898 489.869,1753.115 483.207,1763.705 C475.422,1776.80 461.738,1777.272 451.762,1772.442 ZM445.349,1742.539 C439.48,1752.554 443.550,1760.849 449.368,1765.393 C451.309,1762.436 455.270,1756.11 457.8,1753.249 L460.919,1747.32 C462.295,1744.845 466.567,1738.54 468.357,1735.82 C461.280,1732.156 452.47,1731.891 445.349,1742.539 ZM473.400,1738.175 C470.750,1742.131 466.209,1749.477 465.739,1750.225 L461.828,1756.441 C461.104,1757.593 456.882,1764.175 454.297,1768.413 C462.94,1771.471 471.641,1770.86 477.616,1760.589 C483.264,1751.611 479.440,1743.260 473.400,1738.175 ZM442.805,180.494 L438.752,174.371 C438.115,173.407 428.677,159.514 427.663,158.228 L433.333,154.476 C433.895,155.572 439.428,164.303 443.931,171.107 L447.983,177.231 C451.735,182.901 458.622,192.938 459.541,194.205 L454.41,197.844 C452.504,195.274 443.780,181.969 442.805,180.494 ZM422.252,221.406 C410.277,230.144 397.292,226.655 390.237,216.987 C381.339,204.792 382.748,188.612 395.986,178.951 C406.368,171.375 419.234,172.509 427.892,184.375 C434.146,192.944 437.853,210.22 422.252,221.406 ZM422.764,188.537 C415.589,178.705 405.379,178.326 398.183,183.577 C388.351,190.752 388.55,202.922 394.910,212.315 C400.882,220.500 411.156,223.273 419.780,216.980 C428.20,210.967 430.661,199.359 422.764,188.537 ZM398.804,205.770 C403.19,202.778 413.524,194.102 416.250,191.608 L419.546,195.432 C414.393,199.445 405.540,206.579 401.935,209.714 L398.804,205.770 ZM387.393,246.859 C385.626,244.440 375.721,231.986 374.615,230.607 L370.19,224.879 C369.295,223.977 358.624,211.4 357.497,209.816 L362.801,205.561 C363.461,206.601 369.770,214.790 374.877,221.155 L379.473,226.883 C383.729,232.187 391.506,241.554 392.538,242.731 L387.393,246.859 ZM359.8,245.204 C359.593,245.866 371.0,258.472 372.8,259.306 L367.13,263.717 C365.585,261.894 355.373,250.229 354.517,249.261 L346.685,240.393 C344.749,238.202 339.837,232.743 338.835,231.813 C335.822,234.565 323.318,245.881 319.993,248.999 C320.611,249.905 326.130,256.461 328.381,259.9 L335.628,267.215 C338.329,270.272 346.764,279.515 347.851,280.642 L342.958,284.963 C341.79,282.631 330.597,270.660 329.427,269.335 L324.565,263.831 C323.800,262.965 317.267,255.671 315.281,253.524 C313.485,255.292 311.836,257.20 310.811,258.16 L307.165,253.888 C311.803,249.792 323.15,239.889 325.365,237.722 C327.461,235.781 339.461,224.819 344.854,219.421 L348.635,223.702 C347.673,224.461 345.748,225.979 343.670,227.633 C344.463,228.838 353.426,238.884 354.507,240.107 L359.8,245.204 ZM309.710,279.866 L313.623,283.552 C312.557,284.601 304.806,291.848 303.837,292.802 L315.476,304.627 C316.639,303.482 323.276,297.236 326.963,293.34 L331.259,297.10 C330.484,297.774 315.420,311.646 314.451,312.600 C312.68,309.889 301.860,299.518 300.763,298.403 L294.372,291.909 C293.609,291.134 282.16,279.550 281.61,278.677 C282.224,277.532 294.158,264.356 295.518,262.636 L299.480,266.273 C297.929,267.800 289.444,276.628 288.669,277.391 L300.784,289.700 C301.657,288.842 307.621,282.494 309.710,279.866 ZM257.547,1563.465 C250.818,1569.198 248.74,1576.985 247.191,1583.812 C246.625,1587.867 246.737,1592.506 247.928,1596.315 L242.83,1597.633 C240.968,1592.865 240.905,1587.24 241.259,1584.399 C241.981,1579.585 243.329,1572.989 246.654,1568.190 L246.566,1568.86 C240.991,1570.245 236.314,1570.836 230.775,1570.731 C226.299,1570.615 219.349,1568.854 215.580,1566.526 L218.294,1561.534 C222.100,1564.9 227.612,1565.655 233.445,1565.687 C240.481,1565.767 248.92,1563.481 253.578,1558.807 L258.443,1554.662 C259.168,1554.44 263.642,1549.964 264.589,1548.979 L268.999,1554.155 C267.764,1555.117 262.102,1559.584 261.429,1560.158 L257.547,1563.465 ZM231.848,1545.459 C220.208,1554.304 206.980,1550.606 199.341,1542.577 C198.625,1543.207 197.41,1544.495 195.404,1545.824 L191.620,1540.844 C193.447,1539.540 194.991,1538.538 195.641,1538.44 C189.698,1529.324 189.108,1515.510 199.665,1507.489 C209.951,1499.673 222.456,1500.845 231.805,1510.564 C232.726,1509.865 234.688,1508.289 236.379,1506.918 L240.164,1511.899 C238.282,1513.243 236.846,1514.164 235.493,1515.192 C241.795,1524.835 241.809,1537.890 231.848,1545.459 ZM203.856,1512.331 C194.437,1519.489 195.733,1528.837 199.580,1535.136 C202.436,1533.51 208.405,1528.431 211.3,1526.456 L216.850,1522.13 C218.907,1520.450 225.296,1515.596 228.16,1513.444 C222.421,1508.216 213.872,1504.720 203.856,1512.331 ZM231.649,1518.113 C227.777,1520.884 220.942,1526.163 220.239,1526.697 L214.392,1531.140 C213.309,1531.963 207.42,1536.640 203.131,1539.697 C209.354,1545.302 218.777,1547.364 227.710,1540.576 C236.156,1534.159 235.513,1524.997 231.649,1518.113 ZM177.585,395.859 L180.522,391.773 L235.744,431.461 L232.807,435.547 L177.585,395.859 ZM191.973,1487.579 C197.568,1483.714 207.468,1476.628 208.716,1475.683 L212.465,1481.111 C209.926,1482.699 196.794,1491.688 195.339,1492.693 L189.296,1496.867 C188.345,1497.524 174.640,1507.239 173.375,1508.278 L169.510,1502.683 C170.594,1502.99 179.215,1496.392 185.929,1491.754 L191.973,1487.579 ZM104.533,1400.370 L164.927,1369.120 L167.239,1373.589 L106.845,1404.839 L104.533,1400.370 ZM129.917,532.604 L123.384,529.251 C122.356,528.723 107.323,521.235 105.809,520.610 L108.914,514.562 C109.941,515.242 119.41,520.143 126.300,523.869 L132.832,527.223 C138.881,530.328 149.801,535.705 151.223,536.359 L148.211,542.226 C145.612,540.738 131.489,533.412 129.917,532.604 ZM140.509,560.447 C138.79,561.361 91.728,578.129 89.674,578.542 L89.618,578.666 C91.786,579.649 121.847,593.873 123.919,594.738 L120.847,600.363 C116.342,597.948 82.292,580.497 76.53,577.295 L76.109,577.172 C78.877,576.336 123.620,560.481 126.500,559.398 C124.766,558.612 95.763,545.16 93.747,544.28 L96.668,538.408 C100.272,540.341 125.70,553.0 140.565,560.323 L140.509,560.447 ZM75.421,606.863 C73.379,602.877 71.597,595.932 71.835,591.508 L77.518,591.500 C77.168,596.27 78.363,601.654 81.128,606.792 C84.428,613.7 90.80,618.595 96.812,621.173 L102.781,623.459 C103.671,623.800 109.396,625.774 110.715,626.133 L108.282,632.484 C106.846,631.861 100.211,629.29 99.386,628.713 L94.623,626.889 C86.367,623.727 78.215,625.47 71.798,627.541 C67.967,628.987 63.947,631.307 61.173,634.177 L57.217,629.676 C60.869,626.414 65.968,623.560 68.442,622.614 C73.14,620.943 79.451,618.966 85.258,619.588 L85.306,619.461 C80.740,615.600 77.981,611.776 75.421,606.863 ZM101.840,653.33 C98.962,653.521 83.473,656.36 82.206,656.408 L75.772,679.128 C76.746,680.305 87.484,689.686 89.321,691.503 L84.227,695.703 C79.186,690.118 48.572,659.495 46.624,657.140 L46.667,657.11 C57.704,654.328 91.860,648.550 100.19,646.356 L101.840,653.33 ZM56.878,660.567 C57.983,662.2 71.383,674.615 72.226,675.535 L77.436,656.993 C75.781,657.239 58.124,660.260 56.878,660.567 ZM84.891,707.13 C82.654,708.331 39.873,732.817 37.921,733.577 L37.887,733.709 C40.191,734.304 72.252,743.150 74.442,743.646 L72.381,749.716 C67.528,748.111 30.985,736.771 24.288,734.690 L24.322,734.558 C26.905,733.259 68.258,709.950 70.910,708.387 C69.66,707.911 38.157,699.502 36.1,698.875 L37.912,692.837 C41.795,694.121 68.401,702.330 84.925,706.881 L84.891,707.13 ZM68.139,895.281 L0.313,890.444 L0.671,885.425 L68.497,890.262 L68.139,895.281 ZM37.597,989.84 C35.696,989.180 3.686,990.382 1.442,990.427 L1.463,984.94 C5.552,984.160 33.395,984.53 50.524,983.463 L50.531,983.599 C48.789,985.525 15.270,1021.665 13.633,1022.973 L13.640,1023.109 C16.17,1022.989 49.256,1021.861 51.494,1021.680 L51.340,1028.88 C46.229,1028.5 7.967,1028.92 0.955,1028.105 L0.948,1027.969 C3.26,1025.958 35.533,991.367 37.597,989.84 ZM26.731,1040.980 C37.269,1039.771 53.950,1044.975 56.151,1064.159 C57.841,1078.885 48.399,1088.455 36.510,1089.820 C21.514,1091.540 8.138,1082.330 6.270,1066.51 C4.805,1053.283 12.140,1042.655 26.731,1040.980 ZM11.377,1066.423 C12.765,1078.514 23.202,1084.776 34.753,1083.451 C44.818,1082.296 52.300,1074.730 51.83,1064.125 C49.920,1053.992 41.129,1045.967 27.821,1047.494 C15.729,1048.882 10.362,1057.573 11.377,1066.423 ZM16.520,1104.46 C19.140,1106.3 35.484,1116.951 37.964,1118.105 C39.823,1115.709 52.906,1099.337 55.499,1096.398 L60.898,1100.424 C59.24,1102.340 44.269,1119.419 42.687,1121.421 C43.832,1122.50 65.685,1134.105 67.43,1134.765 L63.384,1139.892 C61.562,1138.554 42.229,1127.93 39.387,1125.450 C36.775,1128.669 26.277,1141.275 23.665,1144.494 L18.321,1140.389 C20.428,1138.225 29.559,1128.67 34.598,1122.146 C31.654,1120.314 15.501,1110.851 12.761,1109.398 L16.520,1104.46 ZM64.896,1144.487 L69.925,1149.241 C67.721,1151.157 55.802,1161.364 54.914,1162.341 L61.241,1185.92 C62.686,1185.591 76.737,1188.14 79.252,1188.611 L77.86,1194.848 C69.876,1192.701 27.796,1182.478 24.907,1181.481 L24.876,1181.349 C32.906,1173.313 59.70,1150.606 64.896,1144.487 ZM35.447,1179.72 C37.137,1179.723 55.144,1183.522 56.343,1183.869 L51.144,1165.323 C49.859,1166.393 36.351,1178.162 35.447,1179.72 ZM83.541,1204.154 C82.317,1206.443 58.516,1249.605 57.244,1251.269 L57.284,1251.399 C59.561,1250.709 91.543,1241.590 93.670,1240.874 L95.68,1247.129 C90.89,1248.283 52.982,1257.605 46.180,1259.310 L46.141,1259.180 C47.671,1256.727 70.864,1215.312 72.316,1212.599 C70.494,1213.151 39.723,1222.46 37.556,1222.632 L36.48,1216.481 C40.32,1215.558 67.23,1208.731 83.502,1204.24 L83.541,1204.154 ZM301.909,1588.895 C312.137,1599.626 310.375,1612.956 301.711,1621.214 C290.784,1631.630 274.557,1632.348 263.249,1620.485 C254.381,1611.181 253.824,1598.277 264.457,1588.142 C272.136,1580.822 288.583,1574.915 301.909,1588.895 ZM267.548,1617.702 C275.947,1626.513 288.51,1625.216 296.469,1617.192 C303.803,1610.201 305.210,1599.653 297.844,1591.924 C290.806,1584.541 278.951,1583.439 269.254,1592.682 C260.443,1601.81 261.401,1611.253 267.548,1617.702 ZM328.217,1615.44 C326.50,1619.963 314.612,1648.51 313.727,1650.645 C318.98,1649.470 341.310,1641.795 346.344,1640.395 L346.445,1640.487 C344.432,1648.575 339.574,1666.476 337.431,1672.885 C341.270,1670.677 368.229,1654.926 370.615,1653.511 L373.328,1658.818 C370.453,1660.65 330.210,1682.767 328.862,1683.747 L328.761,1683.655 C330.78,1679.67 337.515,1651.847 338.289,1647.959 C333.968,1649.180 306.819,1658.56 304.446,1658.749 L304.346,1658.658 C306.329,1652.930 319.565,1620.230 322.196,1612.978 L328.217,1615.44 ZM385.815,1686.87 L388.322,1682.954 C389.171,1681.892 393.802,1676.104 394.588,1674.904 L399.579,1678.897 C397.646,1681.96 387.249,1693.765 384.233,1697.536 L379.560,1703.376 C378.583,1704.598 370.374,1715.186 369.737,1715.983 C367.506,1714.198 363.173,1710.471 360.306,1707.306 C354.125,1700.445 352.383,1693.479 356.886,1687.850 C362.706,1680.575 374.112,1680.34 385.815,1686.87 ZM368.101,1708.230 L382.842,1689.804 C375.4,1685.885 367.347,1685.333 362.674,1691.174 C361.400,1692.767 357.502,1699.490 368.101,1708.230 ZM413.220,1688.2 C412.819,1690.894 410.553,1706.421 410.526,1707.741 L430.254,1720.718 C431.670,1720.144 443.848,1712.730 446.135,1711.525 L448.605,1717.647 C441.762,1720.772 403.341,1740.743 400.509,1741.891 L400.399,1741.812 C401.164,1730.479 405.941,1696.169 406.305,1687.728 L413.220,1688.2 ZM425.760,1723.18 L409.648,1712.466 C409.384,1714.118 406.947,1731.865 406.865,1733.146 C408.566,1732.525 424.628,1723.545 425.760,1723.18 ZM748.970,1850.652 L748.922,1850.224 C745.781,1849.630 739.779,1848.430 735.636,1847.971 L736.538,1842.393 C738.705,1842.990 758.860,1847.600 760.176,1847.947 L760.70,1849.107 C753.684,1851.370 743.874,1859.304 741.595,1870.82 C739.161,1881.591 745.223,1889.406 753.739,1891.207 C765.182,1893.627 773.338,1885.622 775.547,1875.177 C777.545,1865.729 773.701,1856.298 769.745,1851.13 L770.155,1850.58 C771.500,1850.273 789.505,1853.872 792.485,1854.571 L791.79,1859.904 C787.543,1858.878 781.184,1857.394 778.642,1856.926 L778.396,1857.430 C780.694,1860.696 783.660,1868.691 782.14,1876.475 C779.313,1889.248 767.467,1899.254 752.99,1896.4 C739.858,1893.415 732.254,1882.702 735.53,1869.463 C737.23,1860.149 743.203,1853.602 748.970,1850.652 ZM803.77,1854.912 C804.640,1856.986 833.802,1896.720 834.778,1898.574 L834.912,1898.593 C835.244,1896.236 840.408,1863.384 840.653,1861.153 L846.917,1862.513 C845.870,1867.516 838.736,1905.104 837.425,1911.993 L837.290,1911.974 C835.707,1909.554 807.875,1871.105 806.23,1868.647 C805.758,1870.532 800.898,1902.191 800.518,1904.404 L794.303,1903.188 C795.140,1899.185 800.289,1871.824 802.942,1854.893 L803.77,1854.912 ZM1654.876,1555.541 L1660.514,1560.247 C1661.402,1560.988 1674.426,1571.595 1675.766,1572.537 L1671.408,1577.757 C1670.555,1576.868 1662.752,1570.88 1656.488,1564.858 L1650.850,1560.152 C1645.630,1555.794 1636.155,1548.150 1634.911,1547.199 L1639.138,1542.136 C1641.348,1544.158 1653.519,1554.408 1654.876,1555.541 ZM1672.126,1523.554 L1668.955,1521.97 C1667.879,1520.264 1662.20,1515.725 1660.808,1514.958 L1664.722,1509.905 C1666.950,1511.803 1679.781,1522.0 1683.598,1524.957 L1689.511,1529.537 C1690.747,1530.495 1701.462,1538.537 1702.269,1539.162 C1700.520,1541.419 1696.861,1545.810 1693.741,1548.726 C1686.979,1555.14 1680.40,1556.864 1674.342,1552.450 C1666.978,1546.745 1666.257,1535.350 1672.126,1523.554 ZM1677.575,1546.611 C1679.188,1547.861 1685.970,1551.652 1694.543,1540.918 L1675.889,1526.469 C1672.94,1534.366 1671.662,1542.31 1677.575,1546.611 ZM1706.164,1511.873 C1704.469,1505.44 1700.341,1498.254 1694.435,1494.121 L1689.199,1490.457 C1688.419,1489.911 1683.343,1486.608 1682.151,1485.940 L1686.50,1480.369 C1687.292,1481.321 1693.42,1485.677 1693.766,1486.184 L1697.944,1489.107 C1705.187,1494.176 1713.414,1494.871 1720.243,1494.7 C1724.310,1493.533 1728.771,1492.256 1732.158,1490.145 L1734.905,1495.470 C1730.572,1497.749 1724.934,1499.281 1722.305,1499.599 C1717.465,1500.112 1710.741,1500.470 1705.259,1498.459 L1705.181,1498.571 C1708.675,1503.422 1710.424,1507.800 1711.718,1513.187 C1712.732,1517.548 1712.777,1524.718 1711.474,1528.951 L1705.959,1527.582 C1707.396,1523.276 1707.601,1517.527 1706.164,1511.873 ZM1744.253,1469.553 L1734.746,1463.596 C1723.50,1456.268 1708.976,1448.251 1707.752,1447.645 L1711.651,1441.422 C1712.968,1442.649 1729.756,1453.248 1738.917,1458.989 L1747.502,1464.368 C1751.654,1457.742 1756.493,1449.380 1757.201,1447.737 L1762.98,1450.806 C1760.193,1452.822 1751.406,1466.333 1751.10,1466.967 L1747.869,1471.979 C1747.183,1473.74 1739.543,1485.779 1738.415,1488.603 L1733.518,1485.534 C1734.254,1484.872 1741.221,1474.393 1744.253,1469.553 ZM1752.900,1327.968 L1814.820,1356.74 L1812.740,1360.656 L1750.820,1332.550 L1752.900,1327.968 ZM1861.40,1186.624 C1854.313,1192.147 1847.653,1197.687 1841.985,1202.355 L1841.655,1202.272 C1838.786,1196.146 1833.982,1185.464 1831.49,1178.201 L1830.719,1178.118 C1827.436,1185.282 1821.346,1199.663 1819.819,1203.484 L1814.779,1201.229 C1818.775,1192.631 1827.118,1174.332 1831.31,1166.344 L1831.492,1166.461 C1835.279,1175.62 1840.900,1188.335 1843.475,1193.685 L1843.805,1193.768 C1847.638,1190.810 1858.711,1181.687 1865.635,1176.214 L1866.96,1176.330 C1866.122,1185.384 1865.649,1202.235 1865.524,1212.162 L1860.50,1211.901 C1860.467,1203.871 1860.821,1194.703 1861.303,1186.690 L1861.40,1186.624 ZM1831.566,1160.115 L1827.775,1154.783 C1828.842,1154.303 1853.513,1138.352 1857.285,1136.123 C1858.126,1137.469 1873.129,1160.287 1874.557,1162.166 L1869.385,1165.157 C1867.490,1162.145 1859.93,1147.922 1856.264,1143.684 C1853.318,1145.246 1834.538,1158.73 1831.566,1160.115 ZM1853.511,1134.885 C1848.376,1133.862 1833.400,1131.84 1832.107,1130.965 L1833.436,1124.297 C1835.343,1124.816 1846.572,1127.262 1854.174,1128.777 L1861.242,1130.186 C1867.43,1131.342 1879.912,1133.561 1881.446,1133.866 L1880.117,1140.534 C1879.63,1140.255 1866.514,1137.477 1860.712,1136.320 L1853.511,1134.885 ZM1856.614,1107.280 C1855.738,1107.160 1838.877,1104.995 1837.579,1104.955 L1838.499,1098.218 C1840.762,1098.733 1852.726,1100.573 1854.6,1100.748 L1861.12,1101.704 L1863.836,1071.484 L1859.524,1070.895 C1856.493,1070.481 1844.69,1068.990 1842.511,1068.846 L1843.403,1062.311 C1846.349,1062.851 1862.104,1065.71 1863.855,1065.310 L1871.131,1066.304 C1872.276,1066.460 1888.944,1068.531 1890.579,1068.617 L1889.659,1075.354 C1888.465,1075.53 1874.749,1072.974 1873.537,1072.809 L1868.282,1072.91 L1865.458,1102.312 L1870.848,1103.48 C1871.993,1103.204 1884.137,1104.726 1885.638,1104.793 L1884.699,1111.665 C1883.110,1111.242 1864.967,1108.421 1863.350,1108.200 L1856.614,1107.280 Z"/>
</svg>